<?xml version="1.0" encoding="utf-8"?>
<!-- Generator: Adobe Illustrator 16.0.0, SVG Export Plug-In . SVG Version: 6.00 Build 0)  -->
<!DOCTYPE svg PUBLIC "-//W3C//DTD SVG 1.1//EN" "http://www.w3.org/Graphics/SVG/1.1/DTD/svg11.dtd">
<svg version="1.1" xmlns="http://www.w3.org/2000/svg" xmlns:xlink="http://www.w3.org/1999/xlink" x="0px" y="0px" width="1000px"
	 height="1000px" viewBox="0 0 1000 1000" enable-background="new 0 0 1000 1000" xml:space="preserve">
<g id="Calque_3">
</g>
<g id="Calque_2">
	<g>
		<defs>
			<path id="SVGID_3_" d="M1009.354,1007.341c0,15.251-5.802,27.608-12.953,27.608H4.786c-7.153,0-12.953-12.357-12.953-27.608
				V-11.124c0-15.251,5.8-27.612,12.953-27.612h991.615c7.151,0,12.953,12.361,12.953,27.612V1007.341z"/>
		</defs>
		<clipPath id="SVGID_2_">
			<use xlink:href="#SVGID_3_"  overflow="visible"/>
		</clipPath>
		<g clip-path="url(#SVGID_2_)">
			<path opacity="0.6" fill="#A6C15A" d="M1342.84,712.549c0,0-477.167-40.821-669.273-129.072c0,0-425.651-96.09-535.501-2.621
				c0,0-207.955,91.048-362.37,88.005l-38.602,283.365l1627.229-14.261L1342.84,712.549z M435.96,645.066
				c-4.246-12.744-20.451-17.515-24.292-31.148c-2.329-2.709-4.173-5.792-5.116-9.57c0.943,3.778,2.787,6.861,5.116,9.57
				c-0.251-0.889-0.451-1.813-0.593-2.785c0.142,0.972,0.342,1.896,0.593,2.785c8.823,10.254,24.767,15.044,26.553,31.148
				c-1.786-16.104-17.729-20.895-26.553-31.148C415.509,627.552,431.714,632.322,435.96,645.066z"/>
			<path opacity="0.6" fill="#D2E081" d="M1325.095,748.87c0,0-467.879-40.819-656.249-129.072c0,0-417.37-96.091-525.083-2.623
				c0,0-203.908,91.047-355.315,88.006l-37.856,283.365l1595.571-14.262L1325.095,748.87z M435.96,645.066
				c-4.246-12.744-20.451-17.515-24.292-31.148c-2.329-2.709-4.173-5.792-5.116-9.57c0.943,3.778,2.787,6.861,5.116,9.57
				c-0.251-0.889-0.451-1.813-0.593-2.785c0.142,0.972,0.342,1.896,0.593,2.785c8.823,10.254,24.767,15.044,26.553,31.148
				c-1.786-16.104-17.729-20.895-26.553-31.148C415.509,627.552,431.714,632.322,435.96,645.066z"/>
			<path opacity="0.6" fill="#062821" d="M-14.675,1070.365l1911.059-25.234l-24.562-207.142c0,0-545.537-37.509-765.177-118.609
				c0,0-486.636-88.298-612.229-2.406c0,0-332.549,122.424-509.09,119.627V1070.365z"/>
			<path opacity="0.6" fill="#60BA99" d="M1296.05,1079.348L9.5,1065.649l16.989-216.525c0,0,377.265-39.21,529.149-123.982
				c0,0,336.537-92.301,423.389-2.519c0,0,164.414,87.457,286.5,84.538L1296.05,1079.348z"/>
			<path opacity="0.6" fill="#1B877F" d="M1286.971,1106.59L0.419,1092.89l16.988-216.526c0,0,377.266-39.21,529.151-123.981
				c0,0,336.536-92.296,423.39-2.517c0,0,164.413,87.456,286.499,84.535L1286.971,1106.59z"/>
			<path opacity="0.6" fill="#60BA99" d="M-246.48,1133.828l1251.961-13.696l3.226-180.975c0,0-386.876-74.759-534.681-159.537
				c0,0-327.487-92.298-412.005-2.514c0,0-159.997,87.456-278.801,84.532L-246.48,1133.828z"/>
			<path opacity="0.6" fill="#062821" d="M-146.221,921.893c0,0,331.157-9.525,454.985-67.741
				c123.825-58.216,284.108-45.191,390.829-30.301c106.723,14.892,233.721,131.31,304.126,88.422l26.078,205.606"/>
			<path opacity="0.6" fill="#126864" d="M-84.05,1164.949l1189.415-26.657l-16.988-216.527
				c-126.448-13.143-78.307,121.562-554.086-143.981c0,0-311.603-72.298-398.452,17.481c0,0-93.28,74.423-215.365,71.501
				L-84.05,1164.949z"/>
			<path opacity="0.6" fill="#062821" d="M-181.185,1206.472l1286.55-13.698l-16.988-216.53c0,0-377.262-39.205-529.157-123.979
				c0,0-336.531-92.299-423.381-2.517c0,0-164.416,87.458-286.5,84.534L-181.185,1206.472z"/>
		</g>
		<g clip-path="url(#SVGID_2_)">
			<g>
				<path fill="#1B877F" d="M474.162,510.59c0,0-28.312-9.443-66.455-30.836c2.905-31.879,1.077-100.223-56.095-153.873
					c0,0,35.464,65.158,20.502,131.924c-46.501-31.441-98.352-78.195-131.073-143.643c0,0,0.808,51.822,53.271,112.825
					c-115.046,3.652-135.298-63.179-135.298-63.179c17.702,93.823,125.398,94.73,163.58,92.021
					c34.188,30.823,82.7,62.267,151.567,89.298V510.59z"/>
				<path fill="#1B877F" d="M488.809,683.051c0,0-24.52-8.18-57.549-26.703c2.517-27.608,0.931-86.795-48.578-133.252
					c0,0,30.709,56.427,17.758,114.243c-40.271-27.227-85.176-67.717-113.512-124.392c0,0,0.701,44.877,46.137,97.705
					c-99.629,3.162-117.168-54.713-117.168-54.713c15.33,81.251,108.593,82.035,141.656,79.689
					c29.606,26.689,71.619,53.92,131.256,77.329V683.051z"/>
				<path fill="#126864" d="M678.643,463.787c54.312-63.15,55.15-116.792,55.15-116.792
					c-33.873,67.745-87.548,116.147-135.688,148.694c-15.485-69.113,21.226-136.567,21.226-136.567
					c-59.182,55.538-61.075,126.287-58.068,159.286c-39.485,22.147-68.793,31.923-68.793,31.923v35.75
					c71.285-27.98,121.509-60.529,156.9-92.438c39.523,2.806,151.012,1.866,169.333-95.258
					C818.702,398.386,797.736,467.568,678.643,463.787z"/>
				<g>
					<polygon fill="#1B877F" points="491.219,346.882 474.162,358.348 427.221,914.828 493.309,914.828 					"/>
					<polygon fill="#126864" points="517.974,374.15 565.309,914.828 493.309,914.828 491.219,346.882 					"/>
				</g>
				<path fill="#1B877F" d="M247.321,340.789c0,0-13.093,1.932-32.472,1.101c-5.231-13.196-19.634-39.875-52.993-49.659
					c0,0,27.073,18.686,34.519,48.098c-24.693-3.133-54.572-11.252-80.619-30.601c0,0,10.692,20.345,43.664,33.98
					c-44.793,24.475-66.184,2.084-66.184,2.084c25.785,33.584,68.582,12.383,83.146,3.669c19.696,5.353,45.189,8.083,77.852,4.994
					L247.321,340.789z"/>
				<path fill="#1B877F" d="M318.793,430.004c0,0,3.051-13.611,3.689-34.042c-13.46-6.531-40.377-23.755-48.06-59.581
					c0,0,17.527,29.916,47.86,40.036c-1.361-26.198-7.568-58.239-25.87-87.127c0,0,20.547,12.827,32.308,48.548
					c29.224-45.172,7.355-69.404,7.355-69.404c33.287,29.723,7.665,73.054-2.633,87.684c4.09,21.121,4.973,48.129-0.823,82.218
					L318.793,430.004z"/>
				<path fill="#126864" d="M715.22,395.43c0,0,15.724-1.033,38.076-6.857c2.784-16.672,12.866-51.34,49.25-71.094
					c0,0-26.835,28.54-28.132,64.646c27.965-9.836,60.712-26.779,86.188-55.832c0,0-7.352,26.365-42.32,50.506
					c58.284,17.267,77.575-14.162,77.575-14.162c-21.602,45.559-76.74,31.604-95.881,25.108
					c-21.59,11.169-50.582,20.739-89.38,25.328L715.22,395.43z"/>
				<path fill="#126864" d="M662.191,453.461c0,0-3.999-11.689-6.533-29.621c11.223-7.052,33.265-24.814,36.57-57.108
					c0,0-12.546,28.036-38.283,39.879c-1.327-23.205,1.045-52.019,14.374-79.226c0,0-16.856,13.28-23.766,45.875
					c-30.094-36.962-13.18-60.412-13.18-60.412c-26.442,29.389,0.308,65.074,10.784,76.963c-1.56,18.995,0.271,42.863,8.664,72.323
					L662.191,453.461z"/>
				<path fill="#126864" d="M491.219,346.882c0,0,21.302,6.837,46.233-10.923c-4.421-21.967-8.3-69.664,27.442-111.306
					c0,0-19.769,48.016-4.328,93.349c29.992-25.383,62.552-61.826,80.393-109.835c0,0,3.342,36.122-28.572,82.527
					c80.336-6.128,89.392-54.16,89.392-54.16c-5.247,66.626-80.125,75.37-106.898,76.361
					c-21.468,24.025-52.861,49.562-98.746,73.562L491.219,346.882z"/>
				<path fill="#1B877F" d="M491.219,346.882c0,0-15.677-11.213-35.151-31.67c7.856-19.123,19.726-61.651-5.355-105.635
					c0,0,9.495,46.96-12.436,85.32c-22.724-28.249-45.83-66.967-53.581-113.582c0,0-9.355,32.138,11.423,79.766
					c-71.699-19.626-71.488-64.724-71.488-64.724c-6.918,61.272,59.378,82.312,83.458,87.902
					c15.239,25.525,39.201,54.157,76.563,83.937L491.219,346.882z"/>
				<path fill="#126864" d="M595.482,289.24c0,0-3.28-9.588-5.359-24.296c9.207-5.784,27.285-20.355,29.996-46.845
					c0,0-10.293,22.998-31.403,32.711c-1.088-19.033,0.86-42.668,11.794-64.985c0,0-13.827,10.895-19.496,37.629
					c-24.686-30.318-10.811-49.554-10.811-49.554c-21.689,24.105,0.253,53.379,8.845,63.131
					c-1.279,15.581,0.225,35.159,7.107,59.324L595.482,289.24z"/>
				<path fill="#1B877F" d="M404.812,255.717c0,0,7.036-5.247,15.714-14.738c-3.75-8.635-9.541-27.89,1.476-48.141
					c0,0-3.896,21.465,6.438,38.728c10.092-13.065,20.259-30.903,23.359-52.197c0,0,4.555,14.546-4.474,36.419
					c32.466-9.588,31.96-30.118,31.96-30.118c3.705,27.832-26.285,38.017-37.195,40.778c-6.704,11.76-17.354,25.016-34.091,38.915
					L404.812,255.717z"/>
				<path fill="#126864" d="M520.434,634.515c0,0,15.758,0.195,38.493-3.868c4.078-16.404,16.832-50.182,54.645-67.039
					c0,0-28.979,26.362-33.09,62.259c28.648-7.625,62.617-21.963,90.283-48.94c0,0-9.386,25.709-46.13,47.049
					c56.762,21.759,78.443-8.067,78.443-8.067c-25.09,43.735-78.975,25.522-97.547,17.554
					c-22.396,9.453-52.046,16.733-91.084,18.283L520.434,634.515z"/>
				<path fill="#1B877F" d="M247.195,339.827c0,0,3.098-8.212,5.295-20.882c-7.811-5.256-23.062-18.356-24.692-41.354
					c0,0,8.282,20.183,26.29,29.16c1.458-16.443,0.416-36.953-8.443-56.562c0,0,11.673,9.801,15.852,33.092
					c22.185-25.568,10.697-42.591,10.697-42.591c18.118,21.45-1.661,46.188-9.363,54.395c0.687,13.519-1.144,30.424-7.756,51.15
					L247.195,339.827z"/>
				<path fill="#126864" d="M740.77,478.52c0,0,7.908,4.268,20.471,8.228c6.402-7.208,21.78-20.9,45.344-19.414
					c0,0-21.613,5.652-33.186,22.702c16.49,3.727,37.446,5.467,58.56-0.845c0,0-11.543,10.507-35.755,11.569
					c22.925,26.008,41.771,16.674,41.771,16.674c-24.249,15.459-46.652-7.995-53.928-16.936
					c-13.818-1.147-30.724-5.312-50.857-14.857L740.77,478.52z"/>
				<path fill="#1B877F" d="M332.826,463.633c0,0-6.621,6.078-17.826,13.002c-7.973-5.416-26.244-14.911-48.72-7.685
					c0,0,22.339,0.173,37.744,13.855c-15.071,7.663-34.957,14.498-56.976,13.565c0,0,13.771,7.351,37.5,2.433
					c-15.833,30.843-36.393,26.423-36.393,26.423c27.302,9.03,43.26-19.208,48.117-29.66c13.112-4.508,28.478-12.698,45.649-26.894
					L332.826,463.633z"/>
				<path fill="#1B877F" d="M385.149,653.022c0,0-7.753,4.547-17.657,13.23c2.841,9.212,6.568,29.464-6.931,48.836
					c0,0,6.382-21.41-2.187-40.148c-11.744,12.163-24.105,29.173-29.664,50.499c0,0-2.994-15.32,8.662-36.567
					c-34.126,6.101-35.927,27.055-35.927,27.055c-0.634-28.751,31.042-35.735,42.459-37.313
					c8.151-11.217,20.483-23.508,39.089-35.768L385.149,653.022z"/>
				<path fill="#1B877F" d="M443.177,498.474c0,0-1.937-7.618-2.761-19.189c6.963-4.16,20.792-14.839,24.002-35.425
					c0,0-8.559,17.562-24.362,24.334c0.097-14.911,2.615-33.297,11.611-50.309c0,0-10.565,7.976-15.934,28.639
					c-16.532-24.64-5.545-39.127-5.545-39.127c-16.898,17.992-2.313,41.706,3.481,49.654c-1.661,12.123-1.484,27.475,2.392,46.617
					L443.177,498.474z"/>
				<path fill="#1B877F" d="M346.051,593.255c0,0,1.566-7.299,1.898-18.373c-6.893-3.943-20.675-14.085-24.6-33.763
					c0,0,8.969,16.757,24.502,23.148c-0.691-14.268-3.862-31.845-13.229-48.07c0,0,10.521,7.571,16.534,27.313
					c14.978-23.665,3.785-37.467,3.785-37.467c17.043,17.122,3.908,39.892-1.371,47.528c2.092,11.59,2.537,26.278-0.44,44.615
					L346.051,593.255z"/>
				<path fill="#126864" d="M517.974,374.15c0,0,6.43-1.032,15.962-0.75c2.661,6.455,9.92,19.482,26.391,24.076
					c0,0-13.438-9.013-17.291-23.43c12.166,1.378,26.914,5.176,39.852,14.523c0,0-5.393-9.936-21.697-16.428
					c21.871-12.331,32.538-1.459,32.538-1.459c-12.901-16.348-33.814-5.641-40.92-1.259c-9.722-2.506-22.278-3.684-38.322-1.95
					L517.974,374.15z"/>
				<path fill="#126864" d="M615.576,515.951c0,0,7.982,1.001,19.189,4.641c0.915,8.578,5.008,26.542,22.947,37.699
					c0,0-12.809-15.346-12.383-33.778c13.949,5.852,30.121,15.468,42.224,31.036c0,0-2.95-13.65-20.039-27.002
					c30.211-7.04,39.092,9.548,39.092,9.548c-9.632-23.855-38.14-18.407-48.084-15.676c-10.661-6.341-25.144-12.089-44.77-15.595
					L615.576,515.951z"/>
			</g>
			<g>
				<path fill="#618751" d="M208.771,566.367c1.206-7.541-9.595-9.856-16.797-8.51c-10.972,2.307-18.111,10.574-29.672,12.025
					c7.208,7.029,20.994,12.735,32.195,12.734C206.627,582.593,208.413,576.196,208.771,566.367"/>
			</g>
			<g>
				<path fill="#126864" d="M215.906,592.854c-2.267-7.292-12.974-4.568-18.826-0.164c-8.807,6.941-11.529,17.52-21.243,23.956
					c9.581,3.096,24.466,2.084,34.501-2.894C221.191,608.342,219.953,601.817,215.906,592.854"/>
			</g>
			<g>
				<path fill="#1B877F" d="M229.963,614.795c-5.672-5.108-13.485,2.702-16.267,9.479c-4.024,10.464-0.962,20.95-6.023,31.446
					c9.818-2.234,22.096-10.709,28.181-20.114C242.422,625.411,238.023,620.435,229.963,614.795"/>
			</g>
			<g>
				<path fill="#D2E081" d="M260.807,633.054c-4.952-5.812-13.725,0.901-17.375,7.254c-5.367,9.843-3.712,20.642-10.111,30.379
					c10.026-0.921,23.314-7.704,30.583-16.229C271.76,645.217,268.053,639.705,260.807,633.054"/>
			</g>
			<g>
				<path fill="#126864" d="M285.498,643.688c-7.02-3.009-11.896,6.905-12.344,14.217c-0.437,11.204,5.845,20.143,4.438,31.708
					c8.572-5.278,17.462-17.26,20.189-28.124C300.713,649.721,294.943,646.429,285.498,643.688"/>
			</g>
			<g>
				<path fill="#A9D39B" d="M309.866,644.917c-6.014,0.794-5.321,9.546-2.659,14.724c4.251,7.83,12.171,11.39,15.905,19.862
					c3.714-7.087,4.925-18.882,2.374-27.412C322.711,642.858,317.436,642.953,309.866,644.917"/>
			</g>
			<g>
				<path fill="#D2E081" d="M336.373,645.617c-4.016,0.529-3.554,6.373-1.777,9.83c2.84,5.229,8.127,7.604,10.62,13.262
					c2.48-4.732,3.288-12.607,1.587-18.303C344.949,644.243,341.426,644.307,336.373,645.617"/>
			</g>
			<g>
				<path fill="#83B571" d="M229.678,557.314c-5.809,0.748-5.856-6.91-3.035-12.436c4.479-8.407,12.342-13.721,16.35-22.6
					c3.29,5.725,3.938,16.498,1.075,25.133C240.951,556.768,236.937,557.271,229.678,557.314"/>
			</g>
			<g>
				<path fill="#618751" d="M245.68,573.316c-5.806,0.749-5.854-6.909-3.032-12.436c4.477-8.406,12.34-13.72,16.349-22.597
					c3.289,5.724,3.937,16.495,1.074,25.133C256.953,572.771,252.94,573.275,245.68,573.316"/>
			</g>
			<g>
				<path fill="#A9D39B" d="M267.709,592.485c-6.817,1.913-8.22-7.24-5.811-14.346c3.883-10.843,12.355-18.579,15.597-29.905
					c4.94,6.272,7.602,19.048,5.693,29.881C281.1,589.855,276.384,591.162,267.709,592.485"/>
			</g>
			<g>
				<path fill="#83B571" d="M301.832,601.42c-4.274,4.285-9.16-1.943-10.347-8.246c-1.657-9.703,1.406-19.021-0.932-28.814
					c6.308,2.597,13.651,10.994,16.775,19.864C310.701,593.843,307.738,596.794,301.832,601.42"/>
			</g>
			<g>
				<path fill="#83B571" d="M209.508,550.597c-3.625,4.598-9.017-0.84-10.869-6.763c-2.68-9.14-0.779-18.437-4.128-27.584
					c6.354,1.787,14.354,9.031,18.352,17.204C217.182,542.319,214.666,545.488,209.508,550.597"/>
			</g>
			<g>
				<path fill="#D2E081" d="M285.739,535.645c1.529-3.751-3.775-6.246-7.659-6.417c-5.948-0.126-10.631,3.29-16.781,2.649
					c2.883,4.501,9.321,9.105,15.111,10.451C282.682,543.771,284.373,540.683,285.739,535.645"/>
			</g>
			<g>
				<path fill="#83B571" d="M299.309,524.914c-4.52,0.996-5.096-5.028-3.26-9.576c2.936-6.932,8.751-11.664,11.285-18.934
					c2.991,4.273,4.254,12.71,2.607,19.707C308.143,523.695,305.02,524.371,299.309,524.914"/>
			</g>
			<g>
				<path fill="#1B877F" d="M305.514,536.963c-4.348-1.583-1.602-6.977,2.387-9.831c6.195-4.273,13.644-5.149,19.68-9.925
					c0.233,5.212-3.226,13.008-8.37,18.031C313.623,540.672,310.624,539.569,305.514,536.963"/>
			</g>
			<g>
				<path fill="#126864" d="M344.151,517.28c-4.167,2.011-6.117-3.719-5.378-8.567c1.259-7.42,5.827-13.368,6.616-21.024
					c3.896,3.469,7.071,11.386,7.081,18.575C352.467,514.059,349.584,515.437,344.151,517.28"/>
			</g>
			<g>
				<path fill="#1B877F" d="M361.117,568.121c-0.794-5.058,6.394-6.61,11.188-5.703c7.298,1.551,12.046,7.104,19.738,8.086
					c-4.801,4.709-13.981,8.534-21.437,8.528C362.537,579.009,361.351,574.715,361.117,568.121"/>
			</g>
			<g>
				<path fill="#D18A35" d="M357.869,590.748c0.374-3.95,6.072-3.736,9.498-2.135c5.184,2.564,7.684,7.646,13.272,9.861
					c-4.51,2.615-12.14,3.727-17.739,2.289C356.846,599.198,356.779,595.745,357.869,590.748"/>
			</g>
			<g>
				<path fill="#D2E081" d="M333.393,511.451c3.486-2.064,0.765-7.256-2.229-9.738c-4.664-3.691-10.461-3.797-14.977-8.021
					c-0.42,5.325,1.932,12.886,5.734,17.453C326.048,516.085,329.262,514.643,333.393,511.451"/>
			</g>
			<g>
				<path fill="#D2E081" d="M342.236,549.951c3.606-1.844,1.211-7.193-1.624-9.855c-4.429-3.971-10.207-4.436-14.453-8.928
					c-0.749,5.289,1.133,12.98,4.647,17.774C334.622,554.125,337.917,552.884,342.236,549.951"/>
			</g>
			<g>
				<path fill="#D18A35" d="M369.678,536.858c3.016-3.62,8.45,0.412,10.73,4.277c3.356,5.989,2.398,12.642,6.385,18.562
					c-6.17-0.467-14.388-4.495-18.907-9.656C363.005,544.445,365.258,541.02,369.678,536.858"/>
			</g>
			<g>
				<path fill="#D18A35" d="M369.567,527.73c-3.845-0.98-2.751-6.575-0.64-9.713c3.336-4.725,8.743-6.408,11.798-11.588
					c1.886,4.861,1.803,12.57-0.482,17.879C377.76,530.051,374.337,529.581,369.567,527.73"/>
			</g>
			<g>
				<path fill="#1B877F" d="M342.033,475.854c-2.188-3.408-7.277-0.507-9.652,2.571c-3.524,4.795-3.426,10.591-7.485,15.252
					c5.338,0.232,12.81-2.387,17.239-6.347C346.924,483.029,345.371,479.869,342.033,475.854"/>
			</g>
			<g>
				<path fill="#D2E081" d="M358.743,492.086c-4.04,0.242-3.999,6.104-2.472,9.679c2.458,5.418,7.562,8.165,9.646,13.985
					c2.812-4.543,4.179-12.341,2.888-18.142C367.396,491.327,363.879,491.139,358.743,492.086"/>
			</g>
			<g>
				<path fill="#D2E081" d="M400.324,618.93c2.866-3.341-1.746-7.736-5.693-9.247c-6.09-2.171-12.094-0.257-18.217-3.029
					c1.425,5.63,6.486,12.591,11.995,15.966C394.381,626.264,397.185,623.657,400.324,618.93"/>
			</g>
			<g>
				<path fill="#126864" d="M397.854,595.4c2.33-2.713-1.417-6.282-4.622-7.51c-4.947-1.764-9.823-0.211-14.794-2.461
					c1.155,4.572,5.266,10.226,9.74,12.968C393.027,601.357,395.306,599.241,397.854,595.4"/>
			</g>
			<g>
				<path fill="#D18A35" d="M407.176,545.471c-3.845-0.98-2.754-6.574-0.64-9.713c3.337-4.723,8.743-6.407,11.796-11.588
					c1.887,4.86,1.804,12.572-0.481,17.881C415.367,547.791,411.945,547.322,407.176,545.471"/>
			</g>
			<g>
				<path fill="#618751" d="M415.022,556.835c-2.859-2.75,0.85-7.077,4.236-8.765c5.231-2.462,10.767-1.261,15.978-4.26
					c-0.758,5.159-4.635,11.824-9.242,15.315C421.004,562.896,418.258,560.799,415.022,556.835"/>
			</g>
			<g>
				<path fill="#D18A35" d="M425.394,572.05c-2.768-2.843,1.084-7.046,4.521-8.621c5.313-2.29,10.805-0.906,16.109-3.731
					c-0.924,5.13-5.019,11.665-9.737,15.002C431.174,578.301,428.497,576.117,425.394,572.05"/>
			</g>
			<g>
				<path fill="#1B877F" d="M429.925,589.118c-2.149-3.336,2.46-6.69,6.143-7.551c5.661-1.19,10.767,1.256,16.528-0.46
					c-1.924,4.845-7.233,10.436-12.521,12.771C434.348,596.393,432.159,593.721,429.925,589.118"/>
			</g>
			<g>
				<path fill="#D18A35" d="M433.625,601.908c1.108-3.312,5.949-1.992,8.567,0.064c3.932,3.233,5.062,8.088,9.414,11.102
					c-4.39,1.344-11.151,0.773-15.666-1.576C431.062,608.949,431.692,605.977,433.625,601.908"/>
			</g>
			<g>
				<path fill="#D2E081" d="M391.937,512.549c-4.044,0.241-3.999,6.103-2.475,9.679c2.46,5.418,7.564,8.165,9.646,13.984
					c2.812-4.542,4.18-12.34,2.889-18.142C400.587,511.79,397.07,511.601,391.937,512.549"/>
			</g>
			<g>
				<path fill="#126864" d="M454.189,546.32c2.918-2.808-0.919-7.239-4.401-8.967c-5.388-2.525-11.054-1.301-16.415-4.376
					c0.81,5.28,4.832,12.1,9.58,15.675C448.103,552.515,450.898,550.374,454.189,546.32"/>
			</g>
			<g>
				<path fill="#D2E081" d="M447.753,638.663c3.809-1.378,2.108-6.986-0.368-9.983c-3.893-4.502-9.564-5.689-13.21-10.683
					c-1.412,5.153-0.518,13.019,2.364,18.217C439.669,641.839,443.094,641.024,447.753,638.663"/>
			</g>
			<g>
				<path fill="#D2E081" d="M388.473,671.238c-7.019-3.008-11.895,6.904-12.343,14.216c-0.437,11.203,5.845,20.144,4.438,31.71
					c8.57-5.278,17.463-17.26,20.188-28.126C403.688,677.27,397.918,673.979,388.473,671.238"/>
			</g>
			<g>
				<path fill="#126864" d="M413.66,684.695c-7.02-3.009-11.896,6.904-12.346,14.217c-0.434,11.204,5.846,20.143,4.437,31.708
					c8.574-5.279,17.464-17.261,20.191-28.124C428.874,690.728,423.104,687.436,413.66,684.695"/>
			</g>
			<g>
				<path fill="#618751" d="M240.479,456.086c-7.019-3.008-11.894,6.903-12.343,14.216c-0.436,11.204,5.845,20.145,4.438,31.71
					c8.571-5.28,17.463-17.261,20.19-28.126C255.695,462.117,249.925,458.826,240.479,456.086"/>
			</g>
			<g>
				<path fill="#D2E081" d="M211.77,446.935c-7.019-3.008-11.895,6.905-12.343,14.218c-0.438,11.204,5.845,20.143,4.435,31.708
					c8.573-5.278,17.465-17.261,20.191-28.126C226.984,452.968,221.215,449.675,211.77,446.935"/>
			</g>
			<g>
				<path fill="#126864" d="M189.922,433.237c-4.432-6.219-13.751-0.287-17.937,5.726c-6.196,9.344-5.479,20.244-12.695,29.395
					c10.069-0.054,23.892-5.666,31.87-13.528C199.781,446.301,196.566,440.489,189.922,433.237"/>
			</g>
			<g>
				<path fill="#D2E081" d="M169.983,411.898c-2.971-7.035-13.358-3.279-18.754,1.677c-8.083,7.769-9.762,18.564-18.799,25.919
					c9.838,2.143,24.552-0.32,34.052-6.254C176.757,426.796,174.887,420.424,169.983,411.898"/>
			</g>
			<g>
				<path fill="#1B877F" d="M158.919,387.318c0.328-7.629-10.67-8.682-17.667-6.512c-10.632,3.559-16.768,12.598-28.086,15.375
					c7.973,6.148,22.326,10.222,33.452,8.927C158.663,403.683,159.7,397.122,158.919,387.318"/>
			</g>
			<g>
				<path fill="#D2E081" d="M107.035,365.91c-5.208-5.583-13.67,1.521-17.029,8.031c-4.917,10.075-2.774,20.788-8.729,30.805
					c9.975-1.374,22.942-8.751,29.819-17.593C118.524,377.565,114.574,372.228,107.035,365.91"/>
			</g>
			<g>
				<path fill="#1B877F" d="M87.271,345.415c-2.396-7.25-13.052-4.337-18.827,0.171c-8.681,7.096-11.215,17.723-20.812,24.329
					c9.634,2.925,24.498,1.648,34.442-3.505C92.83,360.81,91.477,354.307,87.271,345.415"/>
			</g>
			<g>
				<path fill="#618751" d="M95.53,339.769c-5.621,4.151-10.116-3.806-10.382-11.205c-0.207-11.363,4.905-21.468,3.936-33.048
					c6.75,4.057,13.676,14.914,15.705,25.578C106.965,332.66,103.073,335.513,95.53,339.769"/>
			</g>
			<g>
				<path fill="#D18A35" d="M123.582,303.264c-7.196-2.019-4.889-12.507-0.77-18.322c6.494-8.748,16.752-11.679,22.733-21.298
					c3.335,9.237,2.835,23.756-1.706,33.653C138.904,307.998,132.483,306.963,123.582,303.264"/>
			</g>
			<g>
				<path fill="#D2E081" d="M112.14,301.455c4.087-0.597,1.884-9.034-1.01-14.089c-4.532-7.647-10.817-11.288-15.111-19.541
					c-1.229,6.716,0.229,18.028,3.697,26.303C103.486,303.082,107.188,303.136,112.14,301.455"/>
			</g>
			<g>
				<path fill="#1B877F" d="M170.693,287.547c-6.955,2.738-11.45-7.018-11.678-14.139c-0.107-10.896,6.303-19.425,5.261-30.702
					c8.238,5.347,16.604,17.222,18.962,27.854C185.765,282.07,180.021,285.122,170.693,287.547"/>
			</g>
			<g>
				<path fill="#D18A35" d="M192.066,297.323c-7.196-2.019-4.889-12.507-0.768-18.321c6.494-8.748,16.751-11.678,22.731-21.297
					c3.336,9.237,2.835,23.755-1.705,33.653C207.391,302.058,200.968,301.023,192.066,297.323"/>
			</g>
			<g>
				<path fill="#D18A35" d="M710.683,243.541c-0.996-7.408,9.548-9.441,16.519-7.961c10.605,2.499,17.357,10.759,28.557,12.444
					c-7.16,6.72-20.69,12.007-31.577,11.756C712.4,259.486,710.807,253.178,710.683,243.541"/>
			</g>
			<g>
				<path fill="#D18A35" d="M703.855,268.508c2.721-6.962,12.93-3.63,18.307,1.045c8.064,7.328,9.968,17.823,18.947,24.728
					c-9.521,2.405-23.919,0.472-33.319-5.024C697.63,283.287,699.292,276.998,703.855,268.508"/>
			</g>
			<g>
				<path fill="#D18A35" d="M690.605,288.398c6.564-3.576,12.231,5.547,13.337,12.585c1.455,10.799-3.847,20.056-1.419,31.118
					c-8.835-4.287-18.608-15.035-22.264-25.292C676.327,295.7,681.647,291.96,690.605,288.398"/>
			</g>
			<g>
				<path fill="#1B877F" d="M892.615,382.115c3.832-6.416,13.352-1.446,17.885,4.051c6.748,8.558,6.891,19.223,14.609,27.514
					c-9.787,0.803-23.67-3.479-32.034-10.449C884.037,395.667,886.716,389.738,892.615,382.115"/>
			</g>
			<g>
				<path fill="#A9D39B" d="M874.394,398.283c7.219-1.936,10.586,8.262,10.011,15.363c-1.122,10.84-8.447,18.594-8.684,29.918
					c-7.583-6.242-14.559-18.984-15.707-29.812C858.798,402.031,864.85,399.643,874.394,398.283"/>
			</g>
			<g>
				<path fill="#126864" d="M840.203,402.846c7.219-1.938,10.587,8.261,10.01,15.363c-1.12,10.838-8.446,18.592-8.684,29.916
					c-7.58-6.24-14.559-18.984-15.705-29.812C824.609,406.592,830.659,404.203,840.203,402.846"/>
			</g>
			<g>
				<path fill="#D18A35" d="M809.164,443.266c3.253-6.729,13.171-2.614,18.171,2.462c7.472,7.932,8.554,18.544,16.971,26.124
					c-9.679,1.66-23.884-1.386-32.829-7.596C801.81,457.518,803.956,451.376,809.164,443.266"/>
			</g>
			<g>
				<path fill="#126864" d="M747.238,497.282c7.471-0.206,8.378,10.494,6.168,17.271c-3.608,10.281-12.535,16.121-15.395,27.079
					c-5.925-7.832-9.752-21.847-8.353-32.646C731.198,497.304,737.641,496.387,747.238,497.282"/>
			</g>
			<g>
				<path fill="#D18A35" d="M703.183,498.864c5.132-5.431,13.347,1.486,16.579,7.838c4.727,9.816,2.551,20.26,8.287,30.027
					c-9.73-1.341-22.353-8.534-29.005-17.153C691.866,510.229,695.767,505.024,703.183,498.864"/>
			</g>
			<g>
				<path fill="#126864" d="M561.844,563.475c7.468-0.335,8.56,10.348,6.468,17.159c-3.428,10.344-12.25,16.337-14.919,27.346
					c-6.061-7.729-10.131-21.674-8.92-32.496C545.81,563.777,552.233,562.746,561.844,563.475"/>
			</g>
			<g>
				<path fill="#D18A35" d="M613.371,534.073c4.531-5.946,13.432,0.064,17.317,6.037c5.74,9.261,4.685,19.876,11.421,28.981
					c-9.815-0.304-23.127-6.121-30.656-13.988C603.324,546.572,606.652,540.982,613.371,534.073"/>
			</g>
			<g>
				<path fill="#D2E081" d="M718.659,455.55c5.995,2.88,10.611-5.561,11.278-11.907c0.799-9.731-4.328-17.746-2.666-27.756
					c-7.661,4.27-15.848,14.359-18.63,23.711C705.646,449.728,710.541,452.808,718.659,455.55"/>
			</g>
			<g>
				<path fill="#A9D39B" d="M756.076,447.703c6.537-1.224,5.269-10.76,2.052-16.27c-5.107-8.322-13.984-11.752-18.563-20.807
					c-3.652,7.973-4.288,20.951-0.999,30.137C742.139,450.702,747.909,450.292,756.076,447.703"/>
			</g>
			<g>
				<path fill="#D2E081" d="M789.104,427.304c4.44-4.951-2.376-11.742-8.283-14.154c-9.12-3.487-18.248-0.803-27.396-5.194
					c1.962,8.548,9.362,19.228,17.564,24.51C779.879,438.171,784.205,434.33,789.104,427.304"/>
			</g>
			<g>
				<path fill="#D2E081" d="M639.763,446.902c0.82-6.6-8.65-8.285-14.879-6.895c-9.479,2.34-15.444,9.754-25.461,11.367
					c6.489,5.901,18.66,10.447,28.409,10.105C638.389,461.092,639.75,455.472,639.763,446.902"/>
			</g>
			<g>
				<path fill="#D2E081" d="M604.185,551.139c0.672-6.615-8.835-8.09-15.029-6.561c-9.426,2.551-15.222,10.097-25.201,11.933
					c6.618,5.755,18.89,10.028,28.63,9.468C603.127,565.355,604.363,559.705,604.185,551.139"/>
			</g>
			<g>
				<path fill="#D2E081" d="M557.607,455.671c5.604-3.583,0.854-11.949-4.191-15.854c-7.855-5.802-17.369-5.656-25.009-12.336
					c-0.397,8.76,3.876,21.032,10.364,28.316C545.812,463.674,551.007,461.132,557.607,455.671"/>
			</g>
			<g>
				<path fill="#D2E081" d="M570.698,420.902c4.274-5.095-2.76-11.657-8.743-13.873c-9.229-3.187-18.268-0.203-27.553-4.291
					c2.24,8.479,9.99,18.909,18.359,23.919C561.836,432.067,566.031,428.087,570.698,420.902"/>
			</g>
			<g>
				<path fill="#D2E081" d="M608.482,362.552c6.196-2.414,3.18-11.548-1.002-16.367c-6.564-7.229-15.924-8.954-22.104-17.002
					c-2.107,8.512-0.324,21.384,4.609,29.799C595.345,368.086,600.938,366.612,608.482,362.552"/>
			</g>
			<g>
				<path fill="#D18A35" d="M606.721,404.174c-2.842-4.328,3.135-8.761,7.935-9.925c7.375-1.617,14.069,1.519,21.571-0.785
					c-2.459,6.345-9.327,13.704-16.205,16.811C612.574,413.621,609.688,410.158,606.721,404.174"/>
			</g>
			<g>
				<path fill="#A9D39B" d="M604.064,429.134c-2.842-4.33,3.135-8.761,7.934-9.924c7.377-1.618,14.07,1.519,21.571-0.787
					c-2.458,6.346-9.327,13.705-16.204,16.812C609.917,438.58,607.029,435.117,604.064,429.134"/>
			</g>
			<g>
				<path fill="#618751" d="M773.029,506.939c7.02-2.566,11.277,7.292,11.332,14.417c-0.156,10.896-6.768,19.267-5.998,30.567
					c-8.104-5.544-16.186-17.618-18.286-28.303C757.828,512.055,763.645,509.14,773.029,506.939"/>
			</g>
			<g>
				<path fill="#A9D39B" d="M582.344,651.601c7.021-2.565,11.277,7.292,11.332,14.419c-0.156,10.895-6.767,19.267-5.998,30.566
					c-8.104-5.545-16.184-17.619-18.286-28.303C567.143,656.716,572.959,653.803,582.344,651.601"/>
			</g>
			<g>
				<path fill="#618751" d="M619.839,648.898c7.476-0.05,8.161,10.666,5.812,17.393c-3.818,10.206-12.865,15.86-15.948,26.76
					c-5.764-7.954-9.301-22.045-7.68-32.812C603.805,648.591,610.262,647.807,619.839,648.898"/>
			</g>
			<g>
				<path fill="#126864" d="M651.778,651.99c7.476-0.053,8.161,10.666,5.812,17.393c-3.819,10.205-12.864,15.86-15.949,26.758
					c-5.762-7.952-9.298-22.044-7.678-32.811C635.744,651.682,642.202,650.896,651.778,651.99"/>
			</g>
			<g>
				<path fill="#D18A35" d="M676.119,648.09c6.498-3.696,12.33,5.32,13.564,12.338c1.653,10.771-3.479,20.122-0.849,31.141
					c-8.912-4.127-18.88-14.694-22.725-24.883C661.977,655.65,667.229,651.812,676.119,648.09"/>
			</g>
			<g>
				<path fill="#126864" d="M696.013,633.785c3.148-6.777,13.128-2.82,18.208,2.179c7.595,7.813,8.841,18.407,17.379,25.853
					c-9.654,1.812-23.903-1.011-32.947-7.077C688.883,648.152,690.932,641.978,696.013,633.785"/>
			</g>
			<g>
				<path fill="#1B877F" d="M707.883,611.184c-1.695-7.28,8.609-10.309,15.688-9.498c10.796,1.479,18.301,9.057,29.613,9.667
					c-6.489,7.372-19.454,13.923-30.316,14.714C711.114,626.892,708.927,620.766,707.883,611.184"/>
			</g>
			<g>
				<path fill="#618751" d="M687.371,610.573c5.32,5.479,13.636-1.795,16.865-8.37c4.715-10.174,2.357-20.842,8.109-30.975
					c-9.945,1.572-22.762,9.209-29.459,18.187C675.65,599.148,679.708,604.407,687.371,610.573"/>
			</g>
			<g>
				<path fill="#A9D39B" d="M604.411,609.773c5.319,5.477,13.636-1.794,16.865-8.371c4.715-10.173,2.357-20.84,8.108-30.973
					c-9.943,1.572-22.76,9.209-29.459,18.186C592.689,598.35,596.746,603.607,604.411,609.773"/>
			</g>
			<g>
				<path fill="#A9D39B" d="M183.492,470.174c-7.018-3.008-11.895,6.904-12.342,14.217c-0.437,11.204,5.844,20.144,4.436,31.71
					c8.573-5.281,17.463-17.261,20.191-28.126C198.709,476.207,192.938,472.914,183.492,470.174"/>
			</g>
			<g>
				<path fill="#D2E081" d="M146.957,453.342c-1.677-7.449-12.564-5.591-18.752-1.668c-9.334,6.215-12.896,16.542-23.092,22.181
					c9.303,3.853,24.221,4.032,34.622-0.126C150.988,469.205,150.273,462.601,146.957,453.342"/>
			</g>
			<g>
				<path fill="#618751" d="M133.019,412.413c-1.677-7.45-12.567-5.591-18.754-1.667c-9.332,6.213-12.895,16.541-23.091,22.18
					c9.303,3.851,24.221,4.033,34.623-0.127C137.049,428.275,136.335,421.672,133.019,412.413"/>
			</g>
			<g>
				<path fill="#126864" d="M73.39,378.024c-5.211-5.584-13.671,1.52-17.031,8.029c-4.917,10.077-2.774,20.789-8.728,30.808
					c9.974-1.375,22.941-8.753,29.817-17.594C84.879,389.68,80.928,384.342,73.39,378.024"/>
			</g>
			<g>
				<path fill="#A9D39B" d="M75.785,332.19c6.119-4.566-0.012-13.755-6.113-17.808c-9.479-5.994-20.359-5.04-29.662-12.059
					c0.27,10.067,6.182,23.765,14.215,31.57C62.938,342.331,68.678,338.988,75.785,332.19"/>
			</g>
			<g>
				<path fill="#1B877F" d="M72.36,303.02c7.493,1.467,10.181-9.248,9.087-16.49c-1.928-11.047-9.942-18.468-10.992-30.072
					c-7.275,6.959-13.453,20.541-13.839,31.733C56.219,300.313,62.552,302.321,72.36,303.02"/>
			</g>
			<g>
				<path fill="#D18A35" d="M118.201,274.283c-6.953,2.738-11.448-7.017-11.675-14.139c-0.106-10.896,6.299-19.424,5.261-30.702
					c8.235,5.348,16.602,17.223,18.961,27.854C133.275,268.807,127.53,271.86,118.201,274.283"/>
			</g>
			<g>
				<path fill="#A9D39B" d="M147.409,249.593c-5.546,5.011-13.188-2.535-15.908-9.122c-3.935-10.16-0.942-20.398-5.886-30.59
					c9.592,2.107,21.605,10.274,27.556,19.395C159.586,239.159,155.285,244.04,147.409,249.593"/>
			</g>
			<g>
				<path fill="#618751" d="M197.632,254.169c-5.547,5.012-13.188-2.536-15.907-9.122c-3.937-10.161-0.943-20.398-5.888-30.59
					c9.593,2.106,21.605,10.273,27.556,19.396C209.809,243.734,205.508,248.615,197.632,254.169"/>
			</g>
			<g>
				<path fill="#D18A35" d="M320.124,185.801c-7.128-2.246-4.487-12.658-0.185-18.337c6.77-8.538,17.115-11.138,23.402-20.561
					c3.039,9.338,2.074,23.833-2.78,33.581C335.287,191.02,328.901,189.782,320.124,185.801"/>
			</g>
			<g>
				<path fill="#618751" d="M379.593,174.012c-7.251,1.812-10.442-8.444-9.743-15.535c1.312-10.817,8.77-18.442,9.203-29.761
					c7.472,6.373,14.227,19.233,15.186,30.079C395.25,170.536,389.158,172.819,379.593,174.012"/>
			</g>
			<g>
				<path fill="#A9D39B" d="M339.208,211.149c-6.657-3.396-2.332-13.227,2.854-18.114c8.088-7.301,18.722-8.154,26.478-16.406
					c1.453,9.712-1.894,23.848-8.295,32.658C353.299,218.807,347.205,216.528,339.208,211.149"/>
			</g>
			<g>
				<path fill="#D2E081" d="M316.321,199.494c4.022-6.493-5.052-12.794-12.216-14.328c-11.013-2.103-20.787,2.773-32.015-0.345
					c3.94,9.265,14.461,19.845,24.797,24.161C308.088,213.636,312.203,208.425,316.321,199.494"/>
			</g>
			<g>
				<path fill="#126864" d="M316.486,227.979c2.082-7.347-8.375-10.911-15.683-10.416c-11.167,1.005-19.226,8.382-30.876,8.471
					c6.336,7.824,19.357,15.104,30.481,16.411C312.458,243.843,314.981,237.697,316.486,227.979"/>
			</g>
			<g>
				<path fill="#D2E081" d="M327.084,249.74c-2.632-7.168-13.186-3.909-18.812,0.783c-8.443,7.374-10.635,18.077-20.011,24.993
					c9.724,2.609,24.54,0.852,34.31-4.625C333.141,264.945,331.576,258.489,327.084,249.74"/>
			</g>
			<g>
				<path fill="#A9D39B" d="M402.194,292.854c-2.63-7.17-13.185-3.911-18.811,0.781c-8.446,7.377-10.635,18.078-20.012,24.994
					c9.725,2.611,24.54,0.852,34.311-4.625C408.253,308.058,406.686,301.603,402.194,292.854"/>
			</g>
			<g>
				<path fill="#D2E081" d="M423.645,321.021c-1.019-7.57-12.027-6.674-18.535-3.31c-9.843,5.37-14.297,15.346-24.947,20.067
					c8.928,4.653,23.773,6.146,34.497,2.914C426.268,337.176,426.136,330.535,423.645,321.021"/>
			</g>
			<g>
				<path fill="#126864" d="M448.139,347.881c-3.619-6.726-13.607-2.006-18.512,3.437c-7.318,8.494-7.969,19.399-16.274,27.573
					c9.997,1.208,24.414-2.631,33.312-9.434C456.287,362.074,453.821,355.907,448.139,347.881"/>
			</g>
			<g>
				<path fill="#D2E081" d="M458.046,372.335c-6.327-4.274-12.98,4.544-14.795,11.642c-2.534,10.922,1.954,20.882-1.604,31.978
					c9.414-3.573,20.398-13.671,25.118-23.828C471.857,381.118,466.81,376.801,458.046,372.335"/>
			</g>
			<g>
				<path fill="#D18A35" d="M470.299,243.647c-2.541-7.03,7.334-11.251,14.46-11.278c10.896,0.198,19.24,6.843,30.544,6.117
					c-5.576,8.084-17.68,16.116-28.372,18.175C475.354,258.865,472.462,253.038,470.299,243.647"/>
			</g>
			<g>
				<path fill="#618751" d="M476.104,266.074c2.562-7.021,12.846-3.92,18.329,0.633c8.226,7.144,10.362,17.596,19.494,24.295
					c-9.466,2.62-23.9,1.01-33.423-4.273C470.212,280.989,471.735,274.664,476.104,266.074"/>
			</g>
			<g>
				<path fill="#D18A35" d="M475.928,296.582c4.682-4.751,11.877,1.577,14.641,7.305c4.032,8.846,1.895,18.122,6.824,26.945
					c-8.654-1.382-19.776-8.038-25.547-15.854C465.618,306.505,469.197,301.936,475.928,296.582"/>
			</g>
			<g>
				<path fill="#126864" d="M537.619,260.628c1.626-6.386-7.479-9.218-13.772-8.622c-9.61,1.127-16.392,7.678-26.441,8.025
					c5.648,6.604,17.052,12.582,26.679,13.452C534.512,274.407,536.546,269.049,537.619,260.628"/>
			</g>
			<g>
				<path fill="#D2E081" d="M524.09,331.453c6.244-2.109,3.662-11.29-0.264-16.245c-6.178-7.447-15.363-9.57-21.125-17.811
					c-2.466,8.333-1.271,21.152,3.238,29.702C510.842,336.35,516.444,335.141,524.09,331.453"/>
			</g>
			<g>
				<path fill="#A9D39B" d="M189.016,535.431c1.206-7.54-9.594-9.854-16.797-8.508c-10.972,2.305-18.112,10.573-29.672,12.024
					c7.21,7.029,20.993,12.735,32.195,12.733C186.872,551.656,188.658,545.26,189.016,535.431"/>
			</g>
			<g>
				<path fill="#1B877F" d="M158.131,479.479c-4.852-5.896-13.74,0.665-17.5,6.953c-5.534,9.75-4.066,20.573-10.634,30.2
					c10.042-0.748,23.445-7.302,30.859-15.697C168.869,491.83,165.259,486.257,158.131,479.479"/>
			</g>
			<g>
				<path fill="#D18A35" d="M217.786,493.243c6.039-2.563,10.21,5.89,10.573,12.132c0.344,9.556-5.078,17.188-3.904,27.061
					c-7.353-4.504-14.966-14.727-17.281-24C204.691,498.398,209.661,495.586,217.786,493.243"/>
			</g>
			<g>
				<path fill="#D18A35" d="M172.818,374.066c-3.498-5.549,4.174-11.022,10.277-12.384c9.376-1.876,17.78,2.251,27.335-0.495
					c-3.263,7.979-12.13,17.137-20.909,20.914C180.013,386.166,176.438,381.712,172.818,374.066"/>
			</g>
			<g>
				<path fill="#126864" d="M204.095,400.007c-6.318-1.764-4.305-10.972-0.696-16.078c5.689-7.684,14.691-10.267,19.929-18.715
					c2.938,8.104,2.514,20.845-1.459,29.537C217.547,404.145,211.909,403.245,204.095,400.007"/>
			</g>
			<g>
				<path fill="#D18A35" d="M241.342,414.211c-6.234,2.04-9.672-6.734-9.506-12.986c0.467-9.551,6.518-16.695,6.185-26.631
					c6.944,5.11,13.663,15.943,15.184,25.377C254.827,410.184,249.64,412.563,241.342,414.211"/>
			</g>
			<g>
				<path fill="#D2E081" d="M126.088,348.615c4.088-0.596,1.885-9.032-1.008-14.087c-4.532-7.647-10.818-11.288-15.112-19.542
					c-1.229,6.717,0.228,18.027,3.698,26.303C117.435,350.244,121.137,350.297,126.088,348.615"/>
			</g>
			<g>
				<path fill="#D2E081" d="M177.518,320.095c2.1-3.556-5.852-7.135-11.604-8.055c-8.797-1.27-15.576,1.34-24.697-0.496
					c4.458,5.172,14.181,11.136,22.801,13.624C173.354,327.854,175.719,325.007,177.518,320.095"/>
			</g>
			<g>
				<path fill="#D2E081" d="M222.999,335.535c4.935,1.671,7.292-9.069,6.938-16.406c-0.711-11.189-5.687-18.879-5.781-30.612
					c-5.229,6.84-10.073,20.385-10.915,31.669C212.344,332.406,216.473,334.586,222.999,335.535"/>
			</g>
			<g>
				<path fill="#618751" d="M267.442,217.214c-2.848,6.91-12.993,3.387-18.283-1.388c-7.925-7.479-9.63-18.007-18.48-25.078
					c9.567-2.228,23.926-0.023,33.221,5.647C273.945,202.554,272.163,208.809,267.442,217.214"/>
			</g>
			<g>
				<path fill="#A9D39B" d="M240.218,240.963c7.109-2.789,3.617-13.27-1.198-18.789c-7.56-8.281-18.308-10.23-25.432-19.452
					c-2.395,9.778-0.307,24.552,5.385,34.199C225.152,247.355,231.57,245.646,240.218,240.963"/>
			</g>
			<g>
				<path fill="#D2E081" d="M305.996,173.019c6.844-3.394,2.459-13.532-2.816-18.616c-8.246-7.596-19.123-8.612-27.016-17.185
					c-1.54,9.949,1.814,24.487,8.317,33.608C291.539,180.688,297.785,178.432,305.996,173.019"/>
			</g>
			<g>
				<path fill="#D2E081" d="M281.258,481.545c1.09-1.847-3.035-3.702-6.019-4.18c-4.564-0.659-8.078,0.695-12.81-0.257
					c2.312,2.683,7.354,5.774,11.824,7.067C279.098,485.568,280.324,484.09,281.258,481.545"/>
			</g>
			<g>
				<path fill="#D2E081" d="M307.795,349.373c4.902-1.762,0.064-11.637-4.779-17.159c-7.52-8.316-16.2-11.237-23.579-20.362
					c0.164,8.607,4.804,22.224,11.167,31.58C297.506,353.557,302.097,352.692,307.795,349.373"/>
			</g>
			<g>
				<path fill="#618751" d="M267.767,304.565c1.295,3.646,8.641,0.076,12.753-3.507c6.195-5.563,8.385-12.002,15.18-17.457
					c-6.391,0.101-16.515,3.512-23.479,8.213C264.687,296.916,265.314,300.326,267.767,304.565"/>
			</g>
			<g>
				<path fill="#D18A35" d="M330.636,309.709c-3.884,4.062-10.026-1.178-12.429-5.967c-3.508-7.402-1.826-15.243-6.095-22.612
					c7.31,1.052,16.764,6.518,21.727,13.027C339.192,301.214,336.237,305.109,330.636,309.709"/>
			</g>
			<g>
				<path fill="#D18A35" d="M372.698,279.793c5.592,0.554,5.256,8.619,2.968,13.463c-3.664,7.327-10.875,10.838-14.045,18.74
					c-3.677-6.4-5.206-17.215-3.141-25.135C360.734,278.293,365.624,278.219,372.698,279.793"/>
			</g>
			<g>
				<path fill="#D18A35" d="M356.143,235.874c-5.313-1.824-3.13-9.597,0.212-13.785c5.253-6.285,13.075-8.043,17.978-15.006
					c2.109,7.076,1.107,17.952-2.727,25.185C367.44,240.086,362.664,239.033,356.143,235.874"/>
			</g>
			<g>
				<path fill="#83B571" d="M348.821,387.806c-5.293,2.935-8.265-4.402-7.658-10.79c1.091-9.782,6.616-17.889,7.079-27.945
					c5.344,4.241,10.075,14.344,10.623,23.731C359.441,382.979,355.777,384.994,348.821,387.806"/>
			</g>
			<g>
				<path fill="#126864" d="M345.419,417.099c-6.045-0.28-4.722-8.084-0.854-13.203c6.064-7.754,15.021-11.753,20.696-20.07
					c2.322,6.417,1.047,17.5-3.416,25.777C356.992,418.565,352.816,418.358,345.419,417.099"/>
			</g>
			<g>
				<path fill="#A9D39B" d="M340.81,430.066c-2.024,3.295,5.366,6.772,10.735,7.725c8.219,1.33,14.606-1.007,23.119,0.857
					c-4.092-4.912-13.101-10.651-21.133-13.121C344.83,422.866,342.569,425.494,340.81,430.066"/>
			</g>
			<g>
				<path fill="#A9D39B" d="M544.24,238.252c5.483-3.762,0.466-11.971-4.706-15.709c-8.04-5.543-17.542-5.091-25.395-11.518
					c-0.113,8.768,4.556,20.895,11.278,27.965C532.709,246.633,537.818,243.924,544.24,238.252"/>
			</g>
			<g>
				<path fill="#D2E081" d="M551.593,188.74c0.196-6.647-9.394-7.435-15.46-5.466c-9.219,3.223-14.457,11.165-24.279,13.713
					c7.014,5.266,19.559,8.646,29.234,7.389C551.561,202.995,552.386,197.271,551.593,188.74"/>
			</g>
			<g>
				<path fill="#126864" d="M560.551,169.344c4.717-4.687-1.695-11.86-7.454-14.608c-8.904-4.008-18.171-1.854-27.05-6.766
					c1.463,8.646,8.234,19.734,16.117,25.481C550.712,179.66,555.251,176.077,560.551,169.344"/>
			</g>
			<g>
				<path fill="#83B571" d="M404.93,400.435c-5.066-3.314,0.037-9.365,5.968-11.811c9.163-3.598,18.909-2.495,28.021-6.776
					c-1.257,6.706-7.984,15.604-16.033,20.469C414.153,407.574,410.661,405.274,404.93,400.435"/>
			</g>
			<g>
				<path fill="#11514F" d="M423.029,480.255c3.311,1.208,3.686-7.882,2.691-14.016c-1.626-9.337-5.598-15.596-6.891-25.421
					c-2.608,5.935-4.266,17.47-3.618,26.954C415.926,478.043,418.781,479.717,423.029,480.255"/>
			</g>
			<g>
				<path fill="#83B571" d="M388.854,364.688c-5.066-3.314,0.037-9.364,5.967-11.81c9.163-3.599,18.91-2.494,28.021-6.778
					c-1.258,6.708-7.985,15.606-16.033,20.47C398.076,371.828,394.584,369.528,388.854,364.688"/>
			</g>
			<g>
				<path fill="#83B571" d="M546.175,514.807c-4.322,4.237-9.138-2.047-10.255-8.364c-1.549-9.722,1.621-19.004-0.608-28.822
					c6.281,2.669,13.53,11.147,16.554,20.052C555.126,507.328,552.133,510.247,546.175,514.807"/>
			</g>
			<g>
				<path fill="#126864" d="M400.04,185.491c-5.995-4.462-0.082-13.429,5.849-17.379c9.198-5.839,19.824-4.896,28.855-11.732
					c-0.197,9.819-5.867,23.192-13.653,30.805C412.646,195.404,407.021,192.138,400.04,185.491"/>
			</g>
			<g>
				<path fill="#A9D39B" d="M455.837,168.568c-6.792,3.121-11.823-6.368-12.444-13.467c-0.713-10.873,5.209-19.745,3.542-30.947
					c8.523,4.882,17.537,16.271,20.483,26.755C470.58,162.262,465.015,165.63,455.837,168.568"/>
			</g>
			<g>
				<path fill="#D18A35" d="M649.425,208.09c-3.977-6.327,4.778-12.55,11.735-14.091c10.688-2.119,20.255,2.598,31.146-0.511
					c-3.732,9.086-13.854,19.505-23.866,23.787C657.598,221.887,653.532,216.807,649.425,208.09"/>
			</g>
			<g>
				<path fill="#A9D39B" d="M648.752,237.32c-3.023-6.834,6.537-11.73,13.643-12.25c10.883-0.559,19.669,5.491,30.896,3.983
					c-5.005,8.453-16.521,17.304-27.047,20.098C654.848,252.152,651.561,246.539,648.752,237.32"/>
			</g>
			<g>
				<path fill="#D2E081" d="M636.703,204.685c6.145-2.547,2.93-11.616-1.357-16.343c-6.721-7.082-16.112-8.604-22.467-16.515
					c-1.922,8.556,0.14,21.384,5.254,29.691C623.69,210.502,629.249,208.908,636.703,204.685"/>
			</g>
			<g>
				<path fill="#D2E081" d="M675.654,261.874c1.559-4.469-7.646-6.799-13.979-6.599c-9.664,0.461-16.414,4.864-26.531,4.756
					c5.77,4.881,17.33,9.52,27.037,10.479C672.695,271.533,674.678,267.808,675.654,261.874"/>
			</g>
			<g>
				<path fill="#126864" d="M706.254,230.328c5.988,2.891,10.618-5.544,11.296-11.887c0.816-9.73-4.296-17.754-2.618-27.762
					c-7.666,4.259-15.871,14.332-18.67,23.68C693.251,224.484,698.141,227.572,706.254,230.328"/>
			</g>
			<g>
				<path fill="#1B877F" d="M640.352,344.242c4.956,4.436,11.74-2.388,14.145-8.296c3.479-9.125,0.785-18.251,5.167-27.402
					c-8.545,1.97-19.218,9.381-24.493,17.587C629.476,335.029,633.32,339.35,640.352,344.242"/>
			</g>
			<g>
				<path fill="#D2E081" d="M687.443,362.195c6.648,0.137,7.353-9.457,5.329-15.51c-3.302-9.188-11.29-14.357-13.927-24.157
					c-5.201,7.06-8.471,19.635-7.129,29.299C673.189,362.286,678.92,363.062,687.443,362.195"/>
			</g>
			<g>
				<path fill="#D2E081" d="M746.555,348.551c5.186,4.164,11.597-3.011,13.683-9.041c2.984-9.296-0.194-18.265,3.693-27.639
					c-8.427,2.425-18.688,10.396-23.517,18.872C735.201,339.934,739.271,344.04,746.555,348.551"/>
			</g>
			<g>
				<path fill="#D18A35" d="M719.031,346.274c-6.98,2.675-11.389-7.115-11.555-14.241c-0.014-10.896,6.465-19.367,5.523-30.656
					c8.191,5.419,16.455,17.366,18.721,28.018C734.15,340.925,728.38,343.93,719.031,346.274"/>
			</g>
			<g>
				<path fill="#D18A35" d="M804.271,310.977c-4.031-6.293,4.67-12.59,11.61-14.191c10.67-2.214,20.279,2.422,31.143-0.781
					c-3.652,9.115-13.685,19.624-23.658,23.994C812.562,324.705,808.455,319.661,804.271,310.977"/>
			</g>
			<g>
				<path fill="#A9D39B" d="M786.601,316.122c6.557,1.102,8.646-8.292,7.525-14.571c-1.935-9.571-9.087-15.846-10.272-25.924
					c-6.172,6.229-11.233,18.197-11.309,27.954C772.482,314.143,778.041,315.741,786.601,316.122"/>
			</g>
			<g>
				<path fill="#D2E081" d="M798.059,356.912c2.968,5.951,11.791,2.111,16.209-2.492c6.599-7.196,7.461-16.672,14.911-23.562
					c-8.67-1.322-21.323,1.628-29.253,7.31C791.349,344.335,793.326,349.771,798.059,356.912"/>
			</g>
			<g>
				<path fill="#D2E081" d="M858.77,370.498c4.235,5.128,11.966-0.604,15.23-6.085c4.803-8.499,3.507-17.926,9.209-26.319
					c-8.743,0.668-20.405,6.397-26.85,13.723C849.396,359.758,852.551,364.607,858.77,370.498"/>
			</g>
			<g>
				<path fill="#D2E081" d="M900.618,357.456c5.614,3.565,11.191-4.276,12.6-10.499c1.94-9.568-2.21-18.132,0.617-27.877
					c-8.109,3.34-17.428,12.396-21.287,21.356C888.382,350.142,892.881,353.779,900.618,357.456"/>
			</g>
			<g>
				<path fill="#D2E081" d="M905.984,372.422c-0.174,6.646,9.418,7.402,15.479,5.414c9.207-3.256,14.421-11.215,24.232-13.799
					c-7.031-5.239-19.59-8.578-29.26-7.287C905.971,358.166,905.161,363.893,905.984,372.422"/>
			</g>
			<g>
				<path fill="#D18A35" d="M477.005,176.782c-7.356-1.325-6.053-11.986-2.503-18.165c5.638-9.326,15.57-13.213,20.613-23.355
					c4.195,8.881,5.074,23.38,1.49,33.664C492.704,180.044,486.213,179.623,477.005,176.782"/>
			</g>
			<g>
				<path fill="#D18A35" d="M576.262,166.576c-7.355-1.325-6.053-11.988-2.502-18.166c5.638-9.324,15.568-13.213,20.611-23.355
					c4.198,8.881,5.075,23.38,1.492,33.663C591.962,169.838,585.47,169.417,576.262,166.576"/>
			</g>
			<g>
				<path fill="#618751" d="M618.087,168.025c-6.748,3.213-11.909-6.205-12.63-13.294c-0.863-10.862,4.935-19.814,3.113-30.995
					c8.591,4.766,17.764,16.028,20.852,26.471C632.742,161.514,627.224,164.959,618.087,168.025"/>
			</g>
			<g>
				<path fill="#D18A35" d="M641.849,183.267c-7.437-0.759-6.953-11.489-3.885-17.92c4.907-9.73,14.511-14.367,18.765-24.866
					c4.864,8.534,6.848,22.925,4.062,33.451C657.753,185.316,651.247,185.394,641.849,183.267"/>
			</g>
			<g>
				<path fill="#1B877F" d="M488.221,218.847c-5.985,0.899-6.205-7.014-3.409-12.786c4.442-8.786,12.448-14.45,16.397-23.714
					c3.525,5.842,4.43,16.96,1.662,25.948C499.858,218.032,495.721,218.642,488.221,218.847"/>
			</g>
			<g>
				<path fill="#83B571" d="M518.056,182.303c-4.446,4.109-9.075-2.311-10.008-8.656c-1.266-9.764,2.174-18.949,0.23-28.83
					c6.201,2.85,13.198,11.537,15.964,20.525C527.221,175.088,524.142,177.918,518.056,182.303"/>
			</g>
			<g>
				<path fill="#A9D39B" d="M791.574,524.329c2.557-5.267,8.988-1.11,12.064,4.278c4.578,8.354,4.714,17.842,9.94,26.061
					c-6.589-0.384-15.954-5.748-21.61-12.875C785.852,534.058,787.632,530.425,791.574,524.329"/>
			</g>
			<g>
				<path fill="#1B877F" d="M821.776,528.609c4.616-3.601,8.558,2.966,8.944,9.157c0.426,9.517-3.635,18.093-2.564,27.776
					c-5.744-3.252-11.788-12.193-13.724-21.084C812.352,534.82,815.55,532.343,821.776,528.609"/>
			</g>
			<g>
				<path fill="#83B571" d="M836.274,525.646c0.368-6.041,8.154-4.604,13.216-0.665c7.664,6.179,11.533,15.192,19.768,20.986
					c-6.449,2.228-17.513,0.794-25.725-3.789C834.641,537.197,834.908,533.023,836.274,525.646"/>
			</g>
			<g>
				<path fill="#126864" d="M845.037,497.592c2.516,6.156,11.602,2.99,16.35-1.272c7.119-6.685,8.689-16.068,16.632-22.38
					c-8.545-1.968-21.383,0.027-29.718,5.102C839.287,484.549,840.854,490.116,845.037,497.592"/>
			</g>
			<g>
				<path fill="#D2E081" d="M857.801,518.651c-1.415,6.496,7.862,9.039,14.19,8.221c9.653-1.468,16.267-8.31,26.392-9.004
					c-5.926-6.465-17.633-12.103-27.373-12.647C860.461,504.646,858.595,510.12,857.801,518.651"/>
			</g>
			<g>
				<path fill="#83B571" d="M824.854,503.646c-1.295-4.443,4.678-5.42,9.336-3.891c7.111,2.467,12.224,7.953,19.646,9.996
					c-4.065,3.271-12.396,5.093-19.489,3.917C826.66,512.38,825.775,509.308,824.854,503.646"/>
			</g>
			<g>
				<path fill="#83B571" d="M793.972,483.092c-3.056-3.475,1.938-6.892,6.808-7.482c7.485-0.783,14.441,2.016,22.029,0.72
					c-2.295,4.684-9.066,9.87-15.988,11.812C799.312,490.235,797.209,487.828,793.972,483.092"/>
			</g>
			<g>
				<path fill="#D2E081" d="M705.797,554.54c-3.989,6.51,5.114,12.769,12.284,14.27c11.024,2.048,20.777-2.874,32.019,0.191
					c-3.985-9.247-14.556-19.774-24.913-24.043C713.965,540.355,709.875,545.59,705.797,554.54"/>
			</g>
			<g>
				<path fill="#126864" d="M742.446,582.404c0.59-7.452,11.327-7.217,17.828-4.301c9.839,4.681,14.697,14.177,25.292,18.184
					c-8.417,5.061-22.758,7.377-33.348,4.84C740.767,598.353,740.537,591.854,742.446,582.404"/>
			</g>
			<g>
				<path fill="#D18A35" d="M789.447,557.01c6.02-4.43,12.868,3.842,14.916,10.666c2.902,10.503-1.101,20.391,2.802,31.023
					c-9.333-3.053-20.471-12.38-25.48-22.049C776.287,566.178,781.052,561.748,789.447,557.01"/>
			</g>
			<g>
				<path fill="#126864" d="M867.636,317.639c-7.032-2.531-3.975-12.826,0.555-18.328c7.108-8.258,17.55-10.439,24.21-19.604
					c2.66,9.453,1.113,23.898-4.129,33.444C882.578,323.467,876.246,321.973,867.636,317.639"/>
			</g>
			<g>
				<path fill="#D18A35" d="M730.974,228.032c-7.03-2.533-3.974-12.828,0.555-18.329c7.108-8.258,17.552-10.439,24.211-19.603
					c2.661,9.453,1.113,23.899-4.13,33.443C745.915,233.859,739.585,232.365,730.974,228.032"/>
			</g>
			<g>
				<path fill="#83B571" d="M757.675,301.503c-4.322,4.236-9.139-2.046-10.256-8.362c-1.548-9.723,1.621-19.003-0.606-28.822
					c6.28,2.667,13.528,11.146,16.553,20.051C766.627,294.027,763.633,296.943,757.675,301.503"/>
			</g>
			<g>
				<path fill="#1B877F" d="M773.67,265.564c-5.02,3.383-8.616-3.67-8.566-10.085c0.238-9.841,5.039-18.395,4.629-28.456
					c5.693,3.765,11.281,13.418,12.641,22.723C783.83,259.835,780.355,262.161,773.67,265.564"/>
			</g>
			<g>
				<path fill="#618751" d="M796.139,275.602c5.207,4.136,11.579-3.074,13.633-9.115c2.937-9.312-0.29-18.263,3.547-27.657
					c-8.414,2.469-18.634,10.494-23.416,18.996C784.738,267.042,788.831,271.13,796.139,275.602"/>
			</g>
			<g>
				<path fill="#83B571" d="M820.982,286.205c-6.392,0.004-5.382-8.295-1.558-13.884c6.015-8.478,15.261-13.139,20.833-22.193
					c2.768,6.651,1.973,18.402-2.322,27.354C833.261,287.178,828.848,287.166,820.982,286.205"/>
			</g>
			<g>
				<path fill="#A9D39B" d="M860.205,287.006c-5.919,2.411-8.107-5.656-6.669-12.275c2.381-10.118,9.192-17.919,10.945-28.404
					c5.069,5.12,8.757,16.306,8.146,26.218C871.946,283.285,867.854,284.936,860.205,287.006"/>
			</g>
			<g>
				<path fill="#D18A35" d="M844.703,241.675c-6.933,2.792-11.505-6.927-11.789-14.046c-0.193-10.896,6.146-19.476,5.017-30.745
					c8.278,5.282,16.742,17.092,19.183,27.704C859.733,236.077,854.012,239.176,844.703,241.675"/>
			</g>
			<g>
				<path fill="#83B571" d="M684.481,570.405c-0.974,5.01-7.325,2.95-11.121-0.9c-5.726-6.012-7.968-13.975-14.212-19.728
					c5.638-1.152,14.729,1.27,21.089,6.006C687.121,560.93,686.438,564.389,684.481,570.405"/>
			</g>
			<g>
				<path fill="#83B571" d="M653.729,624.343c-5.053-0.724-3.312-7.169,0.349-11.153c5.72-6.017,13.562-8.648,18.998-15.17
					c1.428,5.574-0.539,14.771-4.953,21.36C663.323,626.51,659.835,625.999,653.729,624.343"/>
			</g>
			<g>
				<path fill="#11514F" d="M650.047,506.052c-1.91,2.962,6.876,5.338,13.075,5.728c9.464,0.48,16.446-2.009,26.314-1.095
					c-5.209-3.857-16.091-8.026-25.485-9.493C653.777,499.612,651.513,502.03,650.047,506.052"/>
			</g>
			<g>
				<path fill="#11514F" d="M569.587,292.967c3.341,1.123,3.486-7.975,2.34-14.081c-1.858-9.294-5.987-15.449-7.524-25.239
					c-2.46,5.998-3.828,17.571-2.942,27.036C562.431,290.933,565.328,292.534,569.587,292.967"/>
			</g>
			<g>
				<path fill="#83B571" d="M598.252,231.646c-4.922,1.349-5.895-5.256-4.128-10.369c2.848-7.798,8.988-13.338,11.374-21.487
					c3.533,4.541,5.397,13.763,3.976,21.564C607.916,229.806,604.512,230.728,598.252,231.646"/>
			</g>
			<g>
				<path fill="#D2E081" d="M685.904,180.021c6.963,3.136,12.02-6.686,12.603-13.989c0.64-11.193-5.474-20.246-3.854-31.785
					c-8.667,5.121-17.776,16.938-20.703,27.751C670.803,173.71,676.51,177.107,685.904,180.021"/>
			</g>
			<g>
				<path fill="#618751" d="M740.742,189.705c7.62,0.481,8.892-10.491,6.863-17.532c-3.347-10.701-12.261-17.018-14.811-28.386
					c-6.307,7.848-10.667,22.115-9.594,33.267C724.385,189.122,730.924,190.29,740.742,189.705"/>
			</g>
			<g>
				<path fill="#A9D39B" d="M784.383,223.531c7.621,0.479,8.891-10.493,6.861-17.533c-3.345-10.701-12.257-17.017-14.809-28.386
					c-6.308,7.848-10.665,22.115-9.593,33.267C768.026,222.949,774.566,224.116,784.383,223.531"/>
			</g>
			<g>
				<path fill="#126864" d="M812.008,226.802c-7.013,2.586-11.297-7.263-11.372-14.388c0.129-10.896,6.717-19.284,5.919-30.583
					c8.121,5.522,16.231,17.575,18.36,28.256C827.193,221.647,821.386,224.576,812.008,226.802"/>
			</g>
			<g>
				<path fill="#1B877F" d="M881.141,260.939c-5.479-5.083,1.365-13.36,7.685-16.65c9.774-4.815,20.238-2.735,29.952-8.561
					c-1.253,9.742-8.331,22.427-16.892,29.157C892.607,272.149,887.367,268.297,881.141,260.939"/>
			</g>
			<g>
				<path fill="#618751" d="M906.853,290.094c-2.398-7.079,7.562-11.1,14.685-10.983c10.889,0.418,19.1,7.226,30.416,6.73
					c-5.739,7.972-18.004,15.757-28.736,17.601C911.598,305.411,908.824,299.527,906.853,290.094"/>
			</g>
			<g>
				<path fill="#A9D39B" d="M922.855,330.101c-2.398-7.079,7.562-11.099,14.685-10.982c10.889,0.419,19.099,7.228,30.415,6.73
					c-5.739,7.971-18.004,15.757-28.734,17.601C927.603,345.418,924.828,339.535,922.855,330.101"/>
			</g>
			<g>
				<path fill="#D18A35" d="M930.857,389.312c-2.399-7.077,7.561-11.099,14.686-10.983c10.887,0.42,19.098,7.229,30.414,6.733
					c-5.739,7.971-18.004,15.757-28.734,17.6C935.604,404.631,932.83,398.748,930.857,389.312"/>
			</g>
			<g>
				<path fill="#D18A35" d="M896.702,421.707c3.841-6.413,13.354-1.429,17.88,4.074c6.732,8.565,6.864,19.232,14.57,27.533
					c-9.789,0.79-23.664-3.513-32.02-10.494C888.106,435.243,890.791,429.319,896.702,421.707"/>
			</g>
			<g>
				<path fill="#D18A35" d="M887.839,491.354c-5.226-5.347,2.015-13.278,8.488-16.255c9.997-4.332,20.347-1.743,30.335-7.085
					c-1.729,9.668-9.418,21.993-18.297,28.295C898.741,503.111,893.695,499.006,887.839,491.354"/>
			</g>
			<g>
				<path fill="#83B571" d="M852.514,458.623c-3.415-5.401,4.14-8.979,10.909-8.729c10.379,0.562,19.258,5.893,29.887,5.771
					c-4.146,5.89-14.508,11.491-24.37,12.638C858.245,469.523,855.898,465.785,852.514,458.623"/>
			</g>
			<g>
				<path fill="#83B571" d="M555.579,674.517c3.399-4.768,9.05,0.403,11.184,6.229c3.12,9.001,1.671,18.379,5.456,27.354
					c-6.433-1.479-14.771-8.329-19.161-16.3C548.317,683.154,550.676,679.868,555.579,674.517"/>
			</g>
			<g>
				<path fill="#83B571" d="M729.84,634.512c1.415-5.682,8.567-2.941,12.687,1.699c6.199,7.229,8.289,16.488,15.099,23.451
					c-6.528,0.981-16.796-2.336-23.801-8.145C726.244,645.208,727.236,641.287,729.84,634.512"/>
			</g>
			<g>
				<path fill="#D18A35" d="M754.08,623.358c2.062-7.185,12.537-4.816,18.326-0.663c8.711,6.546,11.579,16.82,21.165,22.857
					c-9.258,3.282-23.771,2.695-33.645-1.902C749.257,638.652,750.328,632.235,754.08,623.358"/>
			</g>
			<g>
				<path fill="#A9D39B" d="M785.999,617.394c-1.85-7.242,8.388-10.488,15.482-9.828c10.824,1.248,18.491,8.667,29.812,9.035
					c-6.33,7.509-19.153,14.334-29.996,15.354C789.564,633.03,787.245,626.952,785.999,617.394"/>
			</g>
			<g>
				<path fill="#618751" d="M818.293,574.259c3.541-6.582,13.272-2.043,18.048,3.245c7.121,8.247,7.743,18.896,15.826,26.83
					c-9.743,1.242-23.801-2.415-32.473-9.004C810.332,588.179,812.74,582.138,818.293,574.259"/>
			</g>
			<g>
				<path fill="#1B877F" d="M481.855,134.324c-7.337,1.423-9.979-8.988-8.903-16.031c1.882-10.733,9.736-17.949,10.77-29.23
					c7.125,6.762,13.188,19.962,13.565,30.845C497.672,131.685,491.468,133.641,481.855,134.324"/>
			</g>
			<g>
				<path fill="#D18A35" d="M423.047,146.303c-7.336,1.422-9.98-8.989-8.902-16.031c1.881-10.733,9.734-17.951,10.767-29.23
					c7.126,6.761,13.188,19.962,13.567,30.843C438.864,143.663,432.66,145.619,423.047,146.303"/>
			</g>
			<g>
				<path fill="#618751" d="M447.874,115.066c-7.4-1.05-6.495-11.754-3.18-18.059c5.286-9.529,15.068-13.786,19.729-24.109
					c4.523,8.718,5.943,23.174,2.746,33.584C463.685,117.74,457.182,117.561,447.874,115.066"/>
			</g>
			<g>
				<path fill="#D2E081" d="M358.661,143.771c7.296,2.253,11.104-8.117,10.78-15.437c-0.746-11.186-7.932-19.414-7.746-31.066
					c-7.975,6.152-15.555,19.004-17.122,30.093C342.896,139.373,348.979,142.039,358.661,143.771"/>
			</g>
			<g>
				<path fill="#126864" d="M325.131,151.811c7.299,2.253,11.104-8.118,10.78-15.438c-0.746-11.187-7.929-19.413-7.747-31.064
					c-7.971,6.149-15.551,19.001-17.12,30.091C309.367,147.413,315.45,150.078,325.131,151.811"/>
			</g>
			<g>
				<path fill="#D2E081" d="M404.36,134.179c7.611,0.628,9.093-10.319,7.201-17.397c-3.14-10.764-11.927-17.25-14.259-28.667
					c-6.459,7.724-11.093,21.907-10.234,33.074C388.018,133.28,394.534,134.572,404.36,134.179"/>
			</g>
			<g>
				<path fill="#126864" d="M520.834,133.673c-6.5,3.689-12.322-5.337-13.548-12.356c-1.64-10.772,3.503-20.116,0.887-31.137
					c8.909,4.137,18.863,14.715,22.691,24.91C534.984,126.13,529.728,129.961,520.834,133.673"/>
			</g>
			<g>
				<path fill="#D18A35" d="M547.094,138.342c-7.396,1.076-9.541-9.45-8.133-16.435c2.388-10.631,10.575-17.468,12.144-28.687
					c6.794,7.093,12.226,20.564,12.086,31.453C563.019,136.458,556.729,138.115,547.094,138.342"/>
			</g>
			<g>
				<path fill="#A9D39B" d="M576.262,120.949c-7.355-1.326-6.053-11.987-2.502-18.166c5.638-9.323,15.57-13.211,20.613-23.354
					c4.196,8.881,5.073,23.38,1.49,33.663C591.964,124.212,585.473,123.791,576.262,120.949"/>
			</g>
			<g>
				<path fill="#1B877F" d="M614.046,116.016c-7.198-2.014-4.897-12.505-0.78-18.319c6.491-8.755,16.744-11.688,22.72-21.312
					c3.343,9.236,2.851,23.754-1.685,33.654C629.369,120.74,622.946,119.711,614.046,116.016"/>
			</g>
			<g>
				<path fill="#126864" d="M636.01,140.477c4.16,6.402,13.725,0.878,18.164-4.949c6.594-9.069,6.346-19.991,13.949-28.821
					c-10.062-0.379-24.113,4.634-32.422,12.147C626.719,127.002,629.683,132.947,636.01,140.477"/>
			</g>
			<g>
				<path fill="#1B877F" d="M685.904,180.021c6.963,3.136,12.02-6.686,12.603-13.989c0.64-11.193-5.474-20.246-3.854-31.785
					c-8.667,5.121-17.776,16.938-20.703,27.751C670.803,173.71,676.51,177.107,685.904,180.021"/>
			</g>
			<g>
				<path fill="#1B877F" d="M267.845,179.525c-2.85,6.909-12.995,3.386-18.286-1.389c-7.924-7.478-9.629-18.008-18.479-25.078
					c9.565-2.228,23.925-0.024,33.221,5.648C274.346,164.864,272.562,171.121,267.845,179.525"/>
			</g>
			<g>
				<path fill="#D2E081" d="M263.444,262.286c3.974,1.124,5.405-7.479,4.828-13.273c-1.019-8.831-5.272-14.718-5.824-24.007
					c-3.862,5.631-7.147,16.553-7.355,25.523C254.879,260.241,258.237,261.801,263.444,262.286"/>
			</g>
			<g>
				<path fill="#A9D39B" d="M102.853,460.597c5.563-5.231-1.573-13.664-8.096-17c-10.095-4.878-20.799-2.696-30.837-8.612
					c1.413,9.969,8.837,22.908,17.705,29.752C91.24,472.129,96.564,468.158,102.853,460.597"/>
			</g>
		</g>
		<path clip-path="url(#SVGID_2_)" fill="#0B564B" d="M-181.185,1206.472l1286.55-13.698l-16.988-216.53
			c0,0-377.262-39.205-529.157-123.979c0,0-336.531-92.299-423.381-2.517c0,0-164.416,87.458-286.5,84.534L-181.185,1206.472z"/>
		<use xlink:href="#SVGID_3_"  overflow="visible" fill="none" stroke="#FFFFFF" stroke-width="3" stroke-miterlimit="10"/>
	</g>
	<g>
		<defs>
			<path id="SVGID_5_" d="M-42.171,1007.341c0,15.251-5.802,27.608-12.953,27.608h-991.615c-7.153,0-12.953-12.357-12.953-27.608
				V-11.124c0-15.251,5.8-27.612,12.953-27.612h991.615c7.151,0,12.953,12.361,12.953,27.612V1007.341z"/>
		</defs>
		<clipPath id="SVGID_4_">
			<use xlink:href="#SVGID_5_"  overflow="visible"/>
		</clipPath>
		<g clip-path="url(#SVGID_4_)">
			<path opacity="0.6" fill="#A6C15A" d="M291.314,712.549c0,0-477.167-40.821-669.273-129.072c0,0-425.651-96.09-535.501-2.621
				c0,0-207.955,91.048-362.37,88.005l-38.602,283.365l1627.229-14.261L291.314,712.549z M-615.565,645.066
				c-4.246-12.744-20.451-17.515-24.292-31.148c-2.329-2.709-4.173-5.792-5.116-9.57c0.943,3.778,2.787,6.861,5.116,9.57
				c-0.251-0.889-0.451-1.813-0.593-2.785c0.142,0.972,0.342,1.896,0.593,2.785c8.823,10.254,24.767,15.044,26.553,31.148
				c-1.786-16.104-17.729-20.895-26.553-31.148C-636.017,627.552-619.812,632.322-615.565,645.066z"/>
			<path opacity="0.6" fill="#D2E081" d="M273.569,748.87c0,0-467.879-40.819-656.249-129.072c0,0-417.37-96.091-525.083-2.623
				c0,0-203.908,91.047-355.315,88.006l-37.856,283.365l1595.571-14.262L273.569,748.87z M-615.565,645.066
				c-4.246-12.744-20.451-17.515-24.292-31.148c-2.329-2.709-4.173-5.792-5.116-9.57c0.943,3.778,2.787,6.861,5.116,9.57
				c-0.251-0.889-0.451-1.813-0.593-2.785c0.142,0.972,0.342,1.896,0.593,2.785c8.823,10.254,24.767,15.044,26.553,31.148
				c-1.786-16.104-17.729-20.895-26.553-31.148C-636.017,627.552-619.812,632.322-615.565,645.066z"/>
			<path opacity="0.6" fill="#062821" d="M-1066.2,1070.365l1911.059-25.234l-24.562-207.142c0,0-545.537-37.509-765.177-118.609
				c0,0-486.636-88.298-612.229-2.406c0,0-332.549,122.424-509.09,119.627V1070.365z"/>
			<path opacity="0.6" fill="#60BA99" d="M244.524,1079.348l-1286.55-13.698l16.989-216.525c0,0,377.265-39.21,529.149-123.982
				c0,0,336.537-92.301,423.389-2.519c0,0,164.414,87.457,286.5,84.538L244.524,1079.348z"/>
			<path opacity="0.6" fill="#1B877F" d="M235.445,1106.59l-1286.552-13.7l16.988-216.526c0,0,377.266-39.21,529.151-123.981
				c0,0,336.536-92.296,423.39-2.517c0,0,164.413,87.456,286.499,84.535L235.445,1106.59z"/>
			<path opacity="0.6" fill="#126864" d="M-1135.575,1164.949L53.84,1138.292L36.852,921.765
				c-126.448-13.143-78.307,121.562-554.086-143.981c0,0-311.603-72.298-398.452,17.481c0,0-93.28,74.423-215.365,71.501
				L-1135.575,1164.949z"/>
			<path opacity="0.6" fill="#062821" d="M-1232.71,1206.472l1286.55-13.698l-16.988-216.53c0,0-377.262-39.205-529.157-123.979
				c0,0-336.531-92.299-423.381-2.517c0,0-164.416,87.458-286.5,84.534L-1232.71,1206.472z"/>
		</g>
		<path clip-path="url(#SVGID_4_)" fill="#0B564B" d="M-1232.71,1206.472l1286.55-13.698l-16.988-216.53
			c0,0-377.262-39.205-529.157-123.979c0,0-336.531-92.299-423.381-2.517c0,0-164.416,87.458-286.5,84.534L-1232.71,1206.472z"/>
		<use xlink:href="#SVGID_5_"  overflow="visible" fill="none" stroke="#FFFFFF" stroke-width="3" stroke-miterlimit="10"/>
	</g>
	<g>
		<defs>
			<path id="SVGID_11_" d="M-42.171-53.702c0,15.251-5.802,27.608-12.953,27.608h-991.615c-7.153,0-12.953-12.357-12.953-27.608
				v-1018.465c0-15.251,5.8-27.612,12.953-27.612h991.615c7.151,0,12.953,12.361,12.953,27.612V-53.702z"/>
		</defs>
		<clipPath id="SVGID_6_">
			<use xlink:href="#SVGID_11_"  overflow="visible"/>
		</clipPath>
		<g clip-path="url(#SVGID_6_)">
			<path opacity="0.6" fill="#062821" d="M-1066.2,9.322L844.858-15.912l-24.562-207.142c0,0-545.537-37.509-765.177-118.609
				c0,0-486.636-88.298-612.229-2.406c0,0-332.549,122.424-509.09,119.627V9.322z"/>
			<path opacity="0.6" fill="#60BA99" d="M244.524,18.305l-1286.55-13.698l16.989-216.525c0,0,377.265-39.21,529.149-123.982
				c0,0,336.537-92.301,423.389-2.519c0,0,164.414,87.457,286.5,84.538L244.524,18.305z"/>
			<path opacity="0.6" fill="#1B877F" d="M235.445,45.547l-1286.552-13.7l16.988-216.526c0,0,377.266-39.21,529.151-123.981
				c0,0,336.536-92.296,423.39-2.517c0,0,164.413,87.456,286.499,84.535L235.445,45.547z"/>
			<path opacity="0.6" fill="#126864" d="M-1135.575,103.906L53.84,77.249L36.852-139.278
				C-89.597-152.421-41.455-17.716-517.234-283.26c0,0-311.603-72.298-398.452,17.481c0,0-93.28,74.423-215.365,71.501
				L-1135.575,103.906z"/>
			<path opacity="0.6" fill="#062821" d="M-1232.71,145.429L53.84,131.73L36.852-84.8c0,0-377.262-39.205-529.157-123.979
				c0,0-336.531-92.299-423.381-2.517c0,0-164.416,87.458-286.5,84.534L-1232.71,145.429z"/>
		</g>
		<path clip-path="url(#SVGID_6_)" fill="#0B564B" d="M-1232.71,145.429L53.84,131.73L36.852-84.8
			c0,0-377.262-39.205-529.157-123.979c0,0-336.531-92.299-423.381-2.517c0,0-164.416,87.458-286.5,84.534L-1232.71,145.429z"/>
		<use xlink:href="#SVGID_11_"  overflow="visible" fill="none" stroke="#FFFFFF" stroke-width="3" stroke-miterlimit="10"/>
	</g>
	<g>
		<defs>
			<path id="SVGID_13_" d="M1009.354-53.702c0,15.251-5.802,27.608-12.953,27.608H4.786c-7.153,0-12.953-12.357-12.953-27.608
				v-1018.465c0-15.251,5.8-27.612,12.953-27.612h991.615c7.151,0,12.953,12.361,12.953,27.612V-53.702z"/>
		</defs>
		<clipPath id="SVGID_8_">
			<use xlink:href="#SVGID_13_"  overflow="visible"/>
		</clipPath>
		<g clip-path="url(#SVGID_8_)">
			<path opacity="0.6" fill="#062821" d="M-14.675,9.322l1911.059-25.234l-24.562-207.142c0,0-545.537-37.509-765.177-118.609
				c0,0-486.636-88.298-612.229-2.406c0,0-332.549,122.424-509.09,119.627V9.322z"/>
			<path opacity="0.6" fill="#60BA99" d="M1296.05,18.305L9.5,4.606l16.989-216.525c0,0,377.265-39.21,529.149-123.982
				c0,0,336.537-92.301,423.389-2.519c0,0,164.414,87.457,286.5,84.538L1296.05,18.305z"/>
			<path opacity="0.6" fill="#1B877F" d="M1286.971,45.547L0.419,31.847L17.407-184.68c0,0,377.266-39.21,529.151-123.981
				c0,0,336.536-92.296,423.39-2.517c0,0,164.413,87.456,286.499,84.535L1286.971,45.547z"/>
			<path opacity="0.6" fill="#60BA99" d="M-246.48,72.785L1005.48,59.089l3.226-180.975c0,0-386.876-74.759-534.681-159.537
				c0,0-327.487-92.298-412.005-2.514c0,0-159.997,87.456-278.801,84.532L-246.48,72.785z"/>
			<path opacity="0.6" fill="#062821" d="M-146.221-139.15c0,0,331.157-9.525,454.985-67.741
				c123.825-58.216,284.108-45.191,390.829-30.301c106.723,14.892,233.721,131.31,304.126,88.422l26.078,205.606"/>
			<path opacity="0.6" fill="#126864" d="M-84.05,103.906l1189.415-26.657l-16.988-216.527
				C961.929-152.421,1010.07-17.716,534.291-283.26c0,0-311.603-72.298-398.452,17.481c0,0-93.28,74.423-215.365,71.501
				L-84.05,103.906z"/>
			<path opacity="0.6" fill="#062821" d="M-181.185,145.429l1286.55-13.698L1088.377-84.8c0,0-377.262-39.205-529.157-123.979
				c0,0-336.531-92.299-423.381-2.517c0,0-164.416,87.458-286.5,84.534L-181.185,145.429z"/>
		</g>
		<path clip-path="url(#SVGID_8_)" fill="#0B564B" d="M-181.185,145.429l1286.55-13.698L1088.377-84.8
			c0,0-377.262-39.205-529.157-123.979c0,0-336.531-92.299-423.381-2.517c0,0-164.416,87.458-286.5,84.534L-181.185,145.429z"/>
		<use xlink:href="#SVGID_13_"  overflow="visible" fill="none" stroke="#FFFFFF" stroke-width="3" stroke-miterlimit="10"/>
	</g>
</g>
<g id="Calque_1">
</g>
</svg>
