<svg xmlns="http://www.w3.org/2000/svg" xmlns:xlink="http://www.w3.org/1999/xlink" viewBox="0 0 1000 1000"><defs><style>.cls-1{fill:none;stroke:#fff;stroke-miterlimit:10;stroke-width:3px;}.cls-2{clip-path:url(#clip-path);}.cls-3{fill:#a5c352;}.cls-3,.cls-4,.cls-5,.cls-6,.cls-7,.cls-8{opacity:0.6;}.cls-12,.cls-4{fill:#d2e17c;}.cls-5{fill:#052821;}.cls-6{fill:#5dbb99;}.cls-11,.cls-7{fill:#0f8880;}.cls-10,.cls-8{fill:#086965;}.cls-9{clip-path:url(#clip-path-2);}.cls-13{fill:#d38a29;}.cls-14{fill:#81cbad;}.cls-15{fill:#60884f;}</style><clipPath id="clip-path"><path class="cls-1" d="M1009.35,1007.34c0,15.25-5.8,27.61-13,27.61H4.79c-7.16,0-13-12.36-13-27.61V-11.12c0-15.26,5.8-27.62,13-27.62H996.4c7.15,0,13,12.36,13,27.62Z"/></clipPath><clipPath id="clip-path-2"><path class="cls-1" d="M2074,1007.34c0,15.25-5.8,27.61-12.95,27.61H1069.42c-7.15,0-13-12.36-13-27.61V-11.12c0-15.26,5.8-27.62,13-27.62H2061c7.15,0,12.95,12.36,12.95,27.62Z"/></clipPath></defs><title>babySproutbg</title><g id="Calque_2" data-name="Calque 2"><g class="cls-2"><path class="cls-3" d="M1340.38,702S863.21,661.16,671.11,572.91c0,0-425.65-96.09-535.5-2.62,0,0-208,91.05-362.37,88l-38.61,283.36L1361.86,927.4ZM433.5,634.5c-4.25-12.74-20.45-17.51-24.29-31.15a23.06,23.06,0,0,1-5.12-9.57,23.06,23.06,0,0,0,5.12,9.57,21.34,21.34,0,0,1-.59-2.78,21.34,21.34,0,0,0,.59,2.78c8.82,10.26,24.77,15,26.55,31.15C434,618.4,418,613.61,409.21,603.35,413.05,617,429.25,621.76,433.5,634.5Z"/><path class="cls-4" d="M1322.64,738.31S854.76,697.49,666.39,609.23c0,0-417.37-96.09-525.09-2.62,0,0-203.91,91-355.31,88L-251.87,978,1343.7,963.72ZM433.5,634.5c-4.25-12.74-20.45-17.51-24.29-31.15a23.06,23.06,0,0,1-5.12-9.57,23.06,23.06,0,0,0,5.12,9.57,21.34,21.34,0,0,1-.59-2.78,21.34,21.34,0,0,0,.59,2.78c8.82,10.26,24.77,15,26.55,31.15C434,618.4,418,613.61,409.21,603.35,413.05,617,429.25,621.76,433.5,634.5Z"/><path class="cls-5" d="M-17.13,1059.8l1911.05-25.23-24.56-207.14s-545.54-37.51-765.18-118.61c0,0-486.63-88.3-612.22-2.41,0,0-332.55,122.42-509.09,119.63Z"/><path class="cls-6" d="M1293.59,1068.78,7,1055.09,24,838.56s377.26-39.21,529.15-124c0,0,336.54-92.3,423.39-2.52,0,0,164.41,87.46,286.5,84.54Z"/><path class="cls-7" d="M1284.51,1096-2,1082.33,15,865.8s377.26-39.21,529.15-124c0,0,336.54-92.3,423.39-2.52,0,0,164.41,87.46,286.5,84.54Z"/><path class="cls-6" d="M-248.94,1123.26l1252-13.69,3.23-181S619.37,853.84,471.57,769.06c0,0-327.49-92.3-412-2.52,0,0-160,87.46-278.8,84.54Z"/><path class="cls-5" d="M-148.68,911.33s331.16-9.53,455-67.74,284.1-45.19,390.82-30.3,233.72,131.31,304.13,88.42l26.08,205.61"/><path class="cls-8" d="M-86.51,1154.39l1189.42-26.66-17-216.53c-126.45-13.14-78.31,121.56-554.09-144,0,0-311.6-72.3-398.45,17.48,0,0-93.28,74.42-215.37,71.5Z"/><path class="cls-5" d="M-183.64,1195.91l1286.55-13.7-17-216.53s-377.26-39.21-529.16-124c0,0-336.53-92.3-423.38-2.52,0,0-164.42,87.46-286.5,84.54Z"/></g><path class="cls-1" d="M1009.35,1007.34c0,15.25-5.8,27.61-13,27.61H4.79c-7.16,0-13-12.36-13-27.61V-11.12c0-15.26,5.8-27.62,13-27.62H996.4c7.15,0,13,12.36,13,27.62Z"/><g class="cls-9"><path class="cls-3" d="M2410.48,585.88s-477.17-40.82-669.28-129.07c0,0-425.65-96.09-535.5-2.62,0,0-208,91.05-362.37,88l-38.6,283.37L2432,811.3ZM1503.6,518.4c-4.25-12.74-20.46-17.51-24.3-31.15a23,23,0,0,1-5.11-9.57,23,23,0,0,0,5.11,9.57,21.69,21.69,0,0,1-.59-2.78,21.69,21.69,0,0,0,.59,2.78c8.83,10.26,24.77,15.05,26.56,31.15-1.79-16.1-17.73-20.89-26.56-31.15C1483.14,500.89,1499.35,505.66,1503.6,518.4Z"/><path class="cls-4" d="M2392.73,622.2s-467.88-40.82-656.25-129.07c0,0-417.37-96.09-525.08-2.62,0,0-203.91,91-355.32,88L818.23,861.88,2413.8,847.62ZM1503.6,518.4c-4.25-12.74-20.46-17.51-24.3-31.15a23,23,0,0,1-5.11-9.57,23,23,0,0,0,5.11,9.57,21.69,21.69,0,0,1-.59-2.78,21.69,21.69,0,0,0,.59,2.78c8.83,10.26,24.77,15.05,26.56,31.15-1.79-16.1-17.73-20.89-26.56-31.15C1483.14,500.89,1499.35,505.66,1503.6,518.4Z"/><path class="cls-6" d="M821.16,1007.16l1252-13.69,3.22-181S1689.47,737.73,1541.66,653c0,0-327.49-92.29-412-2.51,0,0-160,87.46-278.8,84.53Z"/><path class="cls-5" d="M921.41,795.23s331.16-9.53,455-67.75,284.11-45.19,390.83-30.3S2001,828.49,2071.36,785.61l26.07,205.6"/><path class="cls-8" d="M983.59,1038.28,2173,1011.63,2156,795.1c-126.45-13.14-78.3,121.56-554.08-144,0,0-311.61-72.3-398.46,17.48,0,0-93.28,74.42-215.36,71.5Z"/><path class="cls-5" d="M886.45,1079.81,2173,1066.11l-17-216.53s-377.26-39.21-529.15-124c0,0-336.54-92.3-423.39-2.52,0,0-164.41,87.46-286.5,84.54Z"/></g><path class="cls-1" d="M2074,1007.34c0,15.25-5.8,27.61-12.95,27.61H1069.42c-7.15,0-13-12.36-13-27.61V-11.12c0-15.26,5.8-27.62,13-27.62H2061c7.15,0,12.95,12.36,12.95,27.62Z"/><path class="cls-10" d="M385.19,615.91c-4,13-4.6,24.07-3.35,33.42-18.36-5.27-20.55-32.87-20.55-32.87-2.29,29.64,16.24,39.74,22.56,42.31,5.84,19.69,19.55,29.07,19.55,29.07l4.67-12.6C378,663.42,385.19,615.91,385.19,615.91Z"/><path class="cls-10" d="M433.53,610.42c.65,17.43-1.2,31.31-4.28,42.32,16.95.56,24.75-32.49,24.75-32.49-4.37,37.28-22.51,42.58-28.5,43.31-9.26,21.94-23.08,28.21-23.08,28.21L401.1,674.5C429.54,671.52,433.53,610.42,433.53,610.42Z"/><polygon class="cls-11" points="397.53 669.16 389.53 816.97 405.53 816.86 412.52 677.81 397.53 669.16"/><polygon class="cls-10" points="412.6 676.26 421.53 816.75 405.53 816.86 412.6 676.26"/><path class="cls-12" d="M355.23,628.08c.18-9.54-13.59-10.52-22.27-7.59-13.17,4.77-20.56,16.25-34.61,20.07,10.15,7.44,28.2,12.08,42.07,10.12,15-2.15,16.09-10.38,14.81-22.6"/><path class="cls-11" d="M360.53,608.73c9-3.25,5-16.46-.88-23.51-9.17-10.6-22.53-13.39-31.12-25.14-3.32,12.14-1.2,30.66,5.59,42.9,7.38,13.24,15.46,11.32,26.41,5.75"/><path class="cls-13" d="M376.63,605.22c-8.09-2-5.88-13.77-1.49-20.39,6.95-10,18.28-13.59,24.62-24.51,4,10.18,4,26.38-.76,37.56-5.13,12.1-12.33,11.16-22.37,7.34"/><path class="cls-11" d="M432.42,671.71c3-7.77,14.41-4.1,20.42,1.09,9,8.14,11.19,19.84,21.23,27.5-10.61,2.72-26.67.62-37.18-5.47-11.35-6.61-9.52-13.63-4.47-23.12"/><path class="cls-13" d="M454.06,647.26c-1-8.27,10.82-10.35,18.56-8.57,11.78,3,19.16,12.31,31.62,14.4-8.11,7.36-23.29,13-35.43,12.53-13.13-.55-14.79-7.61-14.75-18.36"/><path class="cls-14" d="M456.91,618.1c-5.13-6.57,3.88-14.47,11.42-17,11.62-3.56,22.77.59,34.5-4.09-3.11,10.5-13.16,23.2-23.78,29.09-11.51,6.35-16.59,1.17-22.14-8"/><path class="cls-12" d="M439.5,607.38c7,4.51,14-5.22,15.86-13,2.53-11.94-2.56-22.69,1.09-34.83-10.17,4.08-21.92,15.29-26.85,26.45-5.31,12.08.27,16.67,9.9,21.36"/><path class="cls-15" d="M396.76,630.54c-6.37-.25-5-8.49-1-13.91,6.34-8.21,15.75-12.49,21.67-21.29,2.49,6.74,1.23,18.43-3.42,27.19-5,9.48-9.45,9.29-17.26,8"/><path class="cls-11" d="M423.73,641.28c1.67-5.14-5.27-6.49-10.77-4.87-8.39,2.63-14.55,8.85-23.29,11,4.63,4,14.29,6.39,22.62,5.27,9-1.23,10.16-4.79,11.44-11.37"/><path class="cls-15" d="M361.85,654.41c-6.36-5.35-14.58,3.44-17.35,10.91-4,11.53-.29,22.83-5.41,34.43,10.6-2.79,23.65-12.46,29.92-22.91,6.78-11.33,1.81-16.58-7.16-22.43"/></g></svg>