<?xml version="1.0" encoding="utf-8"?>
<!-- Generator: Adobe Illustrator 16.0.0, SVG Export Plug-In . SVG Version: 6.00 Build 0)  -->
<!DOCTYPE svg PUBLIC "-//W3C//DTD SVG 1.1//EN" "http://www.w3.org/Graphics/SVG/1.1/DTD/svg11.dtd">
<svg version="1.1" xmlns="http://www.w3.org/2000/svg" xmlns:xlink="http://www.w3.org/1999/xlink" x="0px" y="0px" width="1000px"
	 height="1000px" viewBox="0 0 1000 1000" enable-background="new 0 0 1000 1000" xml:space="preserve">
<g id="Calque_3">
</g>
<g id="Calque_2">
	<g>
		<defs>
			<path id="SVGID_9_" d="M1009.354,1007.341c0,15.251-5.802,27.608-12.953,27.608H4.786c-7.153,0-12.953-12.357-12.953-27.608
				V-11.124c0-15.251,5.8-27.612,12.953-27.612h991.615c7.151,0,12.953,12.361,12.953,27.612V1007.341z"/>
		</defs>
		<clipPath id="SVGID_2_">
			<use xlink:href="#SVGID_9_"  overflow="visible"/>
		</clipPath>
		<g clip-path="url(#SVGID_2_)">
			<path opacity="0.6" fill="#A6C15A" d="M1342.84,712.549c0,0-477.167-40.821-669.273-129.072c0,0-425.651-96.09-535.501-2.621
				c0,0-207.955,91.048-362.37,88.005l-38.602,283.365l1627.229-14.261L1342.84,712.549z M435.96,645.066
				c-4.246-12.744-20.451-17.515-24.292-31.148c-2.329-2.709-4.173-5.792-5.116-9.57c0.943,3.778,2.787,6.861,5.116,9.57
				c-0.251-0.889-0.451-1.813-0.593-2.785c0.142,0.972,0.342,1.896,0.593,2.785c8.823,10.254,24.767,15.044,26.553,31.148
				c-1.786-16.104-17.729-20.895-26.553-31.148C415.509,627.552,431.714,632.322,435.96,645.066z"/>
			<path opacity="0.6" fill="#D2E081" d="M1325.095,748.87c0,0-467.879-40.819-656.249-129.072c0,0-417.37-96.091-525.083-2.623
				c0,0-203.908,91.047-355.315,88.006l-37.856,283.365l1595.571-14.262L1325.095,748.87z M435.96,645.066
				c-4.246-12.744-20.451-17.515-24.292-31.148c-2.329-2.709-4.173-5.792-5.116-9.57c0.943,3.778,2.787,6.861,5.116,9.57
				c-0.251-0.889-0.451-1.813-0.593-2.785c0.142,0.972,0.342,1.896,0.593,2.785c8.823,10.254,24.767,15.044,26.553,31.148
				c-1.786-16.104-17.729-20.895-26.553-31.148C415.509,627.552,431.714,632.322,435.96,645.066z"/>
			<path opacity="0.6" fill="#062821" d="M-14.675,1070.365l1911.059-25.234l-24.562-207.142c0,0-545.537-37.509-765.177-118.609
				c0,0-486.636-88.298-612.229-2.406c0,0-332.549,122.424-509.09,119.627V1070.365z"/>
			<path opacity="0.6" fill="#60BA99" d="M1296.05,1079.348L9.5,1065.649l16.989-216.525c0,0,377.265-39.21,529.149-123.982
				c0,0,336.537-92.301,423.389-2.519c0,0,164.414,87.457,286.5,84.538L1296.05,1079.348z"/>
			<path opacity="0.6" fill="#1B877F" d="M1286.971,1106.59L0.419,1092.89l16.988-216.526c0,0,377.266-39.21,529.151-123.981
				c0,0,336.536-92.296,423.39-2.517c0,0,164.413,87.456,286.499,84.535L1286.971,1106.59z"/>
			<path opacity="0.6" fill="#60BA99" d="M-246.48,1133.828l1251.961-13.696l3.226-180.975c0,0-386.876-74.759-534.681-159.537
				c0,0-327.487-92.298-412.005-2.514c0,0-159.997,87.456-278.801,84.532L-246.48,1133.828z"/>
			<path opacity="0.6" fill="#062821" d="M-146.221,921.893c0,0,331.157-9.525,454.985-67.741
				c123.825-58.216,284.108-45.191,390.829-30.301c106.723,14.892,233.721,131.31,304.126,88.422l26.078,205.606"/>
			<path opacity="0.6" fill="#126864" d="M-84.05,1164.949l1189.415-26.657l-16.988-216.527
				c-126.448-13.143-78.307,121.562-554.086-143.981c0,0-311.603-72.298-398.452,17.481c0,0-93.28,74.423-215.365,71.501
				L-84.05,1164.949z"/>
			<path opacity="0.6" fill="#062821" d="M-181.185,1206.472l1286.55-13.698l-16.988-216.53c0,0-377.262-39.205-529.157-123.979
				c0,0-336.531-92.299-423.381-2.517c0,0-164.416,87.458-286.5,84.534L-181.185,1206.472z"/>
		</g>
		<g clip-path="url(#SVGID_2_)">
			<g>
				<path fill="#126864" d="M464.771,619.327c-4.845,15.767-5.595,29.301-4.075,40.689c-22.349-6.419-25.012-40.016-25.012-40.016
					c-2.799,36.077,19.764,48.381,27.459,51.508c7.111,23.972,23.793,35.385,23.793,35.385l5.693-15.344
					C456.02,677.173,464.771,619.327,464.771,619.327z"/>
				<path fill="#126864" d="M523.621,612.646c0.794,21.214-1.461,38.121-5.213,51.522c20.631,0.684,30.129-39.55,30.129-39.55
					c-5.323,45.374-27.399,51.835-34.698,52.725c-11.269,26.708-28.088,34.33-28.088,34.33l-1.615-21.022
					C518.76,687.029,523.621,612.646,523.621,612.646z"/>
				<polygon fill="#1B877F" points="479.791,684.154 470.052,864.093 489.53,863.961 498.046,694.686 				"/>
				<polygon fill="#126864" points="498.141,692.795 509.01,863.826 489.53,863.961 				"/>
			</g>
			<g>
				<path fill="#D2E081" d="M428.307,634.145c0.212-11.617-16.552-12.805-27.11-9.242c-16.039,5.812-25.034,19.787-42.14,24.438
					c12.356,9.053,34.336,14.71,51.21,12.321C428.532,659.043,429.861,649.027,428.307,634.145"/>
			</g>
			<g>
				<path fill="#1B877F" d="M434.756,610.594c10.927-3.955,6.034-20.037-1.067-28.623c-11.166-12.897-27.434-16.296-37.896-30.607
					c-4.033,14.779-1.451,37.329,6.818,52.229C411.588,619.712,421.419,617.369,434.756,610.594"/>
			</g>
			<g>
				<path fill="#D18A35" d="M454.349,606.322c-9.85-2.439-7.155-16.768-1.805-24.827c8.45-12.143,22.246-16.544,29.965-29.841
					c4.91,12.396,4.832,32.116-0.92,45.734C475.335,612.111,466.578,610.975,454.349,606.322"/>
			</g>
			<g>
				<path fill="#1B877F" d="M522.274,687.26c3.654-9.464,17.533-4.991,24.856,1.331c10.983,9.907,13.617,24.146,25.839,33.474
					c-12.913,3.312-32.469,0.759-45.256-6.657C513.894,707.353,516.121,698.806,522.274,687.26"/>
			</g>
			<g>
				<path fill="#D18A35" d="M548.606,657.501c-1.189-10.077,13.172-12.604,22.6-10.439c14.342,3.629,23.322,14.989,38.486,17.526
					c-9.868,8.961-28.354,15.84-43.123,15.256C550.586,679.179,548.564,670.584,548.606,657.501"/>
			</g>
			<g>
				<path fill="#83CAAD" d="M552.085,621.99c-6.246-7.996,4.719-17.607,13.901-20.648c14.144-4.339,27.714,0.712,41.994-4.987
					c-3.788,12.782-16.018,28.253-28.948,35.418C565.023,639.498,558.835,633.198,552.085,621.99"/>
			</g>
			<g>
				<path fill="#D2E081" d="M530.889,608.942c8.489,5.501,17.084-6.349,19.31-15.797c3.079-14.534-3.115-27.616,1.318-42.403
					c-12.38,4.97-26.679,18.621-32.676,32.197C512.371,597.652,519.166,603.242,530.889,608.942"/>
			</g>
			<g>
				<path fill="#618751" d="M478.864,637.145c-7.759-0.309-6.13-10.334-1.213-16.933c7.718-9.998,19.173-15.206,26.382-25.926
					c3.033,8.212,1.491,22.44-4.161,33.101C493.722,638.926,488.361,638.698,478.864,637.145"/>
			</g>
			<g>
				<path fill="#1B877F" d="M511.685,650.219c2.032-6.258-6.417-7.904-13.105-5.935c-10.213,3.201-17.716,10.778-28.352,13.361
					c5.636,4.823,17.4,7.774,27.533,6.409C508.737,662.555,510.129,658.225,511.685,650.219"/>
			</g>
			<g>
				<path fill="#618751" d="M436.356,666.205c-7.741-6.513-17.74,4.177-21.123,13.275c-4.863,14.038-0.342,27.789-6.578,41.911
					c12.9-3.395,28.785-15.161,36.425-27.888C453.326,679.709,447.278,673.318,436.356,666.205"/>
			</g>
		</g>
		<path clip-path="url(#SVGID_2_)" fill="#0B564B" d="M-181.185,1206.472l1286.55-13.698l-16.988-216.53
			c0,0-377.262-39.205-529.157-123.979c0,0-336.531-92.299-423.381-2.517c0,0-164.416,87.458-286.5,84.534L-181.185,1206.472z"/>
		<use xlink:href="#SVGID_9_"  overflow="visible" fill="none" stroke="#FFFFFF" stroke-width="3" stroke-miterlimit="10"/>
	</g>
	<g>
		<defs>
			<path id="SVGID_11_" d="M2073.99,1007.341c0,15.251-5.802,27.608-12.953,27.608h-991.615c-7.153,0-12.953-12.357-12.953-27.608
				V-11.124c0-15.251,5.8-27.612,12.953-27.612h991.615c7.151,0,12.953,12.361,12.953,27.612V1007.341z"/>
		</defs>
		<clipPath id="SVGID_4_">
			<use xlink:href="#SVGID_11_"  overflow="visible"/>
		</clipPath>
		<g clip-path="url(#SVGID_4_)">
			<path opacity="0.6" fill="#A6C15A" d="M2407.476,712.549c0,0-477.167-40.821-669.273-129.072c0,0-425.651-96.09-535.501-2.621
				c0,0-207.955,91.048-362.37,88.005l-38.602,283.365l1627.229-14.261L2407.476,712.549z M1500.596,645.066
				c-4.246-12.744-20.451-17.515-24.292-31.148c-2.329-2.709-4.173-5.792-5.116-9.57c0.943,3.778,2.787,6.861,5.116,9.57
				c-0.251-0.889-0.451-1.813-0.593-2.785c0.142,0.972,0.342,1.896,0.593,2.785c8.823,10.254,24.767,15.044,26.553,31.148
				c-1.786-16.104-17.729-20.895-26.553-31.148C1480.145,627.552,1496.35,632.322,1500.596,645.066z"/>
			<path opacity="0.6" fill="#D2E081" d="M2389.73,748.87c0,0-467.879-40.819-656.249-129.072c0,0-417.37-96.091-525.083-2.623
				c0,0-203.908,91.047-355.315,88.006l-37.856,283.365l1595.571-14.262L2389.73,748.87z M1500.596,645.066
				c-4.246-12.744-20.451-17.515-24.292-31.148c-2.329-2.709-4.173-5.792-5.116-9.57c0.943,3.778,2.787,6.861,5.116,9.57
				c-0.251-0.889-0.451-1.813-0.593-2.785c0.142,0.972,0.342,1.896,0.593,2.785c8.823,10.254,24.767,15.044,26.553,31.148
				c-1.786-16.104-17.729-20.895-26.553-31.148C1480.145,627.552,1496.35,632.322,1500.596,645.066z"/>
			<path opacity="0.6" fill="#60BA99" d="M818.155,1133.828l1251.961-13.696l3.226-180.975c0,0-386.876-74.759-534.681-159.537
				c0,0-327.487-92.298-412.005-2.514c0,0-159.997,87.456-278.801,84.532L818.155,1133.828z"/>
			<path opacity="0.6" fill="#062821" d="M918.415,921.893c0,0,331.157-9.525,454.985-67.741
				c123.825-58.216,284.108-45.191,390.829-30.301c106.723,14.892,233.721,131.31,304.126,88.422l26.078,205.606"/>
			<path opacity="0.6" fill="#126864" d="M980.586,1164.949l1189.415-26.657l-16.988-216.527
				c-126.448-13.143-78.307,121.562-554.086-143.981c0,0-311.603-72.298-398.452,17.481c0,0-93.28,74.423-215.365,71.501
				L980.586,1164.949z"/>
			<path opacity="0.6" fill="#062821" d="M883.451,1206.472l1286.55-13.698l-16.988-216.53c0,0-377.262-39.205-529.157-123.979
				c0,0-336.531-92.299-423.381-2.517c0,0-164.416,87.458-286.5,84.534L883.451,1206.472z"/>
		</g>
		<path clip-path="url(#SVGID_4_)" fill="#0B564B" d="M883.451,1206.472l1286.55-13.698l-16.988-216.53
			c0,0-377.262-39.205-529.157-123.979c0,0-336.531-92.299-423.381-2.517c0,0-164.416,87.458-286.5,84.534L883.451,1206.472z"/>
		<use xlink:href="#SVGID_11_"  overflow="visible" fill="none" stroke="#FFFFFF" stroke-width="3" stroke-miterlimit="10"/>
	</g>
</g>
<g id="Calque_1">
</g>
</svg>
