<svg xmlns="http://www.w3.org/2000/svg" xmlns:xlink="http://www.w3.org/1999/xlink" viewBox="0 0 1000 1000"><defs><style>.cls-1{fill:none;stroke:#fff;stroke-miterlimit:10;stroke-width:3px;}.cls-2{clip-path:url(#clip-path);}.cls-3{fill:#a5c352;}.cls-3,.cls-4,.cls-5,.cls-6,.cls-7,.cls-8{opacity:0.6;}.cls-12,.cls-4{fill:#d2e17c;}.cls-5{fill:#052821;}.cls-6{fill:#5dbb99;}.cls-11,.cls-7{fill:#0f8880;}.cls-10,.cls-8{fill:#086965;}.cls-9{clip-path:url(#clip-path-2);}.cls-13{fill:#d38a29;}.cls-14{fill:#60884f;}.cls-15{fill:#81cbad;}.cls-16{fill:#82b76e;}</style><clipPath id="clip-path"><path class="cls-1" d="M1009.35,1007.34c0,15.25-5.8,27.61-13,27.61H4.79c-7.16,0-13-12.36-13-27.61V-11.12c0-15.26,5.8-27.62,13-27.62H996.4c7.15,0,13,12.36,13,27.62Z"/></clipPath><clipPath id="clip-path-2"><path class="cls-1" d="M2074,1007.34c0,15.25-5.8,27.61-12.95,27.61H1069.42c-7.15,0-13-12.36-13-27.61V-11.12c0-15.26,5.8-27.62,13-27.62H2061c7.15,0,12.95,12.36,12.95,27.62Z"/></clipPath></defs><title>infantSeedlingbg</title><g id="Calque_2" data-name="Calque 2"><g class="cls-2"><path class="cls-3" d="M1340.38,702S863.21,661.16,671.11,572.91c0,0-425.65-96.09-535.5-2.62,0,0-208,91.05-362.37,88l-38.61,283.36L1361.86,927.4ZM433.5,634.5c-4.25-12.74-20.45-17.51-24.29-31.15a23.06,23.06,0,0,1-5.12-9.57,23.06,23.06,0,0,0,5.12,9.57,21.34,21.34,0,0,1-.59-2.78,21.34,21.34,0,0,0,.59,2.78c8.82,10.26,24.77,15,26.55,31.15C434,618.4,418,613.61,409.21,603.35,413.05,617,429.25,621.76,433.5,634.5Z"/><path class="cls-4" d="M1322.64,738.31S854.76,697.49,666.39,609.23c0,0-417.37-96.09-525.09-2.62,0,0-203.91,91-355.31,88L-251.87,978,1343.7,963.72ZM433.5,634.5c-4.25-12.74-20.45-17.51-24.29-31.15a23.06,23.06,0,0,1-5.12-9.57,23.06,23.06,0,0,0,5.12,9.57,21.34,21.34,0,0,1-.59-2.78,21.34,21.34,0,0,0,.59,2.78c8.82,10.26,24.77,15,26.55,31.15C434,618.4,418,613.61,409.21,603.35,413.05,617,429.25,621.76,433.5,634.5Z"/><path class="cls-5" d="M-17.13,1059.8l1911.05-25.23-24.56-207.14s-545.54-37.51-765.18-118.61c0,0-486.63-88.3-612.22-2.41,0,0-332.55,122.42-509.09,119.63Z"/><path class="cls-6" d="M1293.59,1068.78,7,1055.09,24,838.56s377.26-39.21,529.15-124c0,0,336.54-92.3,423.39-2.52,0,0,164.41,87.46,286.5,84.54Z"/><path class="cls-7" d="M1284.51,1096-2,1082.33,15,865.8s377.26-39.21,529.15-124c0,0,336.54-92.3,423.39-2.52,0,0,164.41,87.46,286.5,84.54Z"/><path class="cls-6" d="M-248.94,1123.26l1252-13.69,3.23-181S619.37,853.84,471.57,769.06c0,0-327.49-92.3-412-2.52,0,0-160,87.46-278.8,84.54Z"/><path class="cls-5" d="M-148.68,911.33s331.16-9.53,455-67.74,284.1-45.19,390.82-30.3,233.72,131.31,304.13,88.42l26.08,205.61"/><path class="cls-8" d="M-86.51,1154.39l1189.42-26.66-17-216.53c-126.45-13.14-78.31,121.56-554.09-144,0,0-311.6-72.3-398.45,17.48,0,0-93.28,74.42-215.37,71.5Z"/><path class="cls-5" d="M-183.64,1195.91l1286.55-13.7-17-216.53s-377.26-39.21-529.16-124c0,0-336.53-92.3-423.38-2.52,0,0-164.42,87.46-286.5,84.54Z"/></g><path class="cls-1" d="M1009.35,1007.34c0,15.25-5.8,27.61-13,27.61H4.79c-7.16,0-13-12.36-13-27.61V-11.12c0-15.26,5.8-27.62,13-27.62H996.4c7.15,0,13,12.36,13,27.62Z"/><g class="cls-9"><path class="cls-3" d="M2410.48,585.88s-477.17-40.82-669.28-129.07c0,0-425.65-96.09-535.5-2.62,0,0-208,91.05-362.37,88l-38.6,283.37L2432,811.3ZM1503.6,518.4c-4.25-12.74-20.46-17.51-24.3-31.15a23,23,0,0,1-5.11-9.57,23,23,0,0,0,5.11,9.57,21.69,21.69,0,0,1-.59-2.78,21.69,21.69,0,0,0,.59,2.78c8.83,10.26,24.77,15.05,26.56,31.15-1.79-16.1-17.73-20.89-26.56-31.15C1483.14,500.89,1499.35,505.66,1503.6,518.4Z"/><path class="cls-4" d="M2392.73,622.2s-467.88-40.82-656.25-129.07c0,0-417.37-96.09-525.08-2.62,0,0-203.91,91-355.32,88L818.23,861.88,2413.8,847.62ZM1503.6,518.4c-4.25-12.74-20.46-17.51-24.3-31.15a23,23,0,0,1-5.11-9.57,23,23,0,0,0,5.11,9.57,21.69,21.69,0,0,1-.59-2.78,21.69,21.69,0,0,0,.59,2.78c8.83,10.26,24.77,15.05,26.56,31.15-1.79-16.1-17.73-20.89-26.56-31.15C1483.14,500.89,1499.35,505.66,1503.6,518.4Z"/><path class="cls-6" d="M821.16,1007.16l1252-13.69,3.22-181S1689.47,737.73,1541.66,653c0,0-327.49-92.29-412-2.51,0,0-160,87.46-278.8,84.53Z"/><path class="cls-5" d="M921.41,795.23s331.16-9.53,455-67.75,284.11-45.19,390.83-30.3S2001,828.49,2071.36,785.61l26.07,205.6"/><path class="cls-8" d="M983.59,1038.28,2173,1011.63,2156,795.1c-126.45-13.14-78.3,121.56-554.08-144,0,0-311.61-72.3-398.46,17.48,0,0-93.28,74.42-215.36,71.5Z"/><path class="cls-5" d="M886.45,1079.81,2173,1066.11l-17-216.53s-377.26-39.21-529.15-124c0,0-336.54-92.3-423.39-2.52,0,0-164.41,87.46-286.5,84.54Z"/></g><path class="cls-1" d="M2074,1007.34c0,15.25-5.8,27.61-12.95,27.61H1069.42c-7.15,0-13-12.36-13-27.61V-11.12c0-15.26,5.8-27.62,13-27.62H2061c7.15,0,12.95,12.36,12.95,27.62Z"/><path class="cls-10" d="M349.89,500.77c-6.33,21.69-6.08,40.69-2.28,56.92-38-11.54-46.16-59.2-46.16-59.2-.66,50.56,38.33,70.41,51.51,75.67,14.52,34.59,43.61,52.53,43.61,52.53l7.79-21C341.71,581.36,349.89,500.77,349.89,500.77Z"/><path class="cls-10" d="M489.46,539.83c-1.33,20.69-7.5,37-15.86,49.8C510,591.59,532,553,532,553c-15.27,43.81-55.12,48.72-68.13,49.12-23.36,25.28-54.07,31.64-54.07,31.64l-.14-20.55C471.27,611.9,489.46,539.83,489.46,539.83Z"/><polygon class="cls-11" points="394.21 600.37 382.43 818.08 406 817.92 416.3 613.12 394.21 600.37"/><polygon class="cls-10" points="416.42 610.83 429.56 817.75 406 817.92 416.42 610.83"/><path class="cls-12" d="M307.38,551.43c-3.57-8.85-16.63-4.35-23.46,1.74-10.25,9.55-12.55,23-24,32,12.25,2.87,30.68.07,42.67-7.17,13-7.85,10.74-15.85,4.77-26.6"/><path class="cls-13" d="M308,483.55c-8.14,1.8-11.39-9.73-10.39-17.61,1.78-12,10.33-20.3,11.15-32.9,8.14,7.33,15.28,21.87,16,34,.77,13.12-6.09,15.48-16.78,16.52"/><path class="cls-14" d="M361.23,490.12c7,4.52,14-5.22,15.86-13,2.54-11.94-2.55-22.69,1.09-34.83-10.17,4.08-21.92,15.29-26.84,26.45-5.32,12.08.26,16.68,9.89,21.36"/><path class="cls-14" d="M335.75,580.25c-.59-4.37-10.87.51-17.08,5.17-9.38,7.23-14,15.26-24.11,22.4,8.08-.56,21.8-5.43,31.92-11.67,10.95-6.76,11.14-10.89,9.27-15.9"/><path class="cls-15" d="M320,515.84c-6.37-.25-5-8.48-1-13.9,6.34-8.22,15.75-12.5,21.67-21.3,2.49,6.74,1.23,18.43-3.42,27.19-5.05,9.48-9.45,9.29-17.26,8"/><path class="cls-11" d="M289.6,524.1c-.18-9.54-14-10-22.54-6.77-13,5.26-19.95,17-33.85,21.33,10.41,7.06,28.63,11,42.41,8.57,14.91-2.69,15.7-11,14-23.13"/><path class="cls-16" d="M289,493.28c4.34-8.5-7.61-15.42-16.69-16.59-13.93-1.49-25.61,5.59-39.91,2.86,5.86,11.13,20.05,23.23,33.37,27.54,14.43,4.65,19-2.27,23.23-13.81"/><path class="cls-12" d="M361.93,517.16c-5.88-5.9,2.1-14.83,9.29-18.22,11.1-4.94,22.67-2.17,33.75-8.23-1.82,10.8-10.26,24.62-20.09,31.75-10.66,7.69-16.33,3.17-22.95-5.3"/><path class="cls-13" d="M363.9,542.82c-1.71-8.16,9.85-11.27,17.73-10.19,12,1.92,20.17,10.56,32.77,11.53-7.42,8.05-22,15-34.17,15.63-13.13.63-15.41-6.26-16.33-17"/><path class="cls-11" d="M452,579.41c9.53.46,10.91-13.28,8.24-22-4.38-13.3-15.64-21-19.05-35.18-7.73,9.92-12.91,27.84-11.35,41.75,1.71,15.06,9.9,16.39,22.16,15.47"/><path class="cls-12" d="M471.29,539.78c8.79,3.72,14.83-8.7,15.34-17.84.48-14-7.42-25.13-5.73-39.6C470.22,489,459.18,504,455.83,517.61c-3.59,14.73,3.64,18.81,15.46,22.17"/><path class="cls-11" d="M510.11,542.52c6.31,7.17,17.13-1.4,21.57-9.4,6.51-12.41,4.23-25.87,12-38.17-12.51,1.35-29,10.09-37.89,20.89-9.63,11.7-4.89,18.52,4.29,26.68"/><path class="cls-13" d="M548.45,575.6c-8.33.34-9.5-11.58-7.14-19.16,3.87-11.52,13.73-18.17,16.76-30.43,6.72,8.64,11.2,24.21,9.8,36.27-1.54,13.05-8.71,14.17-19.42,13.32"/><path class="cls-14" d="M522.73,594.07C520,586.21,531,581.59,539,581.62c12.15.32,21.4,7.81,34,7.1-6.3,9-19.87,17.81-31.81,20-12.93,2.35-16.1-4.17-18.43-14.66"/><path class="cls-15" d="M495.42,612.33c1.48-8.2,13.37-6.75,20.26-2.79,10.4,6.28,14.74,17.36,26,23-9.9,4.68-26.07,5.66-37.53,1.67-12.4-4.35-11.94-11.59-8.77-21.86"/><path class="cls-14" d="M469,612.65c3.28-2.95,7.94,7.43,9.64,15,2.46,11.59.77,20.69,3.84,32.69-5.79-5.67-13.08-18.27-16.74-29.58-4-12.24-1.42-15.51,3.26-18.11"/><path class="cls-16" d="M387,583c-5.48-3.27-.36-9.86,5.77-12.69,9.5-4.18,19.81-3.44,29.22-8.34-1,7.12-7.74,16.78-16,22.25-9,5.91-12.75,3.64-19-1.22"/></g></svg>