<svg xmlns="http://www.w3.org/2000/svg" xmlns:xlink="http://www.w3.org/1999/xlink" viewBox="0 0 1000 1000"><defs><style>.cls-1{fill:none;stroke:#fff;stroke-miterlimit:10;stroke-width:3px;}.cls-2{clip-path:url(#clip-path);}.cls-3{fill:#a5c352;}.cls-3,.cls-4,.cls-5,.cls-6,.cls-7,.cls-8{opacity:0.6;}.cls-4{fill:#d2e17c;}.cls-5{fill:#052821;}.cls-6{fill:#5dbb99;}.cls-7{fill:#0f8880;}.cls-8{fill:#086965;}.cls-9{clip-path:url(#clip-path-2);}</style><clipPath id="clip-path"><path class="cls-1" d="M1009.35,1007.34c0,15.25-5.8,27.61-13,27.61H4.79c-7.16,0-13-12.36-13-27.61V-11.12c0-15.26,5.8-27.62,13-27.62H996.4c7.15,0,13,12.36,13,27.62Z"/></clipPath><clipPath id="clip-path-2"><path class="cls-1" d="M2074,1007.34c0,15.25-5.8,27.61-12.95,27.61H1069.42c-7.15,0-13-12.36-13-27.61V-11.12c0-15.26,5.8-27.62,13-27.62H2061c7.15,0,12.95,12.36,12.95,27.62Z"/></clipPath></defs><title>level0</title><g id="Calque_2" data-name="Calque 2"><g class="cls-2"><path class="cls-3" d="M1340.38,702S863.21,661.16,671.11,572.91c0,0-425.65-96.09-535.5-2.62,0,0-208,91.05-362.37,88l-38.61,283.36L1361.86,927.4ZM433.5,634.5c-4.25-12.74-20.45-17.51-24.29-31.15a23.06,23.06,0,0,1-5.12-9.57,23.06,23.06,0,0,0,5.12,9.57,21.34,21.34,0,0,1-.59-2.78,21.34,21.34,0,0,0,.59,2.78c8.82,10.26,24.77,15,26.55,31.15C434,618.4,418,613.61,409.21,603.35,413.05,617,429.25,621.76,433.5,634.5Z"/><path class="cls-4" d="M1322.64,738.31S854.76,697.49,666.39,609.23c0,0-417.37-96.09-525.09-2.62,0,0-203.91,91-355.31,88L-251.87,978,1343.7,963.72ZM433.5,634.5c-4.25-12.74-20.45-17.51-24.29-31.15a23.06,23.06,0,0,1-5.12-9.57,23.06,23.06,0,0,0,5.12,9.57,21.34,21.34,0,0,1-.59-2.78,21.34,21.34,0,0,0,.59,2.78c8.82,10.26,24.77,15,26.55,31.15C434,618.4,418,613.61,409.21,603.35,413.05,617,429.25,621.76,433.5,634.5Z"/><path class="cls-5" d="M-17.13,1059.8l1911.05-25.23-24.56-207.14s-545.54-37.51-765.18-118.61c0,0-486.63-88.3-612.22-2.41,0,0-332.55,122.42-509.09,119.63Z"/><path class="cls-6" d="M1293.59,1068.78,7,1055.09,24,838.56s377.26-39.21,529.15-124c0,0,336.54-92.3,423.39-2.52,0,0,164.41,87.46,286.5,84.54Z"/><path class="cls-7" d="M1284.51,1096-2,1082.33,15,865.8s377.26-39.21,529.15-124c0,0,336.54-92.3,423.39-2.52,0,0,164.41,87.46,286.5,84.54Z"/><path class="cls-6" d="M-248.94,1123.26l1252-13.69,3.23-181S619.37,853.84,471.57,769.06c0,0-327.49-92.3-412-2.52,0,0-160,87.46-278.8,84.54Z"/><path class="cls-5" d="M-148.68,911.33s331.16-9.53,455-67.74,284.1-45.19,390.82-30.3,233.72,131.31,304.13,88.42l26.08,205.61"/><path class="cls-8" d="M-86.51,1154.39l1189.42-26.66-17-216.53c-126.45-13.14-78.31,121.56-554.09-144,0,0-311.6-72.3-398.45,17.48,0,0-93.28,74.42-215.37,71.5Z"/><path class="cls-5" d="M-183.64,1195.91l1286.55-13.7-17-216.53s-377.26-39.21-529.16-124c0,0-336.53-92.3-423.38-2.52,0,0-164.42,87.46-286.5,84.54Z"/></g><path class="cls-1" d="M1009.35,1007.34c0,15.25-5.8,27.61-13,27.61H4.79c-7.16,0-13-12.36-13-27.61V-11.12c0-15.26,5.8-27.62,13-27.62H996.4c7.15,0,13,12.36,13,27.62Z"/><g class="cls-9"><path class="cls-3" d="M2410.48,585.88s-477.17-40.82-669.28-129.07c0,0-425.65-96.09-535.5-2.62,0,0-208,91.05-362.37,88l-38.6,283.37L2432,811.3ZM1503.6,518.4c-4.25-12.74-20.46-17.51-24.3-31.15a23,23,0,0,1-5.11-9.57,23,23,0,0,0,5.11,9.57,21.69,21.69,0,0,1-.59-2.78,21.69,21.69,0,0,0,.59,2.78c8.83,10.26,24.77,15.05,26.56,31.15-1.79-16.1-17.73-20.89-26.56-31.15C1483.14,500.89,1499.35,505.66,1503.6,518.4Z"/><path class="cls-4" d="M2392.73,622.2s-467.88-40.82-656.25-129.07c0,0-417.37-96.09-525.08-2.62,0,0-203.91,91-355.32,88L818.23,861.88,2413.8,847.62ZM1503.6,518.4c-4.25-12.74-20.46-17.51-24.3-31.15a23,23,0,0,1-5.11-9.57,23,23,0,0,0,5.11,9.57,21.69,21.69,0,0,1-.59-2.78,21.69,21.69,0,0,0,.59,2.78c8.83,10.26,24.77,15.05,26.56,31.15-1.79-16.1-17.73-20.89-26.56-31.15C1483.14,500.89,1499.35,505.66,1503.6,518.4Z"/><path class="cls-6" d="M821.16,1007.16l1252-13.69,3.22-181S1689.47,737.73,1541.66,653c0,0-327.49-92.29-412-2.51,0,0-160,87.46-278.8,84.53Z"/><path class="cls-5" d="M921.41,795.23s331.16-9.53,455-67.75,284.11-45.19,390.83-30.3S2001,828.49,2071.36,785.61l26.07,205.6"/><path class="cls-8" d="M983.59,1038.28,2173,1011.63,2156,795.1c-126.45-13.14-78.3,121.56-554.08-144,0,0-311.61-72.3-398.46,17.48,0,0-93.28,74.42-215.36,71.5Z"/><path class="cls-5" d="M886.45,1079.81,2173,1066.11l-17-216.53s-377.26-39.21-529.15-124c0,0-336.54-92.3-423.39-2.52,0,0-164.41,87.46-286.5,84.54Z"/></g><path class="cls-1" d="M2074,1007.34c0,15.25-5.8,27.61-12.95,27.61H1069.42c-7.15,0-13-12.36-13-27.61V-11.12c0-15.26,5.8-27.62,13-27.62H2061c7.15,0,12.95,12.36,12.95,27.62Z"/></g></svg>