<?xml version="1.0" encoding="utf-8"?>
<!-- Generator: Adobe Illustrator 16.0.0, SVG Export Plug-In . SVG Version: 6.00 Build 0)  -->
<!DOCTYPE svg PUBLIC "-//W3C//DTD SVG 1.1//EN" "http://www.w3.org/Graphics/SVG/1.1/DTD/svg11.dtd">
<svg version="1.1" xmlns="http://www.w3.org/2000/svg" xmlns:xlink="http://www.w3.org/1999/xlink" x="0px" y="0px" width="500px"
	 height="500px" viewBox="0 0 500 500" enable-background="new 0 0 500 500" xml:space="preserve">
<g id="Calque_3">
	<path fill="#CDCD54" d="M485.892,247.688c0,131.389-106.511,237.898-237.898,237.898c-131.389,0-237.899-106.51-237.899-237.898
		S116.605,9.79,247.994,9.79C379.38,9.79,485.892,116.299,485.892,247.688"/>
</g>
<g id="Calque_2">
	<path fill="none" stroke="#FFFFFF" stroke-width="7" stroke-miterlimit="10" stroke-dasharray="5,7" d="M367.236,247.688
		c0,65.856-53.387,119.242-119.243,119.242c-65.856,0-119.243-53.386-119.243-119.242s53.387-119.243,119.243-119.243
		C313.849,128.444,367.236,181.831,367.236,247.688"/>
	<path fill="none" stroke="#FFFFFF" stroke-width="4" stroke-miterlimit="10" d="M201.713,290.824
		c6.388-5.947,18.503-5.066,39.23-3.965c20.728,1.102,66.282-20.706,66.282-20.706s12.115,1.542,7.269,10.354
		c-4.846,8.811-46.038,37.006-65.642,40.971s-82.604,1.439-82.604,1.439v-65.999c0,0,17.616-2.428,24.561,4.927
		c6.945,7.355,18.704,6.917,33.152,6.987c17.501,0.088,16.29,12.492,16.29,12.492s-0.632,6.677-4.389,9.265"/>
	<g>
		<path fill="#FFFFFF" d="M127.153,157.486c-0.547-0.028-1.191-0.291-1.933-0.789l-8.698-5.761
			c-0.767-0.459-2.008-1.266-3.725-2.419c-3.68-2.358-7.801-5.072-12.365-8.139l-2.984-2.005c1.636,1.609,3.862,3.983,6.68,7.121
			c2.933,3.218,5.414,5.762,7.44,7.633l0.351,0.236l0.994,0.922c0.806,0.654,1.553,1.44,2.24,2.354
			c0.674,1.02,0.736,1.938,0.186,2.757c-0.944,1.405-3.249,0.875-6.915-1.589c-2.028-1.363-4.34-2.62-6.936-3.771
			c-2.595-1.148-5.892-2.416-9.888-3.799l-7.732-2.648l6.942,4.834c2.106,1.416,6.189,4.019,12.249,7.807l4.057,2.557l8.094,5.271
			c0.819,0.55,1.364,1.341,1.633,2.371c-0.655,0.975-1.409,1.445-2.263,1.409c-0.854-0.035-1.865-0.446-3.035-1.234l-4.719-3.34
			c-2.028-1.533-3.568-2.653-4.621-3.36l-11.37-7.471l-11.429-7.511c-1.677-1.127-4.167-2.855-7.468-5.188l0.125-2.209
			c0.249-0.286,0.682-0.446,1.301-0.484c0.619-0.036,1.509,0.052,2.668,0.265c3.074,0.65,8.762,2.633,17.065,5.947
			c1.172,0.448,2.115,0.855,2.83,1.223c2.577,1.053,4.515,1.875,5.816,2.465l5.095,2.15l-1.656-1.707l-4.05-4.336
			c-2.39-2.51-4.499-4.679-6.33-6.505c-1.831-1.824-3.844-3.757-6.039-5.799c-2.637-2.394-4.891-4.305-6.763-5.733l-0.352-0.235
			c-0.455-0.418-0.697-0.922-0.728-1.509c-0.03-0.586,0.137-1.152,0.505-1.698c0.236-0.352,0.602-0.558,1.097-0.622
			c0.496-0.062,0.918,0.022,1.27,0.259c4.681,3.146,11.8,7.675,21.357,13.589c4.694,2.871,9.252,5.736,13.673,8.594
			c2.041,1.258,4.583,2.909,7.625,4.954c0.898,0.603,1.54,1.375,1.927,2.313c0.388,0.94,0.385,1.703-0.008,2.287
			C128.105,157.333,127.7,157.514,127.153,157.486z"/>
		<path fill="#FFFFFF" d="M141.041,139.344c-0.448,0.061-0.909-0.136-1.385-0.592l-6.673-6.383
			c-0.728,0.149-1.795,0.722-3.202,1.716c-1.407,0.996-2.664,2.005-3.771,3.025c0.355,1.057,0.962,2.156,1.817,3.3l0.824,1.179
			c0.206,0.262,0.634,0.867,1.287,1.816c0.652,0.949,1.179,1.811,1.578,2.583c0.4,0.771,0.672,1.422,0.816,1.95
			c-1.235,1.292-2.288,1.713-3.163,1.266c-0.186-0.891-1.376-2.844-3.57-5.853l-7.713-10.598c-3.7-4.968-6.812-9.262-9.334-12.879
			c-2.524-3.616-4.497-6.788-5.921-9.516c-1.596-3.022-2.052-4.89-1.37-5.604c0.682-0.714,1.337-1.125,1.967-1.24
			c1.358,1.299,4.943,4.111,10.756,8.436c5.743,4.194,9.549,7.185,11.417,8.97c1.8,1.723,4.559,4.005,8.278,6.846
			c3.755,2.942,6.651,5.387,8.688,7.336c1.155,1.104,1.196,2.217,0.125,3.337C141.971,138.983,141.488,139.285,141.041,139.344z
			 M129.827,129.448c-1.591-1.327-3.604-2.927-6.039-4.803c-8.422-6.559-13.499-10.667-15.23-12.325l-0.408-0.389
			c0.015,0.665,1.105,2.602,3.27,5.81c2.166,3.21,4.567,6.563,7.204,10.061c2.637,3.499,4.448,5.751,5.435,6.761
			c1.772-1.037,3.421-2.354,4.948-3.949C129.266,130.342,129.54,129.953,129.827,129.448z"/>
		<path fill="#FFFFFF" d="M162.311,123.968c-0.215,0.105-0.434,0.245-0.657,0.417c-5.391-4.924-10.065-8.917-14.023-11.979
			c-3.957-3.06-8.004-5.698-12.139-7.912l0.503,3.081c0.153,0.892,0.396,1.595,0.732,2.106c0.748,1.202,1.323,2.064,1.724,2.587
			c0.859,1.117,2.234,2.787,4.123,5.01c1.86,2.186,3.249,3.874,4.166,5.065l3.525,4.581c1.52,1.973,1.645,3.447,0.38,4.421
			c-1.081,0.832-2.422,0.205-4.028-1.881c-1.261-1.638-3.083-4.237-5.47-7.799c-2.147-3.329-3.936-5.924-5.369-7.785l-3.642-4.847
			l-4.472-5.811c-1.575-2.047-3.355-4.089-5.335-6.122c-2.038-2.107-3.515-3.757-4.432-4.949c-0.373-0.484-0.54-1.008-0.499-1.574
			c0.04-0.563,0.283-1.018,0.73-1.361c1.377-1.061,3.228-0.083,5.549,2.933l8.59,11.623l-1.045-3.553
			c-1.179-4.075-2.292-8.14-3.339-12.196c-0.545-2.249-0.892-4.086-1.042-5.514c-0.141-1.492-0.026-2.382,0.347-2.67
			c0.41-0.313,0.88-0.454,1.412-0.419c0.531,0.036,0.956,0.259,1.27,0.668c0.287,0.372,1.059,3.456,2.315,9.247
			c1.15,5.579,2.075,9.168,2.771,10.767l0.773,1.005c1.648,0.985,6.627,4.372,14.938,10.161c8.311,5.79,12.639,8.907,12.982,9.354
			c0.344,0.446,0.453,0.955,0.329,1.526c-0.125,0.57-0.429,1.042-0.913,1.414C162.844,123.735,162.592,123.87,162.311,123.968z"/>
		<path fill="#FFFFFF" d="M169.385,117.855c-0.811,0.193-1.483-0.181-2.02-1.118l-20.318-35.56
			c-0.396-0.693-1.113-1.663-2.151-2.911c-1.008-1.102-1.745-2.061-2.212-2.877l-0.104-0.184c0.041-1.538,0.131-2.562,0.271-3.078
			c0.571-0.326,1.279-0.838,2.125-1.538c0.764-0.651,1.472-1.165,2.125-1.538c0.652-0.373,1.396-0.541,2.229-0.503
			c0.833,0.038,1.402,0.322,1.705,0.853c0.699,1.224,0.11,2.372-1.766,3.445l-0.857,0.489c-0.268,0.099-0.566,0.242-0.892,0.428
			c-0.367,0.21-0.579,0.359-0.638,0.446c0.793,1.388,1.83,3.014,3.113,4.879l1.102,1.643l2.046,3.297
			c0.443,0.775,1.058,1.994,1.844,3.654l1.836,3.497l0.752-0.672c0.675-0.711,1.279-1.218,1.81-1.521
			c0.449-0.257,0.957-0.316,1.521-0.18c0.565,0.138,0.977,0.431,1.233,0.879c0.279,0.489,0.377,1.016,0.292,1.578
			c-0.084,0.562-0.351,0.972-0.8,1.229l-0.769,0.358l-0.796,0.455c-0.612,0.349-0.958,0.737-1.041,1.163l10.806,18.909l3.322-2.141
			c2.326-1.329,3.792-1.462,4.397-0.402l0.14,0.245c0.035,0.629-0.187,1.284-0.665,1.964c-0.478,0.678-1,1.231-1.565,1.665
			l-1.984,1.215l-1.897,1.083C170.804,117.45,170.072,117.733,169.385,117.855z"/>
		<path fill="#FFFFFF" d="M206.207,101.277c-0.42-0.163-0.729-0.558-0.927-1.187l-2.77-8.81c-0.71-0.22-1.92-0.232-3.633-0.04
			c-1.712,0.195-3.3,0.473-4.763,0.833c-0.198,1.098-0.196,2.354,0.002,3.768l0.154,1.43c0.054,0.329,0.137,1.065,0.252,2.211
			c0.113,1.146,0.161,2.155,0.138,3.022c-0.022,0.87-0.097,1.571-0.226,2.104c-1.704,0.536-2.831,0.398-3.382-0.414
			c0.268-0.872,0.165-3.155-0.306-6.85l-1.65-13.004c-0.846-6.137-1.503-11.398-1.97-15.783c-0.467-4.385-0.667-8.114-0.599-11.191
			c0.059-3.416,0.559-5.274,1.5-5.57s1.714-0.34,2.321-0.139c0.564,1.794,2.35,5.986,5.358,12.577
			c3.01,6.443,4.904,10.896,5.679,13.362c0.747,2.377,2.063,5.705,3.952,9.988c1.871,4.388,3.231,7.926,4.076,10.615
			c0.479,1.524-0.021,2.519-1.5,2.984C207.196,101.409,206.628,101.44,206.207,101.277z M201.154,87.202
			c-0.755-1.932-1.747-4.303-2.977-7.119c-4.217-9.806-6.684-15.854-7.402-18.141l-0.169-0.537c-0.308,0.59-0.287,2.812,0.064,6.666
			c0.35,3.856,0.837,7.951,1.461,12.287c0.624,4.336,1.125,7.184,1.502,8.542c2.052-0.054,4.131-0.412,6.239-1.074
			C200.23,87.713,200.658,87.505,201.154,87.202z"/>
		<path fill="#FFFFFF" d="M229.351,96.352c-0.711-0.373-1.092-0.935-1.146-1.684c0.957-1.104,1.275-3.885,0.955-8.338
			c-0.192-2.672-0.684-6.547-1.473-11.625c-0.82-4.841-1.33-8.668-1.533-11.479l-0.137-3.877c-0.036-1.128-0.104-2.419-0.209-3.872
			c-0.094-1.312-0.448-2.96-1.062-4.94c-0.714-2.07-1.102-3.526-1.162-4.369c-0.118-1.641,1.626-2.592,5.236-2.851l1.055-0.075
			c2.531-0.183,4.789,0.432,6.776,1.844c1.593,1.205,2.996,3.013,4.207,5.422c0.824,1.637,1.601,3.938,2.333,6.898
			c0.471,2.605,0.759,4.657,0.867,6.157l0.162,2.25l0.238,3.305c-0.082,0.194-0.114,0.385-0.101,0.572
			c0.026,0.375,0.07,0.655,0.131,0.839c0.06,0.185,0.101,0.416,0.121,0.697c0.108,1.5,0.014,3.311-0.281,5.427
			c-0.296,2.118-0.787,4.286-1.476,6.501c-1.738,5.309-3.842,9.136-6.312,11.479c-1.459,1.331-3.032,2.056-4.72,2.177
			C230.883,96.878,230.059,96.726,229.351,96.352z M237.238,87.622c1.165-2.134,2.011-4.467,2.535-7.002
			c0.935-4.685,1.233-9.37,0.896-14.058c-0.182-2.531-0.616-5.279-1.3-8.245c-0.726-2.87-2.015-5.414-3.871-7.638
			c-0.879-1.066-1.949-1.873-3.213-2.419c-1.265-0.545-2.669-0.761-4.216-0.65l0.005,0.07c0.303,4.219,1.043,10.573,2.219,19.062
			c1.173,8.444,1.917,14.845,2.23,19.203l0.48,6.68C234.66,91.424,236.072,89.755,237.238,87.622z"/>
		<path fill="#FFFFFF" d="M258.66,96.929c-0.957-0.932-1.748-2.156-2.37-3.672c-1.14-2.646-1.846-6.197-2.119-10.654
			c-0.206-3.084-0.253-6.625-0.142-10.626l0.252-3.728l0.329-3.792c0.058-1.222,0.162-2.698,0.312-4.431
			c0.243-2.809,0.574-5.28,0.996-7.414c0.381-2.23,1.042-4.413,1.982-6.549c0.915-1.854,2.11-3.118,3.583-3.794
			c0.875-0.302,1.734-0.416,2.577-0.343c2.481,0.215,4.362,1.368,5.644,3.46c1.401,2.34,2.241,4.889,2.521,7.647
			c0.465,3.343,0.614,6.516,0.449,9.521c-0.102,3.34-0.278,6.484-0.534,9.435l-0.347,4.003c-0.069,0.796-0.316,2.283-0.74,4.464
			c-0.337,1.716-0.559,3.183-0.664,4.4l-0.024,0.28c-0.395,1.287-0.668,2.819-0.823,4.599c-0.113,1.312-0.512,2.644-1.195,4
			c-0.684,1.354-1.583,2.48-2.698,3.375c-1.128,1.034-2.348,1.494-3.657,1.381C260.728,98.382,259.617,97.861,258.66,96.929z
			 M265.08,92.249c0.695-1.496,1.268-3.345,1.718-5.547c0.449-2.201,0.89-4.698,1.321-7.49c0.199-1.21,0.382-2.773,0.548-4.693
			l0.489-6.468c0.125-2.535,0.117-5.721-0.021-9.553c-0.096-3.264-0.551-6.179-1.365-8.75c-0.367-1.21-0.873-2.174-1.519-2.892
			c-0.645-0.715-1.367-1.108-2.162-1.178c-1.17-0.102-2.116,0.737-2.835,2.515c-0.868,1.859-1.52,3.925-1.952,6.199
			c-0.496,2.457-0.865,4.806-1.106,7.049l-0.271,2.312c-0.104,0.652-0.204,1.539-0.301,2.663l-0.025,0.28
			c-0.271,3.137-0.279,7.028-0.02,11.673c0.209,6.292,0.927,10.812,2.151,13.559c0.794,1.72,1.707,2.624,2.736,2.713
			C263.403,94.722,264.274,93.925,265.08,92.249z"/>
		<path fill="#FFFFFF" d="M290.457,87.94c-0.361-11.786-0.518-22.576-0.471-32.366l-5.767,22.39
			c-0.493,1.911-1.15,5.212-1.968,9.901c-0.972,5.088-1.644,8.36-2.019,9.816c-0.105,0.409-0.447,0.697-1.023,0.864
			c-0.578,0.167-1.184,0.168-1.821,0.004c-0.956-0.245-1.339-0.733-1.152-1.461l0.646-1.944c0.465-1.433,0.758-2.376,0.875-2.831
			c0.621-2.412,1.469-6.271,2.544-11.574c1.098-5.395,1.793-8.66,2.087-9.799l2.25-8.736c0.363-1.411,0.971-3.486,1.822-6.228
			c0.803-2.365,1.434-4.436,1.891-6.21l0.105-0.409c0.586-2.275,1.379-3.284,2.381-3.026c0.591,0.152,1.084,1.347,1.479,3.583
			c0.658,3.663,1.057,10.027,1.198,19.088c0.054,5.256-0.028,11.98-0.246,20.172c0.001-0.192-0.04,1.472-0.121,4.992l-0.02,0.358
			c1.137-4.413,2.202-8.36,3.196-11.841l3.196-11.843l5.205-20.205c0.474-1.092,1.349-1.473,2.624-1.145
			c1.229,0.316,1.615,1.362,1.157,3.138l-0.105,0.409c-0.414,0.476-0.721,1.101-0.92,1.873c-0.715,2.777-1.861,6.945-3.44,12.508
			c-1.59,5.608-2.748,9.822-3.475,12.644l-5.362,20.819c-0.188,0.729-0.561,1.373-1.117,1.933c-0.557,0.56-1.108,0.771-1.655,0.629
			C291.521,103.209,290.863,98.043,290.457,87.94z"/>
		<path fill="#FFFFFF" d="M313.247,110.09c-0.208-0.399-0.18-0.901,0.086-1.503l3.731-8.447c-0.388-0.634-1.289-1.442-2.704-2.427
			c-1.415-0.983-2.792-1.822-4.128-2.517c-0.872,0.693-1.7,1.638-2.484,2.832l-0.827,1.176c-0.177,0.282-0.6,0.892-1.27,1.828
			c-0.671,0.937-1.301,1.725-1.891,2.363c-0.59,0.638-1.109,1.115-1.557,1.431c-1.635-0.722-2.39-1.568-2.268-2.542
			c0.775-0.479,2.206-2.263,4.289-5.351l7.34-10.859c3.413-5.169,6.391-9.556,8.934-13.16c2.542-3.603,4.853-6.538,6.934-8.804
			c2.298-2.529,3.899-3.595,4.802-3.197c0.903,0.399,1.514,0.876,1.836,1.428c-0.76,1.721-2.184,6.048-4.272,12.986
			c-1.989,6.826-3.505,11.424-4.55,13.787c-1.006,2.279-2.213,5.648-3.62,10.114c-1.488,4.531-2.801,8.086-3.94,10.665
			c-0.646,1.462-1.677,1.879-3.096,1.253C313.903,110.842,313.456,110.49,313.247,110.09z M318.737,96.179
			c0.707-1.947,1.525-4.386,2.459-7.312c3.302-10.151,5.438-16.323,6.407-18.516l0.228-0.516c-0.62,0.24-2.071,1.924-4.351,5.052
			c-2.281,3.128-4.617,6.527-7.008,10.196c-2.392,3.67-3.895,6.141-4.507,7.41c1.578,1.313,3.376,2.417,5.396,3.31
			C317.706,95.954,318.164,96.079,318.737,96.179z"/>
		<path fill="#FFFFFF" d="M326.002,116.841c0.012-0.789,0.276-1.606,0.79-2.449c0.806-1.324,1.875-2.901,3.209-4.73l1.074-1.492
			l2.062-3.118c0.855-1.404,2.62-4.621,5.295-9.649c2.675-5.027,4.441-8.244,5.297-9.649c0.073-0.12,0.223-0.345,0.451-0.675
			c0.227-0.328,0.562-0.854,1.001-1.576c0.528-0.779,1.147-1.75,1.856-2.914c1.783-2.93,2.718-4.919,2.806-5.966
			c-0.241-0.146-0.8-0.404-1.675-0.772l-1.76-0.905c-0.522-0.318-0.892-0.749-1.109-1.295c-0.219-0.545-0.181-1.06,0.112-1.541
			s1.031-0.609,2.215-0.385c1.698,0.374,4.293,1.487,7.788,3.338c1.413,0.75,2.261,1.211,2.542,1.382
			c0.481,0.294,0.825,0.723,1.031,1.288c0.205,0.566,0.162,1.089-0.131,1.571c-0.293,0.481-0.703,0.769-1.226,0.862
			c-0.525,0.093-1.049-0.02-1.569-0.336l-1.047-0.72c-0.298-0.236-0.646-0.477-1.047-0.72l-0.603-0.368
			c-1.382,2.901-2.743,5.456-4.086,7.663l-2.406,3.816c-0.75,1.141-1.562,2.433-2.442,3.878c-1.173,1.927-2.498,4.284-3.974,7.07
			c-1.828,3.455-3.132,5.824-3.913,7.107c-0.929,1.527-1.949,3.382-3.058,5.566c-1.136,2.226-2.154,4.081-3.058,5.565
			c-1.197,1.967-2.378,2.597-3.542,1.888C326.284,118.208,325.989,117.63,326.002,116.841z"/>
		<path fill="#FFFFFF" d="M337.053,121.905c0.689-0.894,1.592-0.909,2.708-0.048l0.669,0.517c0.119,0.151,0.272,0.3,0.459,0.443
			c0.298,0.229,0.582,0.303,0.857,0.217c0.272-0.086,0.597-0.369,0.97-0.854c2.441-3.162,5.585-7.62,9.436-13.376
			c4.059-5.948,7.208-10.374,9.449-13.275c0.804-1.042,1.554-1.977,2.253-2.803l2.252-2.803c0.948-1.228,1.681-2.293,2.202-3.198
			c-0.525-0.167-1.009-0.423-1.455-0.768c-0.856-0.66-0.939-1.437-0.25-2.329c0.345-0.446,0.916-0.629,1.714-0.547
			c0.797,0.081,1.681,0.378,2.652,0.891c1.763,0.944,3.184,1.833,4.263,2.666c0.447,0.345,0.712,0.788,0.8,1.33
			c0.084,0.541-0.029,1.018-0.344,1.427c-0.316,0.409-0.71,0.668-1.181,0.779c-0.473,0.11-0.894,0.022-1.265-0.265
			c-0.224-0.173-0.396-0.334-0.515-0.485l-0.446-0.346c-0.373-0.288-0.707-0.411-1.003-0.373c-0.296,0.038-0.617,0.28-0.961,0.727
			c-3.045,3.943-6.995,9.561-11.854,16.854c-5.153,7.597-9.137,13.219-11.951,16.863l-1.637,2.12
			c0.288,0.164,0.675,0.433,1.159,0.807c1.562,1.206,1.84,2.46,0.835,3.762l-0.258,0.335l-2.127-0.129
			c-0.037-0.028-0.157-0.104-0.356-0.23c-0.202-0.125-0.58-0.402-1.138-0.832c-1.323-0.902-2.132-1.469-2.43-1.699
			C337.359,124.812,336.191,123.021,337.053,121.905z"/>
		<path fill="#FFFFFF" d="M353.504,139.479c-0.129-1.328,0.057-2.774,0.561-4.334c0.839-2.756,2.593-5.925,5.262-9.504
			c1.835-2.487,4.085-5.222,6.753-8.205l2.599-2.684l2.7-2.684c0.833-0.896,1.866-1.955,3.099-3.182c2-1.987,3.848-3.66,5.547-5.018
			c1.731-1.458,3.646-2.696,5.743-3.722c1.896-0.825,3.624-1.019,5.186-0.582c0.863,0.335,1.592,0.802,2.189,1.401
			c1.755,1.766,2.448,3.861,2.075,6.287c-0.44,2.689-1.445,5.179-3.012,7.467c-1.804,2.853-3.739,5.372-5.804,7.56
			c-2.235,2.485-4.4,4.772-6.5,6.858l-2.85,2.833c-0.567,0.563-1.716,1.54-3.448,2.931c-1.366,1.093-2.482,2.07-3.348,2.932
			l-0.2,0.198c-1.132,0.729-2.332,1.722-3.597,2.98c-0.934,0.929-2.099,1.688-3.496,2.281c-1.398,0.596-2.811,0.872-4.24,0.837
			c-1.528,0.062-2.757-0.375-3.684-1.307C354.145,141.925,353.633,140.809,353.504,139.479z M361.428,140.052
			c1.497-0.693,3.128-1.735,4.894-3.126c1.764-1.39,3.713-3.013,5.846-4.867c0.932-0.795,2.081-1.871,3.448-3.23l4.549-4.621
			c1.733-1.856,3.784-4.293,6.152-7.31c2.034-2.553,3.57-5.073,4.608-7.562c0.501-1.163,0.737-2.225,0.707-3.188
			c-0.031-0.963-0.327-1.729-0.89-2.296c-0.828-0.834-2.091-0.803-3.789,0.089c-1.863,0.859-3.695,2.017-5.493,3.473
			c-1.966,1.558-3.765,3.111-5.397,4.67l-1.699,1.589c-0.5,0.433-1.149,1.044-1.949,1.84l-0.2,0.198
			c-2.233,2.221-4.75,5.187-7.552,8.9c-3.903,4.938-6.274,8.854-7.112,11.742c-0.505,1.826-0.392,3.104,0.337,3.839
			C358.55,140.857,359.729,140.811,361.428,140.052z"/>
		<path fill="#FFFFFF" d="M383.603,153.146c7.328-9.24,14.169-17.585,20.521-25.036l-18.85,13.387
			c-1.609,1.145-4.24,3.242-7.892,6.297c-4.024,3.262-6.649,5.328-7.875,6.198c-0.345,0.245-0.792,0.245-1.34,0.001
			c-0.549-0.244-1.013-0.635-1.394-1.171c-0.571-0.805-0.551-1.426,0.062-1.86l1.748-1.068c1.28-0.795,2.112-1.328,2.495-1.601
			c2.031-1.44,5.167-3.843,9.41-7.201c4.32-3.414,6.958-5.46,7.916-6.141l7.355-5.225c1.187-0.843,2.991-2.036,5.41-3.582
			c2.139-1.289,3.957-2.464,5.45-3.526l0.345-0.245c1.915-1.359,3.173-1.618,3.771-0.774c0.354,0.497-0.041,1.729-1.182,3.691
			c-1.86,3.224-5.66,8.343-11.398,15.357c-3.349,4.051-7.749,9.135-13.201,15.256c0.125-0.148-0.979,1.098-3.312,3.735l-0.246,0.261
			c3.716-2.639,7.075-4.969,10.081-6.986l10.081-6.988l17.011-12.081c1.066-0.526,1.981-0.254,2.744,0.819
			c0.734,1.034,0.354,2.082-1.14,3.145l-0.345,0.245c-0.623,0.096-1.261,0.375-1.912,0.838c-2.337,1.66-5.902,4.105-10.697,7.338
			c-4.833,3.259-8.437,5.731-10.812,7.419l-17.528,12.448c-0.612,0.437-1.313,0.688-2.099,0.757
			c-0.787,0.068-1.344-0.126-1.671-0.586C374.567,165.499,377.397,161.126,383.603,153.146z"/>
	</g>
	<g>
		<path fill="#FFFFFF" d="M106.718,399.418c-0.099-0.435,0.146-0.98,0.734-1.637c0.379-0.426,0.733-0.629,1.066-0.611
			c0.33,0.019,0.807,0.304,1.425,0.855c0.849,0.76,1.568,0.812,2.155,0.154c3.418-3.824,8.17-9.725,14.254-17.7
			c6.12-8.015,10.801-13.837,14.046-17.47c0.312-0.348,0.623-0.658,0.939-0.933l0.984-1.102c1.622-1.815,1.777-3.312,0.464-4.485
			l-0.639-0.569l-0.747-0.563c-1.121-1.002-1.301-1.928-0.541-2.777c0.897-1.004,2.911-0.109,6.041,2.688
			c1.661,1.484,2.353,2.693,2.075,3.627c-1.164,0.836-2.005,1.544-2.522,2.123c-0.932,1.044-2.35,2.94-4.25,5.688
			c-1.697,2.443-3.151,4.344-4.359,5.695c-2.452,2.743-6.314,7.492-11.586,14.248c-4.617,6.021-8.513,10.809-11.689,14.363
			l-0.311,0.348c0.154,0.138,0.385,0.309,0.689,0.512c0.303,0.203,0.592,0.426,0.863,0.668c0.188,0.1,0.438,0.287,0.748,0.563
			c1.623,1.45,2.001,2.659,1.139,3.624c-1.002,1.121-3.705-0.287-8.109-4.224l-0.927-0.829l-0.812-0.725
			C107.191,400.363,106.814,399.852,106.718,399.418z"/>
		<path fill="#FFFFFF" d="M142.654,425.569c-0.005-0.87,0.267-1.776,0.813-2.718c0.859-1.479,2.002-3.242,3.431-5.289l1.148-1.67
			l2.203-3.484c0.91-1.568,2.781-5.155,5.617-10.76c2.833-5.604,4.706-9.191,5.617-10.76c0.078-0.135,0.238-0.387,0.482-0.754
			c0.242-0.367,0.6-0.955,1.068-1.762c0.565-0.871,1.225-1.955,1.98-3.255c1.898-3.271,2.883-5.485,2.957-6.642
			c-0.268-0.156-0.891-0.428-1.865-0.813l-1.96-0.958c-0.584-0.339-1.002-0.807-1.254-1.402c-0.253-0.596-0.223-1.163,0.089-1.7
			c0.312-0.538,1.122-0.696,2.432-0.476c1.88,0.373,4.769,1.541,8.663,3.501c1.574,0.795,2.52,1.283,2.833,1.466
			c0.539,0.312,0.927,0.777,1.167,1.396c0.239,0.619,0.204,1.197-0.108,1.734c-0.312,0.537-0.757,0.863-1.333,0.979
			c-0.576,0.115-1.156,0.004-1.737-0.334l-1.171-0.77c-0.333-0.254-0.724-0.51-1.171-0.77l-0.672-0.391
			c-1.456,3.229-2.899,6.078-4.33,8.541l-2.564,4.264c-0.801,1.274-1.668,2.717-2.604,4.33c-1.248,2.151-2.656,4.781-4.218,7.887
			c-1.937,3.85-3.319,6.492-4.152,7.926c-0.99,1.703-2.071,3.771-3.243,6.206c-1.201,2.479-2.281,4.55-3.244,6.206
			c-1.274,2.197-2.562,2.917-3.86,2.163C142.996,427.071,142.656,426.439,142.654,425.569z"/>
		<path fill="#FFFFFF" d="M171.692,439.066l0.092-0.215c0.935-2.586,1.706-5.582,2.315-8.984c0.607-3.402,1.156-7.592,1.646-12.566
			c0.356-3.736,0.737-7.066,1.14-9.994l-12.027,28.165c-0.325,0.763-0.696,1.267-1.11,1.513c-0.415,0.245-1.004,0.205-1.766-0.121
			c-0.573-0.244-0.949-0.615-1.13-1.115c-0.18-0.5-0.148-1.036,0.096-1.607l0.244-0.572l9.117-20.956
			c2.74-6.153,5.77-13.115,9.086-20.884l3.755-8.793c0.244-0.57,0.531-0.914,0.861-1.026c0.331-0.112,0.876-0.006,1.64,0.319
			c1.19,0.509,2.19,1.203,2.997,2.084c0.807,0.881,1.396,1.878,1.766,2.993c0.764,2.299,0.863,4.708,0.294,7.226
			c-0.216,1.035-0.588,2.172-1.117,3.41c-0.307,0.715-0.701,1.475-1.186,2.283c-0.487,0.807-0.805,1.318-0.953,1.537
			c-0.299,0.436-0.819,1.059-1.56,1.869c-0.741,0.812-1.22,1.339-1.437,1.584l-1.713,1.635l-1.508,1.555
			c-0.686,1.734-1.314,4.031-1.883,6.886c-0.573,2.854-1.003,5.545-1.292,8.07c-0.195,1.776-0.458,4.763-0.785,8.962l-0.613,7.176
			l-0.061,0.143c-0.346,0.812-0.713,1.471-1.1,1.982c-0.468,0.699-1.131,0.869-1.99,0.503
			C172.607,441.738,172,440.719,171.692,439.066z M181.737,402.279l3.697-5.689c0.149-0.219,0.317-0.542,0.5-0.971
			c0.589-1.382,1.009-3.09,1.259-5.125c0.08-0.98,0.021-1.863-0.177-2.653c-0.199-0.789-0.526-1.31-0.982-1.561l-3.195,7.087
			c-1.506,3.133-2.637,5.581-3.389,7.344c-0.713,1.668-1.157,2.773-1.333,3.318C179.067,403.646,180.274,403.064,181.737,402.279z"
			/>
		<path fill="#FFFFFF" d="M187.432,446.079c-0.777-0.489-1.002-1.308-0.676-2.454l12.339-43.443c0.241-0.846,0.453-2.16,0.634-3.94
			c0.089-1.644,0.277-2.964,0.56-3.962l0.065-0.225c1.243-1.154,2.12-1.874,2.633-2.16c0.697,0.197,1.648,0.36,2.852,0.486
			c1.103,0.099,2.053,0.26,2.852,0.486c0.797,0.227,1.502,0.684,2.116,1.369c0.613,0.687,0.827,1.354,0.643,2.001
			c-0.424,1.495-1.785,1.917-4.077,1.267l-1.047-0.298c-0.285-0.134-0.627-0.259-1.025-0.372c-0.449-0.127-0.731-0.18-0.845-0.158
			c-0.48,1.695-0.961,3.766-1.442,6.216l-0.444,2.136l-1.019,4.154c-0.27,0.948-0.753,2.373-1.457,4.273l-1.338,4.146l1.11,0.072
			c1.082-0.017,1.947,0.068,2.596,0.253c0.548,0.155,0.986,0.51,1.315,1.061c0.328,0.551,0.415,1.101,0.259,1.648
			c-0.17,0.599-0.51,1.082-1.018,1.448c-0.509,0.368-1.037,0.474-1.585,0.317l-0.876-0.33l-0.972-0.275
			c-0.748-0.213-1.321-0.186-1.72,0.078l-6.562,23.104l4.251,0.965c2.841,0.807,4.078,1.859,3.709,3.154l-0.084,0.3
			c-0.469,0.513-1.157,0.843-2.06,0.991c-0.904,0.146-1.743,0.163-2.52,0.051l-2.488-0.625l-2.318-0.658
			C188.846,446.885,188.059,446.526,187.432,446.079z"/>
		<path fill="#FFFFFF" d="M212.721,452.119c-0.832-0.388-1.159-1.171-0.979-2.35l6.776-44.65c0.131-0.871,0.177-2.199,0.133-3.988
			c-0.117-1.643-0.099-2.977,0.057-4.002l0.036-0.23c1.088-1.301,1.868-2.126,2.341-2.475c0.716,0.109,1.679,0.15,2.889,0.124
			c1.107-0.04,2.07,0,2.891,0.124c0.819,0.125,1.577,0.49,2.271,1.092c0.694,0.604,0.991,1.238,0.89,1.904
			c-0.233,1.537-1.528,2.127-3.884,1.77l-1.077-0.164c-0.299-0.097-0.655-0.178-1.064-0.24c-0.461-0.07-0.747-0.086-0.857-0.051
			c-0.264,1.742-0.481,3.857-0.65,6.348l-0.172,2.176l-0.488,4.25c-0.147,0.973-0.449,2.447-0.907,4.422l-0.806,4.279l1.111-0.066
			c1.071-0.152,1.939-0.178,2.606-0.076c0.562,0.086,1.042,0.382,1.437,0.887c0.396,0.506,0.55,1.041,0.465,1.604
			c-0.094,0.615-0.369,1.137-0.827,1.564c-0.458,0.43-0.97,0.6-1.532,0.515l-0.911-0.218l-0.999-0.15
			c-0.77-0.117-1.334-0.019-1.696,0.293l-3.604,23.746l4.338,0.422c2.921,0.443,4.28,1.332,4.078,2.664l-0.046,0.307
			c-0.401,0.568-1.042,0.982-1.918,1.242c-0.879,0.26-1.71,0.382-2.493,0.369l-2.548-0.309l-2.383-0.361
			C214.225,452.74,213.399,452.484,212.721,452.119z"/>
		<path fill="#FFFFFF" d="M263.824,425.221c-0.366-0.016-0.742-0.008-1.128,0.028c-0.387,0.036-0.739,0.044-1.052,0.021
			l-0.388,0.036l-1.308,0.2l-1.625,0.152c-3.096,0.291-4.711-0.285-4.847-1.73c-0.053-0.568,0.073-1.021,0.38-1.363
			c0.305-0.341,0.717-0.535,1.233-0.584l13.853-1.299c3.972-0.373,6.023,0.138,6.154,1.531c0.126,1.342-2.521,2.266-7.938,2.773
			L263.824,425.221z M265.631,432c-3.626,0.184-6.366,0.363-8.225,0.537c-2.064,0.193-3.148-0.277-3.255-1.412
			c-0.049-0.516,0.079-0.945,0.387-1.286c0.306-0.341,0.717-0.535,1.233-0.584l11.608-1.089c5.262-0.492,7.957-0.068,8.081,1.272
			c0.05,0.517-0.079,0.958-0.382,1.324c-0.305,0.368-0.741,0.576-1.308,0.63L265.631,432z"/>
		<path fill="#FFFFFF" d="M311.738,444.869c-0.428-0.127-0.786-0.605-1.073-1.438c-0.187-0.538-0.192-0.948-0.015-1.229
			c0.177-0.28,0.657-0.558,1.44-0.828c1.077-0.372,1.473-0.975,1.185-1.808c-1.677-4.848-4.518-11.871-8.523-21.068
			c-4.021-9.246-6.828-16.17-8.421-20.774c-0.152-0.44-0.271-0.864-0.358-1.274l-0.483-1.395c-0.796-2.302-2.028-3.164-3.692-2.59
			l-0.809,0.28l-0.855,0.378c-1.422,0.492-2.316,0.199-2.688-0.879c-0.442-1.271,1.322-2.596,5.288-3.968
			c2.105-0.729,3.499-0.743,4.179-0.048c0.163,1.425,0.372,2.503,0.627,3.238c0.457,1.322,1.423,3.483,2.9,6.48
			c1.308,2.674,2.26,4.867,2.852,6.58c1.203,3.478,3.472,9.163,6.806,17.057c3.013,6.965,5.299,12.697,6.858,17.203l0.152,0.44
			c0.194-0.067,0.457-0.185,0.783-0.353c0.325-0.167,0.66-0.311,1.002-0.43c0.178-0.115,0.464-0.242,0.856-0.378
			c2.057-0.712,3.297-0.455,3.721,0.769c0.491,1.42-2.054,3.096-7.637,5.027l-1.175,0.407l-1.029,0.354
			C312.794,444.914,312.164,444.995,311.738,444.869z"/>
		<path fill="#FFFFFF" d="M313.266,397.695l-1.117-2.223c-1.743-3.475-2.709-6.381-2.898-8.721
			c-0.188-1.299-0.022-2.439,0.499-3.426c0.519-0.984,1.358-1.77,2.517-2.35c6.622-3.325,15.851,6.799,27.684,30.371
			c5.834,11.625,6.274,18.681,1.319,21.168C335.665,435.328,326.332,423.723,313.266,397.695z M341.051,426.016
			c-0.235-2.432-1.389-6.115-3.459-11.049c-0.419-1.064-0.965-2.269-1.64-3.612c-1.558-3.103-3.765-7.154-6.624-12.155
			c-2.766-4.701-5.691-8.74-8.779-12.118c-1.51-1.735-2.983-2.967-4.422-3.695c-1.437-0.727-2.724-0.894-3.858-0.498
			c-0.417,0.905-0.601,1.724-0.553,2.451c0.048,0.731,0.328,1.605,0.839,2.624c1.279,2.547,2.464,4.794,3.557,6.738l3.626,6.877
			c0.301,0.602,0.975,1.655,2.021,3.16c1.091,1.598,1.777,2.674,2.055,3.229c0.558,1.111,1.907,3.624,4.044,7.536
			c2.091,3.705,4.287,6.98,6.585,9.827c1.138,1.459,2.224,2.523,3.256,3.193c1.033,0.671,1.896,0.831,2.591,0.481
			C341.031,428.635,341.284,427.638,341.051,426.016z"/>
		<path fill="#FFFFFF" d="M375.729,413.217c-0.242,0.107-0.488,0.252-0.742,0.432c-5.73-5.654-10.711-10.253-14.942-13.795
			c-4.23-3.541-8.576-6.621-13.039-9.236l0.424,3.417c0.13,0.989,0.369,1.773,0.717,2.351c0.772,1.358,1.37,2.334,1.79,2.924
			c0.899,1.268,2.343,3.167,4.329,5.696c1.957,2.488,3.415,4.407,4.375,5.759l3.69,5.197c1.59,2.24,1.666,3.87,0.23,4.891
			c-1.226,0.869-2.678,0.121-4.359-2.245c-1.319-1.858-3.216-4.802-5.694-8.826c-2.225-3.759-4.085-6.694-5.586-8.808l-3.806-5.496
			l-4.681-6.592c-1.649-2.323-3.522-4.647-5.618-6.973c-2.156-2.41-3.713-4.291-4.674-5.644c-0.389-0.548-0.551-1.134-0.483-1.754
			c0.069-0.62,0.356-1.11,0.863-1.471c1.563-1.109,3.562,0.046,5.99,3.47l8.971,13.172l-1-3.961c-1.125-4.539-2.18-9.064-3.16-13.58
			c-0.505-2.501-0.81-4.541-0.913-6.119c-0.092-1.651,0.073-2.627,0.496-2.928c0.464-0.329,0.989-0.463,1.573-0.401
			c0.583,0.062,1.042,0.325,1.371,0.79c0.301,0.423,1.02,3.852,2.157,10.289c1.03,6.196,1.896,10.188,2.595,11.979l0.81,1.142
			c1.774,1.156,7.116,5.1,16.027,11.832c8.911,6.733,13.547,10.354,13.907,10.861c0.36,0.507,0.458,1.07,0.298,1.695
			c-0.163,0.622-0.517,1.129-1.067,1.519C376.327,412.983,376.043,413.121,375.729,413.217z"/>
		<path fill="#FFFFFF" d="M394.02,393.05l-0.162-0.169c-2.01-1.877-4.461-3.762-7.353-5.658c-2.89-1.896-6.526-4.046-10.909-6.451
			c-3.295-1.795-6.209-3.453-8.742-4.975l21.176,22.124c0.573,0.6,0.891,1.138,0.954,1.616c0.062,0.478-0.206,1.003-0.804,1.576
			c-0.449,0.43-0.94,0.631-1.471,0.6c-0.531-0.029-1.01-0.27-1.441-0.719l-0.43-0.449l-15.689-16.617
			c-4.582-4.938-9.793-10.457-15.635-16.561l-6.611-6.906c-0.43-0.449-0.631-0.848-0.604-1.195c0.025-0.348,0.338-0.808,0.938-1.381
			c0.935-0.896,1.967-1.543,3.094-1.939s2.274-0.545,3.444-0.447c2.416,0.201,4.67,1.057,6.762,2.568
			c0.866,0.605,1.766,1.395,2.697,2.367c0.538,0.562,1.081,1.225,1.634,1.988c0.55,0.764,0.897,1.257,1.04,1.479
			c0.282,0.446,0.651,1.169,1.106,2.168c0.456,1.001,0.752,1.647,0.892,1.943l0.832,2.218l0.835,1.997
			c1.327,1.312,3.192,2.792,5.593,4.438c2.4,1.647,4.706,3.1,6.914,4.357c1.556,0.877,4.202,2.292,7.934,4.242l6.357,3.383
			l0.107,0.111c0.61,0.637,1.073,1.233,1.391,1.79c0.461,0.706,0.354,1.382-0.319,2.026
			C396.837,393.258,395.662,393.416,394.02,393.05z M364.138,369.359l-3.779-5.635c-0.142-0.223-0.375-0.504-0.696-0.84
			c-1.04-1.086-2.445-2.143-4.219-3.172c-0.87-0.459-1.706-0.751-2.51-0.879c-0.804-0.127-1.412-0.031-1.821,0.29l5.262,5.722
			c2.29,2.617,4.096,4.617,5.422,6.002c1.254,1.311,2.096,2.154,2.528,2.529C364.347,372.352,364.284,371.013,364.138,369.359z"/>
	</g>
	<g>
		<g>
			<path fill="#60BA99" d="M410.571,272.851c-0.833-3.646,9.184-2.751,15.755-0.841c9.99,3.029,16.258,8.083,26.831,10.83
				c-6.886,1.897-19.769,2.002-30.064-0.021C411.945,280.618,410.533,277.383,410.571,272.851"/>
		</g>
		<g>
			<path fill="#11514F" d="M412.095,253.988c-6.07-6.753,3.549-15.644,11.822-18.697c12.76-4.402,25.411-0.543,38.238-6.146
				c-2.906,11.371-13.426,25.453-24.951,32.287C424.718,268.798,418.772,263.533,412.095,253.988"/>
		</g>
		<g>
			<path fill="#FFFFFF" d="M410.006,251.988c-6.07-6.753,3.549-15.644,11.822-18.697c12.76-4.402,25.411-0.543,38.238-6.146
				c-2.906,11.371-13.426,25.453-24.951,32.287C422.63,266.798,416.684,261.533,410.006,251.988"/>
		</g>
		<g>
			<path fill="#FFFFFF" d="M409.527,269.851c-0.833-3.646,9.184-2.751,15.755-0.841c9.99,3.029,16.258,8.083,26.832,10.83
				c-6.886,1.897-19.769,2.002-30.065-0.021C410.901,277.618,409.489,274.383,409.527,269.851"/>
		</g>
	</g>
	<path fill="none" stroke="#FFFFFF" stroke-width="7" stroke-miterlimit="10" d="M486.4,247.688
		c0,131.669-106.738,238.405-238.407,238.405c-131.669,0-238.408-106.736-238.408-238.405C9.585,116.019,116.324,9.28,247.993,9.28
		C379.662,9.28,486.4,116.019,486.4,247.688"/>
	<g>
		<g>
			<path fill="#60BA99" d="M89.911,272.851c0.833-3.646-9.184-2.751-15.755-0.841c-9.99,3.029-16.258,8.083-26.831,10.83
				c6.886,1.897,19.769,2.002,30.064-0.021C88.537,280.618,89.948,277.383,89.911,272.851"/>
		</g>
		<g>
			<path fill="#11514F" d="M88.387,253.988c6.07-6.753-3.549-15.644-11.822-18.697c-12.76-4.402-25.411-0.543-38.238-6.146
				c2.906,11.371,13.426,25.453,24.951,32.287C75.763,268.798,81.709,263.533,88.387,253.988"/>
		</g>
		<g>
			<path fill="#FFFFFF" d="M90.475,251.988c6.071-6.753-3.549-15.644-11.822-18.697c-12.76-4.402-25.41-0.543-38.237-6.146
				c2.906,11.371,13.426,25.453,24.951,32.287C77.851,266.798,83.797,261.533,90.475,251.988"/>
		</g>
		<g>
			<path fill="#FFFFFF" d="M90.955,269.851c0.833-3.646-9.184-2.751-15.755-0.841c-9.99,3.029-16.258,8.083-26.832,10.83
				c6.886,1.897,19.769,2.002,30.064-0.021C89.581,277.618,90.992,274.383,90.955,269.851"/>
		</g>
	</g>
	<g>
		<path fill="#CDCD54" d="M357.414,249.537c0,60.982-49.433,110.415-110.411,110.415c-60.982,0-110.417-49.433-110.417-110.415
			c0-60.978,49.435-110.412,110.417-110.412C307.981,139.125,357.414,188.56,357.414,249.537"/>
		<path fill="#FFFFFF" d="M254.668,219.683c0,0-14.669-3.207-19.649-11.029c-4.979-7.825-6.876-24.185-6.876-24.185
			s21.516,7.054,28.541,14.077C263.709,205.57,254.668,219.683,254.668,219.683"/>
		<path fill="#60BA99" d="M310.65,183.078c0,0-76.115-9.354-55.023,38.514C255.627,221.592,288.457,266.16,310.65,183.078"/>
		<path fill="#705326" d="M194.474,254.574c-1.393-4.623,3.942-14.665,17.148-8.886c0,0,7.153-11.053,20.039-4.358
			c0,0,11.92-11.738,15.865,3.12c0,0,12.93-2.176,20.081,10.124c0,0,10.547-0.862,12.932,10.462c0,0,7.112,3.147,7.381,6.006
			c0.604,6.391-56.926,25.355-56.564,21.644c0,0-13.255-4.609-26.244-15.407C196.837,270.403,196.18,260.245,194.474,254.574"/>
		<path fill="#D18A35" d="M254.668,223.683c0,0-14.669-3.207-19.649-11.029c-4.979-7.825-6.876-24.185-6.876-24.185
			s21.516,7.054,28.541,14.077C263.709,209.57,254.668,223.683,254.668,223.683"/>
		<path fill="#FFFFFF" d="M311.65,180.078c0,0-76.115-9.354-55.023,38.514C256.627,218.592,289.457,263.16,311.65,180.078"/>
		<path fill="#11514F" d="M312.852,186.745c0,0-76.115-9.354-55.023,38.516C257.829,225.261,290.658,269.831,312.852,186.745"/>
		<path fill="#CDCD54" d="M190.071,256.04c-1.393-4.623,3.942-14.665,17.149-8.886c0,0,7.153-11.052,20.037-4.355
			c0,0,11.922-11.739,15.866,3.118c0,0,12.93-2.175,20.083,10.123c0,0,10.547-0.862,12.93,10.464c0,0,7.112,3.149,7.383,6.008
			c0.602,6.387-56.928,25.354-56.564,21.641c0,0-13.257-4.607-26.246-15.404C192.435,271.87,191.777,261.715,190.071,256.04z"/>
		<path fill="#1B877F" d="M257.337,222.217c0,0-14.671-3.207-19.65-11.031c-4.98-7.823-6.878-24.184-6.878-24.184
			s21.517,7.053,28.542,14.077C266.378,208.104,257.337,222.217,257.337,222.217"/>
		<path fill="none" stroke="#11514F" stroke-width="3" stroke-linecap="round" stroke-miterlimit="10" d="M243.808,203.654
			c6.882,2.034,13.263,14.255,15.067,17.121"/>
		<path fill="#60BA99" d="M310.65,183.078c0,0-76.115-9.354-55.023,38.514C255.627,221.592,288.457,266.16,310.65,183.078"/>
		<path fill="none" stroke="#11514F" stroke-width="3" stroke-linecap="round" stroke-miterlimit="10" d="M239.488,253.576
			c0,0,1.283-24.646,35.398-43.721"/>
		<path fill="#D18A35" d="M190.071,256.04c-1.393-4.623,3.942-14.665,17.149-8.886c0,0,7.153-11.052,20.037-4.355
			c0,0,11.922-11.739,15.866,3.118c0,0,12.93-2.175,20.083,10.123c0,0,10.547-0.862,12.93,10.464c0,0,7.112,3.149,7.383,6.008
			c0.602,6.387-56.928,25.354-56.564,21.641c0,0-13.257-4.607-26.246-15.404C192.435,271.87,191.777,261.715,190.071,256.04"/>
		<path fill="#FFFFFF" stroke="#D18A35" stroke-width="2" stroke-miterlimit="10" d="M208.468,285.456
			c5.317-4.952,15.406-4.217,32.663-3.3c17.261,0.917,55.19-17.242,55.19-17.242s10.087,1.284,6.05,8.621
			c-4.035,7.337-38.332,30.813-54.657,34.113c-13.636,2.759-51.349,9.372-64.912,1.335c-62.846-37.24-24.866-103.376-24.866-103.376
			l0,0c0,0,3.835,43.93,24.854,47.995c4.675,0.904,12.696,0.264,16.598,4.395c5.781,6.124,15.57,5.757,27.603,5.818
			c14.57,0.072,13.562,10.398,13.562,10.398s-0.526,5.559-3.654,7.714"/>
		<path fill="#FFFFFF" d="M208.468,286.456c5.317-4.952,15.406-4.217,32.663-3.3c17.261,0.917,55.19-17.242,55.19-17.242
			s10.087,1.284,6.05,8.621c-4.035,7.337-38.332,30.813-54.657,34.113c-13.636,2.759-51.349,9.372-64.912,1.335
			c-62.846-37.24-24.866-103.376-24.866-103.376l0,0c0,0,3.835,43.93,24.854,47.995c4.675,0.904,12.696,0.264,16.598,4.395
			c5.781,6.124,15.57,5.757,27.603,5.818c14.57,0.072,13.562,10.398,13.562,10.398s-0.526,5.559-3.654,7.714"/>
	</g>
</g>
<g id="Calque_1">
</g>
</svg>
