<?xml version="1.0" encoding="utf-8"?>
<!-- Generator: Adobe Illustrator 16.0.0, SVG Export Plug-In . SVG Version: 6.00 Build 0)  -->
<!DOCTYPE svg PUBLIC "-//W3C//DTD SVG 1.1//EN" "http://www.w3.org/Graphics/SVG/1.1/DTD/svg11.dtd">
<svg version="1.1" xmlns="http://www.w3.org/2000/svg" xmlns:xlink="http://www.w3.org/1999/xlink" x="0px" y="0px" width="500px"
	 height="500px" viewBox="0 0 500 500" enable-background="new 0 0 500 500" xml:space="preserve">
<g id="Calque_3">
	<path fill="#CDCD54" d="M485.892,247.688c0,131.389-106.511,237.898-237.898,237.898c-131.389,0-237.899-106.51-237.899-237.898
		S116.605,9.79,247.994,9.79C379.38,9.79,485.892,116.299,485.892,247.688"/>
</g>
<g id="Calque_2">
	<path fill="#705326" d="M291.919,256.427c-19.622,0-35.527,15.906-35.527,35.527s15.906,35.527,35.527,35.527
		c19.621,0,35.527-15.906,35.527-35.527S311.54,256.427,291.919,256.427 M312.126,294.552c-3.617,0.034-7.234,0.015-10.851,0.017
		c-2.087,0-4.174,0-6.77,0c0,0.338-1,0.671-1,1c0,1.429,1,2.778,1,4.129c-0.001,4.188,0.017,8.375-0.02,12.562
		c-0.014,1.647-0.473,3.171-2.464,3.194c-2.154,0.026-2.585-1.508-2.581-3.322c0.019-5.695,0.008-11.392,0.008-17.563
		c-5.233,0-10.073,0-14.914-0.002c-0.952,0-1.905,0.021-2.855-0.012c-1.785-0.062-3.338-0.59-3.243-2.724
		c0.087-1.961,1.565-2.366,3.253-2.361c4.759,0.017,9.518,0.004,14.278,0.002l2.621,1.072l0.856-1.072c0-5.074-0.001-9.896,0-14.716
		c0-1.046,0.017-2.095,0.003-3.141c-0.023-1.719,0.507-3.127,2.455-3.161c1.964-0.033,2.56,1.428,2.575,3.097
		c0.045,4.854,0.023,9.709,0.027,14.563c0.001,1.016,0,2.032,0,3.357c5.189,0,10.019,0,14.849,0.002c0.952,0,1.904,0.01,2.856,0.002
		c1.688-0.016,3.136,0.41,3.191,2.409C315.463,294.063,313.894,294.535,312.126,294.552"/>
	<path fill="#FFFFFF" d="M248.246,291.954c-0.936-19.925,16.876-38.139,37.446-39.771c-5.066-6.075-11.426-11.262-19.026-15.619
		c-18.058,15.782-39.544,15.903-57.771-0.013c-2.571,1.654-5.329,3.188-7.821,5.074c-15.303,11.58-19.516,18.262-19.516,26.262
		c0,7.314-1.799,9.809,8.913,22.066c9.337,10.684,25.154,20.686,44.626,23.486c6.586,0.947,18.749-0.43,20.679-0.974
		C252.502,313.39,248.746,303.513,248.246,291.954"/>
	<path fill="#FFFFFF" stroke="#CECE56" stroke-width="3" stroke-miterlimit="10" d="M238.785,159.901
		c19.914,0.053,34.853,17.882,32.604,36.17c-1.658,13.472-7.039,25.025-17.112,34.119c-9.752,8.802-21.321,8.924-30.935-0.016
		c-12.138-11.286-18.703-25.334-16.935-42.124C208.085,172.111,222.668,159.905,238.785,159.901"/>
	<path fill="#11514F" d="M244.785,165.901c19.914,0.053,34.853,17.882,32.604,36.17c-1.658,13.472-7.039,25.025-17.112,34.119
		c-9.752,8.802-21.321,8.924-30.935-0.016c-12.138-11.286-18.703-25.334-16.935-42.124
		C214.085,178.111,228.668,165.905,244.785,165.901"/>
	<path fill="none" stroke="#FFFFFF" stroke-width="7" stroke-miterlimit="10" stroke-dasharray="5,7" d="M367.236,247.688
		c0,65.856-53.387,119.242-119.243,119.242c-65.856,0-119.243-53.386-119.243-119.242s53.387-119.243,119.243-119.243
		C313.849,128.444,367.236,181.831,367.236,247.688"/>
	<g>
		<path fill="#FFFFFF" d="M119.803,164.164l-0.181-0.109c-2.198-1.178-4.785-2.262-7.759-3.253c-2.974-0.99-6.661-2.03-11.061-3.121
			c-3.306-0.808-6.245-1.585-8.819-2.33l23.702,14.475c0.642,0.393,1.045,0.791,1.212,1.195c0.166,0.405,0.053,0.928-0.339,1.569
			c-0.293,0.481-0.677,0.771-1.149,0.867c-0.472,0.098-0.949-0.001-1.43-0.295l-0.481-0.295l-17.613-10.921
			c-5.164-3.264-11.015-6.893-17.552-10.887l-7.399-4.519c-0.481-0.294-0.752-0.596-0.809-0.906c-0.059-0.311,0.108-0.787,0.5-1.429
			c0.612-1.002,1.367-1.81,2.262-2.418c0.896-0.609,1.868-1.008,2.917-1.192c2.163-0.385,4.338-0.159,6.523,0.68
			c0.9,0.331,1.872,0.812,2.914,1.45c0.601,0.366,1.232,0.821,1.893,1.361c0.661,0.542,1.079,0.896,1.255,1.057
			c0.352,0.325,0.843,0.873,1.474,1.644s1.041,1.27,1.233,1.497l1.243,1.75l1.197,1.557c1.468,0.842,3.446,1.706,5.933,2.592
			c2.487,0.887,4.846,1.624,7.073,2.213c1.568,0.408,4.215,1.033,7.939,1.876l6.359,1.488l0.121,0.073
			c0.683,0.417,1.227,0.832,1.634,1.246c0.567,0.513,0.632,1.129,0.191,1.852C122.321,163.693,121.327,164.104,119.803,164.164z
			 M88.105,150.34l-4.622-4.062c-0.176-0.161-0.445-0.354-0.806-0.575c-1.163-0.709-2.641-1.309-4.435-1.8
			c-0.869-0.199-1.67-0.263-2.404-0.188c-0.734,0.076-1.243,0.302-1.528,0.678l5.942,3.794c2.613,1.762,4.663,3.096,6.146,4.002
			c1.403,0.856,2.338,1.4,2.804,1.629C88.983,152.914,88.618,151.754,88.105,150.34z"/>
		<path fill="#FFFFFF" d="M126.711,156.534c-0.68,0.48-1.443,0.386-2.292-0.286l-32.116-25.411c-0.626-0.496-1.653-1.13-3.082-1.9
			c-1.346-0.645-2.388-1.259-3.125-1.843l-0.166-0.132c-0.536-1.442-0.835-2.427-0.896-2.956c0.408-0.516,0.874-1.255,1.397-2.221
			c0.465-0.89,0.93-1.63,1.397-2.22c0.466-0.589,1.094-1.022,1.881-1.298c0.788-0.276,1.421-0.224,1.9,0.154
			c1.105,0.875,0.987,2.161-0.354,3.855l-0.612,0.773c-0.211,0.192-0.435,0.437-0.668,0.731c-0.263,0.331-0.403,0.548-0.426,0.651
			c1.253,0.99,2.822,2.113,4.708,3.364l1.635,1.114l3.128,2.295c0.701,0.554,1.725,1.455,3.075,2.703l3.008,2.561l0.446-0.905
			c0.362-0.912,0.732-1.607,1.112-2.087c0.32-0.405,0.77-0.65,1.345-0.733c0.576-0.084,1.066,0.034,1.472,0.355
			c0.442,0.35,0.729,0.802,0.86,1.355c0.132,0.553,0.037,1.031-0.284,1.438l-0.58,0.619l-0.569,0.719
			c-0.438,0.553-0.614,1.042-0.531,1.467l17.08,13.516l2.284-3.227c1.662-2.101,2.972-2.772,3.93-2.014l0.221,0.175
			c0.267,0.57,0.306,1.261,0.116,2.069c-0.19,0.808-0.468,1.517-0.831,2.129l-1.389,1.867l-1.355,1.715
			C127.877,155.628,127.304,156.163,126.711,156.534z"/>
		<path fill="#FFFFFF" d="M140.072,140.22c-1.765,0.126-3.996-0.407-6.694-1.6c-1.742-0.803-3.887-2.231-6.433-4.284
			c-2.055-1.675-3.894-3.362-5.519-5.062c-0.455-0.409-1.202-1.157-2.242-2.245l-1.656-1.732l-1.947-2.039
			c-1.395-1.46-3.017-3.261-4.862-5.396c-1.521-1.863-2.936-3.89-4.249-6.08c-1.247-2.188-2.03-4.301-2.348-6.335
			c-0.384-2.102-0.122-4.107,0.785-6.015c0.623-1.049,1.308-1.932,2.055-2.646c1.427-1.362,2.595-1.568,3.504-0.617
			c0.358,0.375,0.514,0.793,0.47,1.257c-0.043,0.465-0.27,0.892-0.677,1.28c-0.136,0.13-0.423,0.308-0.86,0.529l-0.811,0.58
			c-0.646,0.617-1.036,1.364-1.172,2.241c-0.137,0.878-0.018,1.854,0.357,2.926c0.776,2.378,1.954,4.663,3.532,6.86
			c1.898,2.736,3.675,5.004,5.329,6.803c1.393,1.594,2.901,3.239,4.523,4.939l1.315,1.376c0.42,0.509,0.972,1.118,1.653,1.833
			c1.656,1.732,3.364,3.351,5.124,4.853c2.018,1.842,4.016,3.184,5.991,4.025c2.069,1.079,4.024,1.355,5.864,0.833
			c0.902-0.213,1.777-0.725,2.627-1.536c1.495-1.429,2.071-3.343,1.727-5.744c-1.17-1.156-2.367-2.238-3.59-3.247
			c-1.224-1.009-2.166-1.588-2.827-1.735c-0.035,0.032-0.103,0.115-0.205,0.245c-0.104,0.132-0.257,0.327-0.462,0.588l-1.126,1.269
			c-1.155,1.105-2.203,1.164-3.145,0.179c-0.292-0.306-0.382-0.74-0.269-1.303c0.112-0.561,0.408-1.171,0.889-1.824
			c0.724-1.146,1.459-2.076,2.208-2.79c0.68-0.649,1.449-0.898,2.311-0.746c0.86,0.152,1.664,0.62,2.411,1.401
			c1.071,1.122,2.702,2.488,4.892,4.101c2.158,1.578,3.772,2.928,4.843,4.048c0.356,0.375,0.545,0.812,0.568,1.311
			c0.021,0.498-0.138,0.911-0.477,1.234c-0.85,0.812-1.768,1.008-2.755,0.586l-0.049-0.051l-0.585,1.632
			c-0.468,1.552-1.058,2.667-1.771,3.35C144.447,139.257,142.367,140.172,140.072,140.22z"/>
		<path fill="#FFFFFF" d="M152.495,126.745c-0.663-0.913-0.423-1.782,0.718-2.61l0.685-0.497c0.179-0.071,0.364-0.177,0.555-0.314
			c0.304-0.222,0.454-0.475,0.449-0.763c-0.005-0.286-0.187-0.677-0.546-1.171c-2.345-3.233-5.736-7.508-10.172-12.824
			c-4.562-5.572-7.921-9.843-10.073-12.81c-0.772-1.065-1.457-2.047-2.054-2.952l-2.053-2.95c-0.91-1.256-1.726-2.26-2.448-3.015
			c-0.308,0.456-0.69,0.849-1.146,1.18c-0.875,0.636-1.643,0.495-2.305-0.418c-0.332-0.456-0.346-1.055-0.042-1.798
			c0.302-0.741,0.837-1.506,1.602-2.294c1.405-1.424,2.658-2.537,3.762-3.338c0.457-0.33,0.957-0.461,1.501-0.392
			c0.544,0.071,0.968,0.314,1.271,0.732c0.304,0.419,0.441,0.87,0.415,1.353c-0.026,0.486-0.23,0.865-0.61,1.141
			c-0.229,0.165-0.433,0.285-0.612,0.356l-0.457,0.331c-0.381,0.276-0.595,0.561-0.641,0.857c-0.047,0.295,0.095,0.67,0.426,1.127
			c2.925,4.032,7.2,9.407,12.826,16.125c5.836,7.086,10.107,12.494,12.81,16.222l1.572,2.168c0.239-0.229,0.605-0.525,1.101-0.884
			c1.598-1.16,2.879-1.072,3.845,0.258l0.249,0.344l-0.723,2.004c-0.039,0.028-0.146,0.119-0.322,0.276
			c-0.177,0.158-0.55,0.442-1.121,0.856c-1.238,1.016-2.01,1.632-2.313,1.852C155.371,127.271,153.322,127.887,152.495,126.745z"/>
		<path fill="#FFFFFF" d="M168.724,118.789c-0.863-0.005-1.431-0.255-1.705-0.749c-0.272-0.493-0.371-0.963-0.295-1.406
			c0.076-0.445,0.339-0.793,0.792-1.044c0.41-0.228,1.098-0.393,2.062-0.496c1.045-0.148,1.67-0.279,1.876-0.395
			c0.78-0.433,1.302-1.164,1.564-2.195c0.261-1.031,0.271-2.204,0.026-3.52c-0.398-2.464-1.052-4.519-1.963-6.165
			c-0.978-1.767-2.286-3.474-3.922-5.119s-3.44-3.133-5.409-4.459l-2.079-1.426c-2.166-1.487-3.856-2.673-5.072-3.559
			c-1.215-0.885-2.415-1.911-3.599-3.083c-1.709-1.632-3.076-3.372-4.101-5.222c-0.819-1.481-1.336-3.02-1.55-4.622
			c-0.215-1.599-0.059-3.136,0.469-4.61c0.48-1.555,1.483-2.754,3.004-3.596c0.74-0.41,1.578-0.593,2.517-0.548
			c0.937,0.044,1.732,0.317,2.385,0.815l-0.332,1.875c-1.07,0.593-1.985,0.831-2.747,0.715c-0.694,0.493-1.143,1.211-1.346,2.154
			c-0.201,0.945-0.22,1.909-0.052,2.89c0.186,0.918,0.495,1.768,0.927,2.548c0.866,1.562,1.963,3.036,3.294,4.421
			c1.331,1.386,2.743,2.604,4.239,3.656l9.097,6.243c1.518,1.094,2.994,2.45,4.43,4.073s2.666,3.359,3.69,5.209
			c1.502,2.713,2.255,5.628,2.259,8.74c-0.016,1.62-0.379,3.098-1.091,4.431c-0.712,1.333-1.747,2.377-3.103,3.128
			C171.51,118.294,170.087,118.731,168.724,118.789z"/>
		<path fill="#FFFFFF" d="M189.714,106.95c-0.625-0.482-1.122-1.183-1.491-2.098c-0.579-1.438-1.203-3.239-1.871-5.401l-0.554-1.754
			l-1.265-3.518c-0.614-1.526-2.137-4.863-4.564-10.017c-2.429-5.15-3.951-8.488-4.565-10.015c-0.053-0.131-0.143-0.386-0.27-0.767
			c-0.128-0.379-0.35-0.961-0.665-1.745c-0.308-0.888-0.715-1.965-1.225-3.231c-1.281-3.181-2.316-5.12-3.102-5.816
			c-0.262,0.105-0.803,0.399-1.622,0.881l-1.778,0.868c-0.567,0.229-1.135,0.267-1.702,0.114c-0.568-0.15-0.957-0.487-1.167-1.012
			c-0.21-0.522,0.128-1.19,1.017-2.005c1.315-1.137,3.759-2.551,7.333-4.245c1.447-0.684,2.323-1.086,2.629-1.21
			c0.522-0.21,1.072-0.229,1.649-0.056c0.576,0.173,0.97,0.521,1.18,1.044c0.21,0.522,0.196,1.023-0.042,1.499
			c-0.24,0.477-0.643,0.829-1.208,1.057l-1.204,0.409c-0.367,0.097-0.768,0.232-1.204,0.407l-0.654,0.264
			c1.499,2.843,2.731,5.462,3.697,7.858l1.62,4.212c0.465,1.282,1.014,2.707,1.646,4.275c0.842,2.093,1.939,4.565,3.29,7.414
			c1.675,3.531,2.793,5.993,3.354,7.389c0.667,1.656,1.544,3.584,2.631,5.779c1.104,2.241,1.982,4.167,2.631,5.779
			c0.86,2.136,0.658,3.459-0.606,3.967C190.978,107.542,190.337,107.433,189.714,106.95z"/>
		<path fill="#FFFFFF" d="M204.149,102.401c-0.833-0.016-1.391-0.545-1.676-1.588l-10.794-39.506
			c-0.21-0.771-0.662-1.89-1.356-3.356c-0.701-1.318-1.175-2.431-1.423-3.338l-0.056-0.204c0.423-1.479,0.767-2.45,1.031-2.912
			c0.634-0.174,1.448-0.493,2.441-0.96c0.903-0.44,1.716-0.761,2.441-0.959s1.487-0.175,2.285,0.069
			c0.798,0.246,1.277,0.662,1.438,1.252c0.372,1.36-0.485,2.324-2.57,2.895l-0.952,0.26c-0.285,0.03-0.608,0.094-0.971,0.192
			c-0.408,0.111-0.651,0.204-0.729,0.272c0.421,1.541,1.019,3.375,1.795,5.501l0.656,1.866l1.158,3.704
			c0.235,0.86,0.526,2.194,0.874,3.999l0.905,3.845l0.896-0.464c0.832-0.52,1.542-0.86,2.132-1.021
			c0.498-0.136,1.005-0.066,1.518,0.206c0.513,0.274,0.838,0.66,0.974,1.159c0.148,0.544,0.112,1.078-0.111,1.602
			c-0.222,0.523-0.583,0.854-1.082,0.99l-0.834,0.154l-0.884,0.241c-0.68,0.187-1.112,0.475-1.297,0.866l5.741,21.01l3.752-1.244
			c2.583-0.705,4.037-0.469,4.358,0.709l0.075,0.272c-0.123,0.619-0.502,1.197-1.134,1.735c-0.632,0.537-1.276,0.943-1.931,1.222
			l-2.225,0.681l-2.108,0.575C205.624,102.363,204.845,102.454,204.149,102.401z"/>
		<path fill="#FFFFFF" d="M230.182,95.684l-0.031-0.209c-0.504-2.443-1.328-5.124-2.473-8.042
			c-1.144-2.919-2.707-6.417-4.687-10.494c-1.498-3.057-2.784-5.812-3.859-8.265l4.064,27.473c0.11,0.745,0.062,1.309-0.141,1.695
			c-0.204,0.388-0.679,0.635-1.422,0.745c-0.558,0.082-1.026-0.025-1.402-0.327c-0.377-0.3-0.606-0.729-0.689-1.287l-0.083-0.558
			l-2.893-20.521c-0.801-6.056-1.762-12.873-2.883-20.452l-1.269-8.576c-0.083-0.558-0.024-0.958,0.179-1.202
			c0.201-0.244,0.673-0.42,1.417-0.53c1.162-0.172,2.264-0.108,3.306,0.188c1.042,0.298,1.969,0.791,2.783,1.477
			c1.681,1.415,2.9,3.23,3.656,5.445c0.323,0.902,0.574,1.958,0.753,3.166c0.104,0.697,0.158,1.473,0.167,2.327
			c0.007,0.854,0.005,1.401-0.006,1.641c-0.025,0.478-0.131,1.207-0.319,2.185c-0.188,0.978-0.307,1.613-0.359,1.905l-0.548,2.076
			l-0.429,1.916c0.292,1.666,0.896,3.739,1.81,6.217c0.913,2.479,1.856,4.761,2.831,6.85c0.69,1.464,1.906,3.897,3.645,7.299
			l2.93,5.836l0.02,0.141c0.117,0.791,0.147,1.475,0.09,2.053c-0.029,0.764-0.463,1.208-1.299,1.332
			C232.156,97.315,231.204,96.814,230.182,95.684z M220.497,62.486l0.159-6.151c0.012-0.238-0.013-0.568-0.075-0.987
			c-0.199-1.347-0.686-2.866-1.458-4.558c-0.403-0.796-0.868-1.45-1.396-1.967c-0.528-0.517-1.028-0.763-1.499-0.74l0.892,6.993
			c0.321,3.137,0.609,5.562,0.863,7.283c0.241,1.627,0.422,2.692,0.544,3.196C219.082,64.81,219.738,63.786,220.497,62.486z"/>
		<path fill="#FFFFFF" d="M254.4,94.42c-1.429-1.32-2.475-2.936-3.137-4.842c-0.617-1.901-0.842-3.695-0.676-5.378
			c0.206-2.104,0.602-4.214,1.188-6.329c0.115-0.697,0.469-1.654,1.061-2.87c0.19-0.501,0.388-0.954,0.593-1.358
			c0.205-0.405,0.37-0.767,0.496-1.085c0.4-0.716,0.9-1.588,1.497-2.615c0.597-1.028,1.113-1.85,1.553-2.469
			c0.182-0.406,0.796-1.385,1.847-2.935c0.124-1.263,0.185-2.861,0.187-4.799c0.066-2.118,0.155-3.737,0.265-4.86l0.572-5.822
			c0.161-1.637,0.68-2.849,1.561-3.637c0.88-0.786,1.975-1.116,3.285-0.986c1.824,0.178,3.421,0.972,4.794,2.382
			c1.372,1.41,1.977,2.956,1.811,4.64c-0.271,2.76-0.971,5.206-2.101,7.336c-1.13,2.133-2.79,4.248-4.979,6.348
			c-0.103,0.085-0.346,0.391-0.728,0.92c-0.906,1.043-1.381,1.802-1.427,2.269c-0.128,1.31,0.079,3.525,0.623,6.647
			c0.543,3.123,1.238,6.141,2.085,9.058c0.847,2.917,1.626,4.834,2.34,5.754c1.766-3.084,2.895-7.128,3.386-12.133l0.035-0.351
			c-0.375-0.036-0.579-0.128-0.611-0.272l-0.183-0.301l-0.106-0.364c-0.038-0.1-0.066-0.172-0.084-0.221
			c-0.02-0.049-0.05-0.1-0.091-0.151l0.172-1.753c1.262,0.123,2.731,0.186,4.408,0.185c1.676-0.002,2.879-0.107,3.608-0.318
			c1.328,0.412,1.947,1.088,1.856,2.022c-0.065,0.656-0.476,1.111-1.232,1.365c-0.758,0.258-1.626,0.338-2.608,0.242l-0.134-0.084
			l-0.07-0.008l-1.754-0.172c-0.73,7.436-2.18,12.347-4.35,14.729c1.261,1.588,2.663,2.458,4.207,2.608l1.486,0.005l1.41,0.067
			l1.16,1.177c-0.088,0.889-0.439,1.468-1.056,1.737c-0.617,0.269-1.533,0.346-2.749,0.227c-2.151-0.212-4.312-1.297-6.479-3.257
			c-2.888,1.511-5.617,2.14-8.189,1.888C257.408,96.484,255.829,95.74,254.4,94.42z M262.889,93.446
			c1.137-0.289,1.963-0.645,2.477-1.068c-3.702-6.547-5.824-14.028-6.367-22.438c-2.87,3.73-4.559,8.192-5.068,13.384
			c-0.234,2.385,0.092,4.589,0.98,6.612c0.46,1.084,1.128,1.964,2.007,2.641c0.878,0.677,1.925,1.074,3.142,1.192
			C260.807,93.844,261.75,93.737,262.889,93.446z M265.875,57.972c1.247-1.885,1.927-3.389,2.037-4.51
			c0.096-0.982-0.178-2.166-0.821-3.552c-0.644-1.386-1.339-2.114-2.087-2.188c-0.655-0.064-1.318,0.438-1.989,1.506l-0.365,3.717
			l-0.392,4.707c-0.092,1.408-0.223,3.001-0.398,4.777l-0.076,0.772C263.263,61.599,264.627,59.856,265.875,57.972z"/>
		<path fill="#FFFFFF" d="M298.948,104.895c-0.825-0.956-1.433-2.057-1.824-3.304c-0.318-1.17-0.479-2.568-0.479-4.197
			c0-1.628,0.152-3.262,0.458-4.903c0.431-2.796,1.34-6.344,2.726-10.64c0.33-1.03,0.952-2.779,1.863-5.249l1.538-4.165
			c0.483-1.174,0.96-2.4,1.434-3.679c0.96-2.601,1.871-4.593,2.733-5.979c0.111-0.71,0.298-1.418,0.558-2.124
			c0.978-2.645,2.758-4.416,5.345-5.315c2.586-0.897,5.399-0.786,8.441,0.337c1.146,0.424,2.09,1.123,2.832,2.099
			c0.741,0.976,0.942,1.925,0.601,2.851c-0.163,0.441-0.47,0.729-0.92,0.863c-0.451,0.134-0.94,0.104-1.469-0.091
			c-0.441-0.163-0.892-0.404-1.349-0.724c-0.458-0.32-0.705-0.637-0.739-0.949l-0.86-0.317l0.049-0.133
			c-1.631-0.603-3.129-0.753-4.49-0.456c-1.005,0.28-1.973,1.001-2.901,2.161c-0.356,0.42-0.716,0.987-1.081,1.704
			c-0.365,0.718-0.661,1.385-0.889,2.002c-0.175,0.336-0.457,1.032-0.847,2.091l-0.723,2.363l-0.764,2.271
			c-0.244,0.662-0.618,1.401-1.12,2.218c-0.628,1.021-1.022,1.752-1.185,2.192l-0.586,1.587c-0.635,1.719-1.44,4.102-2.414,7.147
			c-0.884,2.529-1.525,5.148-1.924,7.857c-0.466,2.483-0.45,4.742,0.051,6.78c0.439,2.066,1.562,3.433,3.37,4.101
			c0.75,0.275,1.821,0.221,3.217-0.165c1.483-0.354,2.467-0.442,2.952-0.262c0.617,0.228,1.135,0.793,1.552,1.699
			c-0.603,1.632-1.684,2.659-3.243,3.086c-1.439,0.369-2.993,0.371-4.661,0.006c-0.915-0.238-1.636-0.454-2.165-0.648
			C300.801,106.556,299.772,105.849,298.948,104.895z"/>
		<path fill="#FFFFFF" d="M323.602,114.601l0.099-0.187c1.043-2.267,1.969-4.913,2.778-7.942c0.809-3.028,1.624-6.771,2.447-11.23
			c0.605-3.348,1.204-6.329,1.792-8.943l-13.017,24.533c-0.353,0.665-0.726,1.091-1.119,1.282c-0.394,0.19-0.923,0.108-1.586-0.243
			c-0.499-0.266-0.811-0.63-0.936-1.096c-0.126-0.465-0.056-0.946,0.208-1.444l0.264-0.499l9.838-18.24
			c2.946-5.352,6.215-11.411,9.805-18.178l4.064-7.659c0.264-0.497,0.549-0.786,0.857-0.861c0.306-0.077,0.791,0.061,1.455,0.413
			c1.038,0.55,1.888,1.254,2.551,2.111s1.118,1.804,1.366,2.839c0.515,2.137,0.42,4.321-0.285,6.552
			c-0.275,0.919-0.698,1.918-1.271,2.997c-0.331,0.622-0.747,1.279-1.246,1.973c-0.5,0.691-0.827,1.131-0.978,1.315
			c-0.304,0.371-0.821,0.896-1.552,1.571c-0.731,0.676-1.204,1.116-1.419,1.321l-1.672,1.348l-1.482,1.289
			c-0.752,1.516-1.495,3.543-2.229,6.078c-0.734,2.536-1.329,4.934-1.782,7.193c-0.312,1.591-0.776,4.27-1.393,8.039l-1.102,6.438
			l-0.066,0.125c-0.375,0.705-0.756,1.274-1.145,1.706c-0.477,0.597-1.089,0.699-1.836,0.304
			C324.224,117.085,323.754,116.117,323.602,114.601z M335.486,82.125l3.775-4.858c0.151-0.188,0.327-0.465,0.525-0.839
			c0.639-1.204,1.147-2.716,1.529-4.535c0.147-0.88,0.161-1.683,0.042-2.411c-0.12-0.729-0.376-1.225-0.769-1.485l-3.428,6.161
			c-1.601,2.715-2.809,4.842-3.623,6.377c-0.771,1.453-1.257,2.418-1.458,2.896C332.97,83.158,334.104,82.723,335.486,82.125z"/>
		<path fill="#FFFFFF" d="M331.615,121.021c-0.521-0.65-0.473-1.418,0.146-2.304l23.421-33.597c0.457-0.655,1.026-1.718,1.709-3.19
			c0.562-1.383,1.113-2.459,1.651-3.231l0.12-0.174c1.407-0.622,2.373-0.98,2.897-1.073c0.539,0.376,1.306,0.797,2.3,1.261
			c0.917,0.41,1.684,0.829,2.301,1.259c0.617,0.432,1.087,1.031,1.41,1.8c0.323,0.771,0.31,1.406-0.039,1.905
			c-0.807,1.156-2.098,1.116-3.87-0.119l-0.809-0.564c-0.205-0.199-0.461-0.407-0.77-0.621c-0.347-0.242-0.573-0.371-0.676-0.387
			c-0.914,1.312-1.939,2.944-3.074,4.902l-1.013,1.7l-2.101,3.262c-0.511,0.732-1.348,1.81-2.512,3.232l-2.373,3.158l0.93,0.391
			c0.932,0.305,1.648,0.633,2.15,0.981c0.424,0.297,0.695,0.729,0.814,1.299c0.118,0.569,0.03,1.066-0.266,1.49
			c-0.322,0.463-0.756,0.777-1.301,0.941c-0.544,0.165-1.029,0.099-1.453-0.197l-0.653-0.541l-0.752-0.524
			c-0.578-0.403-1.078-0.551-1.496-0.441l-12.457,17.866l3.359,2.085c2.197,1.531,2.947,2.799,2.248,3.802l-0.162,0.231
			c-0.554,0.301-1.24,0.381-2.058,0.239c-0.818-0.14-1.542-0.374-2.176-0.699l-1.948-1.273l-1.793-1.25
			C332.589,122.129,332.021,121.59,331.615,121.021z"/>
		<path fill="#FFFFFF" d="M354.167,138.501c-0.069-0.445,0.119-0.911,0.564-1.396l6.247-6.8c-0.164-0.725-0.757-1.781-1.781-3.168
			c-1.024-1.387-2.058-2.622-3.101-3.71c-1.049,0.377-2.136,1.006-3.262,1.885l-1.161,0.848c-0.258,0.21-0.854,0.652-1.79,1.323
			c-0.937,0.671-1.787,1.216-2.551,1.63c-0.763,0.415-1.409,0.7-1.934,0.855c-1.315-1.208-1.759-2.253-1.33-3.136
			c0.889-0.205,2.816-1.435,5.78-3.688l10.439-7.928c4.893-3.799,9.123-6.996,12.688-9.593c3.564-2.596,6.695-4.633,9.395-6.111
			c2.989-1.657,4.847-2.15,5.573-1.483c0.728,0.667,1.153,1.314,1.281,1.941c-1.272,1.383-4.011,5.025-8.217,10.925
			c-4.076,5.827-6.989,9.692-8.737,11.595c-1.685,1.835-3.911,4.64-6.677,8.417c-2.866,3.813-5.25,6.757-7.158,8.834
			c-1.081,1.177-2.192,1.24-3.334,0.192C354.547,139.425,354.236,138.947,354.167,138.501z M363.835,127.091
			c1.295-1.618,2.853-3.663,4.679-6.135c6.387-8.553,10.393-13.712,12.014-15.478l0.382-0.414c-0.665,0.028-2.58,1.155-5.743,3.386
			c-3.165,2.229-6.469,4.698-9.912,7.404c-3.445,2.708-5.66,4.564-6.648,5.572c1.072,1.749,2.42,3.371,4.047,4.866
			C362.93,126.547,363.324,126.813,363.835,127.091z"/>
		<path fill="#FFFFFF" d="M364.077,148.995c0.266-0.743,0.779-1.431,1.536-2.064c1.189-0.995,2.708-2.145,4.56-3.447l1.496-1.067
			l2.956-2.289c1.262-1.056,3.967-3.533,8.119-7.434c4.15-3.899,6.856-6.377,8.118-7.434c0.108-0.09,0.322-0.255,0.644-0.493
			c0.32-0.237,0.807-0.628,1.456-1.171c0.75-0.566,1.649-1.287,2.695-2.162c2.63-2.2,4.155-3.783,4.576-4.747
			c-0.181-0.216-0.627-0.64-1.338-1.271l-1.375-1.422c-0.392-0.47-0.604-0.998-0.635-1.584c-0.031-0.585,0.17-1.061,0.602-1.422
			s1.173-0.245,2.221,0.348c1.487,0.899,3.587,2.789,6.301,5.665c1.097,1.164,1.751,1.874,1.962,2.127
			c0.361,0.433,0.548,0.949,0.562,1.551c0.012,0.602-0.196,1.084-0.629,1.446c-0.433,0.361-0.912,0.501-1.438,0.422
			c-0.527-0.081-0.986-0.356-1.378-0.823l-0.76-1.019c-0.207-0.319-0.459-0.659-0.76-1.019l-0.453-0.541
			c-2.24,2.303-4.352,4.284-6.333,5.942l-3.505,2.839c-1.077,0.84-2.262,1.801-3.56,2.886c-1.73,1.447-3.743,3.254-6.037,5.417
			c-2.842,2.683-4.838,4.508-5.992,5.472c-1.37,1.146-2.933,2.573-4.685,4.286c-1.791,1.742-3.352,3.171-4.686,4.286
			c-1.767,1.479-3.086,1.694-3.961,0.648C363.903,150.382,363.811,149.738,364.077,148.995z"/>
		<path fill="#FFFFFF" d="M372.854,161.314c-0.242-0.798,0.089-1.491,0.994-2.083l34.254-22.448
			c0.668-0.437,1.594-1.212,2.775-2.323c1.038-1.073,1.95-1.867,2.736-2.383l0.177-0.115c1.538-0.053,2.567-0.026,3.088,0.082
			c0.36,0.551,0.915,1.227,1.665,2.026c0.698,0.723,1.253,1.399,1.666,2.028c0.411,0.627,0.624,1.36,0.637,2.194
			c0.013,0.835-0.237,1.419-0.747,1.753c-1.179,0.772-2.361,0.255-3.545-1.552l-0.541-0.826c-0.116-0.262-0.276-0.55-0.482-0.864
			c-0.232-0.354-0.395-0.557-0.484-0.609c-1.336,0.875-2.896,2.01-4.679,3.404l-1.574,1.199l-3.166,2.242
			c-0.748,0.49-1.925,1.177-3.535,2.064l-3.379,2.045l0.718,0.71c0.751,0.631,1.293,1.202,1.628,1.714
			c0.283,0.432,0.373,0.935,0.272,1.507c-0.103,0.573-0.37,1.001-0.802,1.285c-0.472,0.309-0.991,0.438-1.558,0.388
			c-0.567-0.05-0.991-0.292-1.274-0.724l-0.405-0.746l-0.502-0.767c-0.387-0.589-0.795-0.911-1.224-0.967l-18.219,11.938l2.34,3.186
			c1.468,2.24,1.691,3.695,0.669,4.364l-0.236,0.155c-0.626,0.073-1.293-0.109-2-0.545c-0.707-0.436-1.292-0.922-1.758-1.459
			l-1.334-1.907l-1.198-1.828C373.345,162.707,373.019,161.993,372.854,161.314z"/>
	</g>
	<path fill="none" stroke="#FFFFFF" stroke-width="7" stroke-miterlimit="10" d="M486.4,247.688
		c0,131.669-106.738,238.405-238.407,238.405c-131.669,0-238.408-106.736-238.408-238.405C9.585,116.019,116.324,9.28,247.993,9.28
		C379.662,9.28,486.4,116.019,486.4,247.688"/>
	<path fill="#1B877F" d="M250.246,292.954c-0.936-19.925,16.876-38.139,37.446-39.771c-5.066-6.075-11.426-11.262-19.026-15.619
		c-18.058,15.782-39.544,15.903-57.771-0.013c-2.571,1.654-5.329,3.188-7.821,5.074c-15.303,11.58-19.516,18.262-19.516,26.262
		c0,7.314-1.799,9.809,8.913,22.066c9.337,10.684,25.154,20.686,44.626,23.486c6.586,0.947,18.749-0.43,20.679-0.974
		C254.502,314.39,250.746,304.513,250.246,292.954"/>
	<path fill="#1B877F" d="M239.785,163.901c19.914,0.053,34.853,17.882,32.604,36.17c-1.658,13.472-7.039,25.025-17.112,34.119
		c-9.752,8.802-21.321,8.924-30.935-0.016c-12.138-11.286-18.703-25.334-16.935-42.124
		C209.085,176.111,223.668,163.905,239.785,163.901"/>
	<path fill="#FFFFFF" stroke="#CECE56" stroke-width="3" stroke-miterlimit="10" d="M290.919,257.427
		c-19.622,0-35.527,15.906-35.527,35.527s15.906,35.527,35.527,35.527c19.621,0,35.527-15.906,35.527-35.527
		S310.54,257.427,290.919,257.427 M311.126,295.552c-3.617,0.034-7.234,0.015-10.851,0.017c-2.087,0-4.174,0-6.77,0
		c0,1.808,0.001,3.468,0,5.129c-0.001,4.188,0.017,8.375-0.02,12.562c-0.014,1.647-0.473,3.171-2.464,3.194
		c-2.154,0.026-2.585-1.508-2.581-3.322c0.019-5.695,0.008-11.392,0.008-17.563c-5.233,0-10.073,0-14.914-0.002
		c-0.952,0-1.905,0.021-2.855-0.012c-1.785-0.062-3.338-0.59-3.243-2.724c0.087-1.961,1.565-2.366,3.253-2.361
		c4.759,0.017,9.518,0.004,14.278,0.002h3.478c0-5.074-0.001-9.896,0-14.716c0-1.046,0.017-2.095,0.003-3.141
		c-0.023-1.719,0.507-3.127,2.455-3.161c1.964-0.033,2.56,1.428,2.575,3.097c0.045,4.854,0.023,9.709,0.027,14.563
		c0.001,1.016,0,2.032,0,3.357c5.189,0,10.019,0,14.849,0.002c0.952,0,1.904,0.01,2.856,0.002c1.688-0.016,3.136,0.41,3.191,2.409
		C314.463,295.063,312.894,295.535,311.126,295.552"/>
	<path fill="#11514F" d="M250.246,292.954c-0.936-19.925,16.876-38.139,37.446-39.771c-5.066-6.075-11.679-10.348-11.679-10.348
		c-30.122,9.967-29.955,67.134-63.892,63.46c-1.719-0.187,15.77,8.469,34.944,8.968c0,0,8.78-1.253,10.71-1.797
		C254.502,314.39,250.746,304.513,250.246,292.954"/>
	<g>
		<path fill="#D18A35" d="M325.563,285.666c0,0-0.235-0.854-0.677-2.458c-0.121-0.396-0.211-0.857-0.392-1.332
			c-0.184-0.474-0.384-0.99-0.601-1.549c-0.226-0.555-0.429-1.169-0.718-1.792c-0.315-0.612-0.65-1.263-1.004-1.95
			c-1.475-2.7-3.562-5.895-6.743-8.807c-3.122-2.938-7.202-5.722-12.153-7.525c-4.942-1.773-10.697-2.604-16.645-1.909
			c-0.745,0.058-1.478,0.255-2.224,0.376c-0.728,0.157-1.53,0.235-2.208,0.46c-1.491,0.448-3.071,0.808-4.463,1.447
			c-2.904,1.056-5.697,2.739-8.305,4.638c-0.631,0.509-1.266,1.02-1.902,1.533c-0.63,0.52-1.182,1.133-1.78,1.697l-0.884,0.865
			l-0.802,0.946c-0.523,0.643-1.09,1.253-1.583,1.925c-1.994,2.677-3.587,5.672-4.827,8.828c-1.177,3.187-1.854,6.559-2.133,9.969
			c-0.214,3.397,0.158,6.919,0.828,10.16c0.925,3.518,2.091,6.562,3.801,9.558c1.76,2.914,3.852,5.606,6.298,7.91
			c2.489,2.251,5.217,4.186,8.138,5.688c2.953,1.42,6.011,2.555,9.147,3.127c3.119,0.57,6.267,0.881,9.323,0.578
			c1.538-0.029,3.023-0.376,4.505-0.604l0.481-0.079l0.564-0.148l1.124-0.297c0.73-0.211,1.524-0.361,2.189-0.619
			c1.33-0.542,2.684-0.917,3.948-1.608c0.643-0.31,1.28-0.617,1.913-0.921c0.607-0.352,1.194-0.727,1.787-1.084
			c1.214-0.674,2.261-1.55,3.35-2.333c0.558-0.378,1.032-0.844,1.522-1.282c0.49-0.442,0.974-0.88,1.454-1.312
			c3.689-3.641,6.227-7.803,7.853-11.727c0.364-0.998,0.742-1.96,1.066-2.903c0.254-0.965,0.499-1.896,0.734-2.789
			c0.226-0.898,0.295-1.788,0.442-2.625c0.064-0.42,0.126-0.831,0.187-1.231c0.022-0.404,0.044-0.799,0.065-1.183
			c0.038-0.77,0.074-1.498,0.108-2.184c0.004-0.687-0.066-1.328-0.091-1.927c-0.035-0.599-0.067-1.152-0.097-1.659
			c-0.033-0.508-0.141-0.959-0.196-1.369c-0.263-1.635-0.403-2.506-0.403-2.506L325.563,285.666z M325.854,285.593
			c0,0,0.162,0.876,0.465,2.519c0.065,0.412,0.185,0.867,0.229,1.378c0.042,0.513,0.088,1.071,0.137,1.676
			c0.04,0.604,0.125,1.254,0.136,1.948c-0.007,0.696-0.016,1.436-0.024,2.217c-0.117,3.11-0.526,6.95-1.981,11.107
			c-1.425,4.144-3.784,8.644-7.431,12.741c-3.673,4.077-8.555,7.666-14.645,9.89c-0.752,0.306-1.474,0.457-2.219,0.694l-1.115,0.328
			l-0.56,0.165c0.042-0.011-0.135,0.038-0.145,0.037l-0.075,0.014l-0.149,0.026l-0.301,0.054c-1.605,0.267-3.217,0.645-4.89,0.697
			c-3.323,0.35-6.757,0.052-10.165-0.548c-0.844-0.199-1.691-0.4-2.542-0.602c-0.848-0.213-1.664-0.546-2.5-0.816l-1.25-0.43
			l-1.211-0.542c-0.802-0.377-1.629-0.708-2.414-1.129c-3.161-1.658-6.069-3.833-8.709-6.318c-2.595-2.542-4.795-5.492-6.621-8.665
			c-1.759-3.177-3.043-6.837-3.839-10.201l-0.463-2.769c-0.185-0.898-0.226-1.814-0.279-2.728l-0.085-1.368l-0.042-0.684
			l0.023-0.685l0.104-2.734c0.351-3.625,1.131-7.191,2.431-10.545c1.363-3.321,3.1-6.455,5.244-9.242
			c2.205-2.728,4.649-5.223,7.424-7.211c2.788-1.958,5.68-3.646,8.818-4.735c1.544-0.662,3.072-0.977,4.583-1.406
			c0.206-0.053,0.338-0.098,0.604-0.156l0.588-0.095l1.171-0.187c0.78-0.106,1.545-0.287,2.322-0.328
			c6.197-0.558,12.123,0.455,17.113,2.471c4.995,2.042,9.051,4.984,12.145,8.026c3.124,3.044,5.185,6.28,6.665,9.004
			c0.353,0.693,0.688,1.351,1.002,1.969c0.296,0.627,0.506,1.246,0.737,1.806c0.223,0.563,0.429,1.086,0.617,1.563
			c0.186,0.479,0.278,0.935,0.402,1.332c0.452,1.601,0.693,2.454,0.693,2.454L325.854,285.593z"/>
	</g>
	<g>
		<g>
			<path fill="#60BA99" d="M410.571,272.851c-0.833-3.646,9.184-2.751,15.755-0.841c9.99,3.029,16.258,8.083,26.831,10.83
				c-6.886,1.897-19.769,2.002-30.064-0.021C411.945,280.618,410.533,277.383,410.571,272.851"/>
		</g>
		<g>
			<path fill="#D18A35" d="M412.095,253.988c-6.07-6.753,3.549-15.644,11.822-18.697c12.76-4.402,25.411-0.543,38.238-6.146
				c-2.906,11.371-13.426,25.453-24.951,32.287C424.718,268.798,418.772,263.533,412.095,253.988"/>
		</g>
		<g>
			<path fill="#FFFFFF" d="M410.006,251.988c-6.07-6.753,3.549-15.644,11.822-18.697c12.76-4.402,25.411-0.543,38.238-6.146
				c-2.906,11.371-13.426,25.453-24.951,32.287C422.63,266.798,416.684,261.533,410.006,251.988"/>
		</g>
		<g>
			<path fill="#FFFFFF" d="M409.527,269.851c-0.833-3.646,9.184-2.751,15.755-0.841c9.99,3.029,16.258,8.083,26.832,10.83
				c-6.886,1.897-19.769,2.002-30.065-0.021C410.901,277.618,409.489,274.383,409.527,269.851"/>
		</g>
	</g>
	<g>
		<g>
			<path fill="#60BA99" d="M89.911,272.851c0.833-3.646-9.184-2.751-15.755-0.841c-9.99,3.029-16.258,8.083-26.831,10.83
				c6.886,1.897,19.769,2.002,30.064-0.021C88.537,280.618,89.948,277.383,89.911,272.851"/>
		</g>
		<g>
			<path fill="#D18A35" d="M88.387,253.988c6.07-6.753-3.549-15.644-11.822-18.697c-12.76-4.402-25.411-0.543-38.238-6.146
				c2.906,11.371,13.426,25.453,24.951,32.287C75.763,268.798,81.709,263.533,88.387,253.988"/>
		</g>
		<g>
			<path fill="#FFFFFF" d="M90.475,251.988c6.071-6.753-3.549-15.644-11.822-18.697c-12.76-4.402-25.41-0.543-38.237-6.146
				c2.906,11.371,13.426,25.453,24.951,32.287C77.851,266.798,83.797,261.533,90.475,251.988"/>
		</g>
		<g>
			<path fill="#FFFFFF" d="M90.955,269.851c0.833-3.646-9.184-2.751-15.755-0.841c-9.99,3.029-16.258,8.083-26.832,10.83
				c6.886,1.897,19.769,2.002,30.064-0.021C89.581,277.618,90.992,274.383,90.955,269.851"/>
		</g>
	</g>
	<g>
		<path fill="#FFFFFF" d="M121.45,412.345c-0.082-0.477,0.019-0.898,0.303-1.273l4.242-5.364c1.958-2.349,3.391-4.122,4.299-5.321
			c0.824-1.086,1.876-2.822,3.157-5.214c1.215-2.38,2.263-4.151,3.143-5.312c1.079-1.423,2.107-3.208,3.087-5.356
			c0.978-2.146,1.79-4.305,2.431-6.473c0.62-2.062,1.428-4.18,2.422-6.345c0.993-2.166,2.015-3.942,3.065-5.327
			c0.198-0.262,0.518-0.373,0.961-0.334c0.441,0.04,0.83,0.188,1.167,0.443c0.412,0.312,0.479,1.041,0.2,2.188
			c-0.289,1.313-0.895,3.007-1.816,5.078c-0.923,2.074-1.474,3.307-1.654,3.7l-2.208,4.43l-1.312,2.897
			c0.566-0.514,1.255-1.229,2.069-2.146c2.58-2.938,4.82-5.309,6.719-7.113c1.34-1.224,2.463-2.083,3.369-2.577
			c0.998-0.538,1.76-0.61,2.285-0.213c1.012,0.766,1.375,1.338,1.092,1.711c-1.619,2.135-4.453,4.939-8.503,8.415
			s-6.898,6.3-8.544,8.471l-0.794,0.814c-0.501,0.504-0.775,0.828-0.823,0.969l-0.682,0.898c-1.22,1.61-3.038,4.125-5.452,7.542
			l-5.551,7.556l-0.867,1.378l-0.91,1.433l-1.064,1.404c-0.341,0.449-0.819,0.691-1.435,0.726s-1.187-0.147-1.71-0.544
			C121.76,413.199,121.532,412.819,121.45,412.345z"/>
		<path fill="#FFFFFF" d="M141.725,426.511c-0.474-1.25-0.672-2.692-0.595-4.331c0.086-2.879,0.949-6.396,2.586-10.552
			c1.118-2.879,2.573-6.109,4.365-9.688l1.806-3.271l1.902-3.297c0.569-1.082,1.289-2.376,2.157-3.883
			c1.408-2.441,2.753-4.541,4.038-6.297c1.289-1.86,2.811-3.559,4.566-5.097c1.613-1.293,3.23-1.933,4.851-1.921
			c0.92,0.097,1.748,0.357,2.48,0.778c2.157,1.244,3.374,3.085,3.65,5.522c0.279,2.712-0.037,5.377-0.949,7.996
			c-0.993,3.226-2.199,6.165-3.619,8.817c-1.505,2.983-2.996,5.758-4.475,8.322l-2.007,3.481c-0.399,0.692-1.252,1.936-2.559,3.731
			c-1.032,1.413-1.853,2.647-2.463,3.706l-0.141,0.244c-0.902,1-1.799,2.273-2.691,3.819c-0.658,1.14-1.582,2.18-2.775,3.119
			c-1.192,0.939-2.484,1.578-3.872,1.917c-1.459,0.46-2.759,0.362-3.898-0.295C142.984,428.701,142.197,427.759,141.725,426.511z
			 M149.521,424.985c1.264-1.062,2.564-2.496,3.904-4.3c1.338-1.805,2.794-3.882,4.364-6.229c0.692-1.012,1.52-2.352,2.482-4.021
			l3.178-5.653c1.186-2.245,2.526-5.134,4.021-8.665c1.293-2.998,2.114-5.832,2.464-8.506c0.179-1.254,0.128-2.34-0.154-3.262
			c-0.282-0.923-0.769-1.584-1.46-1.982c-1.019-0.588-2.229-0.228-3.633,1.078c-1.573,1.316-3.038,2.915-4.391,4.791
			c-1.488,2.018-2.817,3.99-3.984,5.922l-1.223,1.979c-0.37,0.548-0.836,1.309-1.399,2.285l-0.141,0.244
			c-1.573,2.729-3.225,6.25-4.955,10.568c-2.471,5.79-3.732,10.188-3.785,13.196c-0.008,1.895,0.437,3.1,1.332,3.615
			C146.956,426.517,148.082,426.161,149.521,424.985z"/>
		<path fill="#FFFFFF" d="M169.289,436.729c-0.77-3.072-0.825-6.498-0.16-10.274c0.66-4.028,1.708-8.21,3.143-12.543
			c1.281-3.938,2.8-8.163,4.556-12.673l2.123-5.453c0.64-1.516,1.293-3.127,1.958-4.834c-0.215-0.486-0.219-0.994-0.014-1.52
			c0.204-0.525,0.584-0.918,1.141-1.182c0.556-0.262,1.074-0.301,1.557-0.112c1.576,0.614,1.76,2.476,0.549,5.585
			c-0.784,2.014-2.159,5.865-4.122,11.557c-1.964,5.691-3.337,9.543-4.121,11.557c-0.003,0.654-0.238,1.875-0.707,3.659
			c-0.467,1.784-0.915,3.224-1.341,4.317c-0.375,0.965-0.687,2.219-0.934,3.76c-0.248,1.543-0.368,3.147-0.361,4.814
			c-0.029,1.755,0.227,3.303,0.763,4.646c0.536,1.344,1.307,2.211,2.314,2.603c0.612,0.239,1.204,0.242,1.774,0.01
			c0.569-0.232,1.063-0.694,1.485-1.388c0.74-1.123,1.34-2.277,1.801-3.459l4.986-12.81c0.631-1.618,1.279-3.738,1.945-6.354
			c0.811-2.86,1.489-4.991,2.035-6.392l0.179-0.461c0.272-0.701,0.498-1.344,0.676-1.932l0.676-1.93
			c0.477-1.226,1.136-3.111,1.977-5.66c0.694-2.301,1.339-4.218,1.937-5.75c0.187-0.482,0.6-0.801,1.241-0.955
			c0.639-0.154,1.266-0.111,1.879,0.127l1.054,2.15l-0.435,1.117c-0.205,0.524-0.541,1.127-1.004,1.802
			c-0.654,1.157-1.014,1.826-1.082,1.999c-1.552,3.986-3.473,9.567-5.763,16.743c-2.47,7.511-4.498,13.302-6.083,17.374
			c-0.854,2.19-1.822,4.031-2.908,5.524c-0.655,0.906-1.331,1.575-2.03,2.009c-0.698,0.436-1.527,0.716-2.485,0.848
			c-0.916,0.146-1.964-0.009-3.146-0.469C171.629,441.726,169.944,439.708,169.289,436.729z"/>
		<path fill="#FFFFFF" d="M204.55,449.168l0.049-0.206c0.443-2.455,0.678-5.25,0.704-8.385c0.026-3.134-0.12-6.963-0.438-11.484
			c-0.25-3.395-0.417-6.43-0.5-9.107l-6.47,27.008c-0.175,0.732-0.43,1.237-0.763,1.521c-0.333,0.282-0.866,0.336-1.597,0.161
			c-0.548-0.132-0.943-0.406-1.18-0.826c-0.237-0.42-0.291-0.902-0.16-1.451l0.131-0.549l4.965-20.121
			c1.514-5.918,3.163-12.602,4.948-20.052l2.02-8.432c0.131-0.548,0.335-0.897,0.614-1.048c0.277-0.152,0.781-0.14,1.513,0.035
			c1.142,0.275,2.142,0.744,2.998,1.406c0.856,0.666,1.534,1.469,2.033,2.408c1.033,1.939,1.488,4.078,1.363,6.416
			c-0.037,0.957-0.197,2.031-0.482,3.219c-0.164,0.686-0.402,1.424-0.713,2.221c-0.312,0.795-0.518,1.301-0.617,1.52
			c-0.202,0.435-0.571,1.071-1.109,1.908c-0.54,0.837-0.888,1.383-1.044,1.634l-1.282,1.724l-1.112,1.617
			c-0.35,1.656-0.562,3.805-0.638,6.443c-0.077,2.639-0.053,5.11,0.073,7.41c0.095,1.618,0.316,4.329,0.662,8.132l0.543,6.509
			l-0.033,0.137c-0.186,0.777-0.413,1.423-0.682,1.939c-0.312,0.696-0.879,0.949-1.702,0.752
			C205.775,451.417,205.078,450.599,204.55,449.168z M207.938,414.753l2.439-5.65c0.101-0.217,0.201-0.531,0.299-0.942
			c0.317-1.325,0.433-2.916,0.347-4.772c-0.077-0.891-0.265-1.671-0.562-2.347c-0.298-0.675-0.669-1.09-1.115-1.245l-1.779,6.822
			c-0.871,3.029-1.508,5.389-1.914,7.08c-0.383,1.6-0.613,2.656-0.687,3.169C205.76,416.381,206.75,415.676,207.938,414.753z"/>
		<path fill="#FFFFFF" d="M233.999,454.243c-0.286-0.459-0.412-1.018-0.382-1.676l0.676-11.824c0.4-5.72,0.671-10.152,0.813-13.298
			c0.496-10.938,0.264-19.345-0.693-25.222c0.754-1.049,1.669-1.548,2.749-1.498c1.737,0.079,3.304,0.537,4.701,1.377
			c1.396,0.839,2.534,1.938,3.414,3.294c1.708,2.806,2.485,5.899,2.333,9.278c-0.16,3.521-1.053,6.633-2.681,9.334
			c-1.628,2.703-3.909,4.763-6.842,6.183l-0.181,7.118l-0.028,3.738c0.01,0.801-0.018,1.951-0.086,3.454
			c-0.001,3.151-0.047,5.713-0.136,7.684c-0.041,0.893-0.261,1.589-0.659,2.087c-0.399,0.5-0.998,0.732-1.795,0.695
			C234.684,454.944,234.283,454.702,233.999,454.243z M242.395,421.53c0.954-1.862,1.485-3.99,1.594-6.385l0.003-0.069
			c0.049-1.08-0.007-2.445-0.167-4.101c-0.115-0.569-0.348-1.144-0.698-1.725c-0.351-0.58-0.547-0.919-0.589-1.016
			c-0.308-0.482-1.143-1.25-2.506-2.301l-1.771-1.42c-0.108,2.394-0.135,6.109-0.081,11.145l-0.082,11.146
			C240.008,425.151,241.439,423.393,242.395,421.53z"/>
		<path fill="#FFFFFF" d="M267.177,452.939l-0.015-0.21c-0.319-2.475-0.94-5.208-1.862-8.206c-0.923-2.995-2.219-6.601-3.888-10.815
			c-1.264-3.16-2.34-6.002-3.229-8.531l1.992,27.701c0.054,0.751-0.036,1.311-0.267,1.68c-0.233,0.371-0.724,0.583-1.474,0.637
			c-0.562,0.039-1.021-0.104-1.374-0.432c-0.354-0.328-0.55-0.773-0.59-1.336l-0.041-0.562l-1.347-20.681
			c-0.345-6.1-0.791-12.97-1.34-20.61l-0.623-8.647c-0.04-0.562,0.048-0.958,0.269-1.186c0.219-0.229,0.703-0.368,1.453-0.422
			c1.172-0.084,2.266,0.061,3.282,0.436c1.017,0.375,1.904,0.935,2.665,1.682c1.571,1.535,2.65,3.438,3.237,5.703
			c0.254,0.924,0.427,1.994,0.514,3.213c0.051,0.703,0.047,1.48-0.009,2.332c-0.057,0.853-0.101,1.398-0.129,1.636
			c-0.061,0.476-0.221,1.194-0.481,2.155c-0.261,0.961-0.428,1.584-0.501,1.873l-0.701,2.028l-0.572,1.879
			c0.168,1.685,0.614,3.797,1.34,6.335c0.723,2.539,1.492,4.888,2.308,7.043c0.58,1.514,1.609,4.03,3.088,7.551l2.483,6.041
			l0.011,0.141c0.057,0.797,0.035,1.481-0.064,2.054c-0.087,0.759-0.552,1.171-1.396,1.231
			C269.024,454.715,268.112,454.146,267.177,452.939z M260.009,419.109l0.62-6.122c0.029-0.237,0.029-0.568-0.001-0.988
			c-0.098-1.359-0.469-2.911-1.112-4.656c-0.342-0.823-0.757-1.512-1.244-2.065c-0.488-0.554-0.968-0.838-1.439-0.851l0.365,7.041
			c0.086,3.15,0.19,5.594,0.315,7.326c0.118,1.643,0.219,2.719,0.303,3.229C258.424,421.32,259.154,420.35,260.009,419.109z"/>
		<path fill="#FFFFFF" d="M287.021,451.995c-1.183-0.622-2.288-1.57-3.316-2.848c-1.844-2.213-3.53-5.417-5.059-9.614
			c-1.073-2.897-2.124-6.28-3.154-10.146l-0.817-3.646l-0.763-3.729c-0.291-1.187-0.609-2.632-0.958-4.335
			c-0.565-2.763-0.949-5.227-1.152-7.392c-0.268-2.248-0.254-4.529,0.04-6.844c0.35-2.037,1.137-3.589,2.358-4.654
			c0.754-0.538,1.544-0.891,2.373-1.062c2.44-0.497,4.571,0.073,6.394,1.714c2.008,1.845,3.538,4.051,4.59,6.617
			c1.395,3.072,2.44,6.072,3.136,8.998c0.852,3.233,1.574,6.299,2.168,9.199l0.805,3.937c0.16,0.783,0.346,2.279,0.559,4.491
			c0.163,1.74,0.368,3.209,0.613,4.406l0.056,0.276c-0.013,1.346,0.16,2.894,0.518,4.642c0.264,1.291,0.261,2.682-0.009,4.176
			s-0.814,2.828-1.628,4.002c-0.787,1.312-1.826,2.1-3.114,2.364C289.417,452.8,288.203,452.616,287.021,451.995z M291.847,445.684
			c0.242-1.632,0.266-3.566,0.072-5.806c-0.194-2.238-0.481-4.758-0.862-7.559c-0.153-1.215-0.422-2.767-0.808-4.654l-1.368-6.341
			c-0.602-2.466-1.513-5.518-2.734-9.153c-1.02-3.102-2.283-5.768-3.795-8.001c-0.696-1.057-1.455-1.837-2.277-2.341
			c-0.822-0.503-1.625-0.676-2.407-0.515c-1.151,0.235-1.819,1.308-2.004,3.216c-0.305,2.029-0.342,4.195-0.11,6.497
			c0.223,2.497,0.536,4.854,0.942,7.075l0.397,2.293c0.085,0.654,0.241,1.533,0.467,2.637l0.056,0.277
			c0.631,3.085,1.729,6.817,3.297,11.197c1.988,5.973,3.96,10.103,5.914,12.389c1.25,1.424,2.382,2.031,3.396,1.824
			C290.941,448.531,291.55,447.521,291.847,445.684z"/>
		<path fill="#FFFFFF" d="M309.592,440.956c-1.746-5.163-4.773-13.342-9.08-24.535s-6.766-17.033-7.377-17.521
			c-0.421-1.246-0.256-2.369,0.498-3.367c0.281-0.344,0.718-0.701,1.31-1.076c0.593-0.373,1.157-0.652,1.691-0.833
			c0.252-0.134,0.801-0.346,1.647-0.63c1.023-0.348,1.814-0.429,2.372-0.246c0.558,0.185,0.98,0.699,1.267,1.545
			c0.166,0.489,0.112,0.917-0.161,1.281c-0.274,0.367-0.677,0.639-1.211,0.819l-0.69,0.159l-0.935,0.316
			c-1.246,0.421-1.786,0.877-1.621,1.366c0.784,2.315,1.963,5.29,3.539,8.923c1.321,3.026,2.5,5.927,3.538,8.7
			c0.28-0.194,0.822-0.538,1.623-1.032c0.8-0.494,1.422-0.816,1.867-0.967c0.49-0.166,0.984-0.097,1.484,0.205
			c0.498,0.304,0.838,0.722,1.02,1.256c0.211,0.623,0.071,1.166-0.416,1.628c-0.075,0.076-0.252,0.247-0.533,0.515
			c-0.281,0.27-0.682,0.517-1.201,0.742c-0.385,0.181-1.029,0.472-1.935,0.877l-0.734,0.249c0.903,2.671,2.353,6.224,4.349,10.658
			c2.026,4.672,3.454,8.233,4.282,10.68l0.023,0.29l-0.021,0.156c0.104,0.164,0.225,0.445,0.36,0.846
			c0.196,0.579,0.149,1.104-0.138,1.571c-0.288,0.47-0.766,0.817-1.434,1.044C311.683,445.012,310.556,443.806,309.592,440.956z"/>
		<path fill="#FFFFFF" d="M327.638,436.762c-0.471-1.025-0.065-1.833,1.216-2.42l0.77-0.354c0.189-0.034,0.391-0.103,0.605-0.2
			c0.342-0.156,0.538-0.375,0.59-0.658c0.051-0.281-0.05-0.701-0.305-1.256c-1.666-3.629-4.154-8.486-7.463-14.568
			c-3.384-6.357-5.84-11.203-7.369-14.534c-0.548-1.195-1.027-2.294-1.436-3.296l-1.436-3.297c-0.646-1.41-1.25-2.555-1.81-3.436
			c-0.392,0.387-0.844,0.697-1.355,0.933c-0.983,0.45-1.709,0.164-2.179-0.862c-0.236-0.511-0.132-1.102,0.311-1.771
			s1.115-1.312,2.021-1.936c1.656-1.122,3.104-1.968,4.343-2.536c0.513-0.235,1.028-0.266,1.548-0.092
			c0.521,0.178,0.888,0.498,1.104,0.969c0.215,0.471,0.262,0.939,0.142,1.408c-0.121,0.47-0.396,0.802-0.822,0.998
			c-0.257,0.117-0.479,0.194-0.67,0.229l-0.513,0.236c-0.428,0.196-0.692,0.434-0.796,0.715c-0.104,0.279-0.039,0.676,0.196,1.189
			c2.078,4.527,5.218,10.635,9.419,18.323c4.336,8.093,7.464,14.231,9.384,18.419l1.118,2.434c0.278-0.18,0.696-0.398,1.252-0.652
			c1.794-0.823,3.034-0.487,3.72,1.007l0.176,0.385l-1.102,1.823c-0.043,0.02-0.166,0.09-0.369,0.21
			c-0.205,0.12-0.626,0.325-1.268,0.619c-1.412,0.753-2.289,1.206-2.631,1.362C330.355,437.841,328.226,438.043,327.638,436.762z"/>
		<path fill="#FFFFFF" d="M350.562,427.921c-0.651-0.135-1.133-0.465-1.442-0.991c-0.214-0.364-0.396-0.858-0.542-1.48
			c-0.212-0.638-0.401-1.099-0.568-1.384c-2.118-3.605-6.394-10.413-12.823-20.426c-5.549-8.512-9.811-15.299-12.788-20.364
			c-0.214-0.364-0.244-0.741-0.093-1.132c0.153-0.389,0.432-0.703,0.837-0.94c0.486-0.286,1.014-0.363,1.58-0.233
			c0.567,0.13,0.994,0.438,1.279,0.924c1.428,2.432,3.693,6.006,6.794,10.725c3.369,5.27,5.614,8.855,6.732,10.76l0.489,0.693
			l0.43,0.729l0.25,0.426l0.178,0.305c2.193,3.452,5.351,8.684,9.47,15.692l0.929,1.579l4.68-2.75
			c1.207,0.107,1.99,0.466,2.347,1.073c0.263,0.446,0.343,0.931,0.241,1.452c-0.102,0.523-0.355,0.903-0.76,1.142
			c-0.121,0.072-0.369,0.163-0.74,0.271l-0.279,0.083c-0.219,0.184-0.592,0.43-1.118,0.738l-1.032,0.607
			c-0.308,0.127-0.645,0.296-1.009,0.512c-0.12,0.725-0.543,1.3-1.272,1.729C351.803,427.969,351.214,428.056,350.562,427.921z"/>
		<path fill="#FFFFFF" d="M368.327,416.571c-0.782,0.285-1.493-0.006-2.137-0.875l-24.354-32.926
			c-0.476-0.643-1.301-1.521-2.478-2.639c-1.131-0.975-1.976-1.841-2.535-2.598l-0.125-0.17c-0.141-1.532-0.171-2.561-0.093-3.088
			c0.528-0.391,1.172-0.982,1.93-1.777c0.683-0.737,1.323-1.33,1.929-1.777c0.604-0.446,1.323-0.701,2.156-0.762
			c0.832-0.061,1.429,0.155,1.792,0.647c0.838,1.133,0.389,2.343-1.35,3.628l-0.793,0.586c-0.255,0.131-0.533,0.309-0.835,0.531
			c-0.34,0.252-0.534,0.425-0.581,0.517c0.949,1.285,2.17,2.779,3.663,4.479l1.287,1.503l2.419,3.033
			c0.531,0.719,1.284,1.856,2.261,3.413l2.234,3.258l0.667-0.756c0.589-0.787,1.127-1.361,1.619-1.725
			c0.415-0.307,0.912-0.426,1.489-0.355c0.578,0.068,1.021,0.312,1.328,0.727c0.335,0.453,0.494,0.965,0.477,1.533
			c-0.019,0.57-0.236,1.006-0.65,1.313l-0.723,0.446l-0.737,0.545c-0.565,0.419-0.864,0.845-0.896,1.277l12.951,17.512l3.048-2.519
			c2.154-1.593,3.595-1.896,4.321-0.915l0.167,0.228c0.108,0.62-0.035,1.296-0.429,2.026c-0.396,0.731-0.849,1.342-1.359,1.838
			l-1.828,1.44l-1.757,1.299C369.689,416.002,368.996,416.368,368.327,416.571z"/>
	</g>
</g>
<g id="Calque_1">
</g>
</svg>
