<?xml version="1.0" encoding="utf-8"?>
<!-- Generator: Adobe Illustrator 16.0.0, SVG Export Plug-In . SVG Version: 6.00 Build 0)  -->
<!DOCTYPE svg PUBLIC "-//W3C//DTD SVG 1.1//EN" "http://www.w3.org/Graphics/SVG/1.1/DTD/svg11.dtd">
<svg version="1.1" xmlns="http://www.w3.org/2000/svg" xmlns:xlink="http://www.w3.org/1999/xlink" x="0px" y="0px" width="500px"
	 height="500px" viewBox="0 0 500 500" enable-background="new 0 0 500 500" xml:space="preserve">
<g id="Calque_3">
	<path fill="#CDCD54" d="M485.892,247.688c0,131.389-106.511,237.898-237.898,237.898c-131.389,0-237.899-106.51-237.899-237.898
		S116.605,9.79,247.994,9.79C379.38,9.79,485.892,116.299,485.892,247.688"/>
</g>
<g id="Calque_2">
	<g>
		<g>
			<path fill="#FFFFFF" d="M280.04,247.862c-2.233,6.43-5.622,11.047-9.386,14.364c11.331,3.811,21.67-6.456,21.67-6.456
				c-8.673,12.521-21.716,10.577-25.864,9.563c-9.608,5.95-19.885,5.268-19.885,5.268l1.761-6.515
				C267.959,269.067,280.04,247.862,280.04,247.862z"/>
			<path fill="#FFFFFF" d="M209.201,191.687c2.233,6.429,5.618,11.05,9.389,14.366c-11.34,3.811-21.673-6.458-21.673-6.458
				c8.669,12.522,21.712,10.577,25.864,9.565c9.612,5.948,19.882,5.268,19.882,5.268l-1.758-6.515
				C221.274,212.893,209.201,191.687,209.201,191.687z"/>
			<polygon fill="#FFFFFF" points="248.712,242.935 283.74,220.649 244.146,234.021 			"/>
			<polygon fill="#FFFFFF" points="243.478,270.569 208.454,248.286 248.044,261.653 			"/>
			<g>
				<g>
					<g>
						<path fill="#FFFFFF" d="M223.108,173.201c29.805,47.847,27.749,106.952-6.99,151.657c2.8,2.032,4.194,3.047,6.99,5.077
							C256.383,282.147,256.383,220.992,223.108,173.201z"/>
						<path fill="#FFFFFF" d="M223.108,173.201c36.906,47.683,38.975,110.993,6.986,161.812c-2.802-2.03-4.193-3.044-6.986-5.078
							C256.383,282.147,256.383,220.992,223.108,173.201z"/>
					</g>
				</g>
			</g>
		</g>
		<g>
			<g>
				<path fill="#FFFFFF" d="M219.569,194.836c-3.225-3.271-2.393-9.316-2.393-9.316s6.05-0.741,9.271,2.527
					c3.228,3.271,2.396,9.312,2.396,9.312S222.794,198.103,219.569,194.836z"/>
				<path fill="#FFFFFF" d="M219.569,194.836c3.225,3.267,9.275,2.523,9.275,2.523l-11.667-11.84
					C217.176,185.52,216.344,191.564,219.569,194.836z"/>
			</g>
			<g>
				<path fill="#FFFFFF" d="M243.15,181.076c0.831-5.216,7.006-8.568,7.006-8.568s4.812,5.107,3.974,10.322
					c-0.832,5.217-7,8.568-7,8.568S242.319,186.292,243.15,181.076z"/>
				<path fill="#FFFFFF" d="M243.15,181.076c-0.832,5.216,3.981,10.322,3.981,10.322l3.025-18.891
					C250.157,172.508,243.981,175.86,243.15,181.076z"/>
			</g>
			<g>
				<path fill="#FFFFFF" d="M278.796,287.516c-3.712-3.762-2.756-10.714-2.756-10.714s6.966-0.857,10.676,2.906
					c3.706,3.762,2.753,10.716,2.753,10.716S282.502,291.277,278.796,287.516z"/>
				<path fill="#FFFFFF" d="M278.796,287.516c3.706,3.762,10.673,2.908,10.673,2.908l-13.429-13.622
					C276.04,276.802,275.083,283.754,278.796,287.516z"/>
			</g>
			<g>
				<path fill="#FFFFFF" d="M195.941,189.907c-0.18-5.278,5.225-9.749,5.225-9.749s5.71,4.088,5.893,9.366
					c0.184,5.28-5.231,9.751-5.231,9.751S196.121,195.187,195.941,189.907z"/>
				<path fill="#FFFFFF" d="M195.941,189.907c0.18,5.279,5.887,9.368,5.887,9.368l-0.662-19.117
					C201.167,180.158,195.761,184.629,195.941,189.907z"/>
			</g>
			<g>
				<path fill="#FFFFFF" d="M251.905,216.714c-3.847-3.618-3.149-10.604-3.149-10.604s6.927-1.111,10.771,2.511
					c3.843,3.619,3.152,10.605,3.152,10.605S255.751,220.338,251.905,216.714z"/>
				<path fill="#FFFFFF" d="M251.905,216.714c3.846,3.624,10.774,2.512,10.774,2.512l-13.923-13.116
					C248.755,206.109,248.058,213.096,251.905,216.714z"/>
			</g>
			<g>
				<path fill="#FFFFFF" d="M260.194,255.72c-3.173-2.988-2.6-8.754-2.6-8.754s5.723-0.915,8.898,2.071
					c3.169,2.991,2.599,8.754,2.599,8.754S263.37,258.71,260.194,255.72z"/>
				<path fill="#FFFFFF" d="M260.194,255.72c3.175,2.99,8.898,2.071,8.898,2.071l-11.498-10.825
					C257.595,246.966,257.021,252.731,260.194,255.72z"/>
			</g>
			<g>
				<path fill="#FFFFFF" d="M211.378,265.984c-2.849-2.682-2.334-7.856-2.334-7.856s5.133-0.823,7.982,1.858
					c2.841,2.684,2.337,7.855,2.337,7.855S214.229,268.666,211.378,265.984z"/>
				<path fill="#FFFFFF" d="M211.378,265.984c2.851,2.682,7.985,1.857,7.985,1.857l-10.319-9.714
					C209.043,258.128,208.529,263.303,211.378,265.984z"/>
			</g>
			<g>
				<path fill="#FFFFFF" d="M227.672,248.66c0.255-3.187,3.817-5.503,3.817-5.503s3.156,2.854,2.895,6.042
					c-0.255,3.189-3.818,5.505-3.818,5.505S227.419,251.848,227.672,248.66z"/>
				<path fill="#FFFFFF" d="M227.672,248.66c-0.253,3.188,2.894,6.044,2.894,6.044l0.923-11.547
					C231.489,243.157,227.927,245.474,227.672,248.66z"/>
			</g>
			<g>
				<path fill="#FFFFFF" d="M202.319,229.231c0.426-5.266,6.309-9.089,6.309-9.089s5.202,4.711,4.776,9.977
					c-0.419,5.267-6.302,9.091-6.302,9.091S201.9,234.494,202.319,229.231z"/>
				<path fill="#FFFFFF" d="M202.319,229.231c-0.419,5.263,4.783,9.979,4.783,9.979l1.526-19.067
					C208.628,220.143,202.745,223.966,202.319,229.231z"/>
			</g>
			<g>
				<path fill="#FFFFFF" d="M257.641,195.729c0.419-5.265,6.305-9.089,6.305-9.089s5.206,4.713,4.787,9.979
					c-0.426,5.267-6.312,9.089-6.312,9.089S257.218,200.993,257.641,195.729z"/>
				<path fill="#FFFFFF" d="M257.641,195.729c-0.422,5.264,4.78,9.979,4.78,9.979l1.525-19.067
					C263.946,186.641,258.06,190.465,257.641,195.729z"/>
			</g>
			<g>
				<path fill="#FFFFFF" d="M287.969,213.824c3.595-1.449,8.028,1.16,8.028,1.16s-1.389,4.957-4.977,6.407
					c-3.595,1.451-8.041-1.16-8.041-1.16S284.375,215.274,287.969,213.824z"/>
				<path fill="#FFFFFF" d="M287.969,213.824c-3.595,1.45-4.989,6.407-4.989,6.407l13.017-5.247
					C295.997,214.984,291.564,212.375,287.969,213.824z"/>
			</g>
			<g>
				<path fill="#FFFFFF" d="M296.815,195.61c4.897-1.976,10.947,1.579,10.947,1.579s-1.892,6.757-6.793,8.735
					c-4.895,1.975-10.951-1.579-10.951-1.579S291.911,197.585,296.815,195.61z"/>
				<path fill="#FFFFFF" d="M296.815,195.61c-4.904,1.975-6.797,8.735-6.797,8.735l17.744-7.156
					C307.763,197.189,301.713,193.635,296.815,195.61z"/>
			</g>
			<g>
				<path fill="#FFFFFF" d="M270.742,181.13c0.479-5.264,6.407-9.02,6.407-9.02s5.146,4.769,4.672,10.03
					c-0.484,5.26-6.411,9.019-6.411,9.019S270.265,186.389,270.742,181.13z"/>
				<path fill="#FFFFFF" d="M270.742,181.13c-0.478,5.259,4.668,10.029,4.668,10.029l1.739-19.049
					C277.149,172.11,271.221,175.866,270.742,181.13z"/>
			</g>
			<g>
				<path fill="#FFFFFF" d="M279.857,235.048c4.344-1.753,9.707,1.4,9.707,1.4s-1.679,5.99-6.017,7.743
					c-4.344,1.752-9.713-1.4-9.713-1.4S275.516,236.8,279.857,235.048z"/>
				<path fill="#FFFFFF" d="M279.857,235.048c-4.341,1.752-6.024,7.743-6.024,7.743l15.73-6.343
					C289.563,236.448,284.201,233.295,279.857,235.048z"/>
			</g>
			<g>
				<path fill="#FFFFFF" d="M225.223,275.032c0.57-4.648,5.926-7.82,5.926-7.82s4.433,4.364,3.86,9.013
					c-0.566,4.649-5.916,7.821-5.916,7.821S224.66,279.682,225.223,275.032z"/>
				<path fill="#FFFFFF" d="M225.223,275.032c-0.563,4.649,3.87,9.014,3.87,9.014l2.056-16.834
					C231.148,267.212,225.792,270.384,225.223,275.032z"/>
			</g>
			<g>
				<path fill="#FFFFFF" d="M189.188,228.895c5.438-0.527,10.401,4.769,10.401,4.769s-3.857,6.151-9.288,6.681
					c-5.438,0.529-10.401-4.768-10.401-4.768S183.75,229.422,189.188,228.895z"/>
				<path fill="#FFFFFF" d="M189.188,228.895c-5.438,0.527-9.288,6.682-9.288,6.682l19.689-1.913
					C199.589,233.663,194.625,228.367,189.188,228.895z"/>
			</g>
			<g>
				<path fill="#FFFFFF" d="M309.773,239.911c4.898-1.977,10.948,1.579,10.948,1.579s-1.892,6.758-6.79,8.735
					c-4.898,1.976-10.952-1.579-10.952-1.579S304.875,241.887,309.773,239.911z"/>
				<path fill="#FFFFFF" d="M309.773,239.911c-4.897,1.976-6.793,8.735-6.793,8.735l17.741-7.156
					C320.721,241.49,314.671,237.935,309.773,239.911z"/>
			</g>
			<g>
				<path fill="#FFFFFF" d="M195.326,263.881c4.9-1.977,10.954,1.582,10.954,1.582s-1.895,6.756-6.79,8.734
					c-4.897,1.974-10.951-1.58-10.951-1.58S190.435,265.857,195.326,263.881z"/>
				<path fill="#FFFFFF" d="M195.326,263.881c-4.891,1.977-6.787,8.736-6.787,8.736l17.741-7.154
					C206.28,265.463,200.227,261.904,195.326,263.881z"/>
			</g>
			<g>
				<path fill="#FFFFFF" d="M255.178,284.641c-0.53-5.257,4.567-10.076,4.567-10.076s5.962,3.702,6.499,8.958
					c0.531,5.256-4.577,10.076-4.577,10.076S255.706,289.896,255.178,284.641z"/>
				<path fill="#FFFFFF" d="M255.178,284.641c0.527,5.256,6.489,8.958,6.489,8.958l-1.922-19.034
					C259.745,274.564,254.648,279.384,255.178,284.641z"/>
			</g>
			<g>
				<path fill="#FFFFFF" d="M297.477,275.604c-4.787-2.234-6.312-9.086-6.312-9.086s6.233-3.226,11.02-0.989
					c4.786,2.237,6.312,9.088,6.312,9.088S302.266,277.842,297.477,275.604z"/>
				<path fill="#FFFFFF" d="M297.477,275.606c4.79,2.235,11.02-0.989,11.02-0.989l-17.332-8.099
					C291.165,266.519,292.69,273.37,297.477,275.606z"/>
			</g>
			<g>
				<path fill="#FFFFFF" d="M299.729,225.445c3.117-3.485,9.331-3.022,9.331-3.022s1.133,6.118-1.99,9.606
					c-3.13,3.485-9.333,3.022-9.333,3.022S296.599,228.935,299.729,225.445z"/>
				<path fill="#FFFFFF" d="M299.729,225.445c-3.129,3.489-1.993,9.606-1.993,9.606l11.324-12.629
					C309.059,222.423,302.846,221.96,299.729,225.445z"/>
			</g>
			<g>
				<path fill="#FFFFFF" d="M223.834,220.291c2.678-3.843,8.892-4.142,8.892-4.142s1.872,5.933-0.799,9.774
					c-2.679,3.846-8.898,4.143-8.898,4.143S221.157,224.135,223.834,220.291z"/>
				<path fill="#FFFFFF" d="M223.834,220.291c-2.678,3.844-0.805,9.775-0.805,9.775l9.697-13.917
					C232.727,216.149,226.513,216.448,223.834,220.291z"/>
			</g>
			<g>
				<path fill="#FFFFFF" d="M274.933,199.859c1.932-3.362,7.032-4.059,7.032-4.059s1.978,4.756,0.046,8.118
					c-1.925,3.362-7.032,4.055-7.032,4.055S273.008,203.218,274.933,199.859z"/>
				<path fill="#FFFFFF" d="M274.933,199.859c-1.925,3.358,0.046,8.114,0.046,8.114l6.986-12.173
					C281.965,195.801,276.864,196.497,274.933,199.859z"/>
			</g>
			<g>
				<path fill="#FFFFFF" d="M288.761,246.699c2.724-2.755,7.834-2.122,7.834-2.122s0.697,5.099-2.029,7.858
					c-2.724,2.753-7.835,2.125-7.835,2.125S286.038,249.456,288.761,246.699z"/>
				<path fill="#FFFFFF" d="M288.761,246.699c-2.724,2.757-2.03,7.861-2.03,7.861l9.864-9.983
					C296.596,244.577,291.485,243.944,288.761,246.699z"/>
			</g>
			<g>
				<path fill="#FFFFFF" d="M200.381,219.881c-2.996,2.525-8.073,1.426-8.073,1.426s-0.236-5.193,2.75-7.717
					c2.996-2.524,8.08-1.426,8.08-1.426S203.367,217.358,200.381,219.881z"/>
				<path fill="#FFFFFF" d="M200.381,219.881c2.986-2.522,2.756-7.717,2.756-7.717l-10.829,9.143
					C192.308,221.307,197.385,222.406,200.381,219.881z"/>
			</g>
			<g>
				<path fill="#FFFFFF" d="M186.173,205.452c-5.147-1.197-8.061-7.585-8.061-7.585s5.435-4.443,10.575-3.249
					c5.146,1.196,8.056,7.582,8.056,7.582S191.312,206.647,186.173,205.452z"/>
				<path fill="#FFFFFF" d="M186.173,205.452c5.14,1.195,10.57-3.252,10.57-3.252l-18.631-4.333
					C178.112,197.867,181.025,204.255,186.173,205.452z"/>
			</g>
			<g>
				<path fill="#FFFFFF" d="M228.909,170.633c0.832-5.214,7-8.567,7-8.567s4.819,5.107,3.981,10.321
					c-0.832,5.219-7.003,8.568-7.003,8.568S228.074,175.849,228.909,170.633z"/>
				<path fill="#FFFFFF" d="M228.909,170.633c-0.835,5.216,3.978,10.322,3.978,10.322l3.022-18.89
					C235.909,162.065,229.741,165.419,228.909,170.633z"/>
			</g>
			<g>
				<path fill="#FFFFFF" d="M213.693,178.625c-4.001-1.806-5.344-7.482-5.344-7.482s5.14-2.745,9.144-0.939
					c3.998,1.812,5.34,7.487,5.34,7.487S217.689,180.434,213.693,178.625z"/>
				<path fill="#FFFFFF" d="M213.693,178.625c3.997,1.809,9.14-0.935,9.14-0.935l-14.484-6.548
					C208.349,171.143,209.692,176.819,213.693,178.625z"/>
			</g>
			<g>
				<path fill="#FFFFFF" d="M193.791,245.428c5.268-0.451,10.008,4.728,10.008,4.728s-3.798,5.904-9.062,6.353
					c-5.264,0.449-9.998-4.728-9.998-4.728S188.53,245.875,193.791,245.428z"/>
				<path fill="#FFFFFF" d="M193.791,245.428c-5.261,0.447-9.052,6.353-9.052,6.353l19.06-1.625
					C203.799,250.155,199.058,244.977,193.791,245.428z"/>
			</g>
		</g>
	</g>
	<g>
		<g>
			<path fill="#11514F" d="M285.47,253.406c-2.232,6.43-5.621,11.047-9.386,14.364c11.331,3.811,21.669-6.456,21.669-6.456
				c-8.672,12.521-21.715,10.577-25.863,9.564c-9.608,5.949-19.885,5.268-19.885,5.268l1.761-6.516
				C273.39,274.611,285.47,253.406,285.47,253.406z"/>
			<path fill="#11514F" d="M214.63,197.23c2.233,6.43,5.618,11.05,9.39,14.367c-11.34,3.811-21.673-6.459-21.673-6.459
				c8.669,12.523,21.712,10.577,25.864,9.565c9.611,5.948,19.881,5.268,19.881,5.268l-1.758-6.515
				C226.704,218.436,214.63,197.23,214.63,197.23z"/>
			<polygon fill="#11514F" points="254.143,248.479 289.169,226.193 249.576,239.564 			"/>
			<polygon fill="#11514F" points="248.908,276.113 213.884,253.83 253.475,267.197 			"/>
			<g>
				<g>
					<g>
						<path fill="#11514F" d="M228.538,178.745c29.806,47.847,27.75,106.952-6.989,151.657c2.799,2.032,4.194,3.047,6.989,5.077
							C261.813,287.691,261.813,226.536,228.538,178.745z"/>
						<path fill="#11514F" d="M228.538,178.745c36.906,47.683,38.975,110.993,6.986,161.812c-2.802-2.03-4.193-3.044-6.986-5.078
							C261.813,287.691,261.813,226.536,228.538,178.745z"/>
					</g>
				</g>
			</g>
		</g>
		<g>
			<g>
				<path fill="#11514F" d="M224.999,200.38c-3.225-3.271-2.393-9.316-2.393-9.316s6.05-0.741,9.271,2.527
					c3.228,3.271,2.396,9.312,2.396,9.312S228.224,203.646,224.999,200.38z"/>
				<path fill="#11514F" d="M224.999,200.38c3.225,3.267,9.275,2.523,9.275,2.523l-11.668-11.84
					C222.606,191.063,221.774,197.109,224.999,200.38z"/>
			</g>
			<g>
				<path fill="#11514F" d="M248.581,186.62c0.831-5.216,7.006-8.568,7.006-8.568s4.812,5.107,3.975,10.323
					c-0.832,5.216-7,8.568-7,8.568S247.749,191.836,248.581,186.62z"/>
				<path fill="#11514F" d="M248.581,186.62c-0.832,5.216,3.981,10.323,3.981,10.323l3.025-18.892
					C255.586,178.052,249.412,181.404,248.581,186.62z"/>
			</g>
			<g>
				<path fill="#11514F" d="M284.226,293.06c-3.712-3.761-2.756-10.714-2.756-10.714s6.966-0.857,10.675,2.906
					c3.707,3.762,2.754,10.716,2.754,10.716S287.932,296.821,284.226,293.06z"/>
				<path fill="#11514F" d="M284.226,293.06c3.706,3.762,10.673,2.908,10.673,2.908l-13.429-13.622
					C281.47,282.346,280.514,289.299,284.226,293.06z"/>
			</g>
			<g>
				<path fill="#11514F" d="M201.371,195.451c-0.18-5.277,5.225-9.749,5.225-9.749s5.71,4.088,5.893,9.366
					c0.184,5.28-5.231,9.751-5.231,9.751S201.551,200.73,201.371,195.451z"/>
				<path fill="#11514F" d="M201.371,195.451c0.18,5.279,5.887,9.368,5.887,9.368l-0.662-19.117
					C206.596,185.702,201.191,190.174,201.371,195.451z"/>
			</g>
			<g>
				<path fill="#11514F" d="M257.335,222.258c-3.847-3.618-3.149-10.604-3.149-10.604s6.927-1.111,10.771,2.511
					c3.843,3.619,3.152,10.605,3.152,10.605S261.181,225.881,257.335,222.258z"/>
				<path fill="#11514F" d="M257.335,222.258c3.846,3.623,10.773,2.512,10.773,2.512l-13.923-13.116
					C254.186,211.653,253.488,218.64,257.335,222.258z"/>
			</g>
			<g>
				<path fill="#11514F" d="M265.624,261.264c-3.173-2.988-2.599-8.754-2.599-8.754s5.722-0.916,8.898,2.071
					c3.169,2.991,2.599,8.755,2.599,8.755S268.799,264.254,265.624,261.264z"/>
				<path fill="#11514F" d="M265.624,261.264c3.175,2.99,8.898,2.072,8.898,2.072l-11.497-10.826
					C263.025,252.51,262.451,258.275,265.624,261.264z"/>
			</g>
			<g>
				<path fill="#11514F" d="M216.808,271.528c-2.848-2.682-2.334-7.856-2.334-7.856s5.133-0.822,7.981,1.858
					c2.841,2.684,2.337,7.855,2.337,7.855S219.659,274.21,216.808,271.528z"/>
				<path fill="#11514F" d="M216.808,271.528c2.852,2.682,7.985,1.857,7.985,1.857l-10.319-9.714
					C214.474,263.672,213.959,268.847,216.808,271.528z"/>
			</g>
			<g>
				<path fill="#11514F" d="M233.102,254.205c0.255-3.188,3.817-5.504,3.817-5.504s3.156,2.854,2.895,6.043
					c-0.256,3.188-3.818,5.504-3.818,5.504S232.849,257.392,233.102,254.205z"/>
				<path fill="#11514F" d="M233.102,254.205c-0.252,3.187,2.894,6.043,2.894,6.043l0.923-11.547
					C236.919,248.701,233.357,251.018,233.102,254.205z"/>
			</g>
			<g>
				<path fill="#11514F" d="M207.749,234.775c0.426-5.266,6.309-9.089,6.309-9.089s5.202,4.71,4.776,9.978
					c-0.418,5.266-6.302,9.09-6.302,9.09S207.33,240.038,207.749,234.775z"/>
				<path fill="#11514F" d="M207.749,234.775c-0.419,5.263,4.783,9.979,4.783,9.979l1.526-19.067
					C214.058,225.687,208.175,229.51,207.749,234.775z"/>
			</g>
			<g>
				<path fill="#11514F" d="M263.07,201.273c0.419-5.264,6.306-9.089,6.306-9.089s5.206,4.713,4.786,9.979
					c-0.426,5.266-6.312,9.088-6.312,9.088S262.648,206.537,263.07,201.273z"/>
				<path fill="#11514F" d="M263.07,201.273c-0.422,5.264,4.78,9.979,4.78,9.979l1.525-19.067
					C269.376,192.185,263.49,196.01,263.07,201.273z"/>
			</g>
			<g>
				<path fill="#11514F" d="M293.399,219.368c3.595-1.448,8.027,1.16,8.027,1.16s-1.388,4.957-4.976,6.407
					c-3.595,1.451-8.041-1.16-8.041-1.16S289.805,220.818,293.399,219.368z"/>
				<path fill="#11514F" d="M293.399,219.368c-3.595,1.45-4.989,6.407-4.989,6.407l13.017-5.247
					C301.427,220.528,296.994,217.92,293.399,219.368z"/>
			</g>
			<g>
				<path fill="#11514F" d="M302.246,201.154c4.897-1.976,10.947,1.579,10.947,1.579s-1.893,6.757-6.793,8.735
					c-4.895,1.975-10.951-1.578-10.951-1.578S297.341,203.129,302.246,201.154z"/>
				<path fill="#11514F" d="M302.246,201.154c-4.905,1.975-6.797,8.736-6.797,8.736l17.744-7.157
					C313.193,202.733,307.143,199.179,302.246,201.154z"/>
			</g>
			<g>
				<path fill="#11514F" d="M276.172,186.674c0.479-5.264,6.408-9.02,6.408-9.02s5.146,4.77,4.672,10.03
					c-0.485,5.26-6.411,9.019-6.411,9.019S275.694,191.934,276.172,186.674z"/>
				<path fill="#11514F" d="M276.172,186.674c-0.478,5.26,4.668,10.029,4.668,10.029l1.739-19.049
					C282.58,177.654,276.65,181.41,276.172,186.674z"/>
			</g>
			<g>
				<path fill="#11514F" d="M285.287,240.592c4.344-1.753,9.707,1.4,9.707,1.4s-1.679,5.99-6.018,7.743
					c-4.344,1.752-9.713-1.4-9.713-1.4S280.946,242.344,285.287,240.592z"/>
				<path fill="#11514F" d="M285.287,240.592c-4.341,1.752-6.024,7.743-6.024,7.743l15.731-6.343
					C294.994,241.992,289.631,238.839,285.287,240.592z"/>
			</g>
			<g>
				<path fill="#11514F" d="M230.653,280.576c0.57-4.648,5.925-7.82,5.925-7.82s4.433,4.364,3.86,9.013
					c-0.566,4.649-5.916,7.821-5.916,7.821S230.089,285.226,230.653,280.576z"/>
				<path fill="#11514F" d="M230.653,280.576c-0.563,4.649,3.87,9.014,3.87,9.014l2.056-16.834
					C236.578,272.756,231.223,275.928,230.653,280.576z"/>
			</g>
			<g>
				<path fill="#11514F" d="M194.618,234.438c5.438-0.527,10.401,4.769,10.401,4.769s-3.856,6.151-9.288,6.68
					c-5.438,0.53-10.401-4.767-10.401-4.767S189.18,234.967,194.618,234.438z"/>
				<path fill="#11514F" d="M194.618,234.438c-5.438,0.528-9.288,6.682-9.288,6.682l19.688-1.913
					C205.019,239.207,200.055,233.911,194.618,234.438z"/>
			</g>
			<g>
				<path fill="#11514F" d="M315.203,245.455c4.897-1.977,10.947,1.579,10.947,1.579s-1.892,6.758-6.79,8.735
					c-4.897,1.976-10.951-1.58-10.951-1.58S310.306,247.431,315.203,245.455z"/>
				<path fill="#11514F" d="M315.203,245.455c-4.897,1.976-6.793,8.734-6.793,8.734l17.741-7.155
					C326.15,247.034,320.101,243.479,315.203,245.455z"/>
			</g>
			<g>
				<path fill="#11514F" d="M200.756,269.425c4.901-1.976,10.954,1.582,10.954,1.582s-1.895,6.757-6.79,8.734
					c-4.897,1.974-10.951-1.58-10.951-1.58S195.865,271.401,200.756,269.425z"/>
				<path fill="#11514F" d="M200.756,269.425c-4.891,1.977-6.787,8.736-6.787,8.736l17.741-7.154
					C211.71,271.007,205.657,267.449,200.756,269.425z"/>
			</g>
			<g>
				<path fill="#11514F" d="M260.608,290.185c-0.53-5.257,4.566-10.076,4.566-10.076s5.962,3.702,6.499,8.958
					c0.53,5.256-4.577,10.076-4.577,10.076S261.136,295.44,260.608,290.185z"/>
				<path fill="#11514F" d="M260.608,290.185c0.527,5.256,6.489,8.958,6.489,8.958l-1.922-19.034
					C265.175,280.108,260.078,284.928,260.608,290.185z"/>
			</g>
			<g>
				<path fill="#11514F" d="M302.906,281.148c-4.786-2.234-6.312-9.086-6.312-9.086s6.233-3.225,11.02-0.989
					c4.786,2.237,6.312,9.087,6.312,9.087S307.696,283.387,302.906,281.148z"/>
				<path fill="#11514F" d="M302.906,281.15c4.79,2.236,11.02-0.99,11.02-0.99l-17.332-8.098
					C296.595,272.062,298.12,278.914,302.906,281.15z"/>
			</g>
			<g>
				<path fill="#11514F" d="M305.159,230.989c3.117-3.485,9.331-3.022,9.331-3.022s1.133,6.119-1.99,9.606
					c-3.13,3.485-9.334,3.022-9.334,3.022S302.029,234.479,305.159,230.989z"/>
				<path fill="#11514F" d="M305.159,230.989c-3.129,3.489-1.994,9.606-1.994,9.606l11.324-12.629
					C314.489,227.967,308.275,227.504,305.159,230.989z"/>
			</g>
			<g>
				<path fill="#11514F" d="M229.265,225.836c2.678-3.844,8.892-4.143,8.892-4.143s1.873,5.934-0.798,9.774
					c-2.679,3.846-8.898,4.144-8.898,4.144S226.586,229.679,229.265,225.836z"/>
				<path fill="#11514F" d="M229.265,225.836c-2.678,3.843-0.805,9.775-0.805,9.775l9.697-13.918
					C238.156,221.693,231.942,221.992,229.265,225.836z"/>
			</g>
			<g>
				<path fill="#11514F" d="M280.363,205.403c1.932-3.362,7.032-4.059,7.032-4.059s1.978,4.756,0.046,8.118
					c-1.925,3.362-7.032,4.055-7.032,4.055S278.438,208.762,280.363,205.403z"/>
				<path fill="#11514F" d="M280.363,205.403c-1.925,3.358,0.046,8.114,0.046,8.114l6.986-12.173
					C287.395,201.345,282.294,202.041,280.363,205.403z"/>
			</g>
			<g>
				<path fill="#11514F" d="M294.191,252.243c2.724-2.755,7.834-2.122,7.834-2.122s0.698,5.099-2.029,7.858
					c-2.724,2.753-7.834,2.125-7.834,2.125S291.468,255,294.191,252.243z"/>
				<path fill="#11514F" d="M294.191,252.243c-2.724,2.757-2.03,7.861-2.03,7.861l9.864-9.983
					C302.025,250.121,296.915,249.488,294.191,252.243z"/>
			</g>
			<g>
				<path fill="#11514F" d="M205.811,225.426c-2.995,2.524-8.072,1.425-8.072,1.425s-0.236-5.193,2.75-7.716
					c2.996-2.525,8.08-1.428,8.08-1.428S208.797,222.902,205.811,225.426z"/>
				<path fill="#11514F" d="M205.811,225.426c2.986-2.523,2.757-7.719,2.757-7.719l-10.829,9.144
					C197.738,226.851,202.815,227.95,205.811,225.426z"/>
			</g>
			<g>
				<path fill="#11514F" d="M191.603,210.996c-5.147-1.197-8.061-7.585-8.061-7.585s5.435-4.443,10.575-3.249
					c5.146,1.196,8.056,7.582,8.056,7.582S196.743,212.191,191.603,210.996z"/>
				<path fill="#11514F" d="M191.603,210.996c5.14,1.195,10.571-3.252,10.571-3.252l-18.631-4.333
					C183.542,203.411,186.456,209.799,191.603,210.996z"/>
			</g>
			<g>
				<path fill="#11514F" d="M234.339,176.178c0.832-5.215,7-8.568,7-8.568s4.819,5.107,3.981,10.322
					c-0.832,5.218-7.003,8.567-7.003,8.567S233.504,181.393,234.339,176.178z"/>
				<path fill="#11514F" d="M234.339,176.178c-0.835,5.215,3.978,10.321,3.978,10.321l3.022-18.89
					C241.339,167.609,235.17,170.963,234.339,176.178z"/>
			</g>
			<g>
				<path fill="#11514F" d="M219.123,184.17c-4-1.807-5.343-7.482-5.343-7.482s5.14-2.746,9.144-0.94
					c3.997,1.812,5.34,7.487,5.34,7.487S223.12,185.978,219.123,184.17z"/>
				<path fill="#11514F" d="M219.123,184.17c3.997,1.808,9.141-0.936,9.141-0.936l-14.484-6.547
					C213.779,176.688,215.122,182.363,219.123,184.17z"/>
			</g>
			<g>
				<path fill="#11514F" d="M199.221,250.972c5.268-0.451,10.008,4.728,10.008,4.728s-3.798,5.904-9.062,6.354
					c-5.265,0.447-9.998-4.729-9.998-4.729S193.959,251.42,199.221,250.972z"/>
				<path fill="#11514F" d="M199.221,250.972c-5.261,0.448-9.052,6.353-9.052,6.353l19.06-1.625
					C209.229,255.699,204.488,250.521,199.221,250.972z"/>
			</g>
		</g>
	</g>
	<path fill="none" d="M333.13-467.768c-104.374-47.021-227.102-0.528-274.121,103.847C11.99-259.547,58.482-136.817,162.856-89.795
		c104.375,47.021,227.102,0.522,274.124-103.853C483.998-298.02,437.505-420.749,333.13-467.768"/>
	<text transform="matrix(0.7457 0.6663 -0.6663 0.7457 102.0049 -131.1846)"><tspan x="0" y="0" fill="#FFFFFF" font-family="'AmaticSC-Bold'" font-size="77.7291">1</tspan><tspan x="24.495" y="-0.359" fill="#FFFFFF" font-family="'AmaticSC-Bold'" font-size="77.7291" rotate="-5.889"> </tspan><tspan x="42.147" y="-2.203" fill="#FFFFFF" font-family="'AmaticSC-Bold'" font-size="77.7291" rotate="-11.649">T</tspan><tspan x="66.268" y="-7.384" fill="#FFFFFF" font-family="'AmaticSC-Bold'" font-size="77.7291" rotate="-18.662">R</tspan><tspan x="91.667" y="-16.283" fill="#FFFFFF" font-family="'AmaticSC-Bold'" font-size="77.7291" rotate="-25.929">E</tspan><tspan x="114.946" y="-27.91" fill="#FFFFFF" font-family="'AmaticSC-Bold'" font-size="77.7291" rotate="-33.155">E</tspan><tspan x="135.917" y="-42.075" fill="#FFFFFF" font-family="'AmaticSC-Bold'" font-size="77.7291" rotate="-39.176"> </tspan><tspan x="150.95" y="-53.9" fill="#FFFFFF" font-family="'AmaticSC-Bold'" font-size="77.7291" rotate="-47.142">=</tspan><tspan x="176.282" y="-82.675" fill="#FFFFFF" font-family="'AmaticSC-Bold'" font-size="77.7291" rotate="-55.065"> </tspan><tspan x="186.459" y="-97.264" fill="#FFFFFF" font-family="'AmaticSC-Bold'" font-size="77.7291" rotate="-60.87">1</tspan><tspan x="198.75" y="-119.676" fill="#FFFFFF" font-family="'AmaticSC-Bold'" font-size="77.7291" rotate="-68.441">0</tspan><tspan x="209.601" y="-147.958" fill="#FFFFFF" font-family="'AmaticSC-Bold'" font-size="77.7291" rotate="-77.159">K</tspan><tspan x="216.338" y="-180.046" fill="#FFFFFF" font-family="'AmaticSC-Bold'" font-size="77.7291" rotate="-85.53">R</tspan></text>
	<path fill="none" stroke="#FFFFFF" stroke-width="7" stroke-miterlimit="10" stroke-dasharray="5,7" d="M367.236,247.688
		c0,65.856-53.387,119.242-119.243,119.242c-65.856,0-119.243-53.386-119.243-119.242s53.387-119.243,119.243-119.243
		C313.849,128.444,367.236,181.831,367.236,247.688"/>
	<path fill="none" d="M397.125,219.556c15.538,82.363-38.636,161.726-121,177.264c-82.363,15.537-161.727-38.637-177.263-121.001
		c-15.537-82.362,38.637-161.726,121-177.263C302.226,83.02,381.59,137.192,397.125,219.556"/>
	<text transform="matrix(0.7801 -0.6256 0.6256 0.7801 145.8457 135.0322)"><tspan x="0" y="0" fill="#FFFFFF" font-family="'AmaticSC-Bold'" font-size="70.4884">Y</tspan><tspan x="17.061" y="-0.321" fill="#FFFFFF" font-family="'AmaticSC-Bold'" font-size="70.4884" rotate="7.659">O</tspan><tspan x="39.964" y="2.464" fill="#FFFFFF" font-family="'AmaticSC-Bold'" font-size="70.4884" rotate="17.019">U</tspan><tspan x="65.41" y="10.658" fill="#FFFFFF" font-family="'AmaticSC-Bold'" font-size="70.4884" rotate="24.203"> </tspan><tspan x="76.12" y="15.154" fill="#FFFFFF" font-family="'AmaticSC-Bold'" font-size="70.4884" rotate="30.131">S</tspan><tspan x="93.559" y="25.28" fill="#FFFFFF" font-family="'AmaticSC-Bold'" font-size="70.4884" rotate="37.104">T</tspan><tspan x="107.217" y="35.221" fill="#FFFFFF" font-family="'AmaticSC-Bold'" font-size="70.4884" rotate="44.678">A</tspan><tspan x="123.545" y="51.414" fill="#FFFFFF" font-family="'AmaticSC-Bold'" font-size="70.4884" rotate="52.592">R</tspan><tspan x="135.056" y="66.417" fill="#FFFFFF" font-family="'AmaticSC-Bold'" font-size="70.4884" rotate="59.381">T</tspan><tspan x="143.848" y="81.05" fill="#FFFFFF" font-family="'AmaticSC-Bold'" font-size="70.4884" rotate="66.014">E</tspan><tspan x="151.462" y="97.256" fill="#FFFFFF" font-family="'AmaticSC-Bold'" font-size="70.4884" rotate="74.048">D</tspan></text>
	<path fill="none" d="M333.13,58.706C228.756,11.685,106.028,58.178,59.009,162.553C11.99,266.927,58.482,389.656,162.856,436.679
		c104.375,47.021,227.102,0.522,274.124-103.853C483.998,228.454,437.505,105.725,333.13,58.706"/>
	<text transform="matrix(0.7946 0.6072 -0.6072 0.7946 113.7891 406.0645)"><tspan x="0" y="0" fill="#FFFFFF" font-family="'AmaticSC-Bold'" font-size="77.7291">Y</tspan><tspan x="25.557" y="-0.105" fill="#FFFFFF" font-family="'AmaticSC-Bold'" font-size="77.7291" rotate="-8.034">O</tspan><tspan x="58.687" y="-5.135" fill="#FFFFFF" font-family="'AmaticSC-Bold'" font-size="77.7291" rotate="-17.649">U</tspan><tspan x="93.351" y="-16.961" fill="#FFFFFF" font-family="'AmaticSC-Bold'" font-size="77.7291" rotate="-26.58">R</tspan><tspan x="116.611" y="-29.07" fill="#FFFFFF" font-family="'AmaticSC-Bold'" font-size="77.7291" rotate="-32.736"> </tspan><tspan x="131.562" y="-38.706" fill="#FFFFFF" font-family="'AmaticSC-Bold'" font-size="77.7291" rotate="-38.567">F</tspan><tspan x="151.471" y="-54.713" fill="#FFFFFF" font-family="'AmaticSC-Bold'" font-size="77.7291" rotate="-46.596">O</tspan><tspan x="173.514" y="-78.825" fill="#FFFFFF" font-family="'AmaticSC-Bold'" font-size="77.7291" rotate="-54.879">R</tspan><tspan x="188.739" y="-101.009" fill="#FFFFFF" font-family="'AmaticSC-Bold'" font-size="77.7291" rotate="-62.148">E</tspan><tspan x="200.789" y="-124.302" fill="#FFFFFF" font-family="'AmaticSC-Bold'" font-size="77.7291" rotate="-69.673">S</tspan><tspan x="210.266" y="-151.04" fill="#FFFFFF" font-family="'AmaticSC-Bold'" font-size="77.7291" rotate="-77.036">T</tspan></text>
	<path fill="none" stroke="#FFFFFF" stroke-width="7" stroke-miterlimit="10" d="M486.4,247.688
		c0,131.669-106.738,238.405-238.407,238.405c-131.669,0-238.408-106.736-238.408-238.405C9.585,116.019,116.324,9.28,247.993,9.28
		C379.662,9.28,486.4,116.019,486.4,247.688"/>
	<g>
		<g>
			<path fill="#60BA99" d="M281.926,250.634c-2.232,6.43-5.621,11.048-9.386,14.365c11.331,3.81,21.669-6.457,21.669-6.457
				c-8.672,12.521-21.715,10.578-25.863,9.564c-9.608,5.949-19.885,5.268-19.885,5.268l1.761-6.515
				C269.846,271.839,281.926,250.634,281.926,250.634z"/>
			<path fill="#60BA99" d="M211.086,194.458c2.233,6.43,5.618,11.05,9.39,14.367c-11.34,3.811-21.673-6.459-21.673-6.459
				c8.669,12.523,21.712,10.577,25.863,9.566c9.612,5.948,19.882,5.268,19.882,5.268l-1.758-6.516
				C223.16,215.664,211.086,194.458,211.086,194.458z"/>
			<polygon fill="#60BA99" points="250.599,245.707 285.625,223.422 246.032,236.792 			"/>
			<polygon fill="#60BA99" points="245.364,273.341 210.34,251.058 249.931,264.425 			"/>
			<g>
				<g>
					<g>
						<path fill="#60BA99" d="M224.994,175.974c29.806,47.846,27.75,106.952-6.989,151.656c2.799,2.032,4.194,3.048,6.989,5.077
							C258.269,284.92,258.269,223.765,224.994,175.974z"/>
						<path fill="#60BA99" d="M224.994,175.974c36.906,47.683,38.975,110.992,6.986,161.812c-2.802-2.029-4.193-3.044-6.986-5.078
							C258.269,284.92,258.269,223.765,224.994,175.974z"/>
					</g>
				</g>
			</g>
		</g>
		<g>
			<g>
				<path fill="#60BA99" d="M221.455,197.607c-3.225-3.271-2.393-9.315-2.393-9.315s6.05-0.742,9.271,2.527
					c3.228,3.271,2.396,9.312,2.396,9.312S224.68,200.875,221.455,197.607z"/>
				<path fill="#60BA99" d="M221.455,197.607c3.225,3.268,9.275,2.524,9.275,2.524l-11.668-11.84
					C219.062,188.292,218.23,194.337,221.455,197.607z"/>
			</g>
			<g>
				<path fill="#60BA99" d="M245.036,183.848c0.831-5.216,7.006-8.568,7.006-8.568s4.812,5.107,3.975,10.323
					c-0.832,5.217-7,8.568-7,8.568S244.205,189.064,245.036,183.848z"/>
				<path fill="#60BA99" d="M245.036,183.848c-0.831,5.217,3.981,10.323,3.981,10.323l3.025-18.892
					C252.042,175.279,245.867,178.632,245.036,183.848z"/>
			</g>
			<g>
				<path fill="#60BA99" d="M280.682,290.287c-3.713-3.761-2.757-10.714-2.757-10.714s6.967-0.857,10.676,2.906
					c3.707,3.763,2.753,10.716,2.753,10.716S284.388,294.05,280.682,290.287z"/>
				<path fill="#60BA99" d="M280.682,290.287c3.706,3.763,10.672,2.908,10.672,2.908l-13.429-13.622
					C277.925,279.573,276.969,286.526,280.682,290.287z"/>
			</g>
			<g>
				<path fill="#60BA99" d="M197.827,192.68c-0.18-5.278,5.225-9.75,5.225-9.75s5.71,4.088,5.893,9.367
					c0.184,5.279-5.231,9.75-5.231,9.75S198.007,197.959,197.827,192.68z"/>
				<path fill="#60BA99" d="M197.827,192.68c0.18,5.279,5.887,9.367,5.887,9.367l-0.662-19.117
					C203.052,182.93,197.647,187.401,197.827,192.68z"/>
			</g>
			<g>
				<path fill="#60BA99" d="M253.791,219.485c-3.847-3.618-3.149-10.604-3.149-10.604s6.927-1.112,10.771,2.511
					c3.843,3.619,3.152,10.605,3.152,10.605S257.637,223.109,253.791,219.485z"/>
				<path fill="#60BA99" d="M253.791,219.485c3.846,3.624,10.773,2.513,10.773,2.513l-13.923-13.116
					C250.642,208.882,249.944,215.867,253.791,219.485z"/>
			</g>
			<g>
				<path fill="#60BA99" d="M262.08,258.492c-3.173-2.988-2.599-8.755-2.599-8.755s5.722-0.915,8.898,2.071
					c3.169,2.991,2.599,8.755,2.599,8.755S265.255,261.482,262.08,258.492z"/>
				<path fill="#60BA99" d="M262.08,258.492c3.175,2.99,8.898,2.071,8.898,2.071l-11.497-10.826
					C259.481,249.737,258.907,255.504,262.08,258.492z"/>
			</g>
			<g>
				<path fill="#60BA99" d="M213.264,268.756c-2.848-2.681-2.334-7.855-2.334-7.855s5.133-0.823,7.981,1.858
					c2.841,2.683,2.337,7.855,2.337,7.855S216.115,271.438,213.264,268.756z"/>
				<path fill="#60BA99" d="M213.264,268.756c2.852,2.682,7.985,1.858,7.985,1.858L210.93,260.9
					C210.93,260.9,210.416,266.075,213.264,268.756z"/>
			</g>
			<g>
				<path fill="#60BA99" d="M229.558,251.433c0.255-3.187,3.817-5.504,3.817-5.504s3.156,2.854,2.895,6.043
					c-0.256,3.189-3.818,5.505-3.818,5.505S229.305,254.619,229.558,251.433z"/>
				<path fill="#60BA99" d="M229.558,251.433c-0.252,3.187,2.894,6.044,2.894,6.044l0.923-11.548
					C233.375,245.929,229.813,248.246,229.558,251.433z"/>
			</g>
			<g>
				<path fill="#60BA99" d="M204.205,232.003c0.425-5.265,6.309-9.088,6.309-9.088s5.202,4.71,4.776,9.977
					c-0.418,5.266-6.302,9.09-6.302,9.09S203.786,237.267,204.205,232.003z"/>
				<path fill="#60BA99" d="M204.205,232.003c-0.419,5.264,4.783,9.979,4.783,9.979l1.526-19.066
					C210.514,222.915,204.63,226.738,204.205,232.003z"/>
			</g>
			<g>
				<path fill="#60BA99" d="M259.526,198.501c0.419-5.264,6.305-9.088,6.305-9.088s5.206,4.713,4.787,9.979
					c-0.426,5.266-6.312,9.089-6.312,9.089S259.104,203.766,259.526,198.501z"/>
				<path fill="#60BA99" d="M259.526,198.501c-0.422,5.265,4.78,9.979,4.78,9.979l1.525-19.067
					C265.832,189.413,259.946,193.237,259.526,198.501z"/>
			</g>
			<g>
				<path fill="#60BA99" d="M289.855,216.596c3.594-1.448,8.027,1.16,8.027,1.16s-1.388,4.957-4.976,6.407
					c-3.595,1.452-8.041-1.159-8.041-1.159S286.261,218.046,289.855,216.596z"/>
				<path fill="#60BA99" d="M289.855,216.596c-3.595,1.45-4.989,6.408-4.989,6.408l13.017-5.248
					C297.883,217.756,293.45,215.147,289.855,216.596z"/>
			</g>
			<g>
				<path fill="#60BA99" d="M298.701,198.382c4.898-1.976,10.948,1.579,10.948,1.579s-1.893,6.758-6.793,8.736
					c-4.895,1.975-10.951-1.579-10.951-1.579S293.797,200.357,298.701,198.382z"/>
				<path fill="#60BA99" d="M298.701,198.382c-4.904,1.976-6.796,8.736-6.796,8.736l17.744-7.157
					C309.649,199.961,303.599,196.406,298.701,198.382z"/>
			</g>
			<g>
				<path fill="#60BA99" d="M272.628,183.901c0.479-5.263,6.408-9.019,6.408-9.019s5.146,4.769,4.672,10.03
					c-0.485,5.26-6.411,9.019-6.411,9.019S272.15,189.161,272.628,183.901z"/>
				<path fill="#60BA99" d="M272.628,183.901c-0.478,5.26,4.668,10.03,4.668,10.03l1.739-19.049
					C279.036,174.883,273.106,178.639,272.628,183.901z"/>
			</g>
			<g>
				<path fill="#60BA99" d="M281.743,237.82c4.344-1.753,9.706,1.399,9.706,1.399s-1.679,5.991-6.017,7.744
					c-4.344,1.751-9.713-1.401-9.713-1.401S277.401,239.572,281.743,237.82z"/>
				<path fill="#60BA99" d="M281.743,237.82c-4.342,1.752-6.024,7.742-6.024,7.742l15.73-6.343
					C291.449,239.22,286.087,236.067,281.743,237.82z"/>
			</g>
			<g>
				<path fill="#60BA99" d="M227.109,277.804c0.57-4.647,5.925-7.819,5.925-7.819s4.433,4.364,3.86,9.012
					c-0.566,4.65-5.916,7.822-5.916,7.822S226.545,282.454,227.109,277.804z"/>
				<path fill="#60BA99" d="M227.109,277.804c-0.563,4.65,3.87,9.015,3.87,9.015l2.056-16.834
					C233.034,269.984,227.679,273.156,227.109,277.804z"/>
			</g>
			<g>
				<path fill="#60BA99" d="M191.074,231.666c5.438-0.526,10.401,4.769,10.401,4.769s-3.857,6.152-9.288,6.681
					c-5.438,0.529-10.4-4.768-10.4-4.768S185.636,232.194,191.074,231.666z"/>
				<path fill="#60BA99" d="M191.074,231.666c-5.438,0.528-9.288,6.682-9.288,6.682l19.688-1.913
					C201.475,236.435,196.511,231.14,191.074,231.666z"/>
			</g>
			<g>
				<path fill="#60BA99" d="M311.659,242.684c4.897-1.978,10.947,1.579,10.947,1.579s-1.892,6.757-6.79,8.735
					c-4.897,1.975-10.951-1.58-10.951-1.58S306.762,244.659,311.659,242.684z"/>
				<path fill="#60BA99" d="M311.659,242.684c-4.897,1.976-6.793,8.734-6.793,8.734l17.741-7.155
					C322.606,244.263,316.557,240.706,311.659,242.684z"/>
			</g>
			<g>
				<path fill="#60BA99" d="M197.212,266.653c4.901-1.977,10.954,1.581,10.954,1.581s-1.895,6.757-6.79,8.734
					c-4.898,1.974-10.951-1.58-10.951-1.58S192.321,268.629,197.212,266.653z"/>
				<path fill="#60BA99" d="M197.212,266.653c-4.891,1.976-6.787,8.735-6.787,8.735l17.741-7.154
					C208.166,268.234,202.113,264.677,197.212,266.653z"/>
			</g>
			<g>
				<path fill="#60BA99" d="M257.064,287.412c-0.53-5.256,4.566-10.075,4.566-10.075s5.962,3.701,6.499,8.958
					c0.53,5.255-4.577,10.076-4.577,10.076S257.592,292.669,257.064,287.412z"/>
				<path fill="#60BA99" d="M257.064,287.412c0.527,5.257,6.489,8.959,6.489,8.959l-1.922-19.034
					C261.631,277.337,256.534,282.156,257.064,287.412z"/>
			</g>
			<g>
				<path fill="#60BA99" d="M299.362,278.377c-4.786-2.235-6.312-9.087-6.312-9.087s6.233-3.225,11.02-0.989
					c4.786,2.238,6.312,9.088,6.312,9.088S304.152,280.614,299.362,278.377z"/>
				<path fill="#60BA99" d="M299.362,278.379c4.79,2.235,11.02-0.99,11.02-0.99l-17.332-8.099
					C293.051,269.29,294.576,276.142,299.362,278.379z"/>
			</g>
			<g>
				<path fill="#60BA99" d="M301.615,228.218c3.117-3.486,9.331-3.023,9.331-3.023s1.133,6.119-1.99,9.606
					c-3.13,3.485-9.334,3.022-9.334,3.022S298.485,231.706,301.615,228.218z"/>
				<path fill="#60BA99" d="M301.615,228.218c-3.129,3.488-1.994,9.605-1.994,9.605l11.324-12.629
					C310.945,225.194,304.731,224.731,301.615,228.218z"/>
			</g>
			<g>
				<path fill="#60BA99" d="M225.721,223.063c2.678-3.844,8.892-4.142,8.892-4.142s1.873,5.933-0.798,9.774
					c-2.679,3.845-8.898,4.143-8.898,4.143S223.042,226.907,225.721,223.063z"/>
				<path fill="#60BA99" d="M225.721,223.063c-2.678,3.844-0.805,9.775-0.805,9.775l9.697-13.917
					C234.612,218.922,228.398,219.22,225.721,223.063z"/>
			</g>
			<g>
				<path fill="#60BA99" d="M276.819,202.631c1.932-3.362,7.032-4.058,7.032-4.058s1.978,4.755,0.046,8.117
					c-1.925,3.362-7.032,4.055-7.032,4.055S274.894,205.99,276.819,202.631z"/>
				<path fill="#60BA99" d="M276.819,202.631c-1.925,3.359,0.046,8.114,0.046,8.114l6.986-12.172
					C283.851,198.573,278.75,199.269,276.819,202.631z"/>
			</g>
			<g>
				<path fill="#60BA99" d="M290.647,249.471c2.724-2.754,7.834-2.122,7.834-2.122s0.698,5.099-2.029,7.859
					c-2.724,2.753-7.834,2.125-7.834,2.125S287.924,252.228,290.647,249.471z"/>
				<path fill="#60BA99" d="M290.647,249.471c-2.724,2.757-2.03,7.862-2.03,7.862l9.864-9.984
					C298.481,247.349,293.371,246.717,290.647,249.471z"/>
			</g>
			<g>
				<path fill="#60BA99" d="M202.267,222.653c-2.995,2.524-8.072,1.425-8.072,1.425s-0.236-5.193,2.75-7.716
					c2.996-2.524,8.08-1.427,8.08-1.427S205.253,220.131,202.267,222.653z"/>
				<path fill="#60BA99" d="M202.267,222.653c2.986-2.522,2.757-7.718,2.757-7.718l-10.829,9.143
					C194.194,224.078,199.271,225.178,202.267,222.653z"/>
			</g>
			<g>
				<path fill="#60BA99" d="M188.059,208.224c-5.147-1.197-8.061-7.584-8.061-7.584s5.435-4.444,10.575-3.249
					c5.146,1.195,8.056,7.582,8.056,7.582S193.199,209.42,188.059,208.224z"/>
				<path fill="#60BA99" d="M188.059,208.224c5.14,1.196,10.571-3.251,10.571-3.251l-18.631-4.333
					C179.998,200.64,182.912,207.026,188.059,208.224z"/>
			</g>
			<g>
				<path fill="#60BA99" d="M230.795,173.405c0.832-5.215,7-8.567,7-8.567s4.819,5.106,3.981,10.321
					c-0.832,5.218-7.003,8.567-7.003,8.567S229.96,178.621,230.795,173.405z"/>
				<path fill="#60BA99" d="M230.795,173.405c-0.835,5.216,3.978,10.321,3.978,10.321l3.022-18.889
					C237.795,164.838,231.626,168.19,230.795,173.405z"/>
			</g>
			<g>
				<path fill="#60BA99" d="M215.579,181.397c-4-1.806-5.343-7.482-5.343-7.482s5.14-2.745,9.144-0.939
					c3.997,1.812,5.34,7.486,5.34,7.486S219.576,183.206,215.579,181.397z"/>
				<path fill="#60BA99" d="M215.579,181.397c3.997,1.809,9.141-0.936,9.141-0.936l-14.484-6.547
					C210.235,173.915,211.578,179.592,215.579,181.397z"/>
			</g>
			<g>
				<path fill="#60BA99" d="M195.677,248.199c5.268-0.451,10.008,4.728,10.008,4.728s-3.798,5.904-9.062,6.354
					c-5.265,0.448-9.998-4.728-9.998-4.728S190.416,248.647,195.677,248.199z"/>
				<path fill="#60BA99" d="M195.677,248.199c-5.261,0.448-9.052,6.354-9.052,6.354l19.06-1.626
					C205.685,252.927,200.944,247.748,195.677,248.199z"/>
			</g>
		</g>
	</g>
	<g>
		<g>
			<path fill="#D18A35" d="M410.571,272.851c-0.833-3.646,9.184-2.751,15.755-0.841c9.99,3.029,16.258,8.083,26.831,10.83
				c-6.886,1.897-19.769,2.002-30.064-0.021C411.945,280.618,410.533,277.383,410.571,272.851"/>
		</g>
		<g>
			<path fill="#11514F" d="M412.095,253.988c-6.07-6.753,3.549-15.644,11.822-18.697c12.76-4.402,25.411-0.543,38.238-6.146
				c-2.906,11.371-13.426,25.453-24.951,32.287C424.718,268.798,418.772,263.533,412.095,253.988"/>
		</g>
		<g>
			<path fill="#FFFFFF" d="M410.006,251.988c-6.07-6.753,3.549-15.644,11.822-18.697c12.76-4.402,25.411-0.543,38.238-6.146
				c-2.906,11.371-13.426,25.453-24.951,32.287C422.63,266.798,416.684,261.533,410.006,251.988"/>
		</g>
		<g>
			<path fill="#FFFFFF" d="M409.527,269.851c-0.833-3.646,9.184-2.751,15.755-0.841c9.99,3.029,16.258,8.083,26.832,10.83
				c-6.886,1.897-19.769,2.002-30.065-0.021C410.901,277.618,409.489,274.383,409.527,269.851"/>
		</g>
	</g>
	<g>
		<g>
			<path fill="#D18A35" d="M89.911,272.851c0.833-3.646-9.184-2.751-15.755-0.841c-9.99,3.029-16.258,8.083-26.831,10.83
				c6.886,1.897,19.769,2.002,30.064-0.021C88.537,280.618,89.948,277.383,89.911,272.851"/>
		</g>
		<g>
			<path fill="#11514F" d="M88.387,253.988c6.07-6.753-3.549-15.644-11.822-18.697c-12.76-4.402-25.411-0.543-38.238-6.146
				c2.906,11.371,13.426,25.453,24.951,32.287C75.763,268.798,81.709,263.533,88.387,253.988"/>
		</g>
		<g>
			<path fill="#FFFFFF" d="M90.475,251.988c6.071-6.753-3.549-15.644-11.822-18.697c-12.76-4.402-25.41-0.543-38.237-6.146
				c2.906,11.371,13.426,25.453,24.951,32.287C77.851,266.798,83.797,261.533,90.475,251.988"/>
		</g>
		<g>
			<path fill="#FFFFFF" d="M90.955,269.851c0.833-3.646-9.184-2.751-15.755-0.841c-9.99,3.029-16.258,8.083-26.832,10.83
				c6.886,1.897,19.769,2.002,30.064-0.021C89.581,277.618,90.992,274.383,90.955,269.851"/>
		</g>
	</g>
</g>
<g id="Calque_1">
</g>
</svg>
