<?xml version="1.0" encoding="utf-8"?>
<!-- Generator: Adobe Illustrator 16.0.0, SVG Export Plug-In . SVG Version: 6.00 Build 0)  -->
<!DOCTYPE svg PUBLIC "-//W3C//DTD SVG 1.1//EN" "http://www.w3.org/Graphics/SVG/1.1/DTD/svg11.dtd">
<svg version="1.1" xmlns="http://www.w3.org/2000/svg" xmlns:xlink="http://www.w3.org/1999/xlink" x="0px" y="0px" width="500px"
	 height="500px" viewBox="0 0 500 500" enable-background="new 0 0 500 500" xml:space="preserve">
<g id="Calque_3">
	<path fill="#CDCD54" d="M485.892,247.688c0,131.389-106.511,237.898-237.898,237.898c-131.389,0-237.899-106.51-237.899-237.898
		S116.605,9.79,247.994,9.79C379.38,9.79,485.892,116.299,485.892,247.688"/>
</g>
<g id="Calque_2">
	<g>
		<g>
			<path fill="#FFFFFF" d="M280.04,247.862c-2.233,6.43-5.622,11.047-9.386,14.364c11.331,3.811,21.67-6.456,21.67-6.456
				c-8.673,12.521-21.716,10.577-25.864,9.563c-9.608,5.95-19.885,5.268-19.885,5.268l1.761-6.515
				C267.959,269.067,280.04,247.862,280.04,247.862z"/>
			<path fill="#FFFFFF" d="M209.201,191.687c2.233,6.429,5.618,11.05,9.389,14.366c-11.34,3.811-21.673-6.458-21.673-6.458
				c8.669,12.522,21.712,10.577,25.864,9.565c9.612,5.948,19.882,5.268,19.882,5.268l-1.758-6.515
				C221.274,212.893,209.201,191.687,209.201,191.687z"/>
			<polygon fill="#FFFFFF" points="248.712,242.935 283.74,220.649 244.146,234.021 			"/>
			<polygon fill="#FFFFFF" points="243.478,270.569 208.454,248.286 248.044,261.653 			"/>
			<g>
				<g>
					<g>
						<path fill="#FFFFFF" d="M223.108,173.201c29.805,47.847,27.749,106.952-6.99,151.657c2.8,2.032,4.194,3.047,6.99,5.077
							C256.383,282.147,256.383,220.992,223.108,173.201z"/>
						<path fill="#FFFFFF" d="M223.108,173.201c36.906,47.683,38.975,110.993,6.986,161.812c-2.802-2.03-4.193-3.044-6.986-5.078
							C256.383,282.147,256.383,220.992,223.108,173.201z"/>
					</g>
				</g>
			</g>
		</g>
		<g>
			<g>
				<path fill="#FFFFFF" d="M219.569,194.836c-3.225-3.271-2.393-9.316-2.393-9.316s6.05-0.741,9.271,2.527
					c3.228,3.271,2.396,9.312,2.396,9.312S222.794,198.103,219.569,194.836z"/>
				<path fill="#FFFFFF" d="M219.569,194.836c3.225,3.267,9.275,2.523,9.275,2.523l-11.667-11.84
					C217.176,185.52,216.344,191.564,219.569,194.836z"/>
			</g>
			<g>
				<path fill="#FFFFFF" d="M243.15,181.076c0.831-5.216,7.006-8.568,7.006-8.568s4.812,5.107,3.974,10.322
					c-0.832,5.217-7,8.568-7,8.568S242.319,186.292,243.15,181.076z"/>
				<path fill="#FFFFFF" d="M243.15,181.076c-0.832,5.216,3.981,10.322,3.981,10.322l3.025-18.891
					C250.157,172.508,243.981,175.86,243.15,181.076z"/>
			</g>
			<g>
				<path fill="#FFFFFF" d="M278.796,287.516c-3.712-3.762-2.756-10.714-2.756-10.714s6.966-0.857,10.676,2.906
					c3.706,3.762,2.753,10.716,2.753,10.716S282.502,291.277,278.796,287.516z"/>
				<path fill="#FFFFFF" d="M278.796,287.516c3.706,3.762,10.673,2.908,10.673,2.908l-13.429-13.622
					C276.04,276.802,275.083,283.754,278.796,287.516z"/>
			</g>
			<g>
				<path fill="#FFFFFF" d="M195.941,189.907c-0.18-5.278,5.225-9.749,5.225-9.749s5.71,4.088,5.893,9.366
					c0.184,5.28-5.231,9.751-5.231,9.751S196.121,195.187,195.941,189.907z"/>
				<path fill="#FFFFFF" d="M195.941,189.907c0.18,5.279,5.887,9.368,5.887,9.368l-0.662-19.117
					C201.167,180.158,195.761,184.629,195.941,189.907z"/>
			</g>
			<g>
				<path fill="#FFFFFF" d="M251.905,216.714c-3.847-3.618-3.149-10.604-3.149-10.604s6.927-1.111,10.771,2.511
					c3.843,3.619,3.152,10.605,3.152,10.605S255.751,220.338,251.905,216.714z"/>
				<path fill="#FFFFFF" d="M251.905,216.714c3.846,3.624,10.774,2.512,10.774,2.512l-13.923-13.116
					C248.755,206.109,248.058,213.096,251.905,216.714z"/>
			</g>
			<g>
				<path fill="#FFFFFF" d="M260.194,255.72c-3.173-2.988-2.6-8.754-2.6-8.754s5.723-0.915,8.898,2.071
					c3.169,2.991,2.599,8.754,2.599,8.754S263.37,258.71,260.194,255.72z"/>
				<path fill="#FFFFFF" d="M260.194,255.72c3.175,2.99,8.898,2.071,8.898,2.071l-11.498-10.825
					C257.595,246.966,257.021,252.731,260.194,255.72z"/>
			</g>
			<g>
				<path fill="#FFFFFF" d="M211.378,265.984c-2.849-2.682-2.334-7.856-2.334-7.856s5.133-0.823,7.982,1.858
					c2.841,2.684,2.337,7.855,2.337,7.855S214.229,268.666,211.378,265.984z"/>
				<path fill="#FFFFFF" d="M211.378,265.984c2.851,2.682,7.985,1.857,7.985,1.857l-10.319-9.714
					C209.043,258.128,208.529,263.303,211.378,265.984z"/>
			</g>
			<g>
				<path fill="#FFFFFF" d="M227.672,248.66c0.255-3.187,3.817-5.503,3.817-5.503s3.156,2.854,2.895,6.042
					c-0.255,3.189-3.818,5.505-3.818,5.505S227.419,251.848,227.672,248.66z"/>
				<path fill="#FFFFFF" d="M227.672,248.66c-0.253,3.188,2.894,6.044,2.894,6.044l0.923-11.547
					C231.489,243.157,227.927,245.474,227.672,248.66z"/>
			</g>
			<g>
				<path fill="#FFFFFF" d="M202.319,229.231c0.426-5.266,6.309-9.089,6.309-9.089s5.202,4.711,4.776,9.977
					c-0.419,5.267-6.302,9.091-6.302,9.091S201.9,234.494,202.319,229.231z"/>
				<path fill="#FFFFFF" d="M202.319,229.231c-0.419,5.263,4.783,9.979,4.783,9.979l1.526-19.067
					C208.628,220.143,202.745,223.966,202.319,229.231z"/>
			</g>
			<g>
				<path fill="#FFFFFF" d="M257.641,195.729c0.419-5.265,6.305-9.089,6.305-9.089s5.206,4.713,4.787,9.979
					c-0.426,5.267-6.312,9.089-6.312,9.089S257.218,200.993,257.641,195.729z"/>
				<path fill="#FFFFFF" d="M257.641,195.729c-0.422,5.264,4.78,9.979,4.78,9.979l1.525-19.067
					C263.946,186.641,258.06,190.465,257.641,195.729z"/>
			</g>
			<g>
				<path fill="#FFFFFF" d="M287.969,213.824c3.595-1.449,8.028,1.16,8.028,1.16s-1.389,4.957-4.977,6.407
					c-3.595,1.451-8.041-1.16-8.041-1.16S284.375,215.274,287.969,213.824z"/>
				<path fill="#FFFFFF" d="M287.969,213.824c-3.595,1.45-4.989,6.407-4.989,6.407l13.017-5.247
					C295.997,214.984,291.564,212.375,287.969,213.824z"/>
			</g>
			<g>
				<path fill="#FFFFFF" d="M296.815,195.61c4.897-1.976,10.947,1.579,10.947,1.579s-1.892,6.757-6.793,8.735
					c-4.895,1.975-10.951-1.579-10.951-1.579S291.911,197.585,296.815,195.61z"/>
				<path fill="#FFFFFF" d="M296.815,195.61c-4.904,1.975-6.797,8.735-6.797,8.735l17.744-7.156
					C307.763,197.189,301.713,193.635,296.815,195.61z"/>
			</g>
			<g>
				<path fill="#FFFFFF" d="M270.742,181.13c0.479-5.264,6.407-9.02,6.407-9.02s5.146,4.769,4.672,10.03
					c-0.484,5.26-6.411,9.019-6.411,9.019S270.265,186.389,270.742,181.13z"/>
				<path fill="#FFFFFF" d="M270.742,181.13c-0.478,5.259,4.668,10.029,4.668,10.029l1.739-19.049
					C277.149,172.11,271.221,175.866,270.742,181.13z"/>
			</g>
			<g>
				<path fill="#FFFFFF" d="M279.857,235.048c4.344-1.753,9.707,1.4,9.707,1.4s-1.679,5.99-6.017,7.743
					c-4.344,1.752-9.713-1.4-9.713-1.4S275.516,236.8,279.857,235.048z"/>
				<path fill="#FFFFFF" d="M279.857,235.048c-4.341,1.752-6.024,7.743-6.024,7.743l15.73-6.343
					C289.563,236.448,284.201,233.295,279.857,235.048z"/>
			</g>
			<g>
				<path fill="#FFFFFF" d="M225.223,275.032c0.57-4.648,5.926-7.82,5.926-7.82s4.433,4.364,3.86,9.013
					c-0.566,4.649-5.916,7.821-5.916,7.821S224.66,279.682,225.223,275.032z"/>
				<path fill="#FFFFFF" d="M225.223,275.032c-0.563,4.649,3.87,9.014,3.87,9.014l2.056-16.834
					C231.148,267.212,225.792,270.384,225.223,275.032z"/>
			</g>
			<g>
				<path fill="#FFFFFF" d="M189.188,228.895c5.438-0.527,10.401,4.769,10.401,4.769s-3.857,6.151-9.288,6.681
					c-5.438,0.529-10.401-4.768-10.401-4.768S183.75,229.422,189.188,228.895z"/>
				<path fill="#FFFFFF" d="M189.188,228.895c-5.438,0.527-9.288,6.682-9.288,6.682l19.689-1.913
					C199.589,233.663,194.625,228.367,189.188,228.895z"/>
			</g>
			<g>
				<path fill="#FFFFFF" d="M309.773,239.911c4.898-1.977,10.948,1.579,10.948,1.579s-1.892,6.758-6.79,8.735
					c-4.898,1.976-10.952-1.579-10.952-1.579S304.875,241.887,309.773,239.911z"/>
				<path fill="#FFFFFF" d="M309.773,239.911c-4.897,1.976-6.793,8.735-6.793,8.735l17.741-7.156
					C320.721,241.49,314.671,237.935,309.773,239.911z"/>
			</g>
			<g>
				<path fill="#FFFFFF" d="M195.326,263.881c4.9-1.977,10.954,1.582,10.954,1.582s-1.895,6.756-6.79,8.734
					c-4.897,1.974-10.951-1.58-10.951-1.58S190.435,265.857,195.326,263.881z"/>
				<path fill="#FFFFFF" d="M195.326,263.881c-4.891,1.977-6.787,8.736-6.787,8.736l17.741-7.154
					C206.28,265.463,200.227,261.904,195.326,263.881z"/>
			</g>
			<g>
				<path fill="#FFFFFF" d="M255.178,284.641c-0.53-5.257,4.567-10.076,4.567-10.076s5.962,3.702,6.499,8.958
					c0.531,5.256-4.577,10.076-4.577,10.076S255.706,289.896,255.178,284.641z"/>
				<path fill="#FFFFFF" d="M255.178,284.641c0.527,5.256,6.489,8.958,6.489,8.958l-1.922-19.034
					C259.745,274.564,254.648,279.384,255.178,284.641z"/>
			</g>
			<g>
				<path fill="#FFFFFF" d="M297.477,275.604c-4.787-2.234-6.312-9.086-6.312-9.086s6.233-3.226,11.02-0.989
					c4.786,2.237,6.312,9.088,6.312,9.088S302.266,277.842,297.477,275.604z"/>
				<path fill="#FFFFFF" d="M297.477,275.606c4.79,2.235,11.02-0.989,11.02-0.989l-17.332-8.099
					C291.165,266.519,292.69,273.37,297.477,275.606z"/>
			</g>
			<g>
				<path fill="#FFFFFF" d="M299.729,225.445c3.117-3.485,9.331-3.022,9.331-3.022s1.133,6.118-1.99,9.606
					c-3.13,3.485-9.333,3.022-9.333,3.022S296.599,228.935,299.729,225.445z"/>
				<path fill="#FFFFFF" d="M299.729,225.445c-3.129,3.489-1.993,9.606-1.993,9.606l11.324-12.629
					C309.059,222.423,302.846,221.96,299.729,225.445z"/>
			</g>
			<g>
				<path fill="#FFFFFF" d="M223.834,220.291c2.678-3.843,8.892-4.142,8.892-4.142s1.872,5.933-0.799,9.774
					c-2.679,3.846-8.898,4.143-8.898,4.143S221.157,224.135,223.834,220.291z"/>
				<path fill="#FFFFFF" d="M223.834,220.291c-2.678,3.844-0.805,9.775-0.805,9.775l9.697-13.917
					C232.727,216.149,226.513,216.448,223.834,220.291z"/>
			</g>
			<g>
				<path fill="#FFFFFF" d="M274.933,199.859c1.932-3.362,7.032-4.059,7.032-4.059s1.978,4.756,0.046,8.118
					c-1.925,3.362-7.032,4.055-7.032,4.055S273.008,203.218,274.933,199.859z"/>
				<path fill="#FFFFFF" d="M274.933,199.859c-1.925,3.358,0.046,8.114,0.046,8.114l6.986-12.173
					C281.965,195.801,276.864,196.497,274.933,199.859z"/>
			</g>
			<g>
				<path fill="#FFFFFF" d="M288.761,246.699c2.724-2.755,7.834-2.122,7.834-2.122s0.697,5.099-2.029,7.858
					c-2.724,2.753-7.835,2.125-7.835,2.125S286.038,249.456,288.761,246.699z"/>
				<path fill="#FFFFFF" d="M288.761,246.699c-2.724,2.757-2.03,7.861-2.03,7.861l9.864-9.983
					C296.596,244.577,291.485,243.944,288.761,246.699z"/>
			</g>
			<g>
				<path fill="#FFFFFF" d="M200.381,219.881c-2.996,2.525-8.073,1.426-8.073,1.426s-0.236-5.193,2.75-7.717
					c2.996-2.524,8.08-1.426,8.08-1.426S203.367,217.358,200.381,219.881z"/>
				<path fill="#FFFFFF" d="M200.381,219.881c2.986-2.522,2.756-7.717,2.756-7.717l-10.829,9.143
					C192.308,221.307,197.385,222.406,200.381,219.881z"/>
			</g>
			<g>
				<path fill="#FFFFFF" d="M186.173,205.452c-5.147-1.197-8.061-7.585-8.061-7.585s5.435-4.443,10.575-3.249
					c5.146,1.196,8.056,7.582,8.056,7.582S191.312,206.647,186.173,205.452z"/>
				<path fill="#FFFFFF" d="M186.173,205.452c5.14,1.195,10.57-3.252,10.57-3.252l-18.631-4.333
					C178.112,197.867,181.025,204.255,186.173,205.452z"/>
			</g>
			<g>
				<path fill="#FFFFFF" d="M228.909,170.633c0.832-5.214,7-8.567,7-8.567s4.819,5.107,3.981,10.321
					c-0.832,5.219-7.003,8.568-7.003,8.568S228.074,175.849,228.909,170.633z"/>
				<path fill="#FFFFFF" d="M228.909,170.633c-0.835,5.216,3.978,10.322,3.978,10.322l3.022-18.89
					C235.909,162.065,229.741,165.419,228.909,170.633z"/>
			</g>
			<g>
				<path fill="#FFFFFF" d="M213.693,178.625c-4.001-1.806-5.344-7.482-5.344-7.482s5.14-2.745,9.144-0.939
					c3.998,1.812,5.34,7.487,5.34,7.487S217.689,180.434,213.693,178.625z"/>
				<path fill="#FFFFFF" d="M213.693,178.625c3.997,1.809,9.14-0.935,9.14-0.935l-14.484-6.548
					C208.349,171.143,209.692,176.819,213.693,178.625z"/>
			</g>
			<g>
				<path fill="#FFFFFF" d="M193.791,245.428c5.268-0.451,10.008,4.728,10.008,4.728s-3.798,5.904-9.062,6.353
					c-5.264,0.449-9.998-4.728-9.998-4.728S188.53,245.875,193.791,245.428z"/>
				<path fill="#FFFFFF" d="M193.791,245.428c-5.261,0.447-9.052,6.353-9.052,6.353l19.06-1.625
					C203.799,250.155,199.058,244.977,193.791,245.428z"/>
			</g>
		</g>
	</g>
	<g>
		<g>
			<path fill="#11514F" d="M285.47,253.406c-2.232,6.43-5.621,11.047-9.386,14.364c11.331,3.811,21.669-6.456,21.669-6.456
				c-8.672,12.521-21.715,10.577-25.863,9.564c-9.608,5.949-19.885,5.268-19.885,5.268l1.761-6.516
				C273.39,274.611,285.47,253.406,285.47,253.406z"/>
			<path fill="#11514F" d="M214.63,197.23c2.233,6.43,5.618,11.05,9.39,14.367c-11.34,3.811-21.673-6.459-21.673-6.459
				c8.669,12.523,21.712,10.577,25.864,9.565c9.611,5.948,19.881,5.268,19.881,5.268l-1.758-6.515
				C226.704,218.436,214.63,197.23,214.63,197.23z"/>
			<polygon fill="#11514F" points="254.143,248.479 289.169,226.193 249.576,239.564 			"/>
			<polygon fill="#11514F" points="248.908,276.113 213.884,253.83 253.475,267.197 			"/>
			<g>
				<g>
					<g>
						<path fill="#11514F" d="M228.538,178.745c29.806,47.847,27.75,106.952-6.989,151.657c2.799,2.032,4.194,3.047,6.989,5.077
							C261.813,287.691,261.813,226.536,228.538,178.745z"/>
						<path fill="#11514F" d="M228.538,178.745c36.906,47.683,38.975,110.993,6.986,161.812c-2.802-2.03-4.193-3.044-6.986-5.078
							C261.813,287.691,261.813,226.536,228.538,178.745z"/>
					</g>
				</g>
			</g>
		</g>
		<g>
			<g>
				<path fill="#11514F" d="M224.999,200.38c-3.225-3.271-2.393-9.316-2.393-9.316s6.05-0.741,9.271,2.527
					c3.228,3.271,2.396,9.312,2.396,9.312S228.224,203.646,224.999,200.38z"/>
				<path fill="#11514F" d="M224.999,200.38c3.225,3.267,9.275,2.523,9.275,2.523l-11.668-11.84
					C222.606,191.063,221.774,197.109,224.999,200.38z"/>
			</g>
			<g>
				<path fill="#11514F" d="M248.581,186.62c0.831-5.216,7.006-8.568,7.006-8.568s4.812,5.107,3.975,10.323
					c-0.832,5.216-7,8.568-7,8.568S247.749,191.836,248.581,186.62z"/>
				<path fill="#11514F" d="M248.581,186.62c-0.832,5.216,3.981,10.323,3.981,10.323l3.025-18.892
					C255.586,178.052,249.412,181.404,248.581,186.62z"/>
			</g>
			<g>
				<path fill="#11514F" d="M284.226,293.06c-3.712-3.761-2.756-10.714-2.756-10.714s6.966-0.857,10.675,2.906
					c3.707,3.762,2.754,10.716,2.754,10.716S287.932,296.821,284.226,293.06z"/>
				<path fill="#11514F" d="M284.226,293.06c3.706,3.762,10.673,2.908,10.673,2.908l-13.429-13.622
					C281.47,282.346,280.514,289.299,284.226,293.06z"/>
			</g>
			<g>
				<path fill="#11514F" d="M201.371,195.451c-0.18-5.277,5.225-9.749,5.225-9.749s5.71,4.088,5.893,9.366
					c0.184,5.28-5.231,9.751-5.231,9.751S201.551,200.73,201.371,195.451z"/>
				<path fill="#11514F" d="M201.371,195.451c0.18,5.279,5.887,9.368,5.887,9.368l-0.662-19.117
					C206.596,185.702,201.191,190.174,201.371,195.451z"/>
			</g>
			<g>
				<path fill="#11514F" d="M257.335,222.258c-3.847-3.618-3.149-10.604-3.149-10.604s6.927-1.111,10.771,2.511
					c3.843,3.619,3.152,10.605,3.152,10.605S261.181,225.881,257.335,222.258z"/>
				<path fill="#11514F" d="M257.335,222.258c3.846,3.623,10.773,2.512,10.773,2.512l-13.923-13.116
					C254.186,211.653,253.488,218.64,257.335,222.258z"/>
			</g>
			<g>
				<path fill="#11514F" d="M265.624,261.264c-3.173-2.988-2.599-8.754-2.599-8.754s5.722-0.916,8.898,2.071
					c3.169,2.991,2.599,8.755,2.599,8.755S268.799,264.254,265.624,261.264z"/>
				<path fill="#11514F" d="M265.624,261.264c3.175,2.99,8.898,2.072,8.898,2.072l-11.497-10.826
					C263.025,252.51,262.451,258.275,265.624,261.264z"/>
			</g>
			<g>
				<path fill="#11514F" d="M216.808,271.528c-2.848-2.682-2.334-7.856-2.334-7.856s5.133-0.822,7.981,1.858
					c2.841,2.684,2.337,7.855,2.337,7.855S219.659,274.21,216.808,271.528z"/>
				<path fill="#11514F" d="M216.808,271.528c2.852,2.682,7.985,1.857,7.985,1.857l-10.319-9.714
					C214.474,263.672,213.959,268.847,216.808,271.528z"/>
			</g>
			<g>
				<path fill="#11514F" d="M233.102,254.205c0.255-3.188,3.817-5.504,3.817-5.504s3.156,2.854,2.895,6.043
					c-0.256,3.188-3.818,5.504-3.818,5.504S232.849,257.392,233.102,254.205z"/>
				<path fill="#11514F" d="M233.102,254.205c-0.252,3.187,2.894,6.043,2.894,6.043l0.923-11.547
					C236.919,248.701,233.357,251.018,233.102,254.205z"/>
			</g>
			<g>
				<path fill="#11514F" d="M207.749,234.775c0.426-5.266,6.309-9.089,6.309-9.089s5.202,4.71,4.776,9.978
					c-0.418,5.266-6.302,9.09-6.302,9.09S207.33,240.038,207.749,234.775z"/>
				<path fill="#11514F" d="M207.749,234.775c-0.419,5.263,4.783,9.979,4.783,9.979l1.526-19.067
					C214.058,225.687,208.175,229.51,207.749,234.775z"/>
			</g>
			<g>
				<path fill="#11514F" d="M263.07,201.273c0.419-5.264,6.306-9.089,6.306-9.089s5.206,4.713,4.786,9.979
					c-0.426,5.266-6.312,9.088-6.312,9.088S262.648,206.537,263.07,201.273z"/>
				<path fill="#11514F" d="M263.07,201.273c-0.422,5.264,4.78,9.979,4.78,9.979l1.525-19.067
					C269.376,192.185,263.49,196.01,263.07,201.273z"/>
			</g>
			<g>
				<path fill="#11514F" d="M293.399,219.368c3.595-1.448,8.027,1.16,8.027,1.16s-1.388,4.957-4.976,6.407
					c-3.595,1.451-8.041-1.16-8.041-1.16S289.805,220.818,293.399,219.368z"/>
				<path fill="#11514F" d="M293.399,219.368c-3.595,1.45-4.989,6.407-4.989,6.407l13.017-5.247
					C301.427,220.528,296.994,217.92,293.399,219.368z"/>
			</g>
			<g>
				<path fill="#11514F" d="M302.246,201.154c4.897-1.976,10.947,1.579,10.947,1.579s-1.893,6.757-6.793,8.735
					c-4.895,1.975-10.951-1.578-10.951-1.578S297.341,203.129,302.246,201.154z"/>
				<path fill="#11514F" d="M302.246,201.154c-4.905,1.975-6.797,8.736-6.797,8.736l17.744-7.157
					C313.193,202.733,307.143,199.179,302.246,201.154z"/>
			</g>
			<g>
				<path fill="#11514F" d="M276.172,186.674c0.479-5.264,6.408-9.02,6.408-9.02s5.146,4.77,4.672,10.03
					c-0.485,5.26-6.411,9.019-6.411,9.019S275.694,191.934,276.172,186.674z"/>
				<path fill="#11514F" d="M276.172,186.674c-0.478,5.26,4.668,10.029,4.668,10.029l1.739-19.049
					C282.58,177.654,276.65,181.41,276.172,186.674z"/>
			</g>
			<g>
				<path fill="#11514F" d="M285.287,240.592c4.344-1.753,9.707,1.4,9.707,1.4s-1.679,5.99-6.018,7.743
					c-4.344,1.752-9.713-1.4-9.713-1.4S280.946,242.344,285.287,240.592z"/>
				<path fill="#11514F" d="M285.287,240.592c-4.341,1.752-6.024,7.743-6.024,7.743l15.731-6.343
					C294.994,241.992,289.631,238.839,285.287,240.592z"/>
			</g>
			<g>
				<path fill="#11514F" d="M230.653,280.576c0.57-4.648,5.925-7.82,5.925-7.82s4.433,4.364,3.86,9.013
					c-0.566,4.649-5.916,7.821-5.916,7.821S230.089,285.226,230.653,280.576z"/>
				<path fill="#11514F" d="M230.653,280.576c-0.563,4.649,3.87,9.014,3.87,9.014l2.056-16.834
					C236.578,272.756,231.223,275.928,230.653,280.576z"/>
			</g>
			<g>
				<path fill="#11514F" d="M194.618,234.438c5.438-0.527,10.401,4.769,10.401,4.769s-3.856,6.151-9.288,6.68
					c-5.438,0.53-10.401-4.767-10.401-4.767S189.18,234.967,194.618,234.438z"/>
				<path fill="#11514F" d="M194.618,234.438c-5.438,0.528-9.288,6.682-9.288,6.682l19.688-1.913
					C205.019,239.207,200.055,233.911,194.618,234.438z"/>
			</g>
			<g>
				<path fill="#11514F" d="M315.203,245.455c4.897-1.977,10.947,1.579,10.947,1.579s-1.892,6.758-6.79,8.735
					c-4.897,1.976-10.951-1.58-10.951-1.58S310.306,247.431,315.203,245.455z"/>
				<path fill="#11514F" d="M315.203,245.455c-4.897,1.976-6.793,8.734-6.793,8.734l17.741-7.155
					C326.15,247.034,320.101,243.479,315.203,245.455z"/>
			</g>
			<g>
				<path fill="#11514F" d="M200.756,269.425c4.901-1.976,10.954,1.582,10.954,1.582s-1.895,6.757-6.79,8.734
					c-4.897,1.974-10.951-1.58-10.951-1.58S195.865,271.401,200.756,269.425z"/>
				<path fill="#11514F" d="M200.756,269.425c-4.891,1.977-6.787,8.736-6.787,8.736l17.741-7.154
					C211.71,271.007,205.657,267.449,200.756,269.425z"/>
			</g>
			<g>
				<path fill="#11514F" d="M260.608,290.185c-0.53-5.257,4.566-10.076,4.566-10.076s5.962,3.702,6.499,8.958
					c0.53,5.256-4.577,10.076-4.577,10.076S261.136,295.44,260.608,290.185z"/>
				<path fill="#11514F" d="M260.608,290.185c0.527,5.256,6.489,8.958,6.489,8.958l-1.922-19.034
					C265.175,280.108,260.078,284.928,260.608,290.185z"/>
			</g>
			<g>
				<path fill="#11514F" d="M302.906,281.148c-4.786-2.234-6.312-9.086-6.312-9.086s6.233-3.225,11.02-0.989
					c4.786,2.237,6.312,9.087,6.312,9.087S307.696,283.387,302.906,281.148z"/>
				<path fill="#11514F" d="M302.906,281.15c4.79,2.236,11.02-0.99,11.02-0.99l-17.332-8.098
					C296.595,272.062,298.12,278.914,302.906,281.15z"/>
			</g>
			<g>
				<path fill="#11514F" d="M305.159,230.989c3.117-3.485,9.331-3.022,9.331-3.022s1.133,6.119-1.99,9.606
					c-3.13,3.485-9.334,3.022-9.334,3.022S302.029,234.479,305.159,230.989z"/>
				<path fill="#11514F" d="M305.159,230.989c-3.129,3.489-1.994,9.606-1.994,9.606l11.324-12.629
					C314.489,227.967,308.275,227.504,305.159,230.989z"/>
			</g>
			<g>
				<path fill="#11514F" d="M229.265,225.836c2.678-3.844,8.892-4.143,8.892-4.143s1.873,5.934-0.798,9.774
					c-2.679,3.846-8.898,4.144-8.898,4.144S226.586,229.679,229.265,225.836z"/>
				<path fill="#11514F" d="M229.265,225.836c-2.678,3.843-0.805,9.775-0.805,9.775l9.697-13.918
					C238.156,221.693,231.942,221.992,229.265,225.836z"/>
			</g>
			<g>
				<path fill="#11514F" d="M280.363,205.403c1.932-3.362,7.032-4.059,7.032-4.059s1.978,4.756,0.046,8.118
					c-1.925,3.362-7.032,4.055-7.032,4.055S278.438,208.762,280.363,205.403z"/>
				<path fill="#11514F" d="M280.363,205.403c-1.925,3.358,0.046,8.114,0.046,8.114l6.986-12.173
					C287.395,201.345,282.294,202.041,280.363,205.403z"/>
			</g>
			<g>
				<path fill="#11514F" d="M294.191,252.243c2.724-2.755,7.834-2.122,7.834-2.122s0.698,5.099-2.029,7.858
					c-2.724,2.753-7.834,2.125-7.834,2.125S291.468,255,294.191,252.243z"/>
				<path fill="#11514F" d="M294.191,252.243c-2.724,2.757-2.03,7.861-2.03,7.861l9.864-9.983
					C302.025,250.121,296.915,249.488,294.191,252.243z"/>
			</g>
			<g>
				<path fill="#11514F" d="M205.811,225.426c-2.995,2.524-8.072,1.425-8.072,1.425s-0.236-5.193,2.75-7.716
					c2.996-2.525,8.08-1.428,8.08-1.428S208.797,222.902,205.811,225.426z"/>
				<path fill="#11514F" d="M205.811,225.426c2.986-2.523,2.757-7.719,2.757-7.719l-10.829,9.144
					C197.738,226.851,202.815,227.95,205.811,225.426z"/>
			</g>
			<g>
				<path fill="#11514F" d="M191.603,210.996c-5.147-1.197-8.061-7.585-8.061-7.585s5.435-4.443,10.575-3.249
					c5.146,1.196,8.056,7.582,8.056,7.582S196.743,212.191,191.603,210.996z"/>
				<path fill="#11514F" d="M191.603,210.996c5.14,1.195,10.571-3.252,10.571-3.252l-18.631-4.333
					C183.542,203.411,186.456,209.799,191.603,210.996z"/>
			</g>
			<g>
				<path fill="#11514F" d="M234.339,176.178c0.832-5.215,7-8.568,7-8.568s4.819,5.107,3.981,10.322
					c-0.832,5.218-7.003,8.567-7.003,8.567S233.504,181.393,234.339,176.178z"/>
				<path fill="#11514F" d="M234.339,176.178c-0.835,5.215,3.978,10.321,3.978,10.321l3.022-18.89
					C241.339,167.609,235.17,170.963,234.339,176.178z"/>
			</g>
			<g>
				<path fill="#11514F" d="M219.123,184.17c-4-1.807-5.343-7.482-5.343-7.482s5.14-2.746,9.144-0.94
					c3.997,1.812,5.34,7.487,5.34,7.487S223.12,185.978,219.123,184.17z"/>
				<path fill="#11514F" d="M219.123,184.17c3.997,1.808,9.141-0.936,9.141-0.936l-14.484-6.547
					C213.779,176.688,215.122,182.363,219.123,184.17z"/>
			</g>
			<g>
				<path fill="#11514F" d="M199.221,250.972c5.268-0.451,10.008,4.728,10.008,4.728s-3.798,5.904-9.062,6.354
					c-5.265,0.447-9.998-4.729-9.998-4.729S193.959,251.42,199.221,250.972z"/>
				<path fill="#11514F" d="M199.221,250.972c-5.261,0.448-9.052,6.353-9.052,6.353l19.06-1.625
					C209.229,255.699,204.488,250.521,199.221,250.972z"/>
			</g>
		</g>
	</g>
	<path fill="none" stroke="#FFFFFF" stroke-width="7" stroke-miterlimit="10" stroke-dasharray="5,7" d="M367.236,247.688
		c0,65.856-53.387,119.242-119.243,119.242c-65.856,0-119.243-53.386-119.243-119.242s53.387-119.243,119.243-119.243
		C313.849,128.444,367.236,181.831,367.236,247.688"/>
	<g>
		<path fill="#FFFFFF" d="M152.858,129.87c-0.48-0.039-0.866-0.241-1.159-0.61l-4.144-5.439c-1.791-2.479-3.153-4.308-4.089-5.485
			c-0.848-1.066-2.271-2.518-4.269-4.35c-2.005-1.768-3.461-3.223-4.367-4.362c-1.111-1.398-2.586-2.838-4.424-4.318
			c-1.837-1.479-3.727-2.802-5.667-3.959c-1.846-1.114-3.695-2.421-5.547-3.922c-1.853-1.498-3.319-2.929-4.401-4.291
			c-0.205-0.256-0.233-0.593-0.085-1.013c0.148-0.417,0.389-0.758,0.719-1.02c0.405-0.322,1.127-0.206,2.167,0.347
			c1.202,0.606,2.691,1.613,4.471,3.02c1.779,1.408,2.836,2.249,3.174,2.521l3.744,3.237l2.481,1.989
			c-0.357-0.676-0.879-1.521-1.566-2.536c-2.206-3.229-3.948-5.986-5.225-8.274c-0.854-1.602-1.407-2.902-1.661-3.901
			c-0.275-1.101-0.156-1.856,0.359-2.267c0.994-0.79,1.636-1,1.928-0.633c1.667,2.098,3.681,5.539,6.043,10.323
			c2.364,4.786,4.394,8.246,6.088,10.379l0.591,0.97c0.365,0.611,0.609,0.957,0.734,1.037l0.702,0.884
			c1.257,1.581,3.242,3.966,5.955,7.151l5.944,7.252l1.119,1.182l1.164,1.237l1.096,1.379c0.35,0.441,0.466,0.966,0.347,1.569
			c-0.121,0.604-0.438,1.113-0.952,1.522C153.763,129.781,153.339,129.906,152.858,129.87z"/>
		<path fill="#FFFFFF" d="M168.496,119.178c-1.322-0.197-2.679-0.729-4.07-1.595c-2.471-1.48-5.119-3.949-7.947-7.406
			c-1.969-2.382-4.077-5.228-6.325-8.539l-1.974-3.172l-1.951-3.27c-0.666-1.024-1.444-2.283-2.335-3.777
			c-1.445-2.421-2.62-4.62-3.525-6.598c-0.995-2.033-1.734-4.19-2.22-6.474c-0.341-2.039-0.111-3.764,0.69-5.173
			c0.534-0.755,1.164-1.35,1.891-1.783c2.138-1.276,4.339-1.439,6.602-0.491c2.503,1.079,4.675,2.657,6.516,4.731
			c2.33,2.441,4.306,4.93,5.928,7.463c1.871,2.771,3.564,5.425,5.081,7.968l2.058,3.45c0.409,0.688,1.078,2.038,2.008,4.055
			c0.729,1.59,1.407,2.909,2.033,3.959l0.144,0.241c0.432,1.275,1.105,2.68,2.02,4.212c0.675,1.131,1.13,2.446,1.368,3.945
			c0.239,1.5,0.166,2.938-0.216,4.314c-0.311,1.499-1.031,2.586-2.161,3.259C171.022,119.148,169.816,119.375,168.496,119.178z
			 M170.969,111.628c-0.31-1.62-0.926-3.454-1.847-5.505c-0.922-2.048-2.024-4.333-3.307-6.85c-0.545-1.099-1.311-2.474-2.298-4.13
			l-3.382-5.532c-1.381-2.132-3.248-4.71-5.601-7.739c-1.985-2.592-4.058-4.692-6.222-6.303c-1.005-0.768-1.979-1.253-2.921-1.457
			c-0.942-0.205-1.757-0.102-2.443,0.307c-1.009,0.602-1.286,1.834-0.832,3.696c0.382,2.018,1.061,4.075,2.039,6.172
			c1.034,2.284,2.107,4.405,3.223,6.367l1.131,2.033c0.297,0.591,0.733,1.368,1.312,2.337l0.144,0.242
			c1.613,2.704,3.88,5.865,6.806,9.483c3.847,4.983,7.07,8.231,9.669,9.744c1.65,0.932,2.918,1.132,3.807,0.602
			C171.054,114.615,171.294,113.459,170.969,111.628z"/>
		<path fill="#FFFFFF" d="M187.182,105.771c-2.651-1.734-5.015-4.214-7.09-7.438c-2.248-3.408-4.316-7.189-6.203-11.347
			c-1.732-3.761-3.483-7.896-5.254-12.401l-2.14-5.444c-0.559-1.547-1.172-3.175-1.843-4.88c-0.488-0.212-0.835-0.581-1.041-1.106
			s-0.194-1.071,0.036-1.643c0.23-0.569,0.585-0.949,1.067-1.138c1.574-0.62,2.972,0.623,4.193,3.729
			c0.791,2.012,2.396,5.773,4.815,11.285c2.419,5.513,4.025,9.274,4.815,11.286c0.442,0.483,1.097,1.538,1.965,3.167
			c0.867,1.627,1.516,2.989,1.946,4.081c0.378,0.963,0.999,2.095,1.864,3.396c0.865,1.301,1.865,2.561,3.001,3.78
			c1.17,1.309,2.408,2.272,3.713,2.895c1.305,0.624,2.46,0.737,3.467,0.343c0.612-0.241,1.048-0.639,1.31-1.197
			c0.26-0.557,0.311-1.231,0.149-2.028c-0.219-1.327-0.561-2.581-1.025-3.763l-5.029-12.791c-0.636-1.618-1.598-3.614-2.884-5.986
			c-1.346-2.651-2.293-4.678-2.844-6.077l-0.18-0.46c-0.275-0.698-0.547-1.323-0.813-1.876l-0.813-1.876
			c-0.482-1.225-1.278-3.059-2.39-5.5c-1.053-2.162-1.879-4.008-2.48-5.539c-0.189-0.479-0.101-0.994,0.265-1.542
			c0.365-0.547,0.854-0.941,1.466-1.183l2.233,0.863l0.438,1.116c0.207,0.524,0.368,1.194,0.486,2.005
			c0.307,1.293,0.494,2.028,0.563,2.203c1.564,3.979,3.941,9.383,7.129,16.208c3.282,7.191,5.723,12.822,7.321,16.89
			c0.86,2.187,1.397,4.197,1.614,6.031c0.133,1.109,0.09,2.059-0.128,2.852c-0.218,0.794-0.636,1.563-1.25,2.311
			c-0.572,0.729-1.448,1.326-2.629,1.791C192.291,107.853,189.685,107.513,187.182,105.771z"/>
		<path fill="#FFFFFF" d="M219.333,99.135c-0.806-0.31-1.249-0.744-1.331-1.302s-0.008-1.032,0.219-1.421
			c0.228-0.39,0.597-0.622,1.109-0.696c0.464-0.069,1.166,0.018,2.104,0.26c1.032,0.23,1.662,0.327,1.895,0.292
			c0.883-0.129,1.629-0.631,2.238-1.503c0.607-0.873,1.029-1.968,1.264-3.284c0.495-2.448,0.606-4.602,0.333-6.462
			c-0.293-1.999-0.916-4.057-1.867-6.174c-0.952-2.115-2.117-4.142-3.492-6.076l-1.444-2.069c-1.503-2.153-2.667-3.858-3.493-5.115
			c-0.826-1.255-1.587-2.641-2.284-4.153c-1.025-2.129-1.691-4.239-1.998-6.333c-0.246-1.674-0.188-3.296,0.176-4.87
			c0.362-1.572,1.05-2.956,2.062-4.148c0.998-1.287,2.357-2.057,4.078-2.309c0.837-0.124,1.686,0.001,2.549,0.373
			c0.862,0.373,1.51,0.908,1.945,1.604l-0.971,1.639c-1.209,0.178-2.15,0.078-2.822-0.299c-0.823,0.217-1.496,0.73-2.018,1.542
			c-0.521,0.814-0.878,1.709-1.067,2.687c-0.149,0.924-0.159,1.829-0.029,2.712c0.259,1.767,0.768,3.533,1.525,5.296
			c0.759,1.767,1.65,3.404,2.681,4.916l6.314,9.047c1.036,1.559,1.94,3.35,2.711,5.373c0.772,2.023,1.312,4.082,1.619,6.175
			c0.45,3.068,0.129,6.062-0.963,8.975c-0.586,1.511-1.446,2.767-2.583,3.763c-1.136,0.998-2.471,1.61-4.005,1.836
			C222.116,99.652,220.63,99.561,219.333,99.135z"/>
		<path fill="#FFFFFF" d="M243.187,95.429c-0.416-0.671-0.635-1.5-0.659-2.487c-0.037-1.55,0.011-3.454,0.145-5.715l0.097-1.836
			l0.051-3.738c-0.039-1.644-0.292-5.304-0.757-10.981c-0.466-5.675-0.717-9.334-0.757-10.98c-0.003-0.141,0.001-0.41,0.016-0.811
			c0.013-0.4,0.01-1.022-0.01-1.868c0.024-0.941,0.02-2.092-0.013-3.456c-0.082-3.428-0.371-5.607-0.862-6.536
			c-0.281,0.007-0.891,0.093-1.827,0.256l-1.969,0.188c-0.612,0.016-1.156-0.149-1.634-0.49c-0.479-0.341-0.724-0.793-0.738-1.357
			c-0.013-0.562,0.539-1.07,1.656-1.52c1.63-0.604,4.417-1.069,8.357-1.399c1.594-0.132,2.557-0.202,2.886-0.211
			c0.563-0.013,1.084,0.163,1.564,0.527c0.478,0.365,0.725,0.828,0.738,1.392c0.014,0.564-0.176,1.027-0.566,1.39
			c-0.391,0.361-0.892,0.55-1.502,0.564l-1.271-0.04c-0.377-0.037-0.8-0.052-1.27-0.04l-0.705,0.018
			c0.405,3.187,0.639,6.072,0.702,8.655l0.038,4.512c-0.015,1.364-0.001,2.89,0.04,4.582c0.054,2.254,0.213,4.954,0.477,8.097
			c0.328,3.895,0.511,6.593,0.547,8.096c0.043,1.786,0.188,3.897,0.434,6.335c0.248,2.486,0.393,4.598,0.434,6.336
			c0.056,2.303-0.599,3.469-1.96,3.501C244.163,96.428,243.602,96.1,243.187,95.429z"/>
		<path fill="#FFFFFF" d="M267.409,96.624c-0.323-0.316-0.451-0.801-0.386-1.457l0.918-9.188c-0.566-0.48-1.674-0.97-3.325-1.465
			c-1.65-0.495-3.22-0.864-4.706-1.108c-0.613,0.931-1.106,2.086-1.48,3.465l-0.42,1.375c-0.08,0.322-0.292,1.033-0.638,2.132
			c-0.347,1.1-0.7,2.045-1.062,2.835s-0.708,1.405-1.035,1.845c-1.778-0.179-2.759-0.748-2.946-1.712
			c0.589-0.695,1.393-2.836,2.413-6.419l3.597-12.604c1.635-5.975,3.1-11.071,4.396-15.287c1.294-4.215,2.578-7.723,3.85-10.524
			c1.397-3.119,2.588-4.63,3.569-4.531c0.982,0.099,1.711,0.36,2.188,0.786c-0.187,1.871-0.193,6.426-0.019,13.67
			c0.234,7.107,0.222,11.946-0.034,14.519c-0.248,2.479-0.346,6.057-0.293,10.737c-0.005,4.771-0.146,8.558-0.427,11.363
			c-0.159,1.59-1.01,2.307-2.553,2.153C268.267,97.135,267.731,96.939,267.409,96.624z M268.299,81.694
			c0.065-2.071,0.084-4.643,0.062-7.716c-0.021-10.673,0.089-17.205,0.328-19.589l0.055-0.562c-0.514,0.421-1.37,2.474-2.562,6.155
			c-1.195,3.683-2.357,7.64-3.488,11.871c-1.132,4.232-1.792,7.047-1.977,8.445c1.908,0.757,3.959,1.245,6.158,1.465
			C267.248,81.802,267.723,81.778,268.299,81.694z"/>
		<path fill="#FFFFFF" d="M288.31,100.005l0.05-0.207c0.449-2.452,0.69-5.247,0.725-8.382c0.034-3.133-0.104-6.962-0.41-11.484
			c-0.242-3.396-0.401-6.432-0.478-9.11l-6.537,26.992c-0.177,0.731-0.434,1.238-0.767,1.52c-0.334,0.281-0.868,0.333-1.598,0.156
			c-0.548-0.132-0.941-0.408-1.177-0.828c-0.237-0.42-0.289-0.904-0.155-1.451l0.132-0.549l5.014-20.108
			c1.529-5.915,3.195-12.595,4.998-20.04l2.041-8.427c0.132-0.548,0.337-0.896,0.616-1.048c0.278-0.15,0.782-0.136,1.513,0.041
			c1.142,0.275,2.14,0.749,2.995,1.414c0.853,0.667,1.529,1.471,2.026,2.412c1.028,1.941,1.478,4.082,1.347,6.418
			c-0.039,0.959-0.201,2.03-0.489,3.219c-0.166,0.685-0.405,1.425-0.718,2.219c-0.314,0.794-0.521,1.301-0.622,1.518
			c-0.203,0.435-0.574,1.07-1.114,1.905c-0.542,0.838-0.891,1.381-1.048,1.633l-1.286,1.72l-1.117,1.615
			c-0.354,1.654-0.571,3.803-0.653,6.441c-0.083,2.64-0.066,5.109,0.054,7.41c0.091,1.618,0.305,4.329,0.642,8.133l0.527,6.511
			l-0.033,0.137c-0.188,0.776-0.417,1.423-0.688,1.937c-0.313,0.697-0.882,0.947-1.704,0.748
			C289.529,102.259,288.834,101.437,288.31,100.005z M291.783,65.598l2.455-5.643c0.1-0.217,0.201-0.532,0.301-0.942
			c0.321-1.324,0.439-2.915,0.358-4.773c-0.075-0.888-0.261-1.67-0.556-2.347c-0.297-0.675-0.667-1.092-1.111-1.248l-1.796,6.818
			c-0.879,3.027-1.522,5.386-1.931,7.074c-0.388,1.6-0.619,2.655-0.695,3.168C289.601,67.222,290.592,66.519,291.783,65.598z"/>
		<path fill="#FFFFFF" d="M299.72,104.386c-0.137-0.777-0.033-1.63,0.312-2.555c0.54-1.453,1.291-3.204,2.254-5.252l0.771-1.669
			l1.435-3.452c0.573-1.541,1.697-5.035,3.371-10.479c1.674-5.442,2.798-8.936,3.372-10.478c0.05-0.132,0.154-0.381,0.315-0.747
			c0.161-0.365,0.39-0.945,0.685-1.738c0.371-0.865,0.794-1.936,1.27-3.213c1.196-3.214,1.736-5.345,1.625-6.39
			c-0.265-0.099-0.862-0.246-1.792-0.441l-1.899-0.557c-0.573-0.213-1.019-0.565-1.335-1.06c-0.318-0.494-0.378-1.006-0.182-1.534
			c0.197-0.529,0.897-0.795,2.103-0.797c1.737,0.044,4.497,0.646,8.279,1.801c1.53,0.47,2.45,0.762,2.758,0.876
			c0.529,0.195,0.947,0.553,1.258,1.068c0.308,0.518,0.365,1.04,0.168,1.567c-0.197,0.528-0.544,0.888-1.041,1.08
			c-0.498,0.189-1.033,0.18-1.605-0.034l-1.165-0.509c-0.337-0.174-0.725-0.344-1.165-0.507l-0.661-0.247
			c-0.807,3.11-1.66,5.877-2.561,8.299l-1.639,4.204c-0.52,1.261-1.073,2.684-1.663,4.269c-0.787,2.114-1.642,4.681-2.562,7.696
			c-1.141,3.738-1.972,6.312-2.496,7.721c-0.623,1.674-1.272,3.688-1.947,6.044c-0.693,2.4-1.343,4.415-1.948,6.044
			c-0.803,2.159-1.843,3-3.12,2.524C300.256,105.676,299.856,105.163,299.72,104.386z"/>
		<path fill="#FFFFFF" d="M313.452,110.743c-0.605-0.572-0.662-1.341-0.17-2.303L331.9,71.962c0.363-0.709,0.782-1.841,1.257-3.393
			c0.369-1.446,0.767-2.59,1.195-3.427l0.097-0.188c1.309-0.808,2.216-1.295,2.723-1.459c0.586,0.299,1.402,0.61,2.452,0.935
			c0.964,0.281,1.78,0.593,2.451,0.935c0.669,0.342,1.217,0.872,1.642,1.59c0.424,0.719,0.498,1.351,0.221,1.894
			c-0.641,1.255-1.924,1.392-3.849,0.409l-0.879-0.449c-0.23-0.169-0.512-0.34-0.847-0.511c-0.376-0.191-0.618-0.289-0.723-0.289
			c-0.726,1.422-1.519,3.181-2.376,5.275l-0.771,1.822l-1.638,3.517c-0.405,0.797-1.088,1.977-2.046,3.545l-1.92,3.452l0.975,0.26
			c0.965,0.177,1.72,0.404,2.264,0.682c0.46,0.235,0.788,0.628,0.983,1.175c0.195,0.548,0.175,1.052-0.06,1.512
			c-0.256,0.503-0.643,0.873-1.16,1.111c-0.517,0.237-1.006,0.238-1.466,0.002l-0.722-0.446l-0.816-0.416
			c-0.628-0.321-1.143-0.398-1.543-0.234l-9.902,19.4l3.612,1.606c2.386,1.217,3.3,2.37,2.746,3.458l-0.128,0.252
			c-0.508,0.374-1.177,0.547-2.006,0.519c-0.83-0.027-1.58-0.161-2.25-0.396l-2.104-0.994l-1.946-0.993
			C314.568,111.708,313.932,111.251,313.452,110.743z"/>
		<path fill="#FFFFFF" d="M329.021,118.493c-0.315-0.737-0.256-1.413,0.176-2.029c1.439-0.252,3.442-2.204,6.008-5.857
			c1.539-2.193,3.607-5.506,6.205-9.94c2.423-4.271,4.446-7.56,6.065-9.866l2.343-3.093c0.686-0.896,1.449-1.939,2.286-3.132
			c0.756-1.076,1.521-2.577,2.299-4.501c0.754-2.056,1.374-3.429,1.86-4.12c0.945-1.346,2.897-0.98,5.86,1.099l0.865,0.608
			c2.077,1.459,3.438,3.362,4.086,5.712c0.474,1.94,0.418,4.228-0.166,6.859c-0.395,1.79-1.246,4.064-2.551,6.821
			c-1.281,2.317-2.354,4.09-3.218,5.32l-1.297,1.846l-1.903,2.712c-0.186,0.1-0.332,0.228-0.439,0.38
			c-0.217,0.309-0.359,0.553-0.428,0.732c-0.071,0.182-0.186,0.387-0.348,0.618c-0.864,1.231-2.081,2.574-3.646,4.028
			c-1.568,1.454-3.318,2.824-5.252,4.107c-4.701,3.016-8.75,4.65-12.145,4.908c-1.972,0.108-3.65-0.324-5.034-1.296
			C329.876,119.87,329.334,119.231,329.021,118.493z M340.651,116.712c2.25-0.917,4.38-2.191,6.389-3.826
			c3.684-3.039,6.877-6.481,9.578-10.328c1.458-2.076,2.858-4.48,4.203-7.211c1.25-2.683,1.859-5.47,1.825-8.366
			c-0.006-1.382-0.326-2.685-0.962-3.904c-0.636-1.222-1.587-2.277-2.856-3.17l-0.041,0.059c-2.431,3.461-5.872,8.854-10.326,16.177
			c-4.426,7.286-7.895,12.717-10.406,16.293l-3.848,5.48C336.25,118.029,338.398,117.629,340.651,116.712z"/>
	</g>
	<g>
		<path fill="#FFFFFF" d="M120.528,411.723c-0.087-0.525,0.025-0.992,0.34-1.404l4.702-5.896c2.167-2.582,3.756-4.531,4.764-5.85
			c0.911-1.193,2.079-3.105,3.501-5.736c1.35-2.619,2.514-4.567,3.49-5.844c1.194-1.564,2.336-3.529,3.425-5.894
			c1.088-2.363,1.992-4.739,2.708-7.126c0.693-2.274,1.592-4.604,2.698-6.988c1.104-2.385,2.238-4.337,3.402-5.861
			c0.219-0.287,0.572-0.409,1.061-0.363c0.485,0.046,0.915,0.211,1.286,0.493c0.452,0.347,0.522,1.15,0.211,2.412
			c-0.325,1.448-1,3.312-2.025,5.594c-1.026,2.282-1.639,3.638-1.84,4.071l-2.452,4.876l-1.46,3.189
			c0.627-0.563,1.391-1.351,2.292-2.358c2.857-3.229,5.338-5.833,7.439-7.814c1.483-1.345,2.726-2.287,3.725-2.828
			c1.103-0.59,1.944-0.666,2.521-0.226c1.113,0.851,1.511,1.481,1.195,1.892c-1.792,2.348-4.93,5.429-9.41,9.244
			c-4.481,3.814-7.634,6.917-9.459,9.305l-0.877,0.894c-0.555,0.555-0.858,0.909-0.912,1.064l-0.756,0.988
			c-1.353,1.771-3.368,4.536-6.044,8.294l-6.153,8.309l-0.962,1.516l-1.01,1.576l-1.18,1.545c-0.377,0.493-0.907,0.758-1.585,0.793
			c-0.679,0.035-1.308-0.167-1.883-0.607C120.868,412.666,120.619,412.246,120.528,411.723z"/>
		<path fill="#FFFFFF" d="M143.366,427.577c-0.536-1.372-0.772-2.96-0.707-4.768c0.061-3.176,0.969-7.063,2.725-11.665
			c1.199-3.189,2.765-6.768,4.698-10.734l1.952-3.629l2.058-3.658c0.614-1.199,1.392-2.635,2.332-4.307
			c1.524-2.71,2.983-5.041,4.377-6.992c1.399-2.066,3.057-3.957,4.975-5.674c1.763-1.445,3.539-2.17,5.326-2.177
			c1.017,0.097,1.931,0.372,2.744,0.829c2.393,1.346,3.757,3.361,4.09,6.047c0.342,2.986,0.024,5.93-0.951,8.828
			c-1.056,3.567-2.352,6.822-3.886,9.764c-1.624,3.31-3.235,6.387-4.834,9.231l-2.172,3.862c-0.432,0.769-1.359,2.149-2.777,4.146
			c-1.122,1.569-2.012,2.941-2.672,4.116l-0.151,0.271c-0.983,1.112-1.957,2.526-2.922,4.243c-0.711,1.266-1.719,2.422-3.023,3.473
			c-1.303,1.051-2.719,1.77-4.246,2.16c-1.603,0.524-3.038,0.432-4.302-0.279C144.781,429.979,143.901,428.949,143.366,427.577z
			 M151.943,425.803c1.381-1.187,2.798-2.781,4.254-4.787c1.453-2.006,3.034-4.314,4.739-6.922c0.75-1.123,1.646-2.611,2.687-4.463
			l3.438-6.271c1.28-2.49,2.724-5.691,4.33-9.604c1.391-3.32,2.262-6.455,2.615-9.409c0.184-1.382,0.115-2.581-0.207-3.595
			c-0.323-1.013-0.867-1.736-1.635-2.168c-1.13-0.635-2.46-0.224-3.993,1.232c-1.719,1.473-3.313,3.25-4.784,5.337
			c-1.619,2.241-3.058,4.433-4.323,6.575l-1.325,2.197c-0.401,0.608-0.905,1.453-1.515,2.537l-0.153,0.271
			c-1.702,3.026-3.482,6.93-5.337,11.713c-2.657,6.413-3.995,11.279-4.017,14.596c0.014,2.088,0.519,3.412,1.512,3.971
			C149.134,427.521,150.371,427.117,151.943,425.803z"/>
		<path fill="#FFFFFF" d="M174.399,438.546c-0.94-3.364-1.102-7.139-0.48-11.321c0.609-4.46,1.64-9.1,3.094-13.919
			c1.295-4.38,2.845-9.081,4.647-14.105l2.178-6.072c0.661-1.69,1.334-3.485,2.017-5.388c-0.251-0.531-0.271-1.088-0.061-1.674
			c0.21-0.585,0.618-1.029,1.223-1.337c0.606-0.306,1.176-0.362,1.713-0.169c1.755,0.629,2.012,2.676,0.771,6.139
			c-0.806,2.244-2.207,6.531-4.202,12.861c-1.997,6.332-3.396,10.619-4.201,12.861c0.017,0.723-0.207,2.074-0.67,4.055
			c-0.462,1.98-0.912,3.582-1.351,4.8c-0.385,1.074-0.69,2.464-0.918,4.171c-0.228,1.709-0.313,3.48-0.256,5.318
			c0.021,1.935,0.348,3.635,0.979,5.1c0.63,1.464,1.506,2.397,2.629,2.801c0.682,0.244,1.333,0.23,1.955-0.043
			c0.621-0.271,1.153-0.797,1.597-1.573c0.783-1.26,1.41-2.55,1.882-3.867l5.118-14.267c0.648-1.803,1.299-4.158,1.956-7.061
			c0.81-3.178,1.495-5.547,2.056-7.107l0.183-0.514c0.28-0.779,0.509-1.496,0.689-2.146l0.688-2.148
			c0.489-1.365,1.161-3.465,2.012-6.298c0.696-2.558,1.351-4.688,1.963-6.397c0.193-0.535,0.64-0.898,1.341-1.088
			c0.701-0.189,1.392-0.16,2.076,0.084l1.225,2.339l-0.446,1.243c-0.209,0.586-0.562,1.259-1.053,2.018
			c-0.687,1.297-1.063,2.041-1.133,2.236c-1.592,4.439-3.544,10.648-5.857,18.626c-2.501,8.352-4.564,14.796-6.191,19.332
			c-0.875,2.439-1.889,4.498-3.042,6.177c-0.694,1.017-1.421,1.774-2.178,2.273c-0.758,0.5-1.663,0.834-2.715,1.008
			c-1.006,0.189-2.166,0.049-3.482-0.424C177.127,443.984,175.21,441.81,174.399,438.546z"/>
		<path fill="#FFFFFF" d="M214.355,450.993l0.044-0.229c0.362-2.727,0.477-5.816,0.345-9.271c-0.132-3.454-0.489-7.662-1.072-12.628
			c-0.45-3.727-0.788-7.062-1.018-10.007l-5.741,30.082c-0.156,0.815-0.411,1.386-0.763,1.715c-0.353,0.328-0.937,0.414-1.751,0.26
			c-0.61-0.117-1.06-0.4-1.342-0.851c-0.283-0.45-0.366-0.979-0.25-1.591l0.116-0.611l4.438-22.418
			c1.364-6.596,2.838-14.043,4.422-22.341l1.792-9.392c0.117-0.61,0.323-1.006,0.622-1.187c0.297-0.181,0.854-0.193,1.668-0.038
			c1.272,0.243,2.397,0.709,3.374,1.396s1.765,1.537,2.362,2.547c1.238,2.084,1.849,4.416,1.831,6.997
			c0.008,1.058-0.112,2.247-0.365,3.57c-0.146,0.763-0.37,1.591-0.672,2.483c-0.302,0.892-0.503,1.46-0.602,1.705
			c-0.201,0.489-0.575,1.209-1.125,2.159c-0.551,0.95-0.906,1.567-1.065,1.854l-1.324,1.962l-1.144,1.84
			c-0.299,1.841-0.422,4.22-0.371,7.13c0.05,2.912,0.205,5.631,0.461,8.16c0.187,1.775,0.569,4.751,1.146,8.923l0.932,7.141
			l-0.029,0.153c-0.166,0.865-0.382,1.589-0.651,2.17c-0.309,0.785-0.921,1.091-1.837,0.916
			C215.82,453.408,215.01,452.542,214.355,450.993z M216.323,412.91l2.398-6.348c0.098-0.244,0.192-0.596,0.28-1.055
			c0.282-1.475,0.327-3.233,0.137-5.275c-0.131-0.975-0.377-1.824-0.739-2.555c-0.363-0.729-0.793-1.166-1.292-1.314l-1.609,7.605
			c-0.805,3.382-1.386,6.014-1.745,7.897c-0.34,1.782-0.539,2.956-0.595,3.526C214.007,414.816,215.061,413.988,216.323,412.91z"/>
		<path fill="#FFFFFF" d="M248.218,450.15c-0.123-6.01-0.594-15.614-1.41-28.814c-0.816-13.199-1.465-20.156-1.947-20.873
			c-0.029-1.449,0.517-2.576,1.641-3.377c0.409-0.268,0.987-0.499,1.735-0.696c0.746-0.196,1.433-0.302,2.054-0.315
			c0.31-0.057,0.957-0.098,1.941-0.117c1.19-0.025,2.05,0.152,2.576,0.53c0.525,0.378,0.799,1.06,0.82,2.043
			c0.012,0.571-0.188,1.003-0.596,1.295c-0.41,0.294-0.925,0.446-1.546,0.46l-0.778-0.062l-1.088,0.023
			c-1.451,0.029-2.169,0.33-2.158,0.899c0.055,2.694,0.309,6.214,0.762,10.558c0.386,3.621,0.663,7.061,0.834,10.322
			c0.361-0.109,1.044-0.293,2.05-0.547c1.005-0.254,1.766-0.387,2.285-0.396c0.569-0.013,1.066,0.225,1.492,0.707
			c0.424,0.484,0.643,1.036,0.656,1.658c0.016,0.727-0.311,1.25-0.978,1.575c-0.104,0.055-0.346,0.176-0.731,0.364
			c-0.384,0.19-0.887,0.317-1.509,0.381c-0.465,0.062-1.24,0.156-2.325,0.281l-0.855,0.018c0.064,3.109,0.41,7.326,1.038,12.651
			c0.582,5.586,0.902,9.805,0.961,12.653l-0.071,0.312l-0.075,0.156c0.056,0.207,0.089,0.543,0.099,1.01
			c0.014,0.674-0.208,1.209-0.667,1.607c-0.458,0.398-1.075,0.605-1.853,0.621C249.071,455.109,248.287,453.467,248.218,450.15z"/>
		<path fill="#FFFFFF" d="M278.35,453.552c-1.275-0.738-2.451-1.833-3.525-3.286c-1.932-2.521-3.646-6.129-5.141-10.821
			c-1.051-3.241-2.057-7.016-3.018-11.322l-0.736-4.054l-0.672-4.145c-0.267-1.32-0.554-2.928-0.86-4.82
			c-0.498-3.069-0.81-5.801-0.936-8.195c-0.193-2.488-0.076-5,0.353-7.538c0.479-2.229,1.415-3.903,2.808-5.022
			c0.855-0.558,1.743-0.912,2.663-1.062c2.711-0.44,5.033,0.286,6.968,2.177c2.128,2.123,3.715,4.622,4.759,7.496
			c1.399,3.449,2.415,6.803,3.049,10.059c0.793,3.6,1.451,7.009,1.974,10.232l0.709,4.372c0.141,0.87,0.279,2.528,0.413,4.974
			c0.102,1.926,0.261,3.553,0.477,4.883l0.051,0.307c-0.075,1.482,0.044,3.195,0.36,5.139c0.233,1.434,0.167,2.965-0.199,4.6
			c-0.365,1.634-1.024,3.08-1.974,4.336c-0.927,1.41-2.107,2.231-3.537,2.463C280.951,454.547,279.623,454.29,278.35,453.552z
			 M283.95,446.816c0.34-1.787,0.454-3.918,0.341-6.395c-0.113-2.475-0.315-5.264-0.608-8.366c-0.114-1.347-0.339-3.067-0.68-5.165
			l-1.221-7.047c-0.552-2.746-1.418-6.148-2.601-10.209c-0.982-3.463-2.255-6.457-3.819-8.987c-0.719-1.194-1.521-2.089-2.403-2.682
			c-0.883-0.591-1.761-0.816-2.629-0.676c-1.28,0.208-2.064,1.358-2.354,3.453c-0.427,2.223-0.566,4.606-0.415,7.154
			c0.134,2.762,0.372,5.372,0.72,7.836l0.334,2.544c0.065,0.727,0.197,1.701,0.396,2.929l0.05,0.308
			c0.555,3.427,1.597,7.588,3.127,12.485c1.921,6.671,3.908,11.31,5.958,13.917c1.312,1.625,2.531,2.345,3.658,2.162
			C282.825,449.912,283.541,448.826,283.95,446.816z"/>
		<path fill="#FFFFFF" d="M314.506,442.654l-0.07-0.223c-0.973-2.571-2.337-5.347-4.091-8.326c-1.754-2.979-4.064-6.516-6.93-10.611
			c-2.163-3.066-4.043-5.843-5.641-8.328l9.205,29.209c0.25,0.791,0.296,1.414,0.142,1.871c-0.155,0.457-0.628,0.809-1.418,1.059
			c-0.593,0.187-1.123,0.149-1.584-0.112c-0.464-0.263-0.787-0.688-0.975-1.282l-0.187-0.594l-6.722-21.842
			c-1.927-6.455-4.158-13.711-6.697-21.768l-2.875-9.119c-0.187-0.593-0.192-1.039-0.015-1.339c0.178-0.3,0.661-0.575,1.452-0.825
			c1.235-0.389,2.447-0.513,3.633-0.37c1.186,0.144,2.281,0.517,3.287,1.124c2.077,1.247,3.721,3.012,4.929,5.292
			c0.508,0.927,0.966,2.032,1.371,3.317c0.233,0.74,0.428,1.576,0.585,2.504c0.157,0.93,0.25,1.525,0.278,1.787
			c0.057,0.525,0.068,1.337,0.034,2.434c-0.035,1.1-0.054,1.811-0.06,2.139l-0.236,2.356l-0.134,2.161
			c0.609,1.764,1.629,3.915,3.054,6.453c1.424,2.54,2.849,4.862,4.273,6.967c1.008,1.475,2.754,3.913,5.238,7.312l4.207,5.847
			l0.046,0.148c0.265,0.841,0.417,1.579,0.456,2.22c0.101,0.836-0.293,1.396-1.182,1.678
			C316.94,444.088,315.816,443.709,314.506,442.654z M298.185,408.191l-0.897-6.726c-0.03-0.263-0.113-0.616-0.254-1.062
			c-0.452-1.433-1.245-3.002-2.381-4.711c-0.577-0.795-1.197-1.428-1.862-1.898c-0.665-0.469-1.251-0.65-1.761-0.545l2.189,7.461
			c0.895,3.357,1.631,5.951,2.207,7.779c0.545,1.73,0.928,2.859,1.149,3.387C297.049,410.968,297.584,409.739,298.185,408.191z"/>
		<path fill="#FFFFFF" d="M331.013,437.729c-0.909,0.135-1.612-0.34-2.111-1.423l-18.917-41.007
			c-0.369-0.801-1.063-1.936-2.084-3.405c-1.002-1.306-1.72-2.429-2.154-3.371l-0.098-0.212c0.192-1.687,0.389-2.805,0.593-3.355
			c0.658-0.303,1.485-0.799,2.48-1.486c0.902-0.645,1.728-1.141,2.481-1.488c0.752-0.346,1.586-0.459,2.497-0.338
			c0.912,0.121,1.51,0.488,1.792,1.1c0.65,1.412-0.106,2.617-2.271,3.615l-0.987,0.456c-0.304,0.083-0.645,0.212-1.021,0.386
			c-0.425,0.194-0.673,0.338-0.745,0.428c0.739,1.601,1.723,3.486,2.953,5.658l1.053,1.91l1.932,3.816
			c0.413,0.895,0.972,2.292,1.677,4.191l1.683,4.019l0.889-0.667c0.812-0.717,1.523-1.217,2.134-1.498
			c0.518-0.239,1.081-0.256,1.689-0.052c0.608,0.204,1.031,0.565,1.271,1.083c0.26,0.564,0.317,1.152,0.171,1.762
			c-0.147,0.611-0.479,1.035-0.997,1.273l-0.88,0.319l-0.917,0.423c-0.706,0.326-1.124,0.721-1.255,1.178l10.061,21.811l3.855-2.035
			c2.682-1.236,4.305-1.244,4.87-0.021l0.13,0.282c-0.021,0.695-0.327,1.393-0.917,2.093c-0.591,0.7-1.217,1.259-1.879,1.68
			l-2.296,1.146l-2.189,1.01C332.611,437.42,331.779,437.66,331.013,437.729z"/>
		<path fill="#FFFFFF" d="M352.755,427.509c-0.95,0.049-1.591-0.19-1.922-0.716c-0.333-0.525-0.471-1.035-0.416-1.53
			c0.055-0.494,0.323-0.894,0.806-1.198c0.437-0.277,1.184-0.503,2.238-0.679c1.142-0.231,1.821-0.415,2.04-0.554
			c0.832-0.525,1.359-1.365,1.583-2.518c0.223-1.15,0.157-2.443-0.197-3.875c-0.595-2.688-1.446-4.908-2.554-6.661
			c-1.189-1.884-2.738-3.679-4.646-5.387c-1.905-1.706-3.985-3.228-6.238-4.562l-2.38-1.439c-2.479-1.498-4.416-2.695-5.811-3.592
			c-1.393-0.896-2.781-1.951-4.159-3.164c-1.986-1.688-3.602-3.518-4.848-5.488c-0.997-1.578-1.664-3.238-2.002-4.988
			c-0.338-1.747-0.264-3.448,0.222-5.105c0.431-1.742,1.457-3.125,3.078-4.15c0.788-0.498,1.699-0.752,2.735-0.764
			c1.035-0.011,1.929,0.238,2.677,0.745l-0.244,2.086c-1.14,0.72-2.133,1.04-2.978,0.962c-0.733,0.586-1.181,1.405-1.343,2.458
			c-0.162,1.054-0.121,2.114,0.127,3.184c0.264,0.999,0.657,1.915,1.184,2.747c1.052,1.664,2.354,3.217,3.908,4.656
			c1.554,1.439,3.187,2.691,4.901,3.754l10.413,6.292c1.741,1.106,3.453,2.507,5.137,4.202c1.683,1.694,3.148,3.527,4.394,5.498
			c1.826,2.891,2.842,6.051,3.045,9.477c0.086,1.785-0.22,3.436-0.918,4.949c-0.698,1.513-1.771,2.727-3.217,3.641
			C355.792,426.785,354.254,427.358,352.755,427.509z"/>
		<path fill="#FFFFFF" d="M378.834,407.731c-0.819-0.298-1.575-0.866-2.27-1.703c-1.091-1.317-2.351-2.998-3.778-5.046l-1.17-1.656
			l-2.509-3.271c-1.157-1.396-3.876-4.392-8.156-8.989c-4.281-4.595-6.999-7.592-8.157-8.988c-0.099-0.119-0.28-0.356-0.54-0.713
			c-0.261-0.354-0.689-0.893-1.285-1.61c-0.622-0.831-1.411-1.825-2.371-2.983c-2.414-2.911-4.151-4.602-5.211-5.068
			c-0.239,0.197-0.71,0.688-1.407,1.469l-1.577,1.508c-0.519,0.431-1.103,0.662-1.748,0.692c-0.647,0.032-1.169-0.192-1.565-0.671
			c-0.397-0.479-0.266-1.295,0.394-2.447c1-1.636,3.094-3.941,6.28-6.92c1.29-1.203,2.075-1.921,2.354-2.152
			c0.479-0.398,1.05-0.602,1.713-0.613c0.664-0.01,1.194,0.223,1.591,0.701c0.397,0.479,0.55,1.009,0.459,1.588
			c-0.092,0.581-0.396,1.086-0.914,1.516l-1.127,0.833c-0.354,0.226-0.729,0.503-1.128,0.833l-0.598,0.496
			c2.528,2.482,4.702,4.82,6.52,7.014l3.115,3.88c0.919,1.19,1.974,2.503,3.164,3.94c1.586,1.914,3.568,4.144,5.944,6.683
			c2.944,3.147,4.945,5.358,6.003,6.635c1.257,1.517,2.824,3.247,4.704,5.188c1.911,1.982,3.48,3.712,4.703,5.188
			c1.62,1.955,1.852,3.412,0.694,4.371C380.361,407.93,379.651,408.028,378.834,407.731z"/>
	</g>
	<path fill="none" stroke="#FFFFFF" stroke-width="7" stroke-miterlimit="10" d="M486.4,247.688
		c0,131.669-106.738,238.405-238.407,238.405c-131.669,0-238.408-106.736-238.408-238.405C9.585,116.019,116.324,9.28,247.993,9.28
		C379.662,9.28,486.4,116.019,486.4,247.688"/>
	<g>
		<g>
			<path fill="#60BA99" d="M281.926,250.634c-2.232,6.43-5.621,11.048-9.386,14.365c11.331,3.81,21.669-6.457,21.669-6.457
				c-8.672,12.521-21.715,10.578-25.863,9.564c-9.608,5.949-19.885,5.268-19.885,5.268l1.761-6.515
				C269.846,271.839,281.926,250.634,281.926,250.634z"/>
			<path fill="#60BA99" d="M211.086,194.458c2.233,6.43,5.618,11.05,9.39,14.367c-11.34,3.811-21.673-6.459-21.673-6.459
				c8.669,12.523,21.712,10.577,25.863,9.566c9.612,5.948,19.882,5.268,19.882,5.268l-1.758-6.516
				C223.16,215.664,211.086,194.458,211.086,194.458z"/>
			<polygon fill="#60BA99" points="250.599,245.707 285.625,223.422 246.032,236.792 			"/>
			<polygon fill="#60BA99" points="245.364,273.341 210.34,251.058 249.931,264.425 			"/>
			<g>
				<g>
					<g>
						<path fill="#60BA99" d="M224.994,175.974c29.806,47.846,27.75,106.952-6.989,151.656c2.799,2.032,4.194,3.048,6.989,5.077
							C258.269,284.92,258.269,223.765,224.994,175.974z"/>
						<path fill="#60BA99" d="M224.994,175.974c36.906,47.683,38.975,110.992,6.986,161.812c-2.802-2.029-4.193-3.044-6.986-5.078
							C258.269,284.92,258.269,223.765,224.994,175.974z"/>
					</g>
				</g>
			</g>
		</g>
		<g>
			<g>
				<path fill="#60BA99" d="M221.455,197.607c-3.225-3.271-2.393-9.315-2.393-9.315s6.05-0.742,9.271,2.527
					c3.228,3.271,2.396,9.312,2.396,9.312S224.68,200.875,221.455,197.607z"/>
				<path fill="#60BA99" d="M221.455,197.607c3.225,3.268,9.275,2.524,9.275,2.524l-11.668-11.84
					C219.062,188.292,218.23,194.337,221.455,197.607z"/>
			</g>
			<g>
				<path fill="#60BA99" d="M245.036,183.848c0.831-5.216,7.006-8.568,7.006-8.568s4.812,5.107,3.975,10.323
					c-0.832,5.217-7,8.568-7,8.568S244.205,189.064,245.036,183.848z"/>
				<path fill="#60BA99" d="M245.036,183.848c-0.831,5.217,3.981,10.323,3.981,10.323l3.025-18.892
					C252.042,175.279,245.867,178.632,245.036,183.848z"/>
			</g>
			<g>
				<path fill="#60BA99" d="M280.682,290.287c-3.713-3.761-2.757-10.714-2.757-10.714s6.967-0.857,10.676,2.906
					c3.707,3.763,2.753,10.716,2.753,10.716S284.388,294.05,280.682,290.287z"/>
				<path fill="#60BA99" d="M280.682,290.287c3.706,3.763,10.672,2.908,10.672,2.908l-13.429-13.622
					C277.925,279.573,276.969,286.526,280.682,290.287z"/>
			</g>
			<g>
				<path fill="#60BA99" d="M197.827,192.68c-0.18-5.278,5.225-9.75,5.225-9.75s5.71,4.088,5.893,9.367
					c0.184,5.279-5.231,9.75-5.231,9.75S198.007,197.959,197.827,192.68z"/>
				<path fill="#60BA99" d="M197.827,192.68c0.18,5.279,5.887,9.367,5.887,9.367l-0.662-19.117
					C203.052,182.93,197.647,187.401,197.827,192.68z"/>
			</g>
			<g>
				<path fill="#60BA99" d="M253.791,219.485c-3.847-3.618-3.149-10.604-3.149-10.604s6.927-1.112,10.771,2.511
					c3.843,3.619,3.152,10.605,3.152,10.605S257.637,223.109,253.791,219.485z"/>
				<path fill="#60BA99" d="M253.791,219.485c3.846,3.624,10.773,2.513,10.773,2.513l-13.923-13.116
					C250.642,208.882,249.944,215.867,253.791,219.485z"/>
			</g>
			<g>
				<path fill="#60BA99" d="M262.08,258.492c-3.173-2.988-2.599-8.755-2.599-8.755s5.722-0.915,8.898,2.071
					c3.169,2.991,2.599,8.755,2.599,8.755S265.255,261.482,262.08,258.492z"/>
				<path fill="#60BA99" d="M262.08,258.492c3.175,2.99,8.898,2.071,8.898,2.071l-11.497-10.826
					C259.481,249.737,258.907,255.504,262.08,258.492z"/>
			</g>
			<g>
				<path fill="#60BA99" d="M213.264,268.756c-2.848-2.681-2.334-7.855-2.334-7.855s5.133-0.823,7.981,1.858
					c2.841,2.683,2.337,7.855,2.337,7.855S216.115,271.438,213.264,268.756z"/>
				<path fill="#60BA99" d="M213.264,268.756c2.852,2.682,7.985,1.858,7.985,1.858L210.93,260.9
					C210.93,260.9,210.416,266.075,213.264,268.756z"/>
			</g>
			<g>
				<path fill="#60BA99" d="M229.558,251.433c0.255-3.187,3.817-5.504,3.817-5.504s3.156,2.854,2.895,6.043
					c-0.256,3.189-3.818,5.505-3.818,5.505S229.305,254.619,229.558,251.433z"/>
				<path fill="#60BA99" d="M229.558,251.433c-0.252,3.187,2.894,6.044,2.894,6.044l0.923-11.548
					C233.375,245.929,229.813,248.246,229.558,251.433z"/>
			</g>
			<g>
				<path fill="#60BA99" d="M204.205,232.003c0.425-5.265,6.309-9.088,6.309-9.088s5.202,4.71,4.776,9.977
					c-0.418,5.266-6.302,9.09-6.302,9.09S203.786,237.267,204.205,232.003z"/>
				<path fill="#60BA99" d="M204.205,232.003c-0.419,5.264,4.783,9.979,4.783,9.979l1.526-19.066
					C210.514,222.915,204.63,226.738,204.205,232.003z"/>
			</g>
			<g>
				<path fill="#60BA99" d="M259.526,198.501c0.419-5.264,6.305-9.088,6.305-9.088s5.206,4.713,4.787,9.979
					c-0.426,5.266-6.312,9.089-6.312,9.089S259.104,203.766,259.526,198.501z"/>
				<path fill="#60BA99" d="M259.526,198.501c-0.422,5.265,4.78,9.979,4.78,9.979l1.525-19.067
					C265.832,189.413,259.946,193.237,259.526,198.501z"/>
			</g>
			<g>
				<path fill="#60BA99" d="M289.855,216.596c3.594-1.448,8.027,1.16,8.027,1.16s-1.388,4.957-4.976,6.407
					c-3.595,1.452-8.041-1.159-8.041-1.159S286.261,218.046,289.855,216.596z"/>
				<path fill="#60BA99" d="M289.855,216.596c-3.595,1.45-4.989,6.408-4.989,6.408l13.017-5.248
					C297.883,217.756,293.45,215.147,289.855,216.596z"/>
			</g>
			<g>
				<path fill="#60BA99" d="M298.701,198.382c4.898-1.976,10.948,1.579,10.948,1.579s-1.893,6.758-6.793,8.736
					c-4.895,1.975-10.951-1.579-10.951-1.579S293.797,200.357,298.701,198.382z"/>
				<path fill="#60BA99" d="M298.701,198.382c-4.904,1.976-6.796,8.736-6.796,8.736l17.744-7.157
					C309.649,199.961,303.599,196.406,298.701,198.382z"/>
			</g>
			<g>
				<path fill="#60BA99" d="M272.628,183.901c0.479-5.263,6.408-9.019,6.408-9.019s5.146,4.769,4.672,10.03
					c-0.485,5.26-6.411,9.019-6.411,9.019S272.15,189.161,272.628,183.901z"/>
				<path fill="#60BA99" d="M272.628,183.901c-0.478,5.26,4.668,10.03,4.668,10.03l1.739-19.049
					C279.036,174.883,273.106,178.639,272.628,183.901z"/>
			</g>
			<g>
				<path fill="#60BA99" d="M281.743,237.82c4.344-1.753,9.706,1.399,9.706,1.399s-1.679,5.991-6.017,7.744
					c-4.344,1.751-9.713-1.401-9.713-1.401S277.401,239.572,281.743,237.82z"/>
				<path fill="#60BA99" d="M281.743,237.82c-4.342,1.752-6.024,7.742-6.024,7.742l15.73-6.343
					C291.449,239.22,286.087,236.067,281.743,237.82z"/>
			</g>
			<g>
				<path fill="#60BA99" d="M227.109,277.804c0.57-4.647,5.925-7.819,5.925-7.819s4.433,4.364,3.86,9.012
					c-0.566,4.65-5.916,7.822-5.916,7.822S226.545,282.454,227.109,277.804z"/>
				<path fill="#60BA99" d="M227.109,277.804c-0.563,4.65,3.87,9.015,3.87,9.015l2.056-16.834
					C233.034,269.984,227.679,273.156,227.109,277.804z"/>
			</g>
			<g>
				<path fill="#60BA99" d="M191.074,231.666c5.438-0.526,10.401,4.769,10.401,4.769s-3.857,6.152-9.288,6.681
					c-5.438,0.529-10.4-4.768-10.4-4.768S185.636,232.194,191.074,231.666z"/>
				<path fill="#60BA99" d="M191.074,231.666c-5.438,0.528-9.288,6.682-9.288,6.682l19.688-1.913
					C201.475,236.435,196.511,231.14,191.074,231.666z"/>
			</g>
			<g>
				<path fill="#60BA99" d="M311.659,242.684c4.897-1.978,10.947,1.579,10.947,1.579s-1.892,6.757-6.79,8.735
					c-4.897,1.975-10.951-1.58-10.951-1.58S306.762,244.659,311.659,242.684z"/>
				<path fill="#60BA99" d="M311.659,242.684c-4.897,1.976-6.793,8.734-6.793,8.734l17.741-7.155
					C322.606,244.263,316.557,240.706,311.659,242.684z"/>
			</g>
			<g>
				<path fill="#60BA99" d="M197.212,266.653c4.901-1.977,10.954,1.581,10.954,1.581s-1.895,6.757-6.79,8.734
					c-4.898,1.974-10.951-1.58-10.951-1.58S192.321,268.629,197.212,266.653z"/>
				<path fill="#60BA99" d="M197.212,266.653c-4.891,1.976-6.787,8.735-6.787,8.735l17.741-7.154
					C208.166,268.234,202.113,264.677,197.212,266.653z"/>
			</g>
			<g>
				<path fill="#60BA99" d="M257.064,287.412c-0.53-5.256,4.566-10.075,4.566-10.075s5.962,3.701,6.499,8.958
					c0.53,5.255-4.577,10.076-4.577,10.076S257.592,292.669,257.064,287.412z"/>
				<path fill="#60BA99" d="M257.064,287.412c0.527,5.257,6.489,8.959,6.489,8.959l-1.922-19.034
					C261.631,277.337,256.534,282.156,257.064,287.412z"/>
			</g>
			<g>
				<path fill="#60BA99" d="M299.362,278.377c-4.786-2.235-6.312-9.087-6.312-9.087s6.233-3.225,11.02-0.989
					c4.786,2.238,6.312,9.088,6.312,9.088S304.152,280.614,299.362,278.377z"/>
				<path fill="#60BA99" d="M299.362,278.379c4.79,2.235,11.02-0.99,11.02-0.99l-17.332-8.099
					C293.051,269.29,294.576,276.142,299.362,278.379z"/>
			</g>
			<g>
				<path fill="#60BA99" d="M301.615,228.218c3.117-3.486,9.331-3.023,9.331-3.023s1.133,6.119-1.99,9.606
					c-3.13,3.485-9.334,3.022-9.334,3.022S298.485,231.706,301.615,228.218z"/>
				<path fill="#60BA99" d="M301.615,228.218c-3.129,3.488-1.994,9.605-1.994,9.605l11.324-12.629
					C310.945,225.194,304.731,224.731,301.615,228.218z"/>
			</g>
			<g>
				<path fill="#60BA99" d="M225.721,223.063c2.678-3.844,8.892-4.142,8.892-4.142s1.873,5.933-0.798,9.774
					c-2.679,3.845-8.898,4.143-8.898,4.143S223.042,226.907,225.721,223.063z"/>
				<path fill="#60BA99" d="M225.721,223.063c-2.678,3.844-0.805,9.775-0.805,9.775l9.697-13.917
					C234.612,218.922,228.398,219.22,225.721,223.063z"/>
			</g>
			<g>
				<path fill="#60BA99" d="M276.819,202.631c1.932-3.362,7.032-4.058,7.032-4.058s1.978,4.755,0.046,8.117
					c-1.925,3.362-7.032,4.055-7.032,4.055S274.894,205.99,276.819,202.631z"/>
				<path fill="#60BA99" d="M276.819,202.631c-1.925,3.359,0.046,8.114,0.046,8.114l6.986-12.172
					C283.851,198.573,278.75,199.269,276.819,202.631z"/>
			</g>
			<g>
				<path fill="#60BA99" d="M290.647,249.471c2.724-2.754,7.834-2.122,7.834-2.122s0.698,5.099-2.029,7.859
					c-2.724,2.753-7.834,2.125-7.834,2.125S287.924,252.228,290.647,249.471z"/>
				<path fill="#60BA99" d="M290.647,249.471c-2.724,2.757-2.03,7.862-2.03,7.862l9.864-9.984
					C298.481,247.349,293.371,246.717,290.647,249.471z"/>
			</g>
			<g>
				<path fill="#60BA99" d="M202.267,222.653c-2.995,2.524-8.072,1.425-8.072,1.425s-0.236-5.193,2.75-7.716
					c2.996-2.524,8.08-1.427,8.08-1.427S205.253,220.131,202.267,222.653z"/>
				<path fill="#60BA99" d="M202.267,222.653c2.986-2.522,2.757-7.718,2.757-7.718l-10.829,9.143
					C194.194,224.078,199.271,225.178,202.267,222.653z"/>
			</g>
			<g>
				<path fill="#60BA99" d="M188.059,208.224c-5.147-1.197-8.061-7.584-8.061-7.584s5.435-4.444,10.575-3.249
					c5.146,1.195,8.056,7.582,8.056,7.582S193.199,209.42,188.059,208.224z"/>
				<path fill="#60BA99" d="M188.059,208.224c5.14,1.196,10.571-3.251,10.571-3.251l-18.631-4.333
					C179.998,200.64,182.912,207.026,188.059,208.224z"/>
			</g>
			<g>
				<path fill="#60BA99" d="M230.795,173.405c0.832-5.215,7-8.567,7-8.567s4.819,5.106,3.981,10.321
					c-0.832,5.218-7.003,8.567-7.003,8.567S229.96,178.621,230.795,173.405z"/>
				<path fill="#60BA99" d="M230.795,173.405c-0.835,5.216,3.978,10.321,3.978,10.321l3.022-18.889
					C237.795,164.838,231.626,168.19,230.795,173.405z"/>
			</g>
			<g>
				<path fill="#60BA99" d="M215.579,181.397c-4-1.806-5.343-7.482-5.343-7.482s5.14-2.745,9.144-0.939
					c3.997,1.812,5.34,7.486,5.34,7.486S219.576,183.206,215.579,181.397z"/>
				<path fill="#60BA99" d="M215.579,181.397c3.997,1.809,9.141-0.936,9.141-0.936l-14.484-6.547
					C210.235,173.915,211.578,179.592,215.579,181.397z"/>
			</g>
			<g>
				<path fill="#60BA99" d="M195.677,248.199c5.268-0.451,10.008,4.728,10.008,4.728s-3.798,5.904-9.062,6.354
					c-5.265,0.448-9.998-4.728-9.998-4.728S190.416,248.647,195.677,248.199z"/>
				<path fill="#60BA99" d="M195.677,248.199c-5.261,0.448-9.052,6.354-9.052,6.354l19.06-1.626
					C205.685,252.927,200.944,247.748,195.677,248.199z"/>
			</g>
		</g>
	</g>
	<g>
		<g>
			<path fill="#D18A35" d="M410.571,272.851c-0.833-3.646,9.184-2.751,15.755-0.841c9.99,3.029,16.258,8.083,26.831,10.83
				c-6.886,1.897-19.769,2.002-30.064-0.021C411.945,280.618,410.533,277.383,410.571,272.851"/>
		</g>
		<g>
			<path fill="#11514F" d="M412.095,253.988c-6.07-6.753,3.549-15.644,11.822-18.697c12.76-4.402,25.411-0.543,38.238-6.146
				c-2.906,11.371-13.426,25.453-24.951,32.287C424.718,268.798,418.772,263.533,412.095,253.988"/>
		</g>
		<g>
			<path fill="#FFFFFF" d="M410.006,251.988c-6.07-6.753,3.549-15.644,11.822-18.697c12.76-4.402,25.411-0.543,38.238-6.146
				c-2.906,11.371-13.426,25.453-24.951,32.287C422.63,266.798,416.684,261.533,410.006,251.988"/>
		</g>
		<g>
			<path fill="#FFFFFF" d="M409.527,269.851c-0.833-3.646,9.184-2.751,15.755-0.841c9.99,3.029,16.258,8.083,26.832,10.83
				c-6.886,1.897-19.769,2.002-30.065-0.021C410.901,277.618,409.489,274.383,409.527,269.851"/>
		</g>
	</g>
	<g>
		<g>
			<path fill="#D18A35" d="M89.911,272.851c0.833-3.646-9.184-2.751-15.755-0.841c-9.99,3.029-16.258,8.083-26.831,10.83
				c6.886,1.897,19.769,2.002,30.064-0.021C88.537,280.618,89.948,277.383,89.911,272.851"/>
		</g>
		<g>
			<path fill="#11514F" d="M88.387,253.988c6.07-6.753-3.549-15.644-11.822-18.697c-12.76-4.402-25.411-0.543-38.238-6.146
				c2.906,11.371,13.426,25.453,24.951,32.287C75.763,268.798,81.709,263.533,88.387,253.988"/>
		</g>
		<g>
			<path fill="#FFFFFF" d="M90.475,251.988c6.071-6.753-3.549-15.644-11.822-18.697c-12.76-4.402-25.41-0.543-38.237-6.146
				c2.906,11.371,13.426,25.453,24.951,32.287C77.851,266.798,83.797,261.533,90.475,251.988"/>
		</g>
		<g>
			<path fill="#FFFFFF" d="M90.955,269.851c0.833-3.646-9.184-2.751-15.755-0.841c-9.99,3.029-16.258,8.083-26.832,10.83
				c6.886,1.897,19.769,2.002,30.064-0.021C89.581,277.618,90.992,274.383,90.955,269.851"/>
		</g>
	</g>
</g>
<g id="Calque_1">
</g>
</svg>
