<?xml version="1.0" encoding="utf-8"?>
<!-- Generator: Adobe Illustrator 16.0.0, SVG Export Plug-In . SVG Version: 6.00 Build 0)  -->
<!DOCTYPE svg PUBLIC "-//W3C//DTD SVG 1.1//EN" "http://www.w3.org/Graphics/SVG/1.1/DTD/svg11.dtd">
<svg version="1.1" xmlns="http://www.w3.org/2000/svg" xmlns:xlink="http://www.w3.org/1999/xlink" x="0px" y="0px" width="1000px"
	 height="1000px" viewBox="0 0 1000 1000" enable-background="new 0 0 1000 1000" xml:space="preserve">
<g id="Calque_3">
</g>
<g id="Calque_2">
	<g>
		<defs>
			<path id="SVGID_9_" d="M-55.281,1007.341c0,15.251-5.802,27.608-12.953,27.608h-991.615c-7.153,0-12.953-12.357-12.953-27.608
				V-11.124c0-15.251,5.8-27.612,12.953-27.612h991.615c7.151,0,12.953,12.361,12.953,27.612V1007.341z"/>
		</defs>
		<clipPath id="SVGID_2_">
			<use xlink:href="#SVGID_9_"  overflow="visible"/>
		</clipPath>
		<g clip-path="url(#SVGID_2_)">
			<path opacity="0.6" fill="#A6C15A" d="M278.204,712.549c0,0-477.167-40.821-669.273-129.072c0,0-425.651-96.09-535.501-2.621
				c0,0-207.955,91.048-362.37,88.005l-38.602,283.365l1627.229-14.261L278.204,712.549z M-628.676,645.066
				c-4.246-12.744-20.451-17.515-24.292-31.148c-2.329-2.709-4.173-5.792-5.116-9.57c0.943,3.778,2.787,6.861,5.116,9.57
				c-0.251-0.889-0.451-1.813-0.593-2.785c0.142,0.972,0.342,1.896,0.593,2.785c8.823,10.254,24.767,15.044,26.553,31.148
				c-1.786-16.104-17.729-20.895-26.553-31.148C-649.127,627.552-632.922,632.322-628.676,645.066z"/>
			<path opacity="0.6" fill="#D2E081" d="M260.459,748.87c0,0-467.879-40.819-656.249-129.072c0,0-417.37-96.091-525.083-2.623
				c0,0-203.908,91.047-355.315,88.006l-37.856,283.365l1595.571-14.262L260.459,748.87z M-628.676,645.066
				c-4.246-12.744-20.451-17.515-24.292-31.148c-2.329-2.709-4.173-5.792-5.116-9.57c0.943,3.778,2.787,6.861,5.116,9.57
				c-0.251-0.889-0.451-1.813-0.593-2.785c0.142,0.972,0.342,1.896,0.593,2.785c8.823,10.254,24.767,15.044,26.553,31.148
				c-1.786-16.104-17.729-20.895-26.553-31.148C-649.127,627.552-632.922,632.322-628.676,645.066z"/>
			<path opacity="0.6" fill="#062821" d="M-1079.311,1070.365l1911.059-25.234l-24.562-207.142c0,0-545.537-37.509-765.177-118.609
				c0,0-486.636-88.298-612.229-2.406c0,0-332.549,122.424-509.09,119.627V1070.365z"/>
			<path opacity="0.6" fill="#60BA99" d="M231.414,1079.348l-1286.55-13.698l16.989-216.525c0,0,377.265-39.21,529.149-123.982
				c0,0,336.537-92.301,423.389-2.519c0,0,164.414,87.457,286.5,84.538L231.414,1079.348z"/>
			<path opacity="0.6" fill="#1B877F" d="M222.335,1106.59l-1286.552-13.7l16.988-216.526c0,0,377.266-39.21,529.151-123.981
				c0,0,336.536-92.296,423.39-2.517c0,0,164.413,87.456,286.499,84.535L222.335,1106.59z"/>
			<path opacity="0.6" fill="#126864" d="M-1148.686,1164.949l1189.415-26.657L23.741,921.765
				c-126.448-13.143-78.307,121.562-554.086-143.981c0,0-311.603-72.298-398.452,17.481c0,0-93.28,74.423-215.365,71.501
				L-1148.686,1164.949z"/>
			<path opacity="0.6" fill="#062821" d="M-1245.82,1206.472l1286.55-13.698l-16.988-216.53c0,0-377.262-39.205-529.157-123.979
				c0,0-336.531-92.299-423.381-2.517c0,0-164.416,87.458-286.5,84.534L-1245.82,1206.472z"/>
		</g>
		<path clip-path="url(#SVGID_2_)" fill="#0B564B" d="M-1245.82,1206.472l1286.55-13.698l-16.988-216.53
			c0,0-377.262-39.205-529.157-123.979c0,0-336.531-92.299-423.381-2.517c0,0-164.416,87.458-286.5,84.534L-1245.82,1206.472z"/>
		<use xlink:href="#SVGID_9_"  overflow="visible" fill="none" stroke="#FFFFFF" stroke-width="3" stroke-miterlimit="10"/>
	</g>
	<g>
		<defs>
			<path id="SVGID_11_" d="M1009.354,1007.341c0,15.251-5.802,27.608-12.953,27.608H4.786c-7.153,0-12.953-12.357-12.953-27.608
				V-11.124c0-15.251,5.8-27.612,12.953-27.612h991.615c7.151,0,12.953,12.361,12.953,27.612V1007.341z"/>
		</defs>
		<clipPath id="SVGID_4_">
			<use xlink:href="#SVGID_11_"  overflow="visible"/>
		</clipPath>
		<g clip-path="url(#SVGID_4_)">
			<path opacity="0.6" fill="#A6C15A" d="M1342.84,712.549c0,0-477.167-40.821-669.273-129.072c0,0-425.651-96.09-535.501-2.621
				c0,0-207.955,91.048-362.37,88.005l-38.602,283.365l1627.229-14.261L1342.84,712.549z M435.96,645.066
				c-4.246-12.744-20.451-17.515-24.292-31.148c-2.329-2.709-4.173-5.792-5.116-9.57c0.943,3.778,2.787,6.861,5.116,9.57
				c-0.251-0.889-0.451-1.813-0.593-2.785c0.142,0.972,0.342,1.896,0.593,2.785c8.823,10.254,24.767,15.044,26.553,31.148
				c-1.786-16.104-17.729-20.895-26.553-31.148C415.509,627.552,431.714,632.322,435.96,645.066z"/>
			<path opacity="0.6" fill="#D2E081" d="M1325.095,748.87c0,0-467.879-40.819-656.249-129.072c0,0-417.37-96.091-525.083-2.623
				c0,0-203.908,91.047-355.315,88.006l-37.856,283.365l1595.571-14.262L1325.095,748.87z M435.96,645.066
				c-4.246-12.744-20.451-17.515-24.292-31.148c-2.329-2.709-4.173-5.792-5.116-9.57c0.943,3.778,2.787,6.861,5.116,9.57
				c-0.251-0.889-0.451-1.813-0.593-2.785c0.142,0.972,0.342,1.896,0.593,2.785c8.823,10.254,24.767,15.044,26.553,31.148
				c-1.786-16.104-17.729-20.895-26.553-31.148C415.509,627.552,431.714,632.322,435.96,645.066z"/>
			<path opacity="0.6" fill="#062821" d="M-14.675,1070.365l1911.059-25.234l-24.562-207.142c0,0-545.537-37.509-765.177-118.609
				c0,0-486.636-88.298-612.229-2.406c0,0-332.549,122.424-509.09,119.627V1070.365z"/>
			<path opacity="0.6" fill="#60BA99" d="M1296.05,1079.348L9.5,1065.649l16.989-216.525c0,0,377.265-39.21,529.149-123.982
				c0,0,336.537-92.301,423.389-2.519c0,0,164.414,87.457,286.5,84.538L1296.05,1079.348z"/>
			<path opacity="0.6" fill="#1B877F" d="M1286.971,1106.59L0.419,1092.89l16.988-216.526c0,0,377.266-39.21,529.151-123.981
				c0,0,336.536-92.296,423.39-2.517c0,0,164.413,87.456,286.499,84.535L1286.971,1106.59z"/>
			<path opacity="0.6" fill="#60BA99" d="M-246.48,1133.828l1251.961-13.696l3.226-180.975c0,0-386.876-74.759-534.681-159.537
				c0,0-327.487-92.298-412.005-2.514c0,0-159.997,87.456-278.801,84.532L-246.48,1133.828z"/>
			<path opacity="0.6" fill="#062821" d="M-146.221,921.893c0,0,331.157-9.525,454.985-67.741
				c123.825-58.216,284.108-45.191,390.829-30.301c106.723,14.892,233.721,131.31,304.126,88.422l26.078,205.606"/>
			<path opacity="0.6" fill="#126864" d="M-84.05,1164.949l1189.415-26.657l-16.988-216.527
				c-126.448-13.143-78.307,121.562-554.086-143.981c0,0-311.603-72.298-398.452,17.481c0,0-93.28,74.423-215.365,71.501
				L-84.05,1164.949z"/>
			<path opacity="0.6" fill="#062821" d="M-181.185,1206.472l1286.55-13.698l-16.988-216.53c0,0-377.262-39.205-529.157-123.979
				c0,0-336.531-92.299-423.381-2.517c0,0-164.416,87.458-286.5,84.534L-181.185,1206.472z"/>
		</g>
		<g clip-path="url(#SVGID_4_)">
			<g>
				<path fill="#126864" d="M427.59,504.588c-6.893,23.612-6.618,44.297-2.484,61.96c-41.348-12.552-50.242-64.438-50.242-64.438
					c-0.725,55.035,41.725,76.646,56.069,82.372c15.808,37.651,47.47,57.184,47.47,57.184l8.483-22.861
					C418.686,592.316,427.59,504.588,427.59,504.588z"/>
				<path fill="#126864" d="M579.521,547.11c-1.453,22.522-8.169,40.275-17.27,54.213c39.591,2.132,63.52-39.831,63.52-39.831
					c-16.619,47.69-59.998,53.029-74.163,53.473c-25.429,27.519-58.855,34.443-58.855,34.443l-0.152-22.375
					C559.717,625.559,579.521,547.11,579.521,547.11z"/>
				<polygon fill="#1B877F" points="475.838,613.015 463.01,850 488.664,849.824 499.881,626.887 				"/>
				<polygon fill="#126864" points="500.006,624.399 514.318,849.649 488.664,849.824 				"/>
			</g>
			<g>
				<path fill="#D2E081" d="M381.318,559.738c-3.893-9.631-18.104-4.734-25.543,1.895c-11.159,10.399-13.662,25.05-26.106,34.868
					c13.337,3.118,33.403,0.072,46.448-7.804C390.227,580.145,387.811,571.436,381.318,559.738"/>
			</g>
			<g>
				<path fill="#D18A35" d="M381.975,485.848c-8.859,1.962-12.395-10.588-11.312-19.171c1.943-13.084,11.245-22.092,12.143-35.812
					c8.859,7.979,16.635,23.806,17.439,37C401.086,482.145,393.619,484.715,381.975,485.848"/>
			</g>
			<g>
				<path fill="#618751" d="M439.936,492.997c7.594,4.918,15.277-5.678,17.268-14.127c2.755-12.995-2.785-24.694,1.18-37.918
					c-11.07,4.445-23.857,16.651-29.221,28.793C423.379,482.9,429.454,487.899,439.936,492.997"/>
			</g>
			<g>
				<path fill="#618751" d="M412.191,591.108c-0.642-4.751-11.828,0.554-18.584,5.63c-10.215,7.869-15.236,16.612-26.25,24.388
					c8.797-0.613,23.736-5.92,34.748-12.703C414.023,601.065,414.23,596.564,412.191,591.108"/>
			</g>
			<g>
				<path fill="#83CAAD" d="M395.057,521.002c-6.938-0.275-5.48-9.241-1.084-15.141c6.901-8.94,17.145-13.599,23.591-23.184
					c2.713,7.344,1.333,20.066-3.722,29.598C408.343,522.596,403.551,522.391,395.057,521.002"/>
			</g>
			<g>
				<path fill="#1B877F" d="M361.955,529.992c-0.189-10.388-15.211-10.899-24.53-7.37c-14.141,5.718-21.72,18.502-36.854,23.218
					c11.339,7.686,31.166,12.02,46.166,9.332C362.973,552.233,363.833,543.238,361.955,529.992"/>
			</g>
			<g>
				<path fill="#83B571" d="M361.281,496.434c4.728-9.251-8.28-16.78-18.162-18.058c-15.168-1.619-27.877,6.086-43.447,3.116
					c6.381,12.12,21.826,25.285,36.324,29.981C351.701,516.532,356.698,509.004,361.281,496.434"/>
			</g>
			<g>
				<path fill="#D2E081" d="M440.7,522.432c-6.408-6.423,2.285-16.139,10.109-19.83c12.083-5.381,24.677-2.362,36.736-8.965
					c-1.981,11.757-11.166,26.81-21.87,34.567C454.077,536.574,447.903,531.651,440.7,522.432"/>
			</g>
			<g>
				<path fill="#D18A35" d="M442.839,550.369c-1.862-8.881,10.726-12.273,19.298-11.095c13.061,2.09,21.963,11.495,35.67,12.549
					c-8.077,8.768-23.992,16.363-37.193,17.019C446.324,569.521,443.84,562.026,442.839,550.369"/>
			</g>
			<g>
				<path fill="#1B877F" d="M538.742,590.199c10.378,0.495,11.877-14.459,8.971-23.99c-4.774-14.487-17.03-22.893-20.74-38.305
					c-8.415,10.809-14.047,30.308-12.353,45.451C516.481,589.75,525.4,591.2,538.742,590.199"/>
			</g>
			<g>
				<path fill="#D2E081" d="M559.74,547.061c9.569,4.048,16.139-9.47,16.701-19.419c0.521-15.245-8.08-27.364-6.241-43.108
					c-11.63,7.238-23.646,23.594-27.284,38.392C539.004,538.953,546.874,543.395,559.74,547.061"/>
			</g>
			<g>
				<path fill="#1B877F" d="M602,550.042c6.861,7.802,18.65-1.521,23.477-10.24c7.09-13.505,4.605-28.158,13.099-41.542
					c-13.62,1.47-31.546,10.984-41.25,22.734C586.841,533.735,592.001,541.152,602,550.042"/>
			</g>
			<g>
				<path fill="#D18A35" d="M643.73,586.047c-9.064,0.375-10.343-12.6-7.771-20.859c4.21-12.54,14.95-19.774,18.243-33.122
					c7.32,9.409,12.196,26.355,10.671,39.486C663.195,585.758,655.393,586.976,643.73,586.047"/>
			</g>
			<g>
				<path fill="#618751" d="M615.739,606.152c-3.018-8.557,9.013-13.583,17.664-13.545c13.224,0.347,23.288,8.493,37.017,7.727
					c-6.851,9.759-21.622,19.39-34.623,21.781C621.724,624.676,618.271,617.574,615.739,606.152"/>
			</g>
			<g>
				<path fill="#83CAAD" d="M586.007,626.032c1.608-8.93,14.55-7.351,22.051-3.04c11.321,6.838,16.043,18.896,28.354,25.018
					c-10.778,5.096-28.381,6.163-40.865,1.815C582.05,645.093,582.559,637.212,586.007,626.032"/>
			</g>
			<g>
				<path fill="#618751" d="M557.223,626.374c3.567-3.2,8.646,8.089,10.498,16.335c2.678,12.614,0.832,22.526,4.176,35.587
					c-6.299-6.17-14.234-19.896-18.221-32.2C549.373,632.768,552.133,629.206,557.223,626.374"/>
			</g>
			<g>
				<path fill="#83B571" d="M467.982,594.142c-5.962-3.559-0.395-10.735,6.288-13.816c10.335-4.552,21.559-3.744,31.805-9.08
					c-1.129,7.746-8.424,18.261-17.421,24.216C478.89,601.895,474.777,599.422,467.982,594.142"/>
			</g>
		</g>
		<path clip-path="url(#SVGID_4_)" fill="#0B564B" d="M-181.185,1206.472l1286.55-13.698l-16.988-216.53
			c0,0-377.262-39.205-529.157-123.979c0,0-336.531-92.299-423.381-2.517c0,0-164.416,87.458-286.5,84.534L-181.185,1206.472z"/>
		<use xlink:href="#SVGID_11_"  overflow="visible" fill="none" stroke="#FFFFFF" stroke-width="3" stroke-miterlimit="10"/>
	</g>
	<g>
		<defs>
			<path id="SVGID_13_" d="M2060.88,1007.341c0,15.251-5.802,27.608-12.953,27.608h-991.615c-7.153,0-12.953-12.357-12.953-27.608
				V-11.124c0-15.251,5.8-27.612,12.953-27.612h991.615c7.151,0,12.953,12.361,12.953,27.612V1007.341z"/>
		</defs>
		<clipPath id="SVGID_6_">
			<use xlink:href="#SVGID_13_"  overflow="visible"/>
		</clipPath>
		<g clip-path="url(#SVGID_6_)">
			<path opacity="0.6" fill="#A6C15A" d="M2394.365,712.549c0,0-477.167-40.821-669.273-129.072c0,0-425.651-96.09-535.501-2.621
				c0,0-207.955,91.048-362.37,88.005l-38.602,283.365l1627.229-14.261L2394.365,712.549z M1487.485,645.066
				c-4.246-12.744-20.451-17.515-24.292-31.148c-2.329-2.709-4.173-5.792-5.116-9.57c0.943,3.778,2.787,6.861,5.116,9.57
				c-0.251-0.889-0.451-1.813-0.593-2.785c0.142,0.972,0.342,1.896,0.593,2.785c8.823,10.254,24.767,15.044,26.553,31.148
				c-1.786-16.104-17.729-20.895-26.553-31.148C1467.034,627.552,1483.239,632.322,1487.485,645.066z"/>
			<path opacity="0.6" fill="#D2E081" d="M2376.62,748.87c0,0-467.879-40.819-656.249-129.072c0,0-417.37-96.091-525.083-2.623
				c0,0-203.908,91.047-355.315,88.006l-37.856,283.365l1595.571-14.262L2376.62,748.87z M1487.485,645.066
				c-4.246-12.744-20.451-17.515-24.292-31.148c-2.329-2.709-4.173-5.792-5.116-9.57c0.943,3.778,2.787,6.861,5.116,9.57
				c-0.251-0.889-0.451-1.813-0.593-2.785c0.142,0.972,0.342,1.896,0.593,2.785c8.823,10.254,24.767,15.044,26.553,31.148
				c-1.786-16.104-17.729-20.895-26.553-31.148C1467.034,627.552,1483.239,632.322,1487.485,645.066z"/>
			<path opacity="0.6" fill="#60BA99" d="M805.045,1133.828l1251.961-13.696l3.226-180.975c0,0-386.876-74.759-534.681-159.537
				c0,0-327.487-92.298-412.005-2.514c0,0-159.997,87.456-278.801,84.532L805.045,1133.828z"/>
			<path opacity="0.6" fill="#062821" d="M905.305,921.893c0,0,331.157-9.525,454.985-67.741
				c123.825-58.216,284.108-45.191,390.829-30.301c106.723,14.892,233.721,131.31,304.126,88.422l26.078,205.606"/>
			<path opacity="0.6" fill="#126864" d="M967.476,1164.949l1189.415-26.657l-16.988-216.527
				c-126.448-13.143-78.307,121.562-554.086-143.981c0,0-311.603-72.298-398.452,17.481c0,0-93.28,74.423-215.365,71.501
				L967.476,1164.949z"/>
			<path opacity="0.6" fill="#062821" d="M870.341,1206.472l1286.55-13.698l-16.988-216.53c0,0-377.262-39.205-529.157-123.979
				c0,0-336.531-92.299-423.381-2.517c0,0-164.416,87.458-286.5,84.534L870.341,1206.472z"/>
		</g>
		<path clip-path="url(#SVGID_6_)" fill="#0B564B" d="M870.341,1206.472l1286.55-13.698l-16.988-216.53
			c0,0-377.262-39.205-529.157-123.979c0,0-336.531-92.299-423.381-2.517c0,0-164.416,87.458-286.5,84.534L870.341,1206.472z"/>
		<use xlink:href="#SVGID_13_"  overflow="visible" fill="none" stroke="#FFFFFF" stroke-width="3" stroke-miterlimit="10"/>
	</g>
</g>
<g id="Calque_1">
</g>
</svg>
