<?xml version="1.0" encoding="utf-8"?>
<!-- Generator: Adobe Illustrator 16.0.0, SVG Export Plug-In . SVG Version: 6.00 Build 0)  -->
<!DOCTYPE svg PUBLIC "-//W3C//DTD SVG 1.1//EN" "http://www.w3.org/Graphics/SVG/1.1/DTD/svg11.dtd">
<svg version="1.1" xmlns="http://www.w3.org/2000/svg" xmlns:xlink="http://www.w3.org/1999/xlink" x="0px" y="0px" width="1000px"
	 height="1000px" viewBox="0 0 1000 1000" enable-background="new 0 0 1000 1000" xml:space="preserve">
<g id="Calque_3">
</g>
<g id="Calque_2">
	<g>
		<defs>
			<path id="SVGID_11_" d="M-42.171,1007.341c0,15.251-5.802,27.608-12.953,27.608h-991.615c-7.153,0-12.953-12.357-12.953-27.608
				V-11.124c0-15.251,5.8-27.612,12.953-27.612h991.615c7.151,0,12.953,12.361,12.953,27.612V1007.341z"/>
		</defs>
		<clipPath id="SVGID_2_">
			<use xlink:href="#SVGID_11_"  overflow="visible"/>
		</clipPath>
		<g clip-path="url(#SVGID_2_)">
			<path opacity="0.6" fill="#A6C15A" d="M291.314,712.549c0,0-477.167-40.821-669.273-129.072c0,0-425.651-96.09-535.501-2.621
				c0,0-207.955,91.048-362.37,88.005l-38.602,283.365l1627.229-14.261L291.314,712.549z M-615.565,645.066
				c-4.246-12.744-20.451-17.515-24.292-31.148c-2.329-2.709-4.173-5.792-5.116-9.57c0.943,3.778,2.787,6.861,5.116,9.57
				c-0.251-0.889-0.451-1.813-0.593-2.785c0.142,0.972,0.342,1.896,0.593,2.785c8.823,10.254,24.767,15.044,26.553,31.148
				c-1.786-16.104-17.729-20.895-26.553-31.148C-636.017,627.552-619.812,632.322-615.565,645.066z"/>
			<path opacity="0.6" fill="#D2E081" d="M273.569,748.87c0,0-467.879-40.819-656.249-129.072c0,0-417.37-96.091-525.083-2.623
				c0,0-203.908,91.047-355.315,88.006l-37.856,283.365l1595.571-14.262L273.569,748.87z M-615.565,645.066
				c-4.246-12.744-20.451-17.515-24.292-31.148c-2.329-2.709-4.173-5.792-5.116-9.57c0.943,3.778,2.787,6.861,5.116,9.57
				c-0.251-0.889-0.451-1.813-0.593-2.785c0.142,0.972,0.342,1.896,0.593,2.785c8.823,10.254,24.767,15.044,26.553,31.148
				c-1.786-16.104-17.729-20.895-26.553-31.148C-636.017,627.552-619.812,632.322-615.565,645.066z"/>
			<path opacity="0.6" fill="#062821" d="M-1066.2,1070.365l1911.059-25.234l-24.562-207.142c0,0-545.537-37.509-765.177-118.609
				c0,0-486.636-88.298-612.229-2.406c0,0-332.549,122.424-509.09,119.627V1070.365z"/>
			<path opacity="0.6" fill="#60BA99" d="M244.524,1079.348l-1286.55-13.698l16.989-216.525c0,0,377.265-39.21,529.149-123.982
				c0,0,336.537-92.301,423.389-2.519c0,0,164.414,87.457,286.5,84.538L244.524,1079.348z"/>
			<path opacity="0.6" fill="#1B877F" d="M235.445,1106.59l-1286.552-13.7l16.988-216.526c0,0,377.266-39.21,529.151-123.981
				c0,0,336.536-92.296,423.39-2.517c0,0,164.413,87.456,286.499,84.535L235.445,1106.59z"/>
			<path opacity="0.6" fill="#126864" d="M-1135.575,1164.949L53.84,1138.292L36.852,921.765
				c-126.448-13.143-78.307,121.562-554.086-143.981c0,0-311.603-72.298-398.452,17.481c0,0-93.28,74.423-215.365,71.501
				L-1135.575,1164.949z"/>
			<path opacity="0.6" fill="#062821" d="M-1232.71,1206.472l1286.55-13.698l-16.988-216.53c0,0-377.262-39.205-529.157-123.979
				c0,0-336.531-92.299-423.381-2.517c0,0-164.416,87.458-286.5,84.534L-1232.71,1206.472z"/>
		</g>
		<path clip-path="url(#SVGID_2_)" fill="#0B564B" d="M-1232.71,1206.472l1286.55-13.698l-16.988-216.53
			c0,0-377.262-39.205-529.157-123.979c0,0-336.531-92.299-423.381-2.517c0,0-164.416,87.458-286.5,84.534L-1232.71,1206.472z"/>
		<use xlink:href="#SVGID_11_"  overflow="visible" fill="none" stroke="#FFFFFF" stroke-width="3" stroke-miterlimit="10"/>
	</g>
	<g>
		<defs>
			<path id="SVGID_13_" d="M1009.354,1007.341c0,15.251-5.802,27.608-12.953,27.608H4.786c-7.153,0-12.953-12.357-12.953-27.608
				V-11.124c0-15.251,5.8-27.612,12.953-27.612h991.615c7.151,0,12.953,12.361,12.953,27.612V1007.341z"/>
		</defs>
		<clipPath id="SVGID_4_">
			<use xlink:href="#SVGID_13_"  overflow="visible"/>
		</clipPath>
		<g clip-path="url(#SVGID_4_)">
			<path opacity="0.6" fill="#A6C15A" d="M1342.84,712.549c0,0-477.167-40.821-669.273-129.072c0,0-425.651-96.09-535.501-2.621
				c0,0-207.955,91.048-362.37,88.005l-38.602,283.365l1627.229-14.261L1342.84,712.549z M435.96,645.066
				c-4.246-12.744-20.451-17.515-24.292-31.148c-2.329-2.709-4.173-5.792-5.116-9.57c0.943,3.778,2.787,6.861,5.116,9.57
				c-0.251-0.889-0.451-1.813-0.593-2.785c0.142,0.972,0.342,1.896,0.593,2.785c8.823,10.254,24.767,15.044,26.553,31.148
				c-1.786-16.104-17.729-20.895-26.553-31.148C415.509,627.552,431.714,632.322,435.96,645.066z"/>
			<path opacity="0.6" fill="#D2E081" d="M1325.095,748.87c0,0-467.879-40.819-656.249-129.072c0,0-417.37-96.091-525.083-2.623
				c0,0-203.908,91.047-355.315,88.006l-37.856,283.365l1595.571-14.262L1325.095,748.87z M435.96,645.066
				c-4.246-12.744-20.451-17.515-24.292-31.148c-2.329-2.709-4.173-5.792-5.116-9.57c0.943,3.778,2.787,6.861,5.116,9.57
				c-0.251-0.889-0.451-1.813-0.593-2.785c0.142,0.972,0.342,1.896,0.593,2.785c8.823,10.254,24.767,15.044,26.553,31.148
				c-1.786-16.104-17.729-20.895-26.553-31.148C415.509,627.552,431.714,632.322,435.96,645.066z"/>
			<path opacity="0.6" fill="#062821" d="M-14.675,1070.365l1911.059-25.234l-24.562-207.142c0,0-545.537-37.509-765.177-118.609
				c0,0-486.636-88.298-612.229-2.406c0,0-332.549,122.424-509.09,119.627V1070.365z"/>
			<path opacity="0.6" fill="#60BA99" d="M1296.05,1079.348L9.5,1065.649l16.989-216.525c0,0,377.265-39.21,529.149-123.982
				c0,0,336.537-92.301,423.389-2.519c0,0,164.414,87.457,286.5,84.538L1296.05,1079.348z"/>
			<path opacity="0.6" fill="#1B877F" d="M1286.971,1106.59L0.419,1092.89l16.988-216.526c0,0,377.266-39.21,529.151-123.981
				c0,0,336.536-92.296,423.39-2.517c0,0,164.413,87.456,286.499,84.535L1286.971,1106.59z"/>
			<path opacity="0.6" fill="#60BA99" d="M-246.48,1133.828l1251.961-13.696l3.226-180.975c0,0-386.876-74.759-534.681-159.537
				c0,0-327.487-92.298-412.005-2.514c0,0-159.997,87.456-278.801,84.532L-246.48,1133.828z"/>
			<path opacity="0.6" fill="#062821" d="M-146.221,921.893c0,0,331.157-9.525,454.985-67.741
				c123.825-58.216,284.108-45.191,390.829-30.301c106.723,14.892,233.721,131.31,304.126,88.422l26.078,205.606"/>
			<path opacity="0.6" fill="#126864" d="M-84.05,1164.949l1189.415-26.657l-16.988-216.527
				c-126.448-13.143-78.307,121.562-554.086-143.981c0,0-311.603-72.298-398.452,17.481c0,0-93.28,74.423-215.365,71.501
				L-84.05,1164.949z"/>
			<path opacity="0.6" fill="#062821" d="M-181.185,1206.472l1286.55-13.698l-16.988-216.53c0,0-377.262-39.205-529.157-123.979
				c0,0-336.531-92.299-423.381-2.517c0,0-164.416,87.458-286.5,84.534L-181.185,1206.472z"/>
		</g>
		<g id="Layer_2_1_" clip-path="url(#SVGID_4_)">
			<g id="Calque_2_2_">
				<polygon fill="#198B83" points="487.737,721.821 409.39,646.21 497.686,691.285 				"/>
				<path fill="#198B83" d="M355.16,380.908c2.943,37.438,14.511,66.825,29.962,89.768c-65.81,4.415-106.573-64.75-106.573-64.75
					c28.726,78.951,101.011,86.824,124.586,87.266c42.927,45.208,98.7,55.922,98.7,55.922l-0.265-37.232
					C389.847,511.027,355.16,380.908,355.16,380.908z"/>
				<path fill="#136B67" d="M651.292,482.11c-2.414,37.482-13.598,67.018-28.74,90.195c65.869,3.546,105.689-66.223,105.689-66.223
					c-27.65,79.349-99.818,88.223-123.395,88.959c-42.309,45.752-97.92,57.26-97.92,57.26l-0.19-37.217
					C618.343,612.568,651.292,482.11,651.292,482.11z"/>
				<polygon fill="#198B83" points="497.848,344.412 468.681,904.698 501.674,904.462 				"/>
				<polygon fill="#136B67" points="497.848,344.412 534.667,904.241 501.674,904.462 				"/>
			</g>
			<g id="Calque_1_2_">
				<path d="M419.087,470.956c-6.431,0.456-6.887-8.064-4.047-14.024c4.532-9.051,12.994-14.437,16.997-24.062
					c3.959,6.578,5.254,18.602,2.531,27.961c-2.943,10.184-7.358,10.492-15.481,10.065"/>
				<path fill="#638B51" d="M512.769,391.298c-6.577-2.708-3.223-11.597,2.252-16.188c8.564-6.961,19.396-8.241,27.652-16.026
					c1,8.639-3.076,21.485-9.992,29.697c-7.521,8.829-12.068,6.99-19.912,2.561"/>
				<path fill="#638B51" d="M334.646,481.154c-5.106-4.71-12.45,2.692-15.144,9.064c-3.914,9.831-1.324,19.603-6.195,29.433
					c9.065-2.223,20.515-10.302,26.298-19.131C345.86,490.911,341.916,486.319,334.646,481.154"/>
				<path fill="#638B51" d="M723.71,498.327c5.047,4.754,12.465-2.59,15.215-8.933c4.004-9.801,1.473-19.587,6.461-29.432
					c-9.08,2.134-20.602,10.109-26.488,18.925c-6.328,9.565-2.443,14.187,4.797,19.425"/>
				<path fill="#638B51" d="M418.704,519.136c-5.96-5.474-14.495,3.105-17.659,10.508c-4.532,11.435-1.472,22.795-7.122,34.259
					c10.551-2.546,23.884-11.905,30.609-22.206c7.255-11.17,2.648-16.526-5.887-22.561"/>
				<path fill="#61BE9C" d="M474.699,550.467c-4.547-6.622-14.451-0.56-18.969,5.695c-6.682,9.697-6.122,21.176-13.878,30.668
					c10.581,0.118,25.224-5.519,33.759-13.642C484.823,564.358,481.498,558.207,474.699,550.467"/>
				<path fill="#D48E37" d="M275.341,401.894c8.049,1.471,10.786-10.052,9.506-17.792c-2.222-11.773-10.919-19.661-12.199-32.081
					c-7.711,7.563-14.143,22.147-14.393,34.215C258.034,399.186,264.818,401.29,275.341,401.894"/>
				<path fill="#61BE9C" d="M309.968,462.332c-2.561-7.446-13.687-4.149-19.676,0.662c-9.021,7.564-11.582,18.631-21.56,25.709
					c10.11,2.781,25.636,1.074,35.996-4.518C315.928,478.122,314.441,471.427,309.968,462.332"/>
				<path fill="#61BE9C" d="M410.729,663.516c-0.883-8.388-12.627-7.99-19.661-4.62c-10.625,5.4-15.643,16.188-27.121,20.808
					c9.374,5.593,25.149,8.006,36.657,5.019C413.054,681.455,413.098,674.126,410.729,663.516"/>
				<path fill="#638B51" d="M436.775,686.017c-2.236-5.592-10.301-2.943-14.598,0.854c-6.357,5.887-7.771,14.319-14.863,19.867
					c7.623,1.928,19.131,0.353,26.488-4.062c8.05-4.798,6.652-9.846,2.943-16.659"/>
				<path fill="#196C69" d="M379.147,500.918c-5.269-5.754-14.01,1.472-17.526,8.108c-5.151,10.301-3.091,21.294-9.286,31.521
					c10.301-1.324,23.546-8.829,30.728-17.807C390.788,512.955,386.8,507.451,379.147,500.918"/>
				<path fill="#196C69" d="M613.177,537.296c9.197-0.927,8.609-14.187,4.826-22.074c-6.062-12.038-17.924-17.777-23.178-30.757
					c-6.018,10.552-8.477,28.329-5.047,41.338c3.752,14.083,11.773,14.172,23.398,11.552"/>
				<path fill="#638B51" d="M633.528,488.953c8.83,1.295,11.229-11.772,9.492-20.499c-2.943-13.244-12.744-21.677-14.715-35.643
					c-8.006,8.83-14.32,25.68-14.039,39.219c0.309,14.716,7.799,16.688,19.248,16.923"/>
				<path fill="#638B51" d="M564.599,639.764c4.975-8.947,17.969-4.179,24.268,3.415c9.389,11.772,9.918,26.65,20.602,38.1
					c-13.244,1.177-32.125-4.665-43.633-14.289C553.37,656.555,556.843,650.374,564.599,639.764"/>
				<path fill="#638B51" d="M516.345,481.728c-6.562-4.856-0.971-14.318,6.004-18.292c10.832-5.886,22.869-4.562,33.568-11.464
					c-0.811,10.302-8.064,24.193-17.381,31.949C528.427,492.309,523.821,488.924,516.345,481.728"/>
				<path fill="#61BE9C" d="M585.644,569.598c8.977-2.134,7.137-14.407,2.648-21.279c-7.094-10.375-19.338-14.084-25.725-25.444
					c-4.93,10.64-5.68,27.534-1.059,39.174C566.526,574.646,574.444,573.63,585.644,569.598"/>
				<path fill="#638B51" d="M549.692,598.382c9.711,1.296,12.787-10.213,11.109-17.895c-2.943-11.685-13.51-19.293-15.289-31.61
					c-9.125,7.683-16.586,22.354-16.674,34.289C528.839,596.087,537.007,597.985,549.692,598.382"/>
				<path fill="#D48E37" d="M444.001,541.063c-3.34-4.415-9.845-0.28-12.67,4.002c-4.18,6.638-3.355,14.437-8.271,20.941
					c8.372-0.399,16.325-3.775,22.427-9.521c5.887-6.048,3.474-10.213-1.471-15.422"/>
				<path fill="#D2E07F" d="M278.181,433.592c2.679-9.213-11.479-13.716-21.323-13.112c-15.011,1.236-25.798,10.478-41.5,10.566
					c8.668,9.83,26.342,19.013,41.353,20.603c16.275,1.795,19.587-5.887,21.471-18.116"/>
				<path fill="#638B51" d="M345.286,385.323c7.196-2.841,4.209-12.804-0.339-17.969c-7.137-7.756-17.747-9.374-24.399-18.027
					c-2.825,9.418-1.472,23.546,3.797,32.626C330.011,391.812,336.471,390.018,345.286,385.323"/>
				<path fill="#638B51" d="M478.643,376.641c9.595-0.647,9.463-14.466,5.887-22.854c-5.887-12.744-18.013-19.131-23.001-32.816
					c-6.637,10.757-9.83,29.152-6.726,42.794c3.385,14.716,11.773,15.173,23.914,12.877"/>
				<path fill="#D2E07F" d="M681.181,584.417c-3.959-9.139,8.607-12.332,19.027-9.992c15.938,3.855,28.373,14.48,44.854,17.395
					c-7.857,7.682-25.281,13.111-40.836,11.979C687.376,602.532,684.667,596.204,681.181,584.417"/>
				<path d="M372.658,393.299c-7.358-2.119-5.71-12.273-0.986-18.071c7.358-8.741,18.307-11.566,25.238-21.177
					c2.796,9.345,1.206,23.943-4.253,33.848c-5.887,10.713-11.008,9.241-19.999,5.415"/>
				<path fill="#61BE9C" d="M305.861,425.365c-6.931,2.354-9.064-7.049-7.093-14.407c3.237-11.39,11.464-19.822,13.995-31.684
					c5.592,6.195,9.301,19.234,8.123,30.507c-1.295,12.214-6.107,13.818-15.025,15.657"/>
				<path fill="#196C69" d="M593.325,618.794c-0.678-8.212,10.096-7.771,17.658-3.459c11.508,6.844,18.469,18.233,30.684,24.443
					c-8.27,4.254-23.443,4.415-35.318-0.132c-12.936-4.975-13.393-10.654-12.98-20.853"/>
				<path fill="#196C69" d="M719.235,547.686c-4.414-7.623,6.195-12.126,15.496-11.42c14.275,1.339,26.209,9.153,40.867,9.565
					c-6.033,7.888-20.604,15.04-34.26,16.085c-14.789,1.104-17.82-4.18-22.074-14.23"/>
				<path fill="#196C69" d="M476.097,492.854c7.049-0.397,5.416-7.623,0.854-12.288c-7.166-7.063-17.659-10.566-24.354-18.16
					c-2.649,6.02-1.045,16.291,4.253,23.87C462.603,494.486,467.474,494.207,476.097,492.854"/>
				<path fill="#196C69" d="M478.216,419.655c8.83-2.104,4.709-13.244-2.413-19.734c-11.14-9.742-25.474-13.142-36.172-23.84
					c-1.619,10.125,3.355,26.121,12.244,37.1C461.558,425.057,467.65,423.585,478.216,419.655"/>
				<path d="M391.95,438.919c-9.05-1.251-8.138-13.421-3.075-21c7.961-11.522,20.735-16.644,28.093-29.035
					c4.327,10.464,3.93,27.828-1.589,40.337C409.359,442.745,403.12,441.862,391.95,438.919"/>
				<path fill="#D48E37" d="M742.442,514.589c-5.475-4.209-0.102-11.67,6.211-14.628c9.742-4.415,20.205-2.825,29.902-8.021
					c-1.25,8.345-8.314,19.337-16.85,25.282C752.435,523.64,748.667,520.711,742.442,514.589"/>
				<path fill="#D48E37" d="M512.96,435.401c-7.195-3.635-3.119-13.642,3.164-18.586c9.787-7.358,21.854-8.05,31.359-16.423
					c0.752,10.065-4.311,24.59-12.332,33.552c-8.711,9.698-13.686,7.167-22.191,1.472"/>
				<path fill="#638B51" d="M647.538,599.412c3.768-8.226,15.217-4.164,21.059,2.605c8.758,10.565,10.053,24.017,19.883,34.215
					c-11.287,1.354-27.873-3.576-38.262-12.082c-11.303-9.242-8.684-14.923-2.619-24.738"/>
				<path fill="#61BE9C" d="M675.69,504.022c-11.141-1.618-11.404-16.864-6.107-26.327c8.434-14.289,23.428-20.603,30.904-36.113
					c6.445,13.127,7.932,34.878,2.619,50.491c-5.783,16.909-13.494,15.761-27.459,11.949"/>
				<path fill="#196C69" d="M345.786,453.944c-6.813,3.708-12.303-5.062-12.7-12.789c-0.309-11.772,5.887-21.794,4.606-33.949
					c8.256,4.959,16.732,16.997,19.249,28.328C359.663,447.808,354.939,450.354,345.786,453.944"/>
				<path fill="#D2E07F" d="M511.812,357.671c-7.356,2.311-8.195-7.549-5.223-15.334c4.768-11.876,14.172-20.603,18.291-32.92
					c4.812,6.622,6.814,20.367,4.135,32.17C526.073,354.36,521.04,355.949,511.812,357.671"/>
				<path fill="#D2E07F" d="M419.087,470.956c-6.431,0.456-6.887-8.064-4.047-14.024c4.532-9.051,12.994-14.437,16.997-24.062
					c3.959,6.578,5.254,18.602,2.531,27.961c-2.943,10.184-7.358,10.492-15.481,10.065"/>
				<path fill="#D2E07F" d="M372.658,393.299c-7.358-2.119-5.71-12.273-0.986-18.071c7.358-8.741,18.307-11.566,25.238-21.177
					c2.796,9.345,1.206,23.943-4.253,33.848c-5.887,10.713-11.008,9.241-19.999,5.415"/>
				<path fill="#61BE9C" d="M481.454,460.169c8.49-3.252,2.942-13.76-5.019-19.234c-12.317-8.196-26.975-9.668-38.997-18.851
					c-0.28,10.301,6.769,25.458,17.041,35.156c11.154,10.492,17.012,8.227,26.975,2.943"/>
				<path fill="#D48E37" d="M391.95,438.919c-9.05-1.251-8.138-13.421-3.075-21c7.961-11.522,20.735-16.644,28.093-29.035
					c4.327,10.464,3.93,27.828-1.589,40.337C409.359,442.745,403.12,441.862,391.95,438.919"/>
				<path fill="#196C69" d="M451.742,658.057c-6.416,0.456-6.872-8.064-4.032-14.01c4.532-9.065,12.994-14.451,16.982-24.062
					c3.974,6.563,5.269,18.587,2.546,27.961c-2.943,10.198-7.358,10.492-15.496,10.065"/>
				<path fill="#D48E37" d="M427.99,642.266c-6.857,3.385-12.494-5.224-12.921-12.685c-0.427-11.435,5.725-20.883,4.415-32.641
					c8.358,5.003,17.026,16.85,19.661,27.843c2.84,11.92-1.898,14.245-11.111,17.482"/>
				<path fill="#638B51" d="M402.148,631.464c8.992-1.31,5.887-12.788-0.677-19.866c-10.301-10.699-24.208-15.335-33.847-26.931
					c-2.517,9.934,1.03,26.312,8.933,38.026c8.579,12.686,14.79,11.772,25.665,8.83"/>
				<path fill="#D2E07F" d="M666.61,459.286c-6.562,6.872-16.893-0.707-20.602-9.168c-5.416-13.068-2.297-26.622-8.963-39.733
					c11.965,2.236,27.254,12.258,35.113,23.854c8.461,12.582,3.914,17.306-5.52,25.018"/>
				<path fill="#D2E07F" d="M521.245,525.744c-7.166-3.605-2.635-13.245,3.93-17.998c10.213-7.063,22.471-7.579,32.375-15.585
					c0.367,9.771-5.326,23.812-13.803,32.376c-9.199,9.315-14.143,6.799-22.545,1.162"/>
				<path fill="#D48E37" d="M651.659,543.771c-6.621-5.798,0.721-14.98,8.83-18.307c12.656-4.842,25.768-2.119,38.408-8.064
					c-2.178,10.61-11.904,24.193-23.133,31.184c-12.186,7.55-16.762,3.518-24.18-4.812"/>
			</g>
		</g>
		<path clip-path="url(#SVGID_4_)" fill="#0B564B" d="M-181.185,1206.472l1286.55-13.698l-16.988-216.53
			c0,0-377.262-39.205-529.157-123.979c0,0-336.531-92.299-423.381-2.517c0,0-164.416,87.458-286.5,84.534L-181.185,1206.472z"/>
		<use xlink:href="#SVGID_13_"  overflow="visible" fill="none" stroke="#FFFFFF" stroke-width="3" stroke-miterlimit="10"/>
	</g>
</g>
<g id="Calque_1">
</g>
</svg>
