<?xml version="1.0" encoding="utf-8"?>
<!-- Generator: Adobe Illustrator 16.0.0, SVG Export Plug-In . SVG Version: 6.00 Build 0)  -->
<!DOCTYPE svg PUBLIC "-//W3C//DTD SVG 1.1//EN" "http://www.w3.org/Graphics/SVG/1.1/DTD/svg11.dtd">
<svg version="1.1" xmlns="http://www.w3.org/2000/svg" xmlns:xlink="http://www.w3.org/1999/xlink" x="0px" y="0px" width="1000px"
	 height="1000px" viewBox="0 0 1000 1000" enable-background="new 0 0 1000 1000" xml:space="preserve">
<g id="Calque_3">
</g>
<g id="Calque_2">
	<g>
		<defs>
			<path id="SVGID_3_" d="M2060.88,1007.341c0,15.251-5.802,27.608-12.953,27.608h-991.615c-7.153,0-12.953-12.357-12.953-27.608
				V-11.124c0-15.251,5.8-27.612,12.953-27.612h991.615c7.151,0,12.953,12.361,12.953,27.612V1007.341z"/>
		</defs>
		<clipPath id="SVGID_2_">
			<use xlink:href="#SVGID_3_"  overflow="visible"/>
		</clipPath>
		<g clip-path="url(#SVGID_2_)">
			<path opacity="0.6" fill="#A6C15A" d="M2394.365,712.549c0,0-477.167-40.821-669.273-129.072c0,0-425.651-96.09-535.501-2.621
				c0,0-207.955,91.048-362.37,88.005l-38.602,283.365l1627.229-14.261L2394.365,712.549z M1487.485,645.066
				c-4.246-12.744-20.451-17.515-24.292-31.148c-2.329-2.709-4.173-5.792-5.116-9.57c0.943,3.778,2.787,6.861,5.116,9.57
				c-0.251-0.889-0.451-1.813-0.593-2.785c0.142,0.972,0.342,1.896,0.593,2.785c8.823,10.254,24.767,15.044,26.553,31.148
				c-1.786-16.104-17.729-20.895-26.553-31.148C1467.034,627.552,1483.239,632.322,1487.485,645.066z"/>
			<path opacity="0.6" fill="#D2E081" d="M2376.62,748.87c0,0-467.879-40.819-656.249-129.072c0,0-417.37-96.091-525.083-2.623
				c0,0-203.908,91.047-355.315,88.006l-37.856,283.365l1595.571-14.262L2376.62,748.87z M1487.485,645.066
				c-4.246-12.744-20.451-17.515-24.292-31.148c-2.329-2.709-4.173-5.792-5.116-9.57c0.943,3.778,2.787,6.861,5.116,9.57
				c-0.251-0.889-0.451-1.813-0.593-2.785c0.142,0.972,0.342,1.896,0.593,2.785c8.823,10.254,24.767,15.044,26.553,31.148
				c-1.786-16.104-17.729-20.895-26.553-31.148C1467.034,627.552,1483.239,632.322,1487.485,645.066z"/>
			<path opacity="0.6" fill="#60BA99" d="M805.045,1133.828l1251.961-13.696l3.226-180.975c0,0-386.876-74.759-534.681-159.537
				c0,0-327.487-92.298-412.005-2.514c0,0-159.997,87.456-278.801,84.532L805.045,1133.828z"/>
			<path opacity="0.6" fill="#062821" d="M905.305,921.893c0,0,331.157-9.525,454.985-67.741
				c123.825-58.216,284.108-45.191,390.829-30.301c106.723,14.892,233.721,131.31,304.126,88.422l26.078,205.606"/>
			<path opacity="0.6" fill="#126864" d="M967.476,1164.949l1189.415-26.657l-16.988-216.527
				c-126.448-13.143-78.307,121.562-554.086-143.981c0,0-311.603-72.298-398.452,17.481c0,0-93.28,74.423-215.365,71.501
				L967.476,1164.949z"/>
			<path opacity="0.6" fill="#062821" d="M870.341,1206.472l1286.55-13.698l-16.988-216.53c0,0-377.262-39.205-529.157-123.979
				c0,0-336.531-92.299-423.381-2.517c0,0-164.416,87.458-286.5,84.534L870.341,1206.472z"/>
		</g>
		<path clip-path="url(#SVGID_2_)" fill="#0B564B" d="M870.341,1206.472l1286.55-13.698l-16.988-216.53
			c0,0-377.262-39.205-529.157-123.979c0,0-336.531-92.299-423.381-2.517c0,0-164.416,87.458-286.5,84.534L870.341,1206.472z"/>
		<use xlink:href="#SVGID_3_"  overflow="visible" fill="none" stroke="#FFFFFF" stroke-width="3" stroke-miterlimit="10"/>
	</g>
	<g>
		<defs>
			<path id="SVGID_5_" d="M1009.354,1007.341c0,15.251-5.802,27.608-12.953,27.608H4.786c-7.153,0-12.953-12.357-12.953-27.608
				V-11.124c0-15.251,5.8-27.612,12.953-27.612h991.615c7.151,0,12.953,12.361,12.953,27.612V1007.341z"/>
		</defs>
		<clipPath id="SVGID_4_">
			<use xlink:href="#SVGID_5_"  overflow="visible"/>
		</clipPath>
		<g clip-path="url(#SVGID_4_)">
			<path opacity="0.6" fill="#A6C15A" d="M1342.84,712.549c0,0-477.167-40.821-669.273-129.072c0,0-425.651-96.09-535.501-2.621
				c0,0-207.955,91.048-362.37,88.005l-38.602,283.365l1627.229-14.261L1342.84,712.549z M435.96,645.066
				c-4.246-12.744-20.451-17.515-24.292-31.148c-2.329-2.709-4.173-5.792-5.116-9.57c0.943,3.778,2.787,6.861,5.116,9.57
				c-0.251-0.889-0.451-1.813-0.593-2.785c0.142,0.972,0.342,1.896,0.593,2.785c8.823,10.254,24.767,15.044,26.553,31.148
				c-1.786-16.104-17.729-20.895-26.553-31.148C415.509,627.552,431.714,632.322,435.96,645.066z"/>
			<path opacity="0.6" fill="#D2E081" d="M1325.095,748.87c0,0-467.879-40.819-656.249-129.072c0,0-417.37-96.091-525.083-2.623
				c0,0-203.908,91.047-355.315,88.006l-37.856,283.365l1595.571-14.262L1325.095,748.87z M435.96,645.066
				c-4.246-12.744-20.451-17.515-24.292-31.148c-2.329-2.709-4.173-5.792-5.116-9.57c0.943,3.778,2.787,6.861,5.116,9.57
				c-0.251-0.889-0.451-1.813-0.593-2.785c0.142,0.972,0.342,1.896,0.593,2.785c8.823,10.254,24.767,15.044,26.553,31.148
				c-1.786-16.104-17.729-20.895-26.553-31.148C415.509,627.552,431.714,632.322,435.96,645.066z"/>
			<path opacity="0.6" fill="#062821" d="M-14.675,1070.365l1911.059-25.234l-24.562-207.142c0,0-545.537-37.509-765.177-118.609
				c0,0-486.636-88.298-612.229-2.406c0,0-332.549,122.424-509.09,119.627V1070.365z"/>
			<path opacity="0.6" fill="#60BA99" d="M1296.05,1079.348L9.5,1065.649l16.989-216.525c0,0,377.265-39.21,529.149-123.982
				c0,0,336.537-92.301,423.389-2.519c0,0,164.414,87.457,286.5,84.538L1296.05,1079.348z"/>
			<path opacity="0.6" fill="#1B877F" d="M1286.971,1106.59L0.419,1092.89l16.988-216.526c0,0,377.266-39.21,529.151-123.981
				c0,0,336.536-92.296,423.39-2.517c0,0,164.413,87.456,286.499,84.535L1286.971,1106.59z"/>
			<path opacity="0.6" fill="#60BA99" d="M-246.48,1133.828l1251.961-13.696l3.226-180.975c0,0-386.876-74.759-534.681-159.537
				c0,0-327.487-92.298-412.005-2.514c0,0-159.997,87.456-278.801,84.532L-246.48,1133.828z"/>
			<path opacity="0.6" fill="#062821" d="M-146.221,921.893c0,0,331.157-9.525,454.985-67.741
				c123.825-58.216,284.108-45.191,390.829-30.301c106.723,14.892,233.721,131.31,304.126,88.422l26.078,205.606"/>
			<path opacity="0.6" fill="#126864" d="M-84.05,1164.949l1189.415-26.657l-16.988-216.527
				c-126.448-13.143-78.307,121.562-554.086-143.981c0,0-311.603-72.298-398.452,17.481c0,0-93.28,74.423-215.365,71.501
				L-84.05,1164.949z"/>
			<path opacity="0.6" fill="#062821" d="M-181.185,1206.472l1286.55-13.698l-16.988-216.53c0,0-377.262-39.205-529.157-123.979
				c0,0-336.531-92.299-423.381-2.517c0,0-164.416,87.458-286.5,84.534L-181.185,1206.472z"/>
		</g>
		<g clip-path="url(#SVGID_4_)">
			<path fill="#FDFDFD" d="M107.273,327.168c0-62.727,3.929,16.778,7.232,21.984c3.614,5.689,7.474,11.126,13.482,14.494
				c6.265,3.516,13.196,0.913,19.355-7.02c2.797-3.602,1.959-8.042-2.473-13.213c-4.466-5.208-10.514-7.389-16.917-8.908
				C120.796,332.807,113.526,331.422,107.273,327.168z M421.349,243.552c-0.196-0.128-0.394-0.258-0.59-0.388
				c0.118,0.209,0.238,0.415,0.359,0.622c0.169,6.856-0.874,13.599-1.712,20.378c-0.82,6.672-0.736,13.371,3.271,19.289
				c2.418,3.57,5.185,5.281,9.727,2.951c7.061-3.621,8.771-6.147,6.824-14.227C436.476,260.721,431.313,250.592,421.349,243.552z
				 M187.602,276.451c-0.057-0.132-0.091-0.282-0.181-0.385c-0.043-0.054-0.188-0.02-0.287-0.022
				c0.177,0.113,0.354,0.225,0.53,0.338c-1,12.711,11.28,33.315,22.874,38.386c5.306,2.32,17.09-0.49,19.95-4.76
				c2.525-3.768-0.491-10.938-6.71-15.686c-1.524-1.165-3.192-2.176-4.892-3.079C208.69,285.822,197.46,282.59,187.602,276.451z
				 M591.408,439.133c2.224,3.145,4.288,6.422,6.716,9.401c3.06,3.752,7.147,5.241,11.752,3.348
				c15.372-6.318,24.373-18.343,30.591-34.345c-7.264,2.449-13.673,2.891-20.141,2.949c-11.482,0.106-22.338,1.748-29.23,12.573
				c-0.057,0.089-0.336,0.038-0.512,0.051c0.257-1.363,0.625-2.714,0.756-4.089c1.885-19.526,6.599-38.391,13.428-56.733
				c2.723-7.313,5.846-14.477,8.787-21.71c-7.121,5.732-13.109,12.361-18.523,19.479c-29.3,38.538-40.738,82.312-37.734,130.196
				c0.245,3.902-0.612,6.029-4.214,7.74c-9.353,4.445-18.56,9.21-27.735,14.013c-2.678,1.401-3.53,1.098-3.829-2.048
				c-1.226-12.779-2.684-25.536-4.042-38.302c-3.031-28.507-6.072-57.015-9.07-85.525c-2.649-25.188-5.17-50.392-7.943-75.563
				c-0.38-3.428,0.746-4.818,3.697-6.271c18.058-8.896,35.051-19.463,49.737-33.385c1.733-1.644,3.425-1.971,5.626-1.985
				c8.451-0.061,16.879-0.552,25.144-2.532c15.586-3.735,29.108-10.555,37.004-25.428c1.785-3.362,3.478-6.883,3.68-11.774
				c-13.037,18.194-39.966,30.245-55.953,25.613c15.871-26.227,20.375-37.034,19.567-48.232
				c-12.738,26.323-31.285,46.496-54.424,63.461c-2.459-9.766-2.633-18.931-1.483-28.29c1.13-9.169,4.157-17.837,7.019-27.361
				c-2.955,1.687-4.169,3.665-5.529,5.454c-12.741,16.756-17.234,35.852-16.025,56.578c0.094,1.631,1.068,3.617-0.913,4.818
				c-6.041,3.671-12.149,7.224-19.142,9.968c-3.283-30.857-6.502-61.106-9.721-91.354c0.41-1.816-1.029-2.848-1.547-5.127
				c-4.77,45.163-9.438,89.363-14.191,134.364c-4.311-3.152-7.816-6.089-11.676-8.442c-4.386-2.679-5.693-5.898-4.035-10.852
				c1.044-3.123,1.287-6.555,1.586-9.873c1.739-19.239-2.672-36.871-14.028-52.711c3.829,18.849,4.972,37.493-2.791,56.291
				c-20.617-20.375-35.962-43.443-44.767-70.73c-1.588,18.504,4.646,34.952,13.307,51.513c-23.02-4.4-42.864-11.97-52.549-34.972
				c0.999,18.13,10.426,30.579,25.828,39c10.47,5.724,21.839,8.706,33.538,10.546c2.142,0.336,3.888,0.796,5.37,2.695
				c12.024,15.41,26.518,28.239,42.679,39.073c4.905,3.291,5.9,6.782,5.209,12.184c-1.892,14.828-3.354,29.714-4.909,44.583
				c-2.599,24.851-5.173,49.701-7.668,74.56c-0.363,3.621-1.138,4.738-5.076,3.032c-14.21-6.141-27.962-13.193-41.908-19.87
				c-6.743-3.229-8.029-7.189-7.709-14.197c2.082-45.725-9.661-87.373-38.057-123.8c-2.487-3.19-5.14-6.271-7.922-9.208
				c-2.748-2.898-5.754-5.552-9.582-9.204c18.999,42.088,28.774,84.192,19.797,129.452c-1.095-0.521-1.596-0.688-2.02-0.975
				c-22.943-15.562-44.215-33.136-63.881-52.682c-2.182-2.166-2.049-3.93-1.098-6.506c6.178-16.733,10.214-33.977,11.485-51.795
				c0.192-2.689,1.084-4.477,2.991-6.314c9.598-9.257,17.766-19.561,21.797-32.532c3.664-11.782,2.904-23.122-4.14-34.443
				c1.694,22.373-7.505,44.876-20.748,51.679c-5.686-26.13-10.052-37.129-17.462-43.549c8.1,24.838,9.085,49.785,4.279,75.703
				c-10.45-6.549-17.705-15.191-23.609-25.075c-1.889-3.163-3.455-6.522-5.134-9.811c-0.477-0.938-0.821-2.203-2.084-1.995
				c-1.844,0.303-0.916,1.948-1.064,3.016c-0.095,0.662,0.161,1.375,0.273,2.062c3.042,18.584,11.577,34.128,25.731,46.572
				c1.188,1.044,2.395,1.933,1.719,3.959c-1.69,5.033-3.178,10.133-5.03,16.124c-20.904-23.171-37.877-47.566-52.098-75.314
				c0,2.652-0.159,4.012,0.024,5.323c1.453,10.477,3.975,20.703,7.451,30.684c9.714,27.87,25.23,52.383,44.436,75.379
				c-1.407,0.239-2.053,0.432-2.7,0.445c-19.432,0.373-38.728-0.971-57.547-6.052c-30.25-8.176-55.975-22.774-71.199-51.733
				c-0.196-0.373-0.734-0.569-1.063-0.812c-0.941,0.764-0.162,1.359-0.002,1.922c1.156,4.052,2.167,8.162,3.616,12.11
				c12.214,33.323,37.067,52.993,69.745,63.957c27.08,9.085,55.048,11.059,83.364,9.609c3.206-0.163,5.611,0.711,8.068,2.802
				c7.372,6.27,14.79,12.515,22.522,18.328c32.371,24.344,67.738,43.443,104.93,59.268c3.152,1.34,4.953,2.443,4.455,6.752
				c-3.308,28.662-6.166,57.374-9.203,86.068c-0.967,9.127-2.025,18.242-3.084,27.738c-2.021-0.983-3.236-1.707-4.543-2.187
				c-6.309-2.318-8.489-5.995-8.004-13.382c1.466-22.325-1.813-44.217-9.686-65.287c-8.125-21.748-20.36-40.782-37.662-56.554
				c15.477,35.516,24.303,71.901,16.242,111.632c-47.353-32.415-85.928-71.554-112.512-121.892
				c4.157,36.706,21.718,67.054,44.986,95.444c-9.63,0.579-18.35,0.076-27.043-0.756c-18.911-1.814-37.057-6.329-53.767-15.706
				c-14.522-8.151-25.997-19.362-33.999-34.147c-0.165,1.022-0.102,1.885,0.11,2.703c8.098,31.558,28.511,51.765,58.418,63.075
				c24.973,9.445,51.005,11.364,77.385,10.266c2.471-0.103,4.345,0.161,6.229,1.832c23.435,20.812,49.598,37.577,77.402,51.866
				c2.597,1.334,3.596,2.792,3.23,5.691c-0.96,7.679-1.694,15.387-2.51,23.088c-3.035,28.69-6.059,57.385-9.104,86.075
				c-2.695,25.367-5.44,50.731-8.115,76.103c-1.938,18.369-3.772,36.753-5.726,55.121c-0.287,2.692-0.054,4.163,3.338,4.135
				c23.956-0.191,47.91-0.199,71.863-0.269c23.076,0.065,46.147,0.136,69.222,0.19c6.367,0.016,6.185,0.018,5.489-6.35
				c-3.109-28.506-6.139-57.021-9.146-85.539c-2.985-28.344-5.896-56.695-8.868-85.041c-3.064-29.219-6.114-58.438-9.317-87.643
				c-0.39-3.537,0.25-4.809,4.123-5.165c26.188-2.423,51.734-7.8,76.175-17.76c2.546-1.039,4.605-0.602,6.959,0.336
				c14.449,5.749,29.329,9.699,44.961,10.371c17.202,0.737,33.309-2.396,47.076-13.49c4.414-3.557,8.634-7.392,10.991-13.085
				c-27.342,18.658-55.41,14.013-84.355,3.872c30.393-21.634,48.263-40.254,50.954-53.042
				c-28.938,27.376-63.204,44.39-101.95,54.815c4.312-28.146,18.055-50.207,37.286-70.398c-1.479,0.5-1.968,0.609-2.403,0.821
				c-1.738,0.841-3.499,1.647-5.185,2.585c-26.937,14.953-43.989,37.771-52.71,66.988c-1.296,4.349-3.25,6.353-7.693,6.714
				c-7.706,0.628-15.401,1.518-23.068,2.537c-2.64,0.351-3.823-0.036-4.117-2.979c-2.043-20.482-4.182-40.957-6.436-61.416
				c-0.396-3.602,0.497-5.452,4.057-7.129c39.787-18.729,77.307-41.09,110.449-70.262c2.871-2.527,5.588-3.582,9.375-3.388
				c23.115,1.188,46.088,0.019,68.698-5.284c26.361-6.182,50.3-16.926,68.742-37.594c11.947-13.393,19.362-29.057,23.333-47.042
				c-2.143,1.116-2.421,2.822-3.163,4.132c-4.372,7.719-9.693,14.691-16.237,20.67c-33.175,30.309-73.928,35.465-117.579,35.552
				c14.015-16.869,26.013-33.716,35.202-52.353c9.213-18.684,16.762-37.929,17.71-59.193c-15.943,28.819-34.76,55.322-58.212,79.807
				c-0.765-4.229-0.918-7.273-1.901-10.019c-1.476-4.119,0.065-6.21,3.447-8.5c8.849-5.986,15.989-13.746,21.48-22.94
				c4.959-8.302,8.456-17.121,9.317-26.982c-0.614,0.065-0.889,0.02-0.948,0.113c-1.147,1.753-2.267,3.521-3.392,5.29
				c-7.374,11.604-16.458,21.479-28.514,28.4c-2.835,1.629-4.26,1.888-4.316-2.257c-0.248-18.41,1.366-36.554,7.12-54.147
				c1.917-5.868,4.179-11.625,6.697-18.57c-12.764,12.658-18.717,27.473-22.919,44.282c-12.84-17.217-21.979-34.39-14.615-56.057
				c-7.986,9.568-10.593,20.529-8.621,32.556c2.343,14.317,9.674,26.268,18.622,37.325c1.546,1.907,2.212,3.684,2.094,6.168
				c-0.822,17.506,0.833,34.812,4.962,51.84c0.811,3.352-0.042,5.533-2.5,7.855c-13.063,12.354-26.692,24.022-41.146,34.715
				c-6.175,4.569-12.442,9.008-19.01,13.748c-3.196-13.728-4.06-26.841-3.674-40.062
				C590.488,441.633,589.746,440.047,591.408,439.133z M794.616,385.327c-6.017,0.173-10.806-0.562-15.447-2.067
				c-4.837-1.571-9.657-3.198-14.492-4.777c-6.729-2.196-13.517-3.87-20.702-2.818c-12.746,1.865-17.541,8.951-14.309,21.275
				c0.312,1.189,0.581,2.395,0.955,3.562c2.787,8.671,6.462,11.292,15.438,11.267c4.28-0.014,8.409-0.904,12.426-2.17
				C772.496,405.183,784.442,397.652,794.616,385.327z M325.768,672.438c19.034,3.322,35.855,1.529,51.187-8.419
				c6.729-4.369,8.443-10.207,6.076-17.893c-0.77-2.501-1.877-4.911-2.969-7.298c-2.942-6.443-7.019-8.396-13.991-6.76
				c-7.68,1.799-13.715,6.055-18.464,12.296C340.645,653.511,335.912,664.297,325.768,672.438z M836.017,491.889
				c-4.722-3.536-8.691-7.203-12.306-11.21c-3.767-4.182-7.213-8.653-10.986-12.83c-3.187-3.52-6.506-6.938-10.002-10.146
				c-4.512-4.132-9.836-6.808-16.009-7.381c-3.439-0.32-6.812,0.078-8.771,3.503c-5.121,8.96-2.074,23.062,6.377,29.011
				c10.357,7.29,22.049,10.774,34.604,11.322C824.473,494.401,830.129,494.689,836.017,491.889z M331.199,526.67
				c16.307-6.387,28.396-15.736,35.611-30.533c3.806-7.803,2.089-13.726-4.754-19.042c-1.659-1.29-3.424-2.46-5.208-3.572
				c-6.287-3.916-10.272-3.396-15.375,1.962c-5.817,6.105-7.575,13.647-7.776,21.783
				C333.465,506.688,334.785,516.213,331.199,526.67z M180.832,606.633c13.806,6.542,27.305,8.202,41.178,5.279
				c14.25-3.003,17.968-9.365,14.678-23.53c-0.081-0.341-0.172-0.681-0.251-1.022c-1.659-7.281-5.145-10.013-12.622-9.582
				c-7.304,0.421-13.462,3.508-18.832,8.399C197.363,593.119,191.264,601.778,180.832,606.633z M453.366,353.438
				c-10.617,4.451-21.056,3.275-31.222,4.36c-9.028,0.964-16.734,4.197-20.913,12.845c-3.758,7.781,1.898,12.931,5.89,18.273
				c4.134,5.539,8.793,6.545,15.303,3.115C437.943,383.85,447.293,370.583,453.366,353.438z M792.55,528.815
				c-9.414,3.385-18.685,3.148-27.902,3.645c-5.966,0.319-11.822,1.471-16.848,5.187c-8.796,6.504-9.729,13.118-3.126,22.949
				c6.189,9.215,11.808,10.574,21.212,4.563c12.56-8.028,20.968-19.462,26.202-33.312
				C792.369,531.109,792.342,530.252,792.55,528.815z M728.009,270.127c4.939,8.872,6.122,17.571,7.726,26.17
				c0.707,3.798,1.804,7.506,3.438,11.038c6.058,13.088,17.573,15.537,28.084,5.947c7.644-6.972,8.266-12.553,1.648-20.519
				C758.608,280.368,745.092,273.509,728.009,270.127z M224.636,649.23c18.798-1.395,34.312-6.744,46.132-20.182
				c4.491-5.104,3.967-10.859,0.602-16.634c-7.064-12.107-14.476-13.199-24.763-3.621c-5.206,4.847-8.048,11.015-10.433,17.486
				C233.377,633.866,230.828,641.561,224.636,649.23z M169.74,489.996c-0.632,12.558,2.557,24.362,8.733,33.402
				c8.831,12.929,16.765,14.02,28.683,3.946c0.805-0.681,1.608-1.363,2.389-2.073c5.959-5.41,6.566-11.007,1.961-17.649
				c-4.467-6.452-11.319-8.646-18.451-10.17C185.189,495.77,177.145,494.758,169.74,489.996z M640.784,280.302
				c-5.641,1.389-9.84,1.667-14.048,1.462c-4.214-0.203-8.414-0.7-12.625-0.886c-6.5-0.283-13.024-0.827-19.437,0.912
				c-13.245,3.593-16.387,11.734-8.811,22.838c0.496,0.726,1.012,1.438,1.525,2.152c3.603,4.979,8.621,6.891,14.39,5.416
				C619.133,307.758,631.397,296.9,640.784,280.302z M129.891,431.709c2.433,2.366,4.725,3.24,6.942,4.192
				c9.571,4.102,19.615,5.083,29.896,4.405c15.046-0.992,21.364-8.762,19.306-23.732c-1.037-7.543-3.673-9.883-11.341-9.967
				c-8.982-0.098-16.119,4.229-22.699,9.714C145.271,421.927,138.817,427.877,129.891,431.709z M555.693,297.28
				c-8.193,7.138-17.231,10.167-25.784,14.147c-6.78,3.155-13.129,6.914-16.489,14.078c-1.769,3.77-2.77,7.754-0.69,11.676
				c5.083,9.585,20.283,11.839,27.54,3.844C551.162,329.025,555.922,314.66,555.693,297.28z M290.503,305.523
				c2.548-12.673,1.102-23.774-3.175-34.579c-6.343-16.032-14.569-18.767-29.508-10.142c-4.075,2.354-5.55,5.59-4.884,10.08
				c1.169,7.898,5.761,13.411,12.218,17.635C273.458,293.95,283.226,297.047,290.503,305.523z M190.091,254.049
				c8.619,6.588,14.987,15.025,22.075,22.77c3.921,4.281,8.231,8.187,13.626,10.611c10.813,4.86,15.99,2.076,17.535-9.459
				c0.866-6.475-0.194-12.513-5.933-16.419C222.948,251.725,207.097,249.754,190.091,254.049z M716.258,278.986
				c-3.723,5.184-5.676,10.096-7.021,15.18c-2.722,10.314-4.296,20.773-0.381,31.127c2.798,7.402,10.42,9.929,21.255,7.537
				c4.986-1.103,7.679-6.076,7.239-13.498c-0.423-7.125-3.56-13.166-7.735-18.734C724.68,294.018,719.291,287.745,716.258,278.986z
				 M799.822,328.04c-6.056,14.108-7.085,27.446-4.256,41.1c2.59,12.497,8.109,16.093,20.673,14.041
				c6.466-1.057,8.716-3.587,8.867-10.247c0.193-8.338-3.202-15.331-8.356-21.618C810.904,344.184,804.002,337.866,799.822,328.04z
				 M396.402,189.355c-0.816,1.773-0.458,3.155-0.177,4.504c2.845,13.616,9.31,25.275,19.331,34.874
				c7.59,7.269,12.988,7.9,22.334,3.14c6.574-3.353,7.662-7.011,3.959-13.512c-3.834-6.725-10.059-10.622-16.738-13.901
				C415.416,199.697,405.045,196.274,396.402,189.355z M743.701,526.225c-7.729-7.695-11.379-16.314-16.003-24.328
				c-3.715-6.438-7.783-12.583-15.235-15.342c-3.387-1.252-6.856-2-10.088,0.148c-6.855,4.56-8.776,18.74-2.909,24.523
				C711.279,522.867,725.873,527.034,743.701,526.225z M351.677,344.885c-10.062,8.354-21.728,10.578-31.839,16.122
				c-5.201,2.853-9.572,6.514-11.927,12.16c-1.195,2.87-1.658,5.858-0.179,8.658c3.6,6.806,17.689,10.424,23.678,5.69
				C344.628,377.077,350.313,362.818,351.677,344.885z M856.615,436.487c-7.018-0.623-12.363-2.244-17.623-4.265
				c-4.746-1.822-9.503-3.66-14.354-5.177c-6.506-2.036-13.079-2.704-19.513,0.446c-3.823,1.873-6.438,4.713-5.347,9.184
				c3.427,14.057,6.212,18.594,22.438,17.163c1.742-0.155,3.484-0.511,5.184-0.94C838.229,450.174,848.018,445.606,856.615,436.487z
				 M791.412,508.705c-4.781-3.268-8.901-5.923-12.375-9.394c-3.602-3.601-7.155-7.25-10.826-10.782
				c-4.772-4.594-10.224-8.014-16.949-8.881c-6.01-0.775-10.537,1.783-11.521,6.615c-0.59,2.913-0.938,5.897-1.112,8.866
				c-0.301,5.173,1.685,9.396,6.35,11.805C759.871,514.625,775.1,514.352,791.412,508.705z M812.429,558.169
				c-10.127,5.842-20.69,6.909-30.642,10.005c-6.145,1.911-11.781,4.615-15.469,10.208c-1.764,2.677-3.209,5.563-2.217,8.892
				c2.431,8.158,16.194,13.911,23.519,9.369C801.494,588.034,809.02,575.081,812.429,558.169z M363.97,195.283
				c-15.114,5.484-26.271,13.486-33.578,26.275c-2.44,4.271-3.768,9.045-0.868,13.499c3.402,5.229,8.027,10.222,14.398,10.423
				c6.881,0.217,10.435-5.698,13.25-11.333c0.926-1.849,1.434-3.952,1.878-5.995C361.316,217.725,359.407,206.772,363.97,195.283z
				 M597.795,678.054c-9.694-5.473-15.9-13.65-23.438-20.36c-3.822-3.401-7.869-6.601-13.012-7.637
				c-4.658-0.938-9.666-1.816-13.288,2.366c-5.94,6.858-3.197,20.536,4.739,24.847c4.848,2.633,10.102,4.121,15.51,4.7
				C578.084,683.018,587.777,682.805,597.795,678.054z M452.564,390.554c-6.767,3.983-14.182,5.979-21.609,7.987
				c-4.049,1.094-8.087,2.362-11.944,3.992c-5.119,2.165-9.366,5.487-11.81,10.729c-1.236,2.656-1.872,5.368-0.642,8.121
				c3.861,8.647,16.984,12.499,24.677,6.999c10.697-7.65,17.234-18.271,20.763-30.818
				C452.604,395.412,453.546,393.245,452.564,390.554z M561.756,385.71c-9.328,5.859-18.571,7.442-27.436,10.125
				c-6.644,2.011-12.922,4.653-17.237,10.493c-2.286,3.091-3.776,6.523-2.581,10.346c2.357,7.525,16.289,13.102,22.997,8.801
				C551.473,416.516,558.76,403.208,561.756,385.71z M573.111,300.311c-6.465,13.529-6.582,26.568-3.093,39.723
				c3.265,12.299,7.808,15.684,20.499,16.51c6.395,0.418,9.166-1.992,9.389-8.414c0.236-6.823-2.613-12.673-6.34-18.095
				C586.922,320.364,578.458,311.992,573.111,300.311z M851.299,365.741c-3.566,3.951-5.751,7.394-8.923,9.97
				c-3.273,2.663-6.484,5.404-9.665,8.177c-5.723,4.99-11.446,10.021-13.367,17.836c-0.986,4.016-1.434,8.147,1.675,11.478
				c5.632,6.034,20.604,5.022,24.94-2.023C854.528,397.259,855.503,382.266,851.299,365.741z M748.123,577.428
				c-11.113-1.227-19.447-5.854-28.232-9.22c-4.105-1.571-8.293-2.946-12.711-3.134c-12.623-0.537-17.494,5.497-14.118,17.411
				c0.474,1.675,1.155,3.309,1.904,4.887c1.724,3.628,4.782,5.756,8.638,6.118C720.283,595.047,734.531,589.562,748.123,577.428z
				 M781.454,322.774c-6.998,3.707-14.503,5.866-22.098,7.835c-4.05,1.048-8.03,2.496-11.879,4.148
				c-4.965,2.131-8.85,5.615-11.273,10.563c-1.294,2.647-1.747,5.462-0.446,8.114c4.585,9.328,17.469,12.405,25.659,6.129
				c10.43-7.994,16.668-18.757,20.081-31.271C781.941,326.663,782.391,324.887,781.454,322.774z M568.471,353.585
				c-3.35,0.521-5.405,0.82-7.451,1.163c-9.605,1.606-19.303-0.121-28.932,0.84c-6.166,0.615-11.6,2.686-15.824,7.365
				c-1.82,2.017-3.041,4.349-2.542,7.167c1.531,8.68,12.181,16.401,20.427,13.985C549.865,379.502,560.477,368.779,568.471,353.585z
				 M572.401,220.693c0.334-8.996-4.43-13.205-9.462-17.173c-4.795-3.781-9.045-3.172-12.461,1.901
				c-2.673,3.977-4.208,8.391-4.582,13.271c-0.927,12.084,1.374,24.228-0.803,36.286c-0.529,2.934,1.134,2.971,3.037,1.703
				C561.701,247.649,569.735,235.021,572.401,220.693z M644.211,670.221c-8.975-5.531-14.068-12.806-19.985-19.271
				c-4.664-5.097-9.548-9.915-16.661-11.445c-3.713-0.8-7.422-1.013-10.455,1.802c-5.848,5.426-4.756,20.229,2.134,24.379
				C612.934,673.939,627.58,674.7,644.211,670.221z M507.898,136.492c-1.412,3.172-2.966,5.922-4.676,8.555
				c-1.814,2.787-3.838,5.44-5.837,8.103c-3.692,4.911-7.425,9.819-9.133,15.837c-2.083,7.332,0.229,15.348,5.216,16.523
				c8.154,1.924,17.906,2.13,20.607-6.06C519.107,164.188,515.948,149.98,507.898,136.492z M668.404,228.186
				c-3.386,2.01-6.582,4.098-9.954,5.862c-3.573,1.87-7.345,3.361-10.968,5.146c-4.25,2.096-8.593,4.072-12.604,6.568
				c-4.699,2.926-8.49,6.818-10.11,12.396c-0.636,2.192-0.468,4.138,1.091,5.908c3.896,4.429,15.268,6.704,20.653,4.1
				C658.152,262.541,669.654,241.731,668.404,228.186z M689.065,538.635c-3.02-9.088-3.171-16.935-3.554-24.788
				c-0.393-8.011-1.801-15.769-8.966-20.961c-3.664-2.658-7.397-3.003-11.088-0.097c-2.201,1.731-4.438,3.455-6.423,5.418
				c-3,2.963-3.965,6.577-2.41,10.614C662.314,523.578,673.62,532.236,689.065,538.635z M594.653,245.004
				c8.093-5.623,16.752-7.413,24.993-10.312c4.826-1.699,9.401-3.859,12.83-7.942c4.65-5.536,5.508-10.834,2.176-14.707
				c-6.784-7.883-14.437-10.052-20.694-5.158C601.951,216.273,596.516,229.195,594.653,245.004z M270.098,519.787
				c0.398,8.988-2.832,16.731-4.765,24.726c-1.686,6.99-2.532,13.866,1.398,20.437c2.13,3.561,5.03,6.171,9.447,5.222
				c3.926-0.843,7.784-2.179,11.199-4.447c2.333-1.547,3.613-3.739,3.948-6.533C292.84,546.538,282.132,526.27,270.098,519.787z
				 M109.667,381.023c8.957,10.179,19.025,16.072,30.745,19.359c3.752,1.056,7.555,1.579,11.423,0.825
				c5.643-1.101,9.869-7.14,10.503-14.866c0.477-5.863-3.751-7.809-8.084-9.537c-4.827-1.928-9.803-2.335-14.979-1.441
				C129.781,377.002,120.782,381.014,109.667,381.023z M273.81,656.859c12.782-2.953,26.507-13.264,31.901-23.389
				c3.375-6.333,3.022-10.752-1.236-15.51c-8.711-9.729-16.755-8.726-23.059,2.855c-1.62,2.979-2.342,6.208-2.932,9.508
				C276.953,638.914,277.836,647.869,273.81,656.859z M384.084,698.367c10.264-2.151,20.258-8.683,27.955-17.793
				c8.971-10.618,7.773-18.638-3.823-26.206c-3.175-2.072-6.22-2.138-9.354-0.067c-6.334,4.182-9.199,10.397-10.38,17.626
				C387.074,680.531,387.723,689.428,384.084,698.367z M172.601,460.954c15.353,2.518,33.654-1.079,44.559-8.296
				c2.379-1.574,4.494-3.354,5.877-5.904c2.091-3.848,1.538-13.126-1.337-16.074c-3.605-3.694-7.964-1.917-11.885-0.69
				c-5.78,1.805-10.595,5.32-14.928,9.575C187.777,446.551,182.036,454.921,172.601,460.954z M643.38,557.231
				c-6.447,5.36-13.066,8.111-19.606,11.026c-4.169,1.86-8.262,3.893-11.759,6.904c-5.263,4.529-7.872,12.122-5.642,16.321
				c4.482,8.452,17.975,10.312,24.272,3.118C639.699,584.256,643.855,572.098,643.38,557.231z M311.968,221.618
				c-2.114,0.624-2.527,2.311-3.136,3.661c-5.254,11.648-7.406,23.777-5.157,36.475c1.711,9.643,4.19,12.108,13.657,14.119
				c6.869,1.461,10.105-0.996,10.859-8.174c0.725-6.916-1.325-13.206-4.27-19.302C319.674,239.6,314.531,231.21,311.968,221.618z
				 M676.537,270.33c-9.664,4.564-16.226,10.759-21.9,18.014c-3.604,4.612-6.613,9.58-7.843,15.379
				c-1.313,6.208,2.425,11.47,10.509,15.145c3.854,1.751,7.583,0.062,11.309-5.182c3.578-5.034,5.162-10.715,5.354-16.832
				C674.231,288.451,673.5,279.973,676.537,270.33z M344.191,283.518c0.684,9.007,6.838,21.297,14.487,29.469
				c2.874,3.074,5.815,6.119,9.748,7.91c5.796,2.641,11.774,0.66,16.984-5.811c3.865-4.799,0.48-8.6-2.159-12.207
				c-4.23-5.782-10.473-8.621-17.086-10.734C358.837,289.807,351.318,287.983,344.191,283.518z M384.176,541.115
				c-8.411,5.735-15.382,16.389-18.208,27.431c-3.062,11.963,0.03,17.081,11.993,19.848c6.219,1.438,9.066-0.046,11.588-5.823
				c2.946-6.748,1.94-13.405-0.26-20.055C387.035,555.694,384.104,549.043,384.176,541.115z M165.023,556.973
				c9.488,8.734,19.602,13.472,31.287,14.389c12.012,0.939,15.497-2.18,16.933-13.987c0.846-6.96-1.397-9.843-8.213-11.478
				c-7.372-1.771-13.807,0.694-20.194,3.768C178.854,552.543,173.155,556.151,165.023,556.973z M196.271,473.224
				c6.207,12.788,14.929,22.827,28.95,27.087c3.356,1.019,6.846,0.27,9.319-2.293c3.65-3.781,7.741-7.949,6.841-13.586
				c-0.97-6.055-6.418-8.403-11.657-10.229c-2.646-0.92-5.459-1.141-8.309-1.189C213.184,472.867,204.945,474.609,196.271,473.224z
				 M691.561,303.108c6.162-8.321,8.366-16.525,9.758-24.936c1.146-6.925,1.867-13.922-0.822-20.786
				c-2.578-6.581-8.369-6.745-13.98-7.246c-3.874-0.346-5.9,2.259-6.797,5.438c-1.086,3.851-1.591,7.756-1.052,11.936
				C680.286,280.029,689.347,289.518,691.561,303.108z M803.172,549.789c12.72-8.094,21.748-17.772,25.512-31.538
				c2.043-7.465-2.079-12.972-11.403-16.159c-4.298-1.466-8.002,0.961-11.298,7.152c-3.484,6.551-3.53,13.532-2.64,20.578
				C804.141,536.125,804.309,542.393,803.172,549.789z M315.275,663.612c5.707-9.356,14.199-15.814,21.1-23.74
				c4.127-4.737,7.248-9.946,6.846-16.606c-0.137-2.25-0.716-4.125-2.861-5.246c-5.064-2.641-15.309-0.922-19.267,3.255
				C312.874,629.946,309.614,652.222,315.275,663.612z M280.822,476.217c9.009,0.887,16.719-1.619,23.964-5.675
				c13.062-7.311,14.198-15.046,4.036-25.934c-4.08-4.37-8.044-4.835-13.07-1.589c-5.092,3.289-7.354,8.373-8.664,13.947
				C285.575,463.428,284.4,469.975,280.822,476.217z M688.855,679.15c-7.29-8.625-9.943-18.226-15.032-26.53
				c-2.824-4.605-6.472-8.207-11.856-9.799c-2.387-0.706-4.553-0.575-6.478,0.901c-6.472,4.963-7.423,16.207-1.509,21.949
				C663.176,674.607,674.467,678.691,688.855,679.15z M656.075,548.793c-4.077-8.97-5.447-17.289-7.549-25.408
				c-1.634-6.319-3.684-12.438-9.093-16.784c-2.586-2.077-5.395-2.788-8.317-1.446c-4.347,1.995-8.521,12.211-7.28,16.928
				c1.102,4.196,3.507,7.665,6.233,10.86C636.682,540.694,644.728,546.193,656.075,548.793z M423.437,317.443
				c-8.239,4.488-16.44,5.642-24.399,7.649c-4.813,1.214-9.492,2.906-13.076,6.485c-2.78,2.771-5.221,6.005-3.874,10.309
				c1.915,6.129,12.787,11.279,18.394,8.281C413.203,343.374,420.098,332.259,423.437,317.443z M727.828,562.335
				c-2.508-4.376-4.488-7.665-5.678-11.342c-1.188-3.664-2.472-7.296-3.81-10.908c-2.024-5.468-4.291-10.833-9.319-14.321
				c-2.76-1.916-5.709-3.665-9.275-2.229c-6.242,2.516-10.256,14.35-6.322,19.906C701.5,554.857,712.985,560.484,727.828,562.335z
				 M547.566,422.133c-2.978,3.21-5.131,5.756-7.523,8.056c-2.528,2.43-5.308,4.602-7.937,6.929
				c-4.897,4.333-9.68,8.752-11.074,15.586c-0.663,3.246-0.631,6.402,1.833,8.891c5.101,5.152,17.413,3.958,20.966-2.244
				C550.436,447.819,551.109,435.575,547.566,422.133z M324.533,461.753c-5.532,7.879-12.726,12.705-18.934,18.587
				c-2.686,2.545-5.014,5.417-6.396,8.939c-2.355,6.007-1.484,11.252,2.247,13.295c6.866,3.76,15.39,3.048,18.717-2.187
				C327.631,488.643,328.563,475.983,324.533,461.753z M535.264,203.308c6.788-8.909,15.45-15.679,22.654-23.808
				c3.895-4.393,7.137-9.16,7.679-15.236c0.256-2.875-0.426-5.756-3.73-5.906c-5.963-0.271-12.499-0.547-16.763,4.379
				C535.006,174.405,531.925,188.092,535.264,203.308z M187.277,252.783c-14.387,2.956-25.903,8.517-34.194,19.668
				c-0.812,1.092-1.303,2.487-1.699,3.814c-1.319,4.426,2.147,11.638,7.116,14.73c4.112,2.561,7.438,0.141,10.572-2.103
				c4.762-3.405,7.385-8.339,9.242-13.774C180.795,267.854,182.146,260.168,187.277,252.783z M253.787,505.829
				c-3.023,3.819-5.527,6.96-8.628,9.545c-3.106,2.587-6.22,5.18-9.186,7.925c-4.74,4.385-8.757,9.222-8.688,16.207
				c0.027,2.526,0.396,4.908,2.655,6.561c7.222,5.281,17.677,3.018,21.528-5.03C256.754,529.986,257.651,518.483,253.787,505.829z
				 M133.016,284.119c-2.611,4.707-3.648,8.97-4.161,13.283c-1.051,8.784-1.401,17.601,2.497,25.898
				c2.933,6.242,8.963,8.015,17.26,5.35c4.406-1.417,5.993-5.756,4.762-12.396c-1.1-5.933-4.228-10.707-8.068-15.155
				C140.947,296.055,136.229,291.274,133.016,284.119z M362.205,514.897c-5.079,7.892-11.693,12.378-17.571,17.629
				c-3.858,3.448-7.216,7.282-8.523,12.417c-0.872,3.44-1.364,7.087,1.374,9.989c4.938,5.236,17.351,4.202,21.002-1.988
				C365.288,541.416,365.734,529.088,362.205,514.897z M695.789,315.965c-2.25,2.439-4.395,4.984-6.777,7.289
				c-2.395,2.316-5.102,4.311-7.538,6.587c-4.224,3.939-8.97,7.522-10.813,13.35c-1.41,4.456-2.522,9.191,2.114,12.442
				c5.144,3.609,14.774,2.961,18.216-0.777C698.295,346.906,700.912,325.695,695.789,315.965z M239.35,359.039
				c-2.422,6.992-1.849,12.773-0.814,18.447c1.523,8.334,3.746,16.491,9.886,22.845c3.747,3.875,12.988,4.945,17.08,1.562
				c4.732-3.91,2.108-8.68,0.415-13.03c-0.746-1.922-2.059-3.663-3.314-5.34C255.962,374.652,246.009,369.058,239.35,359.039z
				 M379.406,174.009c-7.284,14.765-10.648,29.927-5.104,46.061c1.205,3.511,4.07,5.649,7.369,7.172
				c4.428,2.043,7.45,0.87,9.05-3.698c1.68-4.794,1.322-9.672,0.284-14.557C388.446,196.951,381.908,186.221,379.406,174.009z
				 M358.025,374.331c-9.944,7.948-16.805,17.552-18.143,30.374c-0.493,4.739,1.653,8.05,5.918,10.206
				c10.288,5.202,15.301,2.834,17.787-8.449c0.545-2.466,0.466-4.839,0.071-7.311C362.335,390.865,358.38,383.148,358.025,374.331z
				 M370.933,233.068c-4,8.105-4.813,18.818-2.438,28.836c2.729,11.517,8.381,14.691,19.685,11.192
				c3.694-1.142,5.535-3.481,5.597-7.306c0.097-6.161-2.37-11.219-6.562-15.586C381.874,244.646,375.569,240.023,370.933,233.068z
				 M444.528,198.111c1.524,13.045,5.892,23.562,13.486,32.684c1.896,2.277,4.054,4.375,6.952,5.496
				c4.179,1.619,10.73-0.338,14.166-4.524c2.928-3.569,0.971-6.983-0.814-10.219c-3.094-5.604-8.025-9.177-13.651-11.929
				C458.083,206.399,451.185,203.766,444.528,198.111z M583.039,557.914c0.191-4.317-0.524-8.893,0.778-13.402
				c0.722-2.494-0.457-3.486-2.732-2.229c-10.425,5.756-19.114,13.228-22.791,25.047c-1.812,5.825,2.009,11.045,9.95,14.673
				c5.394,2.463,8.287-1.128,10.943-4.648C583.495,571.641,583.365,564.871,583.039,557.914z M614.117,516.935
				c-12.273,5.633-20.949,13.208-25.629,24.685c-3.085,7.572,4.288,17.33,12.562,17.197c1.9-0.032,3.348-0.77,4.709-2.006
				c4.57-4.15,6.664-9.361,6.914-15.449C612.99,533.658,611.761,525.904,614.117,516.935z M249.676,245.261
				c7.934-0.046,15.449,1.632,23.061,2.502c5.706,0.651,11.615,1.134,16.995-1.853c2.948-1.638,5.882-3.416,5.778-7.416
				c-0.178-7.092-6.94-13.65-13.892-12.746C268.3,227.486,257.87,234.392,249.676,245.261z M453.562,426.845
				c-13.318,7.878-22.417,17.507-26.841,31.141c-0.368,1.127-0.276,2.448-0.187,3.664c0.3,4.043,4.896,9.124,9.482,10.311
				c4.385,1.134,6.861-1.739,9.105-4.791c2.53-3.444,4.049-7.302,4.859-11.525C451.733,446.504,449.758,437.014,453.562,426.845z
				 M756.907,643.383c-7.953-2.943-13.478-7.253-19.313-11.063c-3.968-2.592-8.061-4.944-13.045-5.056
				c-6.544-0.148-10.74,1.879-11.082,6.404c-0.624,8.29,0.404,14.355,7.189,16.152C733.234,653.147,744.812,650.631,756.907,643.383
				z M667.518,535.373c-2.825,7.361-7.068,12.103-10.906,17.129c-3.201,4.192-6.432,8.373-7.138,13.89
				c-0.854,6.659,1.081,10.955,5.604,12.069c8.074,1.993,14.687-0.479,16.8-6.781C675.962,559.494,673.874,547.903,667.518,535.373z
				 M201.199,330.792c-2.191,3.189-3.854,5.877-5.787,8.353c-1.941,2.487-4.163,4.752-6.247,7.128
				c-3.599,4.101-7.357,8.176-8.563,13.685c-0.871,3.976-1.375,8.286,2.364,11.207c5.487,4.281,16.779,1.407,19.426-5.029
				C207.184,354.48,206.326,342.889,201.199,330.792z M506.622,281.412c4.26-6.152,5.85-12.075,7.194-18.025
				c1.912-8.459,2.775-17.068,0.65-25.586c-1.414-5.656-6.992-8.928-12.722-7.69c-5.119,1.106-5.048,5.682-5.463,9.647
				c-0.769,7.339,0.684,14.355,3.542,21.098C502.487,267.135,505.141,273.412,506.622,281.412z M727.742,666.54
				c-6.43-3.835-10.377-8.296-14.4-12.711c-3.666-4.028-7.439-8.016-12.711-10.034c-5.588-2.141-11.527-1.241-12.731,2.414
				c-2.233,6.78-3.507,14.138,2.675,17.705C702.027,670.526,714.032,671.002,727.742,666.54z M551.428,575.508
				c-5.604,5.63-9.19,11.141-11.381,18.318c-1.575,5.16-3.201,10.414-1.683,15.969c1.548,5.675,7.222,9.035,15.113,8.489
				c5.644-0.389,6.651-4.848,7.467-9.303c0.923-5.05-0.347-9.754-2.396-14.278C555.817,588.67,552.608,582.839,551.428,575.508z
				 M462.773,157.784c-4.589,8.192-5.806,20.023-3.363,29.749c2.43,9.66,7.369,12.58,17.188,10.159
				c5.379-1.326,7.324-3.908,6.847-9.454c-0.523-6.068-3.472-10.968-7.662-15.232C471.234,168.376,466.196,164.175,462.773,157.784z
				 M224.699,452.211c9.649,8.069,32.196,12.33,43.196,8.621c3.09-1.04,5.608-2.79,7.438-5.551c3.658-5.529,2.396-9.17-3.9-11.043
				c-4.667-1.388-9.365-1.109-14.065-0.219C246.534,446.078,236.47,451.118,224.699,452.211z M647.022,388.481
				c-9.224,0.616-17.256-0.024-25.313-0.491c-5.021-0.293-10.195,0.429-14.486,3.804c-2.045,1.607-3.533,3.556-3.579,6.169
				c-0.102,5.999,8.581,13.697,14.563,12.451C630.766,407.803,639.837,400.3,647.022,388.481z M716.253,605.465
				c-8.112-0.852-14.308-3.879-20.725-6.239c-4.97-1.828-10.044-3.529-15.428-1.909c-3.979,1.196-7.865,2.654-7.569,7.971
				c0.42,7.52,4.044,13.183,9.271,13.668C695.105,620.197,706.045,615.123,716.253,605.465z M778.595,605.493
				c-7.784-1.008-13.899-3.694-20.101-6.12c-4.45-1.74-8.993-3.061-13.861-2.607c-5.67,0.525-9.757,3.761-9.832,7.765
				c-0.146,7.646,4.3,14.109,10.257,14.479C757.934,619.809,768.563,614.828,778.595,605.493z M169.834,300.405
				c-1.779,7.642-5.389,13.681-8.61,19.904c-1.948,3.762-3.493,7.706-3.671,12.009c-0.263,6.327,2.675,11.086,6.963,11.484
				c7.593,0.705,14.381-2.996,15.31-9.051C181.764,322.126,178.145,310.948,169.834,300.405z M449.054,234.793
				c-3.46,11.193,1.991,29.331,10.108,35.677c3.38,2.643,13.307,2.783,16.537,0.253c2.174-1.703,1.902-4.079,1.547-6.308
				c-0.748-4.739-3.559-8.307-7.018-11.444C463.483,246.85,455.523,242.203,449.054,234.793z M141.916,447.546
				c0.476,11.315,5.438,19.56,12.503,26.695c6.839,6.907,11.082,7.427,19.72,3.022c4.424-2.254,5.344-5.002,2.901-9.34
				c-2.329-4.14-6.087-6.752-10.233-8.795C158.818,455.193,150.076,452.96,141.916,447.546z M252.616,471.516
				c-1.726,11.53,0.678,21.007,6.051,29.793c4.737,7.745,8.861,9.393,17.709,7.519c5.456-1.155,6.97-3.633,5.331-9.072
				c-1.719-5.696-5.979-9.423-10.475-12.865C265.115,482.202,258.544,478.089,252.616,471.516z M524.667,186.1
				c-5.067,4.874-10.789,8.36-16.076,12.402c-4.745,3.631-9.368,7.465-11.539,13.372c-2.413,6.571-0.89,9.905,5.695,12.116
				c4.101,1.38,7.971,1.294,11.002-2.396C522.232,211.26,525.619,199.355,524.667,186.1z M228.991,353.254
				c-4.919,5.903-10.214,9.033-15.258,12.496c-3.924,2.696-7.661,5.641-9.725,10.111c-2.477,5.365-1.796,9.441,1.825,11.725
				c6.489,4.099,12.748,4.242,16.232-0.308C229.551,377.509,231.078,366.358,228.991,353.254z M528.036,510.741
				c9.86-6.212,16.53-13.765,19.772-23.948c2.39-7.504-1.441-12.828-10.242-15.245c-4.835-1.33-8.895,2.344-10.75,9.622
				c-0.754,2.945-0.818,5.857-0.385,8.861C527.373,496.547,529.19,502.977,528.036,510.741z M582.939,177.166
				c-4.749,5.94-7.202,11.829-8.16,18.902c-1.602,11.837,3.133,16.848,14.953,15.842c8.405-0.719,11.85-6.465,8.613-14.437
				c-1.07-2.634-2.781-4.872-4.707-6.922C589.829,186.494,585.589,182.812,582.939,177.166z M441.21,158.316
				c-10.503,4.89-18.117,11.264-22.298,21.114c-2.785,6.56,0.006,11.806,7.728,15.294c4.367,1.976,8.437-0.249,11.472-6.371
				c2.09-4.216,2.33-8.762,2.156-13.365C440.07,169.76,439.755,164.524,441.21,158.316z M739.061,417.774
				c-7.801,2.05-14.847,1.429-21.767,2.372c-3.785,0.515-7.103,1.921-9.69,4.804c-2.828,3.153-3.275,6.435-0.68,10.02
				c2.737,3.784,5.477,8.087,10.982,5.944C728.321,436.858,734.541,428.733,739.061,417.774z M341.183,311.601
				c-5.129,4.183-10.435,7.61-15.428,11.446c-3.329,2.556-6.554,5.415-8.096,9.531c-1.308,3.49-2.702,7.18,1.223,9.965
				c4.524,3.213,9.677,3.191,12.954-0.353C339.8,333.576,341.87,323.034,341.183,311.601z M213.885,320.851
				c-0.94,8.562,0.425,15.808,4.743,22.374c2.241,3.412,5.229,6.225,9.577,4.78c4.245-1.409,9.069-3.146,10.209-8.088
				c1.111-4.798-1.783-8.387-5.874-10.755c-1.955-1.133-4.067-2.101-6.226-2.766C222.132,325.111,218.113,323.502,213.885,320.851z
				 M618.533,328.742c0.957,8.426,0.249,16.758,0.42,25.082c0.094,4.44,0.84,8.711,3.254,12.538c1.404,2.224,3.43,3.433,5.661,1.538
				c2.936-2.491,5.497-5.414,6.19-9.469C635.689,348.892,627.725,333.499,618.533,328.742z M411.445,518.521
				c4.158,8.575,9.906,13.949,17.73,17.033c5.104,2.016,8.858-0.109,11.438-6.127c1.778-4.151,0.329-7.086-4.715-9.494
				c-2.094-1-4.283-1.473-6.639-1.439C423.634,518.577,418.008,518.521,411.445,518.521z M415.353,350.971
				c2.927-0.34,4.674-0.395,6.35-0.769c5.456-1.212,11.348-0.019,16.49-2.75c3.095-1.644,6.585-3.472,4.792-8.021
				c-1.684-4.263-6.184-6.421-10.263-4.908C424.963,337.396,419.729,343.004,415.353,350.971z"/>
			<path fill-rule="evenodd" clip-rule="evenodd" fill="#1A8B83" d="M107.273,327.168c6.253,4.254,13.522,5.639,20.681,7.338
				c6.403,1.52,12.451,3.7,16.917,8.908c4.432,5.171,5.27,9.611,2.473,13.213c-6.159,7.933-13.091,10.535-19.355,7.02
				c-6.009-3.368-9.868-8.805-13.482-14.494c-3.304-5.206-4.656-11.206-7.232-16.697
				C107.273,330.692,107.273,328.931,107.273,327.168z"/>
			<path fill-rule="evenodd" clip-rule="evenodd" fill="#188A82" d="M487.902,914.919c-23.953,0.069-47.907,0.077-71.863,0.269
				c-3.392,0.028-3.625-1.442-3.338-4.135c1.953-18.368,3.787-36.752,5.726-55.121c2.675-25.371,5.42-50.735,8.115-76.103
				c3.046-28.69,6.069-57.385,9.104-86.075c0.815-7.701,1.55-15.409,2.51-23.088c0.365-2.899-0.634-4.357-3.23-5.691
				c-27.805-14.289-53.968-31.055-77.402-51.866c-1.885-1.671-3.759-1.935-6.229-1.832c-26.38,1.099-52.412-0.82-77.385-10.266
				c-29.907-11.311-50.32-31.518-58.418-63.075c-0.212-0.818-0.275-1.681-0.11-2.703c8.002,14.785,19.477,25.996,33.999,34.147
				c16.71,9.377,34.855,13.892,53.767,15.706c8.693,0.832,17.413,1.335,27.043,0.756c-23.269-28.391-40.829-58.738-44.986-95.444
				c26.584,50.338,65.159,89.477,112.512,121.892c8.061-39.73-0.766-76.116-16.242-111.632
				c17.302,15.771,29.537,34.806,37.662,56.554c7.872,21.07,11.151,42.962,9.686,65.287c-0.485,7.387,1.695,11.063,8.004,13.382
				c1.307,0.479,2.522,1.203,4.543,2.187c1.059-9.496,2.117-18.611,3.084-27.738c3.037-28.694,5.896-57.406,9.203-86.068
				c0.498-4.309-1.303-5.412-4.455-6.752c-37.191-15.824-72.559-34.924-104.93-59.268c-7.732-5.813-15.15-12.059-22.522-18.328
				c-2.457-2.091-4.862-2.965-8.068-2.802c-28.316,1.449-56.284-0.524-83.364-9.609c-32.678-10.964-57.531-30.634-69.745-63.957
				c-1.449-3.948-2.46-8.059-3.616-12.11c-0.16-0.562-0.939-1.158,0.002-1.922c0.329,0.243,0.867,0.439,1.063,0.812
				c15.225,28.959,40.949,43.558,71.199,51.733c18.819,5.081,38.115,6.425,57.547,6.052c0.647-0.014,1.293-0.206,2.7-0.445
				c-19.205-22.996-34.722-47.509-44.436-75.379c-3.477-9.98-5.998-20.207-7.451-30.684c-0.184-1.312-0.024-2.671-0.024-5.323
				c14.221,27.748,31.193,52.144,52.098,75.314c1.853-5.991,3.34-11.091,5.03-16.124c0.676-2.026-0.531-2.915-1.719-3.959
				c-14.154-12.444-22.689-27.988-25.731-46.572c-0.112-0.688-0.368-1.4-0.273-2.062c0.148-1.067-0.779-2.713,1.064-3.016
				c1.263-0.208,1.607,1.057,2.084,1.995c1.679,3.288,3.245,6.647,5.134,9.811c5.904,9.884,13.159,18.526,23.609,25.075
				c4.806-25.918,3.82-50.865-4.279-75.703c7.41,6.42,11.776,17.419,17.462,43.549c13.243-6.803,22.442-29.306,20.748-51.679
				c7.044,11.321,7.804,22.661,4.14,34.443c-4.031,12.972-12.199,23.275-21.797,32.532c-1.907,1.838-2.799,3.625-2.991,6.314
				c-1.271,17.818-5.308,35.062-11.485,51.795c-0.951,2.576-1.084,4.34,1.098,6.506c19.666,19.546,40.938,37.119,63.881,52.682
				c0.424,0.286,0.925,0.453,2.02,0.975c8.978-45.26-0.798-87.364-19.797-129.452c3.828,3.652,6.834,6.306,9.582,9.204
				c2.782,2.938,5.435,6.018,7.922,9.208c28.396,36.427,40.139,78.075,38.057,123.8c-0.32,7.008,0.966,10.969,7.709,14.197
				c13.946,6.677,27.698,13.729,41.908,19.87c3.938,1.706,4.713,0.589,5.076-3.032c2.495-24.858,5.069-49.709,7.668-74.56
				c1.556-14.869,3.018-29.755,4.909-44.583c0.691-5.401-0.304-8.893-5.209-12.184c-16.161-10.834-30.654-23.663-42.679-39.073
				c-1.482-1.899-3.229-2.359-5.37-2.695c-11.699-1.84-23.068-4.822-33.538-10.546c-15.402-8.421-24.829-20.87-25.828-39
				c9.685,23.002,29.529,30.571,52.549,34.972c-8.661-16.561-14.895-33.009-13.307-51.513c8.805,27.287,24.149,50.355,44.767,70.73
				c7.763-18.798,6.62-37.442,2.791-56.291c11.356,15.84,15.768,33.472,14.028,52.711c-0.299,3.318-0.542,6.75-1.586,9.873
				c-1.658,4.953-0.351,8.173,4.035,10.852c3.859,2.354,7.365,5.29,11.676,8.442c4.754-45.001,9.422-89.201,14.191-134.364
				c0.518,2.279,1.957,3.311,1.547,5.127c-1.694,2.012-0.871,4.405-0.871,6.605c-0.042,230.709-0.04,461.419-0.035,692.129
				C487.84,910.695,487.881,912.807,487.902,914.919z"/>
			<path fill-rule="evenodd" clip-rule="evenodd" fill="#136A67" d="M487.902,914.919c-0.021-2.112-0.062-4.224-0.062-6.337
				c-0.005-230.71-0.007-461.42,0.035-692.129c0-2.2-0.823-4.594,0.871-6.605c3.219,30.248,6.438,60.497,9.721,91.354
				c6.992-2.744,13.101-6.297,19.142-9.968c1.981-1.201,1.007-3.188,0.913-4.818c-1.209-20.727,3.284-39.822,16.025-56.578
				c1.36-1.789,2.574-3.768,5.529-5.454c-2.861,9.524-5.889,18.192-7.019,27.361c-1.149,9.359-0.976,18.524,1.483,28.29
				c23.139-16.965,41.686-37.138,54.424-63.461c0.808,11.198-3.696,22.006-19.567,48.232c15.987,4.632,42.916-7.419,55.953-25.613
				c-0.202,4.892-1.895,8.412-3.68,11.774c-7.896,14.873-21.418,21.692-37.004,25.428c-8.265,1.98-16.692,2.472-25.144,2.532
				c-2.201,0.015-3.893,0.342-5.626,1.985c-14.687,13.922-31.68,24.489-49.737,33.385c-2.951,1.452-4.077,2.843-3.697,6.271
				c2.773,25.172,5.294,50.375,7.943,75.563c2.998,28.511,6.039,57.019,9.07,85.525c1.358,12.766,2.816,25.522,4.042,38.302
				c0.299,3.146,1.151,3.449,3.829,2.048c9.176-4.803,18.383-9.567,27.735-14.013c3.602-1.711,4.459-3.838,4.214-7.74
				c-3.004-47.884,8.435-91.658,37.734-130.196c5.414-7.118,11.402-13.747,18.523-19.479c-2.941,7.233-6.064,14.396-8.787,21.71
				c-6.829,18.343-11.543,37.207-13.428,56.733c-0.131,1.375-0.499,2.726-0.756,4.087c0.182,2.021,1.365,3.905,0.824,6.024
				c-1.662,0.914-0.92,2.5-0.961,3.783c-0.386,13.222,0.478,26.335,3.674,40.062c6.567-4.74,12.835-9.179,19.01-13.748
				c14.454-10.692,28.083-22.361,41.146-34.715c2.458-2.322,3.311-4.504,2.5-7.855c-4.129-17.028-5.784-34.334-4.962-51.84
				c0.118-2.484-0.548-4.261-2.094-6.168c-8.948-11.058-16.279-23.008-18.622-37.325c-1.972-12.026,0.635-22.987,8.621-32.556
				c-7.363,21.667,1.775,38.84,14.615,56.057c4.202-16.81,10.155-31.624,22.919-44.282c-2.519,6.945-4.78,12.702-6.697,18.57
				c-5.754,17.594-7.368,35.737-7.12,54.147c0.057,4.145,1.481,3.886,4.316,2.257c12.056-6.921,21.14-16.796,28.514-28.4
				c1.125-1.769,2.244-3.537,3.392-5.29c0.06-0.094,0.334-0.048,0.948-0.113c-0.861,9.861-4.358,18.681-9.317,26.982
				c-5.491,9.194-12.632,16.954-21.48,22.94c-3.382,2.29-4.923,4.381-3.447,8.5c0.983,2.745,1.137,5.79,1.901,10.019
				c23.452-24.484,42.269-50.987,58.212-79.807c-0.948,21.265-8.497,40.51-17.71,59.193c-9.189,18.637-21.188,35.483-35.202,52.353
				c43.651-0.087,84.404-5.243,117.579-35.552c6.544-5.979,11.865-12.951,16.237-20.67c0.742-1.31,1.021-3.016,3.163-4.132
				c-3.971,17.985-11.386,33.649-23.333,47.042c-18.442,20.668-42.381,31.412-68.742,37.594c-22.61,5.303-45.583,6.472-68.698,5.284
				c-3.787-0.194-6.504,0.86-9.375,3.388c-33.143,29.172-70.662,51.533-110.449,70.262c-3.56,1.677-4.453,3.527-4.057,7.129
				c2.254,20.459,4.393,40.934,6.436,61.416c0.294,2.942,1.478,3.329,4.117,2.979c7.667-1.02,15.362-1.909,23.068-2.537
				c4.443-0.361,6.397-2.365,7.693-6.714c8.721-29.217,25.773-52.035,52.71-66.988c1.686-0.938,3.446-1.744,5.185-2.585
				c0.436-0.212,0.924-0.321,2.403-0.821c-19.231,20.191-32.975,42.253-37.286,70.398c38.746-10.426,73.012-27.439,101.95-54.815
				c-2.691,12.788-20.562,31.408-50.954,53.042c28.945,10.141,57.014,14.786,84.355-3.872c-2.357,5.693-6.577,9.528-10.991,13.085
				c-13.768,11.094-29.874,14.228-47.076,13.49c-15.632-0.672-30.512-4.622-44.961-10.371c-2.354-0.938-4.413-1.375-6.959-0.336
				c-24.44,9.96-49.987,15.337-76.175,17.76c-3.873,0.356-4.513,1.628-4.123,5.165c3.203,29.204,6.253,58.424,9.317,87.643
				c2.972,28.346,5.883,56.697,8.868,85.041c3.008,28.519,6.037,57.033,9.146,85.539c0.695,6.367,0.878,6.365-5.489,6.35
				C534.05,915.055,510.979,914.984,487.902,914.919z"/>
			<path fill-rule="evenodd" clip-rule="evenodd" fill="#638B51" d="M794.616,385.327c-10.174,12.325-22.12,19.855-36.132,24.271
				c-4.017,1.266-8.146,2.156-12.426,2.17c-8.976,0.025-12.65-2.596-15.438-11.267c-0.374-1.167-0.643-2.372-0.955-3.562
				c-3.232-12.324,1.562-19.41,14.309-21.275c7.186-1.052,13.973,0.622,20.702,2.818c4.835,1.579,9.655,3.206,14.492,4.777
				C783.811,384.766,788.6,385.5,794.616,385.327z"/>
			<path fill-rule="evenodd" clip-rule="evenodd" fill="#638B51" d="M325.768,672.438c10.145-8.141,14.877-18.927,21.839-28.073
				c4.749-6.241,10.784-10.497,18.464-12.296c6.973-1.637,11.049,0.316,13.991,6.76c1.092,2.387,2.199,4.797,2.969,7.298
				c2.367,7.686,0.652,13.523-6.076,17.893C361.623,673.967,344.802,675.76,325.768,672.438z"/>
			<path fill-rule="evenodd" clip-rule="evenodd" fill="#1A8B83" d="M836.017,491.889c-5.888,2.801-11.544,2.513-17.092,2.27
				c-12.556-0.548-24.247-4.032-34.604-11.322c-8.451-5.949-11.498-20.051-6.377-29.011c1.958-3.425,5.331-3.823,8.771-3.503
				c6.173,0.573,11.497,3.249,16.009,7.381c3.496,3.207,6.815,6.626,10.002,10.146c3.773,4.177,7.22,8.648,10.986,12.83
				C827.325,484.686,831.295,488.353,836.017,491.889z"/>
			<path fill-rule="evenodd" clip-rule="evenodd" fill="#638B51" d="M331.199,526.67c3.586-10.457,2.266-19.982,2.498-29.402
				c0.201-8.136,1.959-15.678,7.776-21.783c5.103-5.357,9.088-5.878,15.375-1.962c1.784,1.112,3.549,2.282,5.208,3.572
				c6.843,5.316,8.56,11.239,4.754,19.042C359.596,510.934,347.506,520.283,331.199,526.67z"/>
			<path fill-rule="evenodd" clip-rule="evenodd" fill="#638B51" d="M180.832,606.633c10.432-4.854,16.531-13.514,24.15-20.456
				c5.37-4.892,11.528-7.979,18.832-8.399c7.478-0.431,10.963,2.301,12.622,9.582c0.079,0.342,0.17,0.682,0.251,1.022
				c3.29,14.165-0.428,20.527-14.678,23.53C208.137,614.835,194.638,613.175,180.832,606.633z"/>
			<path fill-rule="evenodd" clip-rule="evenodd" fill="#D48E37" d="M453.366,353.438c-6.073,17.146-15.423,30.412-30.942,38.594
				c-6.51,3.43-11.169,2.424-15.303-3.115c-3.991-5.343-9.647-10.492-5.89-18.273c4.179-8.647,11.885-11.881,20.913-12.845
				C432.311,356.713,442.749,357.889,453.366,353.438z"/>
			<path fill-rule="evenodd" clip-rule="evenodd" fill="#D48E37" d="M792.55,528.815c-0.208,1.437-0.181,2.294-0.462,3.031
				c-5.234,13.851-13.643,25.284-26.202,33.312c-9.404,6.011-15.022,4.651-21.212-4.563c-6.604-9.831-5.67-16.445,3.126-22.949
				c5.025-3.716,10.882-4.867,16.848-5.187C773.865,531.964,783.136,532.2,792.55,528.815z"/>
			<path fill-rule="evenodd" clip-rule="evenodd" fill="#D48E37" d="M728.009,270.127c17.083,3.382,30.6,10.241,40.896,22.637
				c6.617,7.966,5.995,13.547-1.648,20.519c-10.511,9.59-22.026,7.141-28.084-5.947c-1.635-3.532-2.731-7.24-3.438-11.038
				C734.131,287.698,732.948,278.999,728.009,270.127z"/>
			<path fill-rule="evenodd" clip-rule="evenodd" fill="#638B51" d="M224.636,649.23c6.192-7.67,8.741-15.364,11.538-22.95
				c2.385-6.472,5.227-12.64,10.433-17.486c10.287-9.578,17.698-8.486,24.763,3.621c3.365,5.774,3.89,11.53-0.602,16.634
				C258.947,642.486,243.434,647.836,224.636,649.23z"/>
			<path fill-rule="evenodd" clip-rule="evenodd" fill="#638B51" d="M169.74,489.996c7.404,4.762,15.449,5.773,23.314,7.456
				c7.132,1.523,13.984,3.718,18.451,10.17c4.605,6.643,3.998,12.239-1.961,17.649c-0.78,0.71-1.584,1.393-2.389,2.073
				c-11.918,10.073-19.852,8.982-28.683-3.946C172.297,514.358,169.108,502.554,169.74,489.996z"/>
			<path fill-rule="evenodd" clip-rule="evenodd" fill="#60BE9C" d="M640.784,280.302c-9.387,16.599-21.651,27.456-39.005,31.895
				c-5.769,1.475-10.787-0.437-14.39-5.416c-0.514-0.714-1.029-1.427-1.525-2.152c-7.576-11.104-4.435-19.245,8.811-22.838
				c6.412-1.739,12.937-1.195,19.437-0.912c4.211,0.186,8.411,0.683,12.625,0.886C630.944,281.969,635.144,281.69,640.784,280.302z"
				/>
			<path fill-rule="evenodd" clip-rule="evenodd" fill="#60BE9C" d="M129.891,431.709c8.927-3.832,15.381-9.782,22.104-15.388
				c6.58-5.485,13.717-9.812,22.699-9.714c7.668,0.084,10.304,2.424,11.341,9.967c2.059,14.971-4.26,22.74-19.306,23.732
				c-10.28,0.678-20.324-0.304-29.896-4.405C134.615,434.949,132.323,434.075,129.891,431.709z"/>
			<path fill-rule="evenodd" clip-rule="evenodd" fill="#D48E37" d="M555.693,297.28c0.229,17.38-4.531,31.745-15.424,43.745
				c-7.257,7.995-22.457,5.741-27.54-3.844c-2.079-3.922-1.078-7.906,0.69-11.676c3.36-7.164,9.709-10.923,16.489-14.078
				C538.462,307.447,547.5,304.418,555.693,297.28z"/>
			<path fill-rule="evenodd" clip-rule="evenodd" fill="#A6C555" d="M290.503,305.523c-7.277-8.477-17.045-11.573-25.349-17.006
				c-6.457-4.224-11.049-9.736-12.218-17.635c-0.666-4.49,0.809-7.727,4.884-10.08c14.938-8.625,23.165-5.891,29.508,10.142
				C291.604,281.749,293.051,292.851,290.503,305.523z"/>
			<path fill-rule="evenodd" clip-rule="evenodd" fill="#60BE9C" d="M190.091,254.049c17.006-4.295,32.857-2.324,47.304,7.503
				c5.738,3.906,6.799,9.944,5.933,16.419c-1.545,11.535-6.722,14.319-17.535,9.459c-5.395-2.425-9.705-6.33-13.626-10.611
				C205.078,269.074,198.71,260.637,190.091,254.049z"/>
			<path fill-rule="evenodd" clip-rule="evenodd" fill="#638B51" d="M716.258,278.986c3.033,8.759,8.422,15.031,13.357,21.611
				c4.176,5.568,7.312,11.609,7.735,18.734c0.439,7.422-2.253,12.396-7.239,13.498c-10.835,2.392-18.457-0.135-21.255-7.537
				c-3.915-10.354-2.341-20.812,0.381-31.127C710.582,289.082,712.535,284.17,716.258,278.986z"/>
			<path fill-rule="evenodd" clip-rule="evenodd" fill="#638B51" d="M799.822,328.04c4.18,9.826,11.082,16.144,16.928,23.275
				c5.154,6.287,8.55,13.28,8.356,21.618c-0.151,6.66-2.401,9.19-8.867,10.247c-12.563,2.052-18.083-1.544-20.673-14.041
				C792.737,355.486,793.767,342.148,799.822,328.04z"/>
			<path fill-rule="evenodd" clip-rule="evenodd" fill="#638B51" d="M396.402,189.355c8.643,6.919,19.014,10.342,28.709,15.104
				c6.68,3.279,12.904,7.177,16.738,13.901c3.703,6.501,2.615,10.159-3.959,13.512c-9.346,4.761-14.744,4.129-22.334-3.14
				c-10.021-9.599-16.486-21.258-19.331-34.874C395.944,192.511,395.586,191.129,396.402,189.355z"/>
			<path fill-rule="evenodd" clip-rule="evenodd" fill="#638B51" d="M743.701,526.225c-17.828,0.81-32.422-3.357-44.235-14.998
				c-5.867-5.783-3.946-19.964,2.909-24.523c3.231-2.148,6.701-1.4,10.088-0.148c7.452,2.759,11.521,8.904,15.235,15.342
				C732.322,509.91,735.973,518.529,743.701,526.225z"/>
			<path fill-rule="evenodd" clip-rule="evenodd" fill="#638B51" d="M351.677,344.885c-1.363,17.934-7.049,32.192-20.267,42.631
				c-5.988,4.733-20.078,1.115-23.678-5.69c-1.479-2.8-1.017-5.788,0.179-8.658c2.354-5.646,6.726-9.308,11.927-12.16
				C329.949,355.463,341.615,353.238,351.677,344.885z"/>
			<path fill-rule="evenodd" clip-rule="evenodd" fill="#638B51" d="M856.615,436.487c-8.598,9.119-18.387,13.687-29.216,16.411
				c-1.699,0.43-3.441,0.785-5.184,0.94c-16.226,1.431-19.011-3.106-22.438-17.163c-1.091-4.471,1.523-7.311,5.347-9.184
				c6.434-3.15,13.007-2.482,19.513-0.446c4.852,1.517,9.608,3.354,14.354,5.177C844.252,434.243,849.598,435.864,856.615,436.487z"
				/>
			<path fill-rule="evenodd" clip-rule="evenodd" fill="#A6C555" d="M791.412,508.705c-16.312,5.646-31.541,5.92-46.434-1.771
				c-4.665-2.408-6.65-6.632-6.35-11.805c0.174-2.969,0.522-5.953,1.112-8.866c0.983-4.832,5.511-7.391,11.521-6.615
				c6.726,0.867,12.177,4.287,16.949,8.881c3.671,3.532,7.225,7.182,10.826,10.782C782.511,502.782,786.631,505.438,791.412,508.705
				z"/>
			<path fill-rule="evenodd" clip-rule="evenodd" fill="#A6C555" d="M812.429,558.169c-3.409,16.912-10.935,29.865-24.809,38.474
				c-7.324,4.542-21.088-1.211-23.519-9.369c-0.992-3.328,0.453-6.215,2.217-8.892c3.688-5.593,9.324-8.297,15.469-10.208
				C791.738,565.078,802.302,564.011,812.429,558.169z"/>
			<path fill-rule="evenodd" clip-rule="evenodd" fill="#176C68" d="M363.97,195.283c-4.562,11.489-2.653,22.441-4.92,32.869
				c-0.444,2.043-0.952,4.146-1.878,5.995c-2.815,5.635-6.369,11.55-13.25,11.333c-6.371-0.201-10.996-5.194-14.398-10.423
				c-2.899-4.454-1.572-9.229,0.868-13.499C337.698,208.77,348.855,200.768,363.97,195.283z"/>
			<path fill-rule="evenodd" clip-rule="evenodd" fill="#A6C555" d="M597.795,678.054c-10.018,4.751-19.711,4.964-29.488,3.916
				c-5.408-0.579-10.662-2.067-15.51-4.7c-7.937-4.311-10.68-17.988-4.739-24.847c3.622-4.183,8.63-3.305,13.288-2.366
				c5.143,1.036,9.189,4.235,13.012,7.637C581.895,664.403,588.101,672.581,597.795,678.054z"/>
			<path fill-rule="evenodd" clip-rule="evenodd" fill="#A6C555" d="M452.564,390.554c0.981,2.691,0.039,4.858-0.565,7.011
				c-3.528,12.548-10.065,23.168-20.763,30.818c-7.692,5.5-20.815,1.648-24.677-6.999c-1.23-2.753-0.595-5.465,0.642-8.121
				c2.443-5.242,6.69-8.564,11.81-10.729c3.857-1.63,7.896-2.898,11.944-3.992C438.383,396.533,445.798,394.537,452.564,390.554z"/>
			<path fill-rule="evenodd" clip-rule="evenodd" fill="#A6C555" d="M561.756,385.71c-2.996,17.498-10.283,30.806-24.257,39.765
				c-6.708,4.301-20.64-1.275-22.997-8.801c-1.195-3.822,0.295-7.255,2.581-10.346c4.315-5.84,10.594-8.482,17.237-10.493
				C543.185,393.152,552.428,391.569,561.756,385.71z"/>
			<path fill-rule="evenodd" clip-rule="evenodd" fill="#D2E07F" d="M573.111,300.311c5.347,11.682,13.811,20.054,20.455,29.724
				c3.727,5.422,6.576,11.271,6.34,18.095c-0.223,6.422-2.994,8.832-9.389,8.414c-12.691-0.826-17.234-4.211-20.499-16.51
				C566.529,326.879,566.646,313.84,573.111,300.311z"/>
			<path fill-rule="evenodd" clip-rule="evenodd" fill="#A6C555" d="M851.299,365.741c4.204,16.524,3.229,31.518-5.34,45.437
				c-4.337,7.046-19.309,8.058-24.94,2.023c-3.108-3.33-2.661-7.462-1.675-11.478c1.921-7.815,7.645-12.846,13.367-17.836
				c3.181-2.772,6.392-5.514,9.665-8.177C845.548,373.135,847.732,369.692,851.299,365.741z"/>
			<path fill-rule="evenodd" clip-rule="evenodd" fill="#A6C555" d="M748.123,577.428c-13.592,12.135-27.84,17.619-44.52,16.062
				c-3.855-0.362-6.914-2.49-8.638-6.118c-0.749-1.578-1.431-3.212-1.904-4.887c-3.376-11.914,1.495-17.948,14.118-17.411
				c4.418,0.188,8.605,1.562,12.711,3.134C728.676,571.573,737.01,576.201,748.123,577.428z"/>
			<path fill-rule="evenodd" clip-rule="evenodd" fill="#A6C555" d="M781.454,322.774c0.937,2.112,0.487,3.889,0.044,5.52
				c-3.413,12.514-9.651,23.276-20.081,31.271c-8.19,6.276-21.074,3.199-25.659-6.129c-1.301-2.652-0.848-5.467,0.446-8.114
				c2.424-4.948,6.309-8.433,11.273-10.563c3.849-1.652,7.829-3.101,11.879-4.148C766.951,328.641,774.456,326.481,781.454,322.774z
				"/>
			<path fill-rule="evenodd" clip-rule="evenodd" fill="#638B51" d="M568.471,353.585c-7.994,15.194-18.605,25.917-34.322,30.521
				c-8.246,2.416-18.896-5.306-20.427-13.985c-0.499-2.818,0.722-5.15,2.542-7.167c4.225-4.68,9.658-6.75,15.824-7.365
				c9.629-0.961,19.326,0.767,28.932-0.84C563.065,354.405,565.121,354.105,568.471,353.585z"/>
			<path fill-rule="evenodd" clip-rule="evenodd" fill="#D48E37" d="M591.408,439.133c0.541-2.119-0.643-4.003-0.824-6.024
				c0.176-0.011,0.455,0.04,0.512-0.049c6.893-10.825,17.748-12.467,29.23-12.573c6.468-0.059,12.877-0.5,20.141-2.949
				c-6.218,16.002-15.219,28.026-30.591,34.345c-4.604,1.894-8.692,0.404-11.752-3.348
				C595.696,445.555,593.632,442.277,591.408,439.133z"/>
			<path fill-rule="evenodd" clip-rule="evenodd" fill="#D2E07F" d="M572.401,220.693c-2.666,14.328-10.7,26.956-24.271,35.989
				c-1.903,1.268-3.566,1.23-3.037-1.703c2.177-12.059-0.124-24.202,0.803-36.286c0.374-4.881,1.909-9.295,4.582-13.271
				c3.416-5.073,7.666-5.683,12.461-1.901C567.972,207.488,572.735,211.697,572.401,220.693z"/>
			<path fill-rule="evenodd" clip-rule="evenodd" fill="#1A8B83" d="M644.211,670.221c-16.631,4.479-31.277,3.719-44.968-4.535
				c-6.89-4.15-7.981-18.953-2.134-24.379c3.033-2.814,6.742-2.602,10.455-1.802c7.113,1.53,11.997,6.349,16.661,11.445
				C630.143,657.415,635.236,664.689,644.211,670.221z"/>
			<path fill-rule="evenodd" clip-rule="evenodd" fill="#D48E37" d="M507.898,136.492c8.05,13.488,11.209,27.695,6.178,42.958
				c-2.701,8.189-12.453,7.983-20.607,6.06c-4.987-1.176-7.299-9.191-5.216-16.523c1.708-6.018,5.44-10.926,9.133-15.837
				c1.999-2.662,4.022-5.315,5.837-8.103C504.933,142.414,506.486,139.664,507.898,136.492z"/>
			<path fill-rule="evenodd" clip-rule="evenodd" fill="#1A8B83" d="M668.404,228.186c1.25,13.546-10.252,34.355-21.892,39.979
				c-5.386,2.604-16.758,0.329-20.653-4.1c-1.559-1.771-1.727-3.716-1.091-5.908c1.62-5.577,5.411-9.47,10.11-12.396
				c4.011-2.496,8.354-4.473,12.604-6.568c3.623-1.784,7.395-3.275,10.968-5.146C661.822,232.283,665.019,230.195,668.404,228.186z"
				/>
			<path fill-rule="evenodd" clip-rule="evenodd" fill="#D48E37" d="M689.065,538.635c-15.445-6.398-26.751-15.057-32.44-29.813
				c-1.555-4.037-0.59-7.651,2.41-10.614c1.984-1.963,4.222-3.687,6.423-5.418c3.69-2.906,7.424-2.562,11.088,0.097
				c7.165,5.192,8.573,12.95,8.966,20.961C685.895,521.7,686.046,529.547,689.065,538.635z"/>
			<path fill-rule="evenodd" clip-rule="evenodd" fill="#85BA71" d="M594.653,245.004c1.862-15.809,7.298-28.73,19.305-38.12
				c6.258-4.894,13.91-2.725,20.694,5.158c3.332,3.873,2.475,9.171-2.176,14.707c-3.429,4.083-8.004,6.243-12.83,7.942
				C611.405,237.591,602.746,239.381,594.653,245.004z"/>
			<path fill-rule="evenodd" clip-rule="evenodd" fill="#85BA71" d="M270.098,519.787c12.034,6.482,22.742,26.751,21.229,39.403
				c-0.335,2.794-1.615,4.986-3.948,6.533c-3.415,2.269-7.273,3.604-11.199,4.447c-4.417,0.949-7.317-1.661-9.447-5.222
				c-3.931-6.57-3.084-13.446-1.398-20.437C267.266,536.519,270.496,528.775,270.098,519.787z"/>
			<path fill-rule="evenodd" clip-rule="evenodd" fill="#A6C555" d="M109.667,381.023c11.115-0.01,20.114-4.021,29.607-5.66
				c5.177-0.894,10.152-0.486,14.979,1.441c4.333,1.729,8.561,3.674,8.084,9.537c-0.634,7.727-4.86,13.766-10.503,14.866
				c-3.868,0.754-7.671,0.23-11.423-0.825C128.692,397.096,118.624,391.202,109.667,381.023z"/>
			<path fill-rule="evenodd" clip-rule="evenodd" fill="#D2E07F" d="M273.81,656.859c4.026-8.99,3.144-17.945,4.675-26.535
				c0.59-3.3,1.312-6.528,2.932-9.508c6.304-11.581,14.348-12.585,23.059-2.855c4.259,4.758,4.611,9.177,1.236,15.51
				C300.316,643.596,286.592,653.906,273.81,656.859z"/>
			<path fill-rule="evenodd" clip-rule="evenodd" fill="#D2E07F" d="M384.084,698.367c3.639-8.939,2.99-17.836,4.397-26.44
				c1.181-7.229,4.046-13.444,10.38-17.626c3.135-2.07,6.18-2.005,9.354,0.067c11.597,7.568,12.794,15.588,3.823,26.206
				C404.342,689.685,394.348,696.216,384.084,698.367z"/>
			<path fill-rule="evenodd" clip-rule="evenodd" fill="#60BE9C" d="M172.601,460.954c9.436-6.033,15.177-14.403,22.286-21.39
				c4.333-4.255,9.147-7.771,14.928-9.575c3.921-1.227,8.279-3.004,11.885,0.69c2.875,2.948,3.428,12.227,1.337,16.074
				c-1.383,2.55-3.498,4.33-5.877,5.904C206.255,459.875,187.953,463.472,172.601,460.954z"/>
			<path fill-rule="evenodd" clip-rule="evenodd" fill="#A6C555" d="M643.38,557.231c0.476,14.866-3.681,27.024-12.734,37.37
				c-6.298,7.193-19.79,5.334-24.272-3.118c-2.23-4.199,0.379-11.792,5.642-16.321c3.497-3.012,7.59-5.044,11.759-6.904
				C630.313,565.343,636.933,562.592,643.38,557.231z"/>
			<path fill-rule="evenodd" clip-rule="evenodd" fill="#60BE9C" d="M311.968,221.618c2.563,9.592,7.706,17.981,11.954,26.779
				c2.944,6.096,4.994,12.386,4.27,19.302c-0.754,7.178-3.99,9.635-10.859,8.174c-9.467-2.011-11.946-4.477-13.657-14.119
				c-2.249-12.697-0.097-24.826,5.157-36.475C309.44,223.929,309.854,222.242,311.968,221.618z"/>
			<path fill-rule="evenodd" clip-rule="evenodd" fill="#D2E07F" d="M187.602,276.451c9.858,6.139,21.089,9.371,31.285,14.792
				c1.699,0.903,3.367,1.914,4.892,3.079c6.219,4.747,9.235,11.918,6.71,15.686c-2.86,4.27-14.645,7.08-19.95,4.76
				c-11.594-5.07-23.874-25.675-22.874-38.386L187.602,276.451z"/>
			<path fill-rule="evenodd" clip-rule="evenodd" fill="#85BA71" d="M676.537,270.33c-3.037,9.643-2.306,18.121-2.571,26.523
				c-0.192,6.117-1.776,11.798-5.354,16.832c-3.726,5.244-7.455,6.933-11.309,5.182c-8.084-3.675-11.822-8.937-10.509-15.145
				c1.229-5.799,4.239-10.767,7.843-15.379C660.312,281.089,666.873,274.895,676.537,270.33z"/>
			<path fill-rule="evenodd" clip-rule="evenodd" fill="#1A8B83" d="M344.191,283.518c7.127,4.466,14.646,6.289,21.975,8.627
				c6.613,2.113,12.855,4.952,17.086,10.734c2.64,3.607,6.024,7.408,2.159,12.207c-5.21,6.471-11.188,8.451-16.984,5.811
				c-3.933-1.791-6.874-4.836-9.748-7.91C351.029,304.814,344.875,292.524,344.191,283.518z"/>
			<path fill-rule="evenodd" clip-rule="evenodd" fill="#D48E37" d="M384.176,541.115c-0.071,7.928,2.859,14.579,5.113,21.4
				c2.2,6.649,3.206,13.307,0.26,20.055c-2.521,5.777-5.369,7.262-11.588,5.823c-11.963-2.767-15.055-7.885-11.993-19.848
				C368.794,557.504,375.765,546.851,384.176,541.115z"/>
			<path fill-rule="evenodd" clip-rule="evenodd" fill="#D48E37" d="M165.023,556.973c8.132-0.821,13.83-4.43,19.812-7.309
				c6.388-3.073,12.822-5.538,20.194-3.768c6.815,1.635,9.059,4.518,8.213,11.478c-1.436,11.808-4.921,14.927-16.933,13.987
				C184.625,570.444,174.512,565.707,165.023,556.973z"/>
			<path fill-rule="evenodd" clip-rule="evenodd" fill="#D48E37" d="M196.271,473.224c8.674,1.386,16.912-0.356,25.145-0.21
				c2.85,0.049,5.663,0.27,8.309,1.189c5.239,1.825,10.688,4.174,11.657,10.229c0.9,5.637-3.19,9.805-6.841,13.586
				c-2.474,2.562-5.963,3.312-9.319,2.293C211.2,496.051,202.479,486.012,196.271,473.224z"/>
			<path fill-rule="evenodd" clip-rule="evenodd" fill="#84CBAE" d="M691.561,303.108c-2.214-13.591-11.274-23.079-12.894-35.595
				c-0.539-4.18-0.034-8.085,1.052-11.936c0.896-3.179,2.923-5.783,6.797-5.438c5.611,0.501,11.402,0.665,13.98,7.246
				c2.689,6.864,1.969,13.861,0.822,20.786C699.927,286.583,697.723,294.787,691.561,303.108z"/>
			<path fill-rule="evenodd" clip-rule="evenodd" fill="#A6C555" d="M803.172,549.789c1.137-7.396,0.969-13.664,0.171-19.967
				c-0.891-7.046-0.845-14.027,2.64-20.578c3.296-6.191,7-8.618,11.298-7.152c9.324,3.188,13.446,8.694,11.403,16.159
				C824.92,532.017,815.892,541.695,803.172,549.789z"/>
			<path fill-rule="evenodd" clip-rule="evenodd" fill="#85BA71" d="M315.275,663.612c-5.661-11.391-2.401-33.666,5.817-42.338
				c3.958-4.177,14.202-5.896,19.267-3.255c2.146,1.121,2.725,2.996,2.861,5.246c0.402,6.66-2.719,11.869-6.846,16.606
				C329.475,647.798,320.982,654.256,315.275,663.612z"/>
			<path fill-rule="evenodd" clip-rule="evenodd" fill="#638B51" d="M280.822,476.217c3.578-6.242,4.753-12.789,6.266-19.25
				c1.31-5.574,3.572-10.658,8.664-13.947c5.026-3.246,8.99-2.781,13.07,1.589c10.162,10.888,9.026,18.623-4.036,25.934
				C297.541,474.598,289.831,477.104,280.822,476.217z"/>
			<path fill-rule="evenodd" clip-rule="evenodd" fill="#D48E37" d="M688.855,679.15c-14.389-0.459-25.68-4.543-34.875-13.479
				c-5.914-5.742-4.963-16.986,1.509-21.949c1.925-1.477,4.091-1.607,6.478-0.901c5.385,1.592,9.032,5.193,11.856,9.799
				C678.912,660.925,681.565,670.525,688.855,679.15z"/>
			<path fill-rule="evenodd" clip-rule="evenodd" fill="#AAD49A" d="M656.075,548.793c-11.348-2.6-19.394-8.099-26.006-15.851
				c-2.727-3.195-5.132-6.664-6.233-10.86c-1.241-4.717,2.934-14.933,7.28-16.928c2.923-1.342,5.731-0.631,8.317,1.446
				c5.409,4.347,7.459,10.465,9.093,16.784C650.628,531.504,651.998,539.823,656.075,548.793z"/>
			<path fill-rule="evenodd" clip-rule="evenodd" fill="#648B52" d="M423.437,317.443c-3.339,14.815-10.233,25.931-22.956,32.725
				c-5.606,2.998-16.479-2.152-18.394-8.281c-1.347-4.304,1.094-7.538,3.874-10.309c3.584-3.579,8.263-5.271,13.076-6.485
				C406.996,323.085,415.197,321.932,423.437,317.443z"/>
			<path fill-rule="evenodd" clip-rule="evenodd" fill="#638B51" d="M727.828,562.335c-14.843-1.851-26.328-7.478-34.404-18.894
				c-3.934-5.557,0.08-17.391,6.322-19.906c3.566-1.437,6.516,0.312,9.275,2.229c5.028,3.488,7.295,8.854,9.319,14.321
				c1.338,3.612,2.621,7.244,3.81,10.908C723.34,554.67,725.32,557.959,727.828,562.335z"/>
			<path fill-rule="evenodd" clip-rule="evenodd" fill="#176C68" d="M547.566,422.133c3.543,13.442,2.869,25.687-3.735,37.217
				c-3.553,6.202-15.865,7.396-20.966,2.244c-2.464-2.488-2.496-5.645-1.833-8.891c1.395-6.834,6.177-11.253,11.074-15.586
				c2.629-2.327,5.408-4.499,7.937-6.929C542.436,427.889,544.589,425.343,547.566,422.133z"/>
			<path fill-rule="evenodd" clip-rule="evenodd" fill="#176C68" d="M324.533,461.753c4.03,14.23,3.098,26.89-4.365,38.635
				c-3.327,5.234-11.851,5.946-18.717,2.187c-3.731-2.043-4.603-7.288-2.247-13.295c1.382-3.522,3.71-6.395,6.396-8.939
				C311.808,474.458,319.001,469.632,324.533,461.753z"/>
			<path fill-rule="evenodd" clip-rule="evenodd" fill="#1A8B83" d="M535.264,203.308c-3.339-15.216-0.258-28.902,9.84-40.571
				c4.264-4.926,10.8-4.65,16.763-4.379c3.305,0.15,3.986,3.031,3.73,5.906c-0.542,6.076-3.784,10.844-7.679,15.236
				C550.714,187.629,542.052,194.398,535.264,203.308z"/>
			<path fill-rule="evenodd" clip-rule="evenodd" fill="#648B52" d="M187.277,252.783c-5.132,7.385-6.482,15.07-8.963,22.336
				c-1.857,5.436-4.48,10.369-9.242,13.774c-3.135,2.243-6.46,4.663-10.572,2.103c-4.969-3.093-8.436-10.305-7.116-14.73
				c0.396-1.327,0.888-2.723,1.699-3.814C161.374,261.3,172.891,255.739,187.277,252.783z"/>
			<path fill-rule="evenodd" clip-rule="evenodd" fill="#176C68" d="M253.787,505.829c3.864,12.654,2.967,24.157-2.318,35.207
				c-3.852,8.048-14.307,10.312-21.528,5.03c-2.259-1.652-2.628-4.034-2.655-6.561c-0.068-6.985,3.948-11.822,8.688-16.207
				c2.966-2.745,6.079-5.338,9.186-7.925C248.26,512.789,250.764,509.648,253.787,505.829z"/>
			<path fill-rule="evenodd" clip-rule="evenodd" fill="#648B52" d="M133.016,284.119c3.213,7.155,7.932,11.936,12.289,16.98
				c3.841,4.448,6.969,9.223,8.068,15.155c1.231,6.64-0.355,10.979-4.762,12.396c-8.297,2.665-14.327,0.893-17.26-5.35
				c-3.898-8.298-3.548-17.114-2.497-25.898C129.367,293.089,130.404,288.826,133.016,284.119z"/>
			<path fill-rule="evenodd" clip-rule="evenodd" fill="#176C68" d="M362.205,514.897c3.529,14.19,3.083,26.519-3.719,38.047
				c-3.651,6.19-16.063,7.225-21.002,1.988c-2.738-2.902-2.246-6.549-1.374-9.989c1.308-5.135,4.665-8.969,8.523-12.417
				C350.512,527.275,357.126,522.789,362.205,514.897z"/>
			<path fill-rule="evenodd" clip-rule="evenodd" fill="#176C68" d="M695.789,315.963c5.123,9.732,2.506,30.943-4.799,38.893
				c-3.441,3.738-13.072,4.387-18.216,0.777c-4.637-3.251-3.524-7.986-2.114-12.442c1.844-5.827,6.59-9.41,10.813-13.35
				c2.437-2.276,5.144-4.271,7.538-6.587C691.395,320.949,693.539,318.404,695.789,315.963z"/>
			<path fill-rule="evenodd" clip-rule="evenodd" fill="#D2E07F" d="M239.35,359.039c6.659,10.019,16.612,15.613,23.252,24.484
				c1.256,1.677,2.568,3.418,3.314,5.34c1.693,4.351,4.317,9.12-0.415,13.03c-4.092,3.383-13.333,2.312-17.08-1.562
				c-6.14-6.354-8.362-14.511-9.886-22.845C237.501,371.812,236.928,366.031,239.35,359.039z"/>
			<path fill-rule="evenodd" clip-rule="evenodd" fill="#648B52" d="M379.406,174.009c2.502,12.212,9.04,22.942,11.6,34.978
				c1.038,4.885,1.396,9.763-0.284,14.557c-1.6,4.568-4.622,5.741-9.05,3.698c-3.299-1.522-6.164-3.661-7.369-7.172
				C368.758,203.936,372.122,188.773,379.406,174.009z"/>
			<path fill-rule="evenodd" clip-rule="evenodd" fill="#D2E07F" d="M358.025,374.331c0.354,8.817,4.31,16.534,5.634,24.82
				c0.395,2.472,0.474,4.845-0.071,7.311c-2.486,11.283-7.499,13.651-17.787,8.449c-4.265-2.156-6.411-5.467-5.918-10.206
				C341.221,391.883,348.081,382.279,358.025,374.331z"/>
			<path fill-rule="evenodd" clip-rule="evenodd" fill="#D2E07F" d="M370.933,233.068c4.637,6.955,10.941,11.578,16.282,17.137
				c4.191,4.367,6.658,9.425,6.562,15.586c-0.062,3.824-1.902,6.164-5.597,7.306c-11.304,3.499-16.955,0.324-19.685-11.192
				C366.119,251.887,366.933,241.174,370.933,233.068z"/>
			<path fill-rule="evenodd" clip-rule="evenodd" fill="#176C68" d="M444.528,198.111c6.656,5.654,13.555,8.288,20.139,11.508
				c5.626,2.752,10.558,6.324,13.651,11.929c1.785,3.235,3.742,6.649,0.814,10.219c-3.436,4.187-9.987,6.144-14.166,4.524
				c-2.898-1.121-5.057-3.219-6.952-5.496C450.42,221.673,446.053,211.156,444.528,198.111z"/>
			<path fill-rule="evenodd" clip-rule="evenodd" fill="#D2E07F" d="M583.039,557.914c0.326,6.957,0.456,13.727-3.852,19.439
				c-2.656,3.521-5.55,7.111-10.943,4.648c-7.941-3.628-11.762-8.848-9.95-14.673c3.677-11.819,12.366-19.291,22.791-25.047
				c2.275-1.257,3.454-0.265,2.732,2.229C582.515,549.021,583.23,553.597,583.039,557.914z"/>
			<path fill-rule="evenodd" clip-rule="evenodd" fill="#D2E07F" d="M614.117,516.935c-2.356,8.97-1.127,16.724-1.443,24.427
				c-0.25,6.088-2.344,11.299-6.914,15.449c-1.361,1.236-2.809,1.974-4.709,2.006c-8.274,0.133-15.647-9.625-12.562-17.197
				C593.168,530.143,601.844,522.567,614.117,516.935z"/>
			<path fill-rule="evenodd" clip-rule="evenodd" fill="#AAD49A" d="M249.676,245.261c8.194-10.869,18.624-17.774,31.942-19.513
				c6.951-0.904,13.714,5.654,13.892,12.746c0.104,4-2.83,5.778-5.778,7.416c-5.38,2.986-11.289,2.504-16.995,1.853
				C265.125,246.893,257.609,245.215,249.676,245.261z"/>
			<path fill-rule="evenodd" clip-rule="evenodd" fill="#648B52" d="M453.562,426.845c-3.805,10.169-1.829,19.659-3.58,28.799
				c-0.811,4.224-2.329,8.081-4.859,11.525c-2.244,3.052-4.721,5.925-9.105,4.791c-4.587-1.187-9.183-6.268-9.482-10.311
				c-0.09-1.216-0.182-2.537,0.187-3.664C431.146,444.352,440.244,434.723,453.562,426.845z"/>
			<path fill-rule="evenodd" clip-rule="evenodd" fill="#A6C555" d="M756.907,643.383c-12.096,7.248-23.673,9.765-36.251,6.438
				c-6.785-1.797-7.813-7.862-7.189-16.152c0.342-4.525,4.538-6.553,11.082-6.404c4.984,0.111,9.077,2.464,13.045,5.056
				C743.43,636.13,748.954,640.439,756.907,643.383z"/>
			<path fill-rule="evenodd" clip-rule="evenodd" fill="#A6C555" d="M667.518,535.373c6.356,12.53,8.444,24.121,4.36,36.307
				c-2.113,6.303-8.726,8.774-16.8,6.781c-4.523-1.114-6.459-5.41-5.604-12.069c0.706-5.517,3.937-9.697,7.138-13.89
				C660.449,547.476,664.692,542.734,667.518,535.373z"/>
			<path fill-rule="evenodd" clip-rule="evenodd" fill="#176C68" d="M201.199,330.792c5.127,12.097,5.984,23.688,1.192,35.343
				c-2.646,6.437-13.938,9.311-19.426,5.029c-3.739-2.921-3.235-7.231-2.364-11.207c1.206-5.509,4.965-9.584,8.563-13.685
				c2.084-2.376,4.306-4.641,6.247-7.128C197.346,336.669,199.008,333.981,201.199,330.792z"/>
			<path fill-rule="evenodd" clip-rule="evenodd" fill="#D2E07F" d="M506.622,281.412c-1.481-8-4.135-14.277-6.798-20.557
				c-2.858-6.742-4.311-13.759-3.542-21.098c0.415-3.966,0.344-8.541,5.463-9.647c5.729-1.237,11.308,2.034,12.722,7.69
				c2.125,8.518,1.262,17.127-0.65,25.586C512.472,269.337,510.882,275.26,506.622,281.412z"/>
			<path fill-rule="evenodd" clip-rule="evenodd" fill="#176C68" d="M727.742,666.54c-13.71,4.462-25.715,3.986-37.168-2.626
				c-6.182-3.567-4.908-10.925-2.675-17.705c1.204-3.655,7.144-4.555,12.731-2.414c5.271,2.019,9.045,6.006,12.711,10.034
				C717.365,658.244,721.312,662.705,727.742,666.54z"/>
			<path fill-rule="evenodd" clip-rule="evenodd" fill="#638B51" d="M551.428,575.508c1.181,7.331,4.39,13.162,7.121,19.195
				c2.049,4.524,3.318,9.229,2.396,14.278c-0.815,4.455-1.823,8.914-7.467,9.303c-7.892,0.546-13.565-2.814-15.113-8.489
				c-1.519-5.555,0.107-10.809,1.683-15.969C542.237,586.648,545.823,581.138,551.428,575.508z"/>
			<path fill-rule="evenodd" clip-rule="evenodd" fill="#A6C555" d="M462.773,157.784c3.423,6.391,8.461,10.592,13.01,15.222
				c4.19,4.265,7.139,9.164,7.662,15.232c0.478,5.546-1.468,8.128-6.847,9.454c-9.819,2.421-14.759-0.499-17.188-10.159
				C456.968,177.808,458.185,165.977,462.773,157.784z"/>
			<path fill-rule="evenodd" clip-rule="evenodd" fill="#648B52" d="M224.699,452.211c11.771-1.093,21.835-6.133,32.669-8.191
				c4.7-0.891,9.398-1.169,14.065,0.219c6.297,1.873,7.559,5.514,3.9,11.043c-1.83,2.761-4.349,4.511-7.438,5.551
				C256.896,464.541,234.349,460.28,224.699,452.211z"/>
			<path fill-rule="evenodd" clip-rule="evenodd" fill="#60BE9C" d="M647.022,388.481c-7.186,11.818-16.257,19.321-28.815,21.933
				c-5.982,1.246-14.665-6.452-14.563-12.451c0.046-2.613,1.534-4.562,3.579-6.169c4.291-3.375,9.466-4.097,14.486-3.804
				C629.767,388.457,637.799,389.098,647.022,388.481z"/>
			<path fill-rule="evenodd" clip-rule="evenodd" fill="#176C68" d="M716.253,605.465c-10.208,9.658-21.147,14.732-34.45,13.49
				c-5.228-0.485-8.852-6.148-9.271-13.668c-0.296-5.316,3.59-6.774,7.569-7.971c5.384-1.62,10.458,0.081,15.428,1.909
				C701.945,601.586,708.141,604.613,716.253,605.465z"/>
			<path fill-rule="evenodd" clip-rule="evenodd" fill="#176C68" d="M778.595,605.493c-10.031,9.335-20.661,14.315-33.537,13.517
				c-5.957-0.37-10.403-6.834-10.257-14.479c0.075-4.004,4.162-7.239,9.832-7.765c4.868-0.453,9.411,0.867,13.861,2.607
				C764.695,601.799,770.811,604.485,778.595,605.493z"/>
			<path fill-rule="evenodd" clip-rule="evenodd" fill="#176C68" d="M169.834,300.405c8.311,10.543,11.93,21.721,9.991,34.347
				c-0.929,6.055-7.717,9.756-15.31,9.051c-4.288-0.398-7.226-5.157-6.963-11.484c0.178-4.303,1.723-8.247,3.671-12.009
				C164.445,314.086,168.055,308.047,169.834,300.405z"/>
			<path fill-rule="evenodd" clip-rule="evenodd" fill="#D2E07F" d="M449.054,234.793c6.47,7.41,14.43,12.057,21.175,18.178
				c3.459,3.138,6.27,6.705,7.018,11.444c0.355,2.229,0.627,4.604-1.547,6.308c-3.23,2.53-13.157,2.39-16.537-0.253
				C451.045,264.124,445.594,245.986,449.054,234.793z"/>
			<path fill-rule="evenodd" clip-rule="evenodd" fill="#D2E07F" d="M141.916,447.546c8.16,5.414,16.902,7.647,24.891,11.583
				c4.146,2.043,7.904,4.655,10.233,8.795c2.442,4.338,1.522,7.086-2.901,9.34c-8.638,4.404-12.881,3.885-19.72-3.022
				C147.354,467.105,142.392,458.861,141.916,447.546z"/>
			<path fill-rule="evenodd" clip-rule="evenodd" fill="#1A8B83" d="M252.616,471.516c5.928,6.573,12.499,10.687,18.616,15.374
				c4.495,3.442,8.756,7.169,10.475,12.865c1.639,5.439,0.125,7.917-5.331,9.072c-8.848,1.874-12.972,0.227-17.709-7.519
				C253.294,492.522,250.891,483.046,252.616,471.516z"/>
			<path fill-rule="evenodd" clip-rule="evenodd" fill="#AAD49A" d="M524.667,186.1c0.952,13.256-2.435,25.16-10.918,35.494
				c-3.031,3.69-6.901,3.776-11.002,2.396c-6.585-2.211-8.108-5.545-5.695-12.116c2.171-5.907,6.794-9.741,11.539-13.372
				C513.878,194.46,519.6,190.974,524.667,186.1z"/>
			<path fill-rule="evenodd" clip-rule="evenodd" fill="#AAD49A" d="M421.352,243.549c9.962,7.043,15.124,17.172,17.877,28.629
				c1.946,8.079,0.236,10.605-6.824,14.227c-4.542,2.33-7.309,0.619-9.727-2.951c-4.008-5.918-4.092-12.617-3.271-19.289
				c0.838-6.779,1.881-13.521,1.712-20.378L421.352,243.549z"/>
			<path fill-rule="evenodd" clip-rule="evenodd" fill="#60BE9C" d="M228.991,353.254c2.087,13.104,0.56,24.255-6.925,34.024
				c-3.484,4.55-9.743,4.406-16.232,0.308c-3.621-2.283-4.302-6.359-1.825-11.725c2.063-4.471,5.801-7.415,9.725-10.111
				C218.777,362.287,224.072,359.157,228.991,353.254z"/>
			<path fill-rule="evenodd" clip-rule="evenodd" fill="#648C53" d="M528.036,510.741c1.154-7.765-0.663-14.194-1.604-20.71
				c-0.434-3.004-0.369-5.916,0.385-8.861c1.855-7.278,5.915-10.952,10.75-9.622c8.801,2.417,12.632,7.741,10.242,15.245
				C544.566,496.977,537.896,504.529,528.036,510.741z"/>
			<path fill-rule="evenodd" clip-rule="evenodd" fill="#D48E37" d="M582.939,177.166c2.649,5.646,6.89,9.328,10.699,13.386
				c1.926,2.05,3.637,4.288,4.707,6.922c3.236,7.972-0.208,13.718-8.613,14.437c-11.82,1.006-16.555-4.005-14.953-15.842
				C575.737,188.995,578.19,183.106,582.939,177.166z"/>
			<path fill-rule="evenodd" clip-rule="evenodd" fill="#176C68" d="M441.21,158.316c-1.455,6.208-1.14,11.443-0.942,16.672
				c0.174,4.604-0.066,9.149-2.156,13.365c-3.035,6.122-7.104,8.347-11.472,6.371c-7.722-3.488-10.513-8.734-7.728-15.294
				C423.093,169.58,430.707,163.206,441.21,158.316z"/>
			<path fill-rule="evenodd" clip-rule="evenodd" fill="#D48E37" d="M739.061,417.774c-4.52,10.959-10.739,19.084-21.154,23.14
				c-5.506,2.143-8.245-2.16-10.982-5.944c-2.596-3.585-2.148-6.866,0.68-10.02c2.588-2.883,5.905-4.289,9.69-4.804
				C724.214,419.203,731.26,419.824,739.061,417.774z"/>
			<path fill-rule="evenodd" clip-rule="evenodd" fill="#AAD49A" d="M341.183,311.601c0.688,11.434-1.383,21.976-9.347,30.59
				c-3.277,3.544-8.43,3.565-12.954,0.353c-3.925-2.785-2.53-6.475-1.223-9.965c1.542-4.116,4.767-6.976,8.096-9.531
				C330.748,319.211,336.054,315.783,341.183,311.601z"/>
			<path fill-rule="evenodd" clip-rule="evenodd" fill="#648B52" d="M213.885,320.851c4.229,2.651,8.247,4.261,12.43,5.546
				c2.158,0.665,4.271,1.633,6.226,2.766c4.091,2.368,6.985,5.957,5.874,10.755c-1.14,4.942-5.964,6.679-10.209,8.088
				c-4.349,1.444-7.336-1.368-9.577-4.78C214.31,336.658,212.944,329.413,213.885,320.851z"/>
			<path fill-rule="evenodd" clip-rule="evenodd" fill="#648B52" d="M618.533,328.742c9.191,4.757,17.156,20.149,15.525,29.689
				c-0.693,4.055-3.255,6.978-6.19,9.469c-2.231,1.895-4.257,0.686-5.661-1.538c-2.414-3.827-3.16-8.098-3.254-12.538
				C618.782,345.5,619.49,337.168,618.533,328.742z"/>
			<path fill-rule="evenodd" clip-rule="evenodd" fill="#84CBAE" d="M411.445,518.521c6.562,0,12.188,0.056,17.814-0.027
				c2.355-0.033,4.545,0.439,6.639,1.439c5.044,2.408,6.493,5.343,4.715,9.494c-2.579,6.018-6.334,8.143-11.438,6.127
				C421.352,532.471,415.604,527.097,411.445,518.521z"/>
			<path fill-rule="evenodd" clip-rule="evenodd" fill="#AAD49A" d="M415.353,350.971c4.376-7.967,9.61-13.574,17.369-16.447
				c4.079-1.513,8.579,0.646,10.263,4.908c1.793,4.549-1.697,6.377-4.792,8.021c-5.143,2.731-11.034,1.538-16.49,2.75
				C420.026,350.576,418.279,350.631,415.353,350.971z"/>
			<path fill-rule="evenodd" clip-rule="evenodd" fill="#AAD49A" d="M421.118,243.786c-0.121-0.207-0.241-0.413-0.359-0.622
				c0.196,0.13,0.394,0.26,0.593,0.387C421.352,243.549,421.118,243.786,421.118,243.786z"/>
			<path fill-rule="evenodd" clip-rule="evenodd" fill="#D2E07F" d="M187.664,276.382c-0.176-0.113-0.354-0.225-0.53-0.338
				c0.099,0.003,0.244-0.031,0.287,0.022c0.09,0.103,0.124,0.253,0.181,0.385L187.664,276.382z"/>
		</g>
		<path clip-path="url(#SVGID_4_)" fill="#0B564B" d="M-181.185,1206.472l1286.55-13.698l-16.988-216.53
			c0,0-377.262-39.205-529.157-123.979c0,0-336.531-92.299-423.381-2.517c0,0-164.416,87.458-286.5,84.534L-181.185,1206.472z"/>
		<use xlink:href="#SVGID_5_"  overflow="visible" fill="none" stroke="#FFFFFF" stroke-width="3" stroke-miterlimit="10"/>
	</g>
	<g>
		<defs>
			<path id="SVGID_7_" d="M-55.281,1007.341c0,15.251-5.802,27.608-12.953,27.608h-991.615c-7.153,0-12.953-12.357-12.953-27.608
				V-11.124c0-15.251,5.8-27.612,12.953-27.612h991.615c7.151,0,12.953,12.361,12.953,27.612V1007.341z"/>
		</defs>
		<clipPath id="SVGID_6_">
			<use xlink:href="#SVGID_7_"  overflow="visible"/>
		</clipPath>
		<g clip-path="url(#SVGID_6_)">
			<path opacity="0.6" fill="#A6C15A" d="M278.204,712.549c0,0-477.167-40.821-669.273-129.072c0,0-425.651-96.09-535.501-2.621
				c0,0-207.955,91.048-362.37,88.005l-38.602,283.365l1627.229-14.261L278.204,712.549z M-628.676,645.066
				c-4.246-12.744-20.451-17.515-24.292-31.148c-2.329-2.709-4.173-5.792-5.116-9.57c0.943,3.778,2.787,6.861,5.116,9.57
				c-0.251-0.889-0.451-1.813-0.593-2.785c0.142,0.972,0.342,1.896,0.593,2.785c8.823,10.254,24.767,15.044,26.553,31.148
				c-1.786-16.104-17.729-20.895-26.553-31.148C-649.127,627.552-632.922,632.322-628.676,645.066z"/>
			<path opacity="0.6" fill="#D2E081" d="M260.459,748.87c0,0-467.879-40.819-656.249-129.072c0,0-417.37-96.091-525.083-2.623
				c0,0-203.908,91.047-355.315,88.006l-37.856,283.365l1595.571-14.262L260.459,748.87z M-628.676,645.066
				c-4.246-12.744-20.451-17.515-24.292-31.148c-2.329-2.709-4.173-5.792-5.116-9.57c0.943,3.778,2.787,6.861,5.116,9.57
				c-0.251-0.889-0.451-1.813-0.593-2.785c0.142,0.972,0.342,1.896,0.593,2.785c8.823,10.254,24.767,15.044,26.553,31.148
				c-1.786-16.104-17.729-20.895-26.553-31.148C-649.127,627.552-632.922,632.322-628.676,645.066z"/>
			<path opacity="0.6" fill="#062821" d="M-1079.311,1070.365l1911.059-25.234l-24.562-207.142c0,0-545.537-37.509-765.177-118.609
				c0,0-486.636-88.298-612.229-2.406c0,0-332.549,122.424-509.09,119.627V1070.365z"/>
			<path opacity="0.6" fill="#60BA99" d="M231.414,1079.348l-1286.55-13.698l16.989-216.525c0,0,377.265-39.21,529.149-123.982
				c0,0,336.537-92.301,423.389-2.519c0,0,164.414,87.457,286.5,84.538L231.414,1079.348z"/>
			<path opacity="0.6" fill="#1B877F" d="M222.335,1106.59l-1286.552-13.7l16.988-216.526c0,0,377.266-39.21,529.151-123.981
				c0,0,336.536-92.296,423.39-2.517c0,0,164.413,87.456,286.499,84.535L222.335,1106.59z"/>
			<path opacity="0.6" fill="#126864" d="M-1148.686,1164.949l1189.415-26.657L23.741,921.765
				c-126.448-13.143-78.307,121.562-554.086-143.981c0,0-311.603-72.298-398.452,17.481c0,0-93.28,74.423-215.365,71.501
				L-1148.686,1164.949z"/>
			<path opacity="0.6" fill="#062821" d="M-1245.82,1206.472l1286.55-13.698l-16.988-216.53c0,0-377.262-39.205-529.157-123.979
				c0,0-336.531-92.299-423.381-2.517c0,0-164.416,87.458-286.5,84.534L-1245.82,1206.472z"/>
		</g>
		<path clip-path="url(#SVGID_6_)" fill="#0B564B" d="M-1245.82,1206.472l1286.55-13.698l-16.988-216.53
			c0,0-377.262-39.205-529.157-123.979c0,0-336.531-92.299-423.381-2.517c0,0-164.416,87.458-286.5,84.534L-1245.82,1206.472z"/>
		<use xlink:href="#SVGID_7_"  overflow="visible" fill="none" stroke="#FFFFFF" stroke-width="3" stroke-miterlimit="10"/>
	</g>
	<g>
		<defs>
			<path id="SVGID_9_" d="M-55.281-53.702c0,15.251-5.802,27.608-12.953,27.608h-991.615c-7.153,0-12.953-12.357-12.953-27.608
				v-1018.465c0-15.251,5.8-27.612,12.953-27.612h991.615c7.151,0,12.953,12.361,12.953,27.612V-53.702z"/>
		</defs>
		<clipPath id="SVGID_8_">
			<use xlink:href="#SVGID_9_"  overflow="visible"/>
		</clipPath>
		<g clip-path="url(#SVGID_8_)">
			<path opacity="0.6" fill="#062821" d="M-1079.311,9.322L831.748-15.912l-24.562-207.142c0,0-545.537-37.509-765.177-118.609
				c0,0-486.636-88.298-612.229-2.406c0,0-332.549,122.424-509.09,119.627V9.322z"/>
			<path opacity="0.6" fill="#60BA99" d="M231.414,18.305l-1286.55-13.698l16.989-216.525c0,0,377.265-39.21,529.149-123.982
				c0,0,336.537-92.301,423.389-2.519c0,0,164.414,87.457,286.5,84.538L231.414,18.305z"/>
			<path opacity="0.6" fill="#1B877F" d="M222.335,45.547l-1286.552-13.7l16.988-216.526c0,0,377.266-39.21,529.151-123.981
				c0,0,336.536-92.296,423.39-2.517c0,0,164.413,87.456,286.499,84.535L222.335,45.547z"/>
			<path opacity="0.6" fill="#126864" d="M-1148.686,103.906L40.729,77.249L23.741-139.278
				C-102.707-152.421-54.565-17.716-530.345-283.26c0,0-311.603-72.298-398.452,17.481c0,0-93.28,74.423-215.365,71.501
				L-1148.686,103.906z"/>
			<path opacity="0.6" fill="#062821" d="M-1245.82,145.429L40.729,131.73L23.741-84.8c0,0-377.262-39.205-529.157-123.979
				c0,0-336.531-92.299-423.381-2.517c0,0-164.416,87.458-286.5,84.534L-1245.82,145.429z"/>
		</g>
		<path clip-path="url(#SVGID_8_)" fill="#0B564B" d="M-1245.82,145.429L40.729,131.73L23.741-84.8
			c0,0-377.262-39.205-529.157-123.979c0,0-336.531-92.299-423.381-2.517c0,0-164.416,87.458-286.5,84.534L-1245.82,145.429z"/>
		<use xlink:href="#SVGID_9_"  overflow="visible" fill="none" stroke="#FFFFFF" stroke-width="3" stroke-miterlimit="10"/>
	</g>
	<g>
		<defs>
			<path id="SVGID_11_" d="M1009.354-53.702c0,15.251-5.802,27.608-12.953,27.608H4.786c-7.153,0-12.953-12.357-12.953-27.608
				v-1018.465c0-15.251,5.8-27.612,12.953-27.612h991.615c7.151,0,12.953,12.361,12.953,27.612V-53.702z"/>
		</defs>
		<clipPath id="SVGID_10_">
			<use xlink:href="#SVGID_11_"  overflow="visible"/>
		</clipPath>
		<g clip-path="url(#SVGID_10_)">
			<path opacity="0.6" fill="#062821" d="M-14.675,9.322l1911.059-25.234l-24.562-207.142c0,0-545.537-37.509-765.177-118.609
				c0,0-486.636-88.298-612.229-2.406c0,0-332.549,122.424-509.09,119.627V9.322z"/>
			<path opacity="0.6" fill="#60BA99" d="M1296.05,18.305L9.5,4.606l16.989-216.525c0,0,377.265-39.21,529.149-123.982
				c0,0,336.537-92.301,423.389-2.519c0,0,164.414,87.457,286.5,84.538L1296.05,18.305z"/>
			<path opacity="0.6" fill="#1B877F" d="M1286.971,45.547L0.419,31.847L17.407-184.68c0,0,377.266-39.21,529.151-123.981
				c0,0,336.536-92.296,423.39-2.517c0,0,164.413,87.456,286.499,84.535L1286.971,45.547z"/>
			<path opacity="0.6" fill="#60BA99" d="M-246.48,72.785L1005.48,59.089l3.226-180.975c0,0-386.876-74.759-534.681-159.537
				c0,0-327.487-92.298-412.005-2.514c0,0-159.997,87.456-278.801,84.532L-246.48,72.785z"/>
			<path opacity="0.6" fill="#062821" d="M-146.221-139.15c0,0,331.157-9.525,454.985-67.741
				c123.825-58.216,284.108-45.191,390.829-30.301c106.723,14.892,233.721,131.31,304.126,88.422l26.078,205.606"/>
			<path opacity="0.6" fill="#126864" d="M-84.05,103.906l1189.415-26.657l-16.988-216.527
				C961.929-152.421,1010.07-17.716,534.291-283.26c0,0-311.603-72.298-398.452,17.481c0,0-93.28,74.423-215.365,71.501
				L-84.05,103.906z"/>
			<path opacity="0.6" fill="#062821" d="M-181.185,145.429l1286.55-13.698L1088.377-84.8c0,0-377.262-39.205-529.157-123.979
				c0,0-336.531-92.299-423.381-2.517c0,0-164.416,87.458-286.5,84.534L-181.185,145.429z"/>
		</g>
		<path clip-path="url(#SVGID_10_)" fill="#0B564B" d="M-181.185,145.429l1286.55-13.698L1088.377-84.8
			c0,0-377.262-39.205-529.157-123.979c0,0-336.531-92.299-423.381-2.517c0,0-164.416,87.458-286.5,84.534L-181.185,145.429z"/>
		<use xlink:href="#SVGID_11_"  overflow="visible" fill="none" stroke="#FFFFFF" stroke-width="3" stroke-miterlimit="10"/>
	</g>
	<g>
		<defs>
			<path id="SVGID_13_" d="M2060.88-53.702c0,15.251-5.802,27.608-12.953,27.608h-991.615c-7.153,0-12.953-12.357-12.953-27.608
				v-1018.465c0-15.251,5.8-27.612,12.953-27.612h991.615c7.151,0,12.953,12.361,12.953,27.612V-53.702z"/>
		</defs>
		<clipPath id="SVGID_12_">
			<use xlink:href="#SVGID_13_"  overflow="visible"/>
		</clipPath>
		<g clip-path="url(#SVGID_12_)">
			<path opacity="0.6" fill="#60BA99" d="M805.045,72.785l1251.961-13.696l3.226-180.975c0,0-386.876-74.759-534.681-159.537
				c0,0-327.487-92.298-412.005-2.514c0,0-159.997,87.456-278.801,84.532L805.045,72.785z"/>
			<path opacity="0.6" fill="#062821" d="M905.305-139.15c0,0,331.157-9.525,454.985-67.741
				c123.825-58.216,284.108-45.191,390.829-30.301c106.723,14.892,233.721,131.31,304.126,88.422l26.078,205.606"/>
			<path opacity="0.6" fill="#126864" d="M967.476,103.906l1189.415-26.657l-16.988-216.527
				c-126.448-13.143-78.307,121.562-554.086-143.981c0,0-311.603-72.298-398.452,17.481c0,0-93.28,74.423-215.365,71.501
				L967.476,103.906z"/>
			<path opacity="0.6" fill="#062821" d="M870.341,145.429l1286.55-13.698L2139.902-84.8c0,0-377.262-39.205-529.157-123.979
				c0,0-336.531-92.299-423.381-2.517c0,0-164.416,87.458-286.5,84.534L870.341,145.429z"/>
		</g>
		<path clip-path="url(#SVGID_12_)" fill="#0B564B" d="M870.341,145.429l1286.55-13.698L2139.902-84.8
			c0,0-377.262-39.205-529.157-123.979c0,0-336.531-92.299-423.381-2.517c0,0-164.416,87.458-286.5,84.534L870.341,145.429z"/>
		<use xlink:href="#SVGID_13_"  overflow="visible" fill="none" stroke="#FFFFFF" stroke-width="3" stroke-miterlimit="10"/>
	</g>
</g>
<g id="Calque_1">
</g>
</svg>
