<?xml version="1.0" encoding="utf-8"?>
<!-- Generator: Adobe Illustrator 16.0.0, SVG Export Plug-In . SVG Version: 6.00 Build 0)  -->
<!DOCTYPE svg PUBLIC "-//W3C//DTD SVG 1.1//EN" "http://www.w3.org/Graphics/SVG/1.1/DTD/svg11.dtd">
<svg version="1.1" xmlns="http://www.w3.org/2000/svg" xmlns:xlink="http://www.w3.org/1999/xlink" x="0px" y="0px" width="1000px"
	 height="1000px" viewBox="0 0 1000 1000" enable-background="new 0 0 1000 1000" xml:space="preserve">
<g id="Calque_3">
</g>
<g id="Calque_2">
	<g>
		<defs>
			<path id="SVGID_5_" d="M2073.99,1007.341c0,15.251-5.802,27.608-12.953,27.608h-991.615c-7.153,0-12.953-12.357-12.953-27.608
				V-11.124c0-15.251,5.8-27.612,12.953-27.612h991.615c7.151,0,12.953,12.361,12.953,27.612V1007.341z"/>
		</defs>
		<clipPath id="SVGID_2_">
			<use xlink:href="#SVGID_5_"  overflow="visible"/>
		</clipPath>
		<g clip-path="url(#SVGID_2_)">
			<path opacity="0.6" fill="#A6C15A" d="M2407.476,712.549c0,0-477.167-40.821-669.273-129.072c0,0-425.651-96.09-535.501-2.621
				c0,0-207.955,91.048-362.37,88.005l-38.602,283.365l1627.229-14.261L2407.476,712.549z M1500.596,645.066
				c-4.246-12.744-20.451-17.515-24.292-31.148c-2.329-2.709-4.173-5.792-5.116-9.57c0.943,3.778,2.787,6.861,5.116,9.57
				c-0.251-0.889-0.451-1.813-0.593-2.785c0.142,0.972,0.342,1.896,0.593,2.785c8.823,10.254,24.767,15.044,26.553,31.148
				c-1.786-16.104-17.729-20.895-26.553-31.148C1480.145,627.552,1496.35,632.322,1500.596,645.066z"/>
			<path opacity="0.6" fill="#D2E081" d="M2389.73,748.87c0,0-467.879-40.819-656.249-129.072c0,0-417.37-96.091-525.083-2.623
				c0,0-203.908,91.047-355.315,88.006l-37.856,283.365l1595.571-14.262L2389.73,748.87z M1500.596,645.066
				c-4.246-12.744-20.451-17.515-24.292-31.148c-2.329-2.709-4.173-5.792-5.116-9.57c0.943,3.778,2.787,6.861,5.116,9.57
				c-0.251-0.889-0.451-1.813-0.593-2.785c0.142,0.972,0.342,1.896,0.593,2.785c8.823,10.254,24.767,15.044,26.553,31.148
				c-1.786-16.104-17.729-20.895-26.553-31.148C1480.145,627.552,1496.35,632.322,1500.596,645.066z"/>
			<path opacity="0.6" fill="#60BA99" d="M818.155,1133.828l1251.961-13.696l3.226-180.975c0,0-386.876-74.759-534.681-159.537
				c0,0-327.487-92.298-412.005-2.514c0,0-159.997,87.456-278.801,84.532L818.155,1133.828z"/>
			<path opacity="0.6" fill="#062821" d="M918.415,921.893c0,0,331.157-9.525,454.985-67.741
				c123.825-58.216,284.108-45.191,390.829-30.301c106.723,14.892,233.721,131.31,304.126,88.422l26.078,205.606"/>
			<path opacity="0.6" fill="#126864" d="M980.586,1164.949l1189.415-26.657l-16.988-216.527
				c-126.448-13.143-78.307,121.562-554.086-143.981c0,0-311.603-72.298-398.452,17.481c0,0-93.28,74.423-215.365,71.501
				L980.586,1164.949z"/>
			<path opacity="0.6" fill="#062821" d="M883.451,1206.472l1286.55-13.698l-16.988-216.53c0,0-377.262-39.205-529.157-123.979
				c0,0-336.531-92.299-423.381-2.517c0,0-164.416,87.458-286.5,84.534L883.451,1206.472z"/>
		</g>
		<path clip-path="url(#SVGID_2_)" fill="#0B564B" d="M883.451,1206.472l1286.55-13.698l-16.988-216.53
			c0,0-377.262-39.205-529.157-123.979c0,0-336.531-92.299-423.381-2.517c0,0-164.416,87.458-286.5,84.534L883.451,1206.472z"/>
		<use xlink:href="#SVGID_5_"  overflow="visible" fill="none" stroke="#FFFFFF" stroke-width="3" stroke-miterlimit="10"/>
	</g>
	<g>
		<defs>
			<path id="SVGID_7_" d="M1009.354,1007.341c0,15.251-5.802,27.608-12.953,27.608H4.786c-7.153,0-12.953-12.357-12.953-27.608
				V-11.124c0-15.251,5.8-27.612,12.953-27.612h991.615c7.151,0,12.953,12.361,12.953,27.612V1007.341z"/>
		</defs>
		<clipPath id="SVGID_4_">
			<use xlink:href="#SVGID_7_"  overflow="visible"/>
		</clipPath>
		<g clip-path="url(#SVGID_4_)">
			<path opacity="0.6" fill="#A6C15A" d="M1342.84,712.549c0,0-477.167-40.821-669.273-129.072c0,0-425.651-96.09-535.501-2.621
				c0,0-207.955,91.048-362.37,88.005l-38.602,283.365l1627.229-14.261L1342.84,712.549z M435.96,645.066
				c-4.246-12.744-20.451-17.515-24.292-31.148c-2.329-2.709-4.173-5.792-5.116-9.57c0.943,3.778,2.787,6.861,5.116,9.57
				c-0.251-0.889-0.451-1.813-0.593-2.785c0.142,0.972,0.342,1.896,0.593,2.785c8.823,10.254,24.767,15.044,26.553,31.148
				c-1.786-16.104-17.729-20.895-26.553-31.148C415.509,627.552,431.714,632.322,435.96,645.066z"/>
			<path opacity="0.6" fill="#D2E081" d="M1325.095,748.87c0,0-467.879-40.819-656.249-129.072c0,0-417.37-96.091-525.083-2.623
				c0,0-203.908,91.047-355.315,88.006l-37.856,283.365l1595.571-14.262L1325.095,748.87z M435.96,645.066
				c-4.246-12.744-20.451-17.515-24.292-31.148c-2.329-2.709-4.173-5.792-5.116-9.57c0.943,3.778,2.787,6.861,5.116,9.57
				c-0.251-0.889-0.451-1.813-0.593-2.785c0.142,0.972,0.342,1.896,0.593,2.785c8.823,10.254,24.767,15.044,26.553,31.148
				c-1.786-16.104-17.729-20.895-26.553-31.148C415.509,627.552,431.714,632.322,435.96,645.066z"/>
			<path opacity="0.6" fill="#062821" d="M-14.675,1070.365l1911.059-25.234l-24.562-207.142c0,0-545.537-37.509-765.177-118.609
				c0,0-486.636-88.298-612.229-2.406c0,0-332.549,122.424-509.09,119.627V1070.365z"/>
			<path opacity="0.6" fill="#60BA99" d="M1296.05,1079.348L9.5,1065.649l16.989-216.525c0,0,377.265-39.21,529.149-123.982
				c0,0,336.537-92.301,423.389-2.519c0,0,164.414,87.457,286.5,84.538L1296.05,1079.348z"/>
			<path opacity="0.6" fill="#1B877F" d="M1286.971,1106.59L0.419,1092.89l16.988-216.526c0,0,377.266-39.21,529.151-123.981
				c0,0,336.536-92.296,423.39-2.517c0,0,164.413,87.456,286.499,84.535L1286.971,1106.59z"/>
			<path opacity="0.6" fill="#60BA99" d="M-246.48,1133.828l1251.961-13.696l3.226-180.975c0,0-386.876-74.759-534.681-159.537
				c0,0-327.487-92.298-412.005-2.514c0,0-159.997,87.456-278.801,84.532L-246.48,1133.828z"/>
			<path opacity="0.6" fill="#062821" d="M-146.221,921.893c0,0,331.157-9.525,454.985-67.741
				c123.825-58.216,284.108-45.191,390.829-30.301c106.723,14.892,233.721,131.31,304.126,88.422l26.078,205.606"/>
			<path opacity="0.6" fill="#126864" d="M-84.05,1164.949l1189.415-26.657l-16.988-216.527
				c-126.448-13.143-78.307,121.562-554.086-143.981c0,0-311.603-72.298-398.452,17.481c0,0-93.28,74.423-215.365,71.501
				L-84.05,1164.949z"/>
			<path opacity="0.6" fill="#062821" d="M-181.185,1206.472l1286.55-13.698l-16.988-216.53c0,0-377.262-39.205-529.157-123.979
				c0,0-336.531-92.299-423.381-2.517c0,0-164.416,87.458-286.5,84.534L-181.185,1206.472z"/>
		</g>
		<g clip-path="url(#SVGID_4_)">
			<path fill="#FDFEFD" d="M708.072,436.62c-7.003,1.578-14.112,2.42-21.221,3.342c-2.794,0.363-5.706,1.202-8.149,2.567
				c-3.973,2.225-7.872,5.104-6.435,10.568c1.367,5.189,9.114,9.514,14.169,8.346c8.592-1.981,20.492-15.714,21.572-24.888
				l0.236-0.122L708.072,436.62z M558.778,327.061c-9.64,1.873-18.06,1.312-26.499,0.493c-9.426-0.916-18.784-1.201-26.942,4.924
				c-3.175,2.384-5.556,5.386-5.285,9.507c0.623,9.459,12.013,18.74,20.981,16.404C537.983,353.975,550.052,343.234,558.778,327.061
				z M558.916,363.143c-9.288,3.62-17.571,3.218-25.748,3.776c-4.308,0.294-8.623,0.37-12.833,1.472
				c-15.152,3.964-18.977,15.271-9.213,27.266c0.453,0.559,0.934,1.098,1.406,1.64c3.439,3.946,7.811,5.407,12.617,3.47
				C541.897,394.012,551.734,380.932,558.916,363.143z M201.584,450.151c13.382,5.466,26.347,6.396,39.479,3.254
				c14.684-3.513,18.227-9.94,14.171-24.46c-1.854-6.64-4.775-8.832-11.725-8.384c-7.529,0.484-13.714,3.87-19.104,9.067
				C217.292,436.487,211.566,444.849,201.584,450.151z M326.391,660.232c14.533,3.14,27.327,1.521,39.603-3.897
				c12.588-5.557,15.028-12.574,9.281-25.075c-3.323-7.228-6.89-8.812-14.682-6.601c-7.938,2.255-13.251,7.745-17.604,14.347
				C338.244,646.194,334.087,653.812,326.391,660.232z M619.715,636.235c-12.943,2.725-24.804,0.696-36.643,0.9
				c-7.305,0.126-14.408,1.101-20.467,5.663c-3.052,2.299-5.243,5.23-3.896,9.281c2.722,8.191,13.409,14.929,22.024,13.068
				C597.375,661.552,610.093,652.174,619.715,636.235z M651.966,577.306c-4.56-2.383-8.778-4.339-12.74-6.723
				c-4.16-2.502-8.002-5.533-12.121-8.109c-3.965-2.478-8.033-4.812-12.19-6.945c-4.404-2.259-9.203-3.323-14.136-2.703
				c-3.391,0.426-6.877,1.23-7.954,5.341c-2.214,8.463,3.528,19.95,11.681,23.277c5.924,2.419,12.226,3.403,18.504,3.309
				C633.071,584.602,643.035,583.408,651.966,577.306z M696.417,564.008c-9.482-3.431-17.042-8.951-24.738-14.239
				c-4.166-2.864-8.441-5.576-13.104-7.525c-5.394-2.256-10.954-3.548-16.823-1.685c-2.655,0.844-4.399,2.496-4.943,5.193
				c-1.924,9.537,4.199,20.104,13.478,23.206c10.162,3.4,20.483,3.551,30.911,1.333
				C686.479,569.167,691.567,567.663,696.417,564.008z M781.43,516.413c-3.522-0.6-5.957-1.009-8.389-1.429
				c-10.343-1.787-19.859-6.541-30.157-8.445c-6.264-1.158-12.584-1.603-18.592,1.205c-3.264,1.527-5.929,3.716-5.253,7.885
				c1.888,11.641,10.575,18.752,22.452,18.336c2.696-0.095,5.412-0.412,8.057-0.936C761.425,530.68,772.211,526.168,781.43,516.413z
				 M270.996,335.435c-1.622,4.545-2.826,8.503-4.439,12.288c-1.685,3.958-3.704,7.781-5.681,11.609
				c-2.475,4.794-4.775,9.657-6.459,14.792c-1.835,5.601-2.436,11.264-0.399,16.933c1.022,2.845,2.788,5.099,6.096,5.397
				c8.943,0.806,19.021-6.179,21.187-15.024c2.779-11.368,1.156-22.516-2.707-33.36
				C276.992,343.578,275.064,339.129,270.996,335.435z M278.049,515.365c13.538-0.652,34.389-16.974,38.116-29.431
				c1.132-3.778,0.37-7.063-1.666-10.236c-1.985-3.094-4.947-5.171-7.676-7.512c-4.074-3.499-8.134-3.192-12.281-0.266
				c-7.497,5.293-10.302,13.076-11.426,21.717C281.992,498.292,281.833,507.12,278.049,515.365z M384.635,378.883
				c-8.596,10.774-12.796,22.439-13.407,35.287c-0.642,13.455,3.651,17.94,16.87,18.961c5.252,0.406,8.564-1.717,10.114-6.817
				c2.646-8.72,0.516-16.693-3.624-24.358C390.708,394.769,386.337,387.813,384.635,378.883z M439.501,314.077
				c0.615,9.049,7.383,21.15,15.935,28.966c10.903,9.969,18.375,9.345,27.293-2.283c3.948-5.143,3.988-8.467-0.098-13.453
				c-4.879-5.957-11.569-8.133-18.951-8.929C455.681,317.515,447.475,317.787,439.501,314.077z M473.887,418.086
				c-5.232,9.341-13.293,16.071-19.954,24.004c-3.158,3.762-5.772,7.896-6.708,12.776c-0.785,4.101-1.202,8.401,2.188,11.684
				c4.693,4.546,18.596,2.948,22.755-2.339C479.771,454.545,481.266,428.996,473.887,418.086z M715.479,473.532
				c-9.661,0.448-18.427-3.056-27.514-4.934c-5.675-1.174-11.38-1.882-17.054,0.171c-6.146,2.222-9.197,5.691-8.836,10.165
				c0.569,7.044,6.467,15.272,11.621,16.212C686.56,497.495,708.95,486.059,715.479,473.532z M238.825,486.072
				c9.271,2.473,17.87,2.354,26.398,0.28c17.601-4.279,21.343-13.196,12.254-28.786c-3.366-5.775-7.187-7.112-13.628-5.008
				c-6.989,2.286-10.573,7.773-13.456,13.961C247.286,473.196,244.715,480.173,238.825,486.072z M713.243,554.42
				c3.361-0.258,6.6-0.379,9.803-0.775c6.306-0.782,12.314-2.614,17.861-5.749c1.045-0.591,2.479-1.61,2.562-2.539
				c0.154-1.7-1.805-1.199-2.874-1.638c-4.822-1.982-9.723-3.801-14.44-6.006c-7.658-3.579-15.055-7.803-23.438-9.544
				c-4.452-0.925-8.937-1.148-13.196,1.01c-2.118,1.073-3.298,2.636-3.088,5.165c0.686,8.278,7.152,15.982,15.211,18.507
				C705.513,554.063,709.554,553.354,713.243,554.42z M646.062,377.17c-5.823,12.371-6.901,24.1-4.308,35.938
				c2.582,11.788,8.02,14.756,19.684,12.117c0.876-0.198,1.752-0.395,2.631-0.59c3.873-0.861,5.698-3.405,6.104-7.237
				c0.79-7.46-1.558-13.842-6.556-19.312C657.715,391.625,650.903,385.965,646.062,377.17z M391.694,310.117
				c-0.161,7.856-2.324,14.088-4.439,20.342c-1.088,3.222-2.089,6.462-2.489,9.89c-0.798,6.845,0.392,13.095,6.05,17.456
				c5.622,4.33,11.409,0.812,16.924-0.803c3.572-1.048,5.613-4.094,5.436-7.873C412.413,333.021,404.202,321.009,391.694,310.117z
				 M571.805,312.539c-5.736-10.119-18.121-18.864-29.653-21.463c-11.043-2.49-17.24,2.604-19.262,15.839
				c-0.906,5.942,4.805,10.747,14,11.791c3.63,0.411,7.146-0.164,10.646-1.067C555.319,315.637,562.749,312.145,571.805,312.539z
				 M200.587,580.965c6.803,5.16,14.131,7.551,21.72,9.13c6.56,1.363,13.204,1.916,19.868,0.355
				c7.971-1.866,11.346-7.887,10.128-18.228c-0.607-5.172-4.596-7.552-12.372-7.755c-6.021-0.159-11.354,1.859-16.4,4.767
				C216.213,573.449,209.337,578.48,200.587,580.965z M753.74,445.141c-1.606,4.267-2.934,7.923-4.358,11.542
				c-3.037,7.708-7.689,14.674-10.251,22.614c-1.702,5.265-2.631,10.486-0.751,15.879c1.337,3.845,3.831,5.293,7.963,4.387
				c12.182-2.672,16.775-8.051,17.139-20.593c0.085-2.884,0.188-5.805-0.15-8.657C762.271,461.348,760.057,452.78,753.74,445.141z
				 M459.546,350.288c-7.662,4.324-14.724,5.689-21.722,7.346c-6.124,1.449-12.286,3.038-17.122,7.493
				c-4.909,4.522-6.869,10.434-3.939,13.779c6.578,7.512,12.412,11.699,19.272,7.661
				C449.265,378.779,456.094,366.536,459.546,350.288z M690.577,391.523c0.41-14.017-3.682-25.215-10.889-35.396
				c-6.957-9.83-13.024-11.471-24.198-7.036c-4.104,1.63-5.357,4.416-4.149,8.572c1.573,5.41,4.854,9.52,9.242,12.941
				C669.924,377.891,681.151,382.321,690.577,391.523z M629.382,385.982c-4.408,3.183-7.976,5.878-12.029,7.803
				c-4.047,1.922-8.101,3.84-12.067,5.921c-5.042,2.644-9.286,6.159-11.483,11.636c-1.24,3.095-1.826,6.327-0.211,9.391
				c4.254,8.074,17.507,9.957,23.519,3.143C626.341,413.409,629.922,400.933,629.382,385.982z M447.885,575.203
				c0.257-7.714,1.759-14.881,3.087-22.104c1.46-7.936,3.057-15.994-0.864-23.801c-1.528-3.043-3.579-5.591-7.148-5.896
				c-5.81-0.495-15.679,8.143-15.623,14.129C427.479,553.598,435.303,565.703,447.885,575.203z M552.308,640.923
				c10.019-10.077,14.277-21.331,14.887-34.097c0.527-11.025-2.029-14.9-11.979-19.191c-6.608-2.848-9.963-1.179-11.938,5.805
				c-2.248,7.958,0.452,15.304,2.774,22.662C548.483,623.798,551.782,631.25,552.308,640.923z M462.717,553.604
				c-3.761,17.567-7.341,33.601-15.594,48.22c-2.801,4.961,0.656,11.671,5.218,13.12c6.985,2.218,16.563-2.984,18.382-10.056
				c2.303-8.962,0.952-17.952-0.379-26.825C469.151,570.128,467.956,562.06,462.717,553.604z M566.501,368.416
				c5.994-5.754,12.88-9.727,19.577-13.957c6.146-3.883,11.87-8.194,15.151-14.98c2.934-6.066,2.629-10.79-0.872-13.264
				c-6.594-4.657-13.9-5.155-18.308-0.475C570.823,337.666,566.062,352.121,566.501,368.416z M682.974,605.636
				c12.311-0.528,22.484-4.223,31.814-10.419c3.323-2.205,6.41-4.69,8.539-8.159c3.399-5.536,1.856-12.418-4.134-18.456
				c-3.063-3.086-7.705-2.723-13.329,0.938c-5.691,3.707-9.102,9.157-11.695,15.205
				C691.197,591.678,688.617,598.805,682.974,605.636z M359.77,527.312c13.543-6.519,23.536-14.83,27.981-28.614
				c0.809-2.507,0.444-4.991-0.69-7.34c-2.021-4.181-12.044-10.509-15.837-10.036c-4.621,0.576-9.975,6.96-11.077,13.403
				c-0.364,2.116-0.593,4.299-0.523,6.44C359.895,509.527,361.556,517.842,359.77,527.312z M307.645,382.035
				c-7.455,8.367-16.328,12.639-24.057,18.473c-4.578,3.456-8.236,7.534-9.779,13.164c-0.774,2.838-0.978,5.791,1.022,8.259
				c4.714,5.813,17.997,5.981,22.827,0.062C306.811,410.781,309.436,397.769,307.645,382.035z M551.933,434.743
				c-7.764,5.855-15.654,8.417-23.234,11.648c-6.025,2.569-11.768,5.589-15.074,11.677c-1.68,3.1-2.845,6.413-0.863,9.732
				c4.204,7.041,16.273,9.265,22.416,3.873C545.894,462.264,550.85,450.041,551.933,434.743z M229.029,623.332
				c12.749,1.854,23.794,1.655,34.42-3.317c11.708-5.479,13.92-12.987,7.136-23.962c-2.146-3.474-5.12-4.847-9.176-3.989
				c-6.251,1.321-11.36,4.366-15.245,9.495C240.857,608.569,237.117,616.73,229.029,623.332z M372.631,347.812
				c-6.501,7.21-15.224,10.61-22.766,15.782c-5.017,3.439-9.292,7.429-10.947,13.566c-0.73,2.711-0.862,5.374,0.811,7.795
				c4.812,6.976,17.882,7.643,23.303,1.135c5.688-6.83,8.695-14.877,10.069-23.549C373.848,357.828,375.022,353.037,372.631,347.812
				z M487.743,279.305c-14.591-4.646-27.516-3.395-40.123,1.738c-8.911,3.627-10.998,7.449-10.528,17.165
				c0.312,6.489,3.274,8.843,9.87,7.936c6.283-0.865,11.49-3.923,16.318-7.807C470.962,292.158,477.612,284.703,487.743,279.305z
				 M551.383,401.739c-5.015,1.984-8.95,3.737-13.016,5.097c-4.264,1.427-8.681,2.377-12.976,3.715
				c-5.955,1.854-11.435,4.49-14.781,10.167c-1.397,2.371-2.545,4.834-1.651,7.676c2.092,6.647,14.29,12.097,20.228,8.456
				C541.94,429.027,548.519,417.052,551.383,401.739z M195.808,538.648c3.771,5.627,8.346,9.031,13.215,12.045
				c6.799,4.209,13.979,7.527,22.211,7.27c6.892-0.216,10.937-5.321,12.45-15.215c0.7-4.567-2.104-7.861-8.645-9.928
				c-6.084-1.923-12.072-1.078-18.003,0.844C210.377,535.819,203.812,538.37,195.808,538.648z M579.254,623.535
				c11.593,7.001,22.759,9.443,34.755,7.378c11.707-2.018,14.169-4.579,16.622-15.948c1.285-5.951-0.885-8.768-7.027-9.352
				c-5.794-0.55-11.043,1.044-16.123,3.648C598.508,613.861,590.335,619.975,579.254,623.535z M347.586,475.906
				c-6.162,8.917-15.22,12.969-21.631,20.049c-4.63,5.112-6.617,11.098-4.111,17.436c2.426,6.129,8.905,6.683,14.496,7.787
				c3.27,0.646,6.041-0.792,7.778-3.736C351.734,504.534,351.662,491.006,347.586,475.906z M716.456,390.675
				c-8.346,4.593-15.981,5.979-23.434,7.95c-5.29,1.4-10.246,3.417-13.878,7.795c-3.876,4.67-4.801,9.438-1.668,12.703
				c6.189,6.455,10.997,10.217,17.089,6.671C707.443,418.3,713.379,406.229,716.456,390.675z M606.469,463.703
				c10.226-0.267,28.817-17.109,30.819-26.933c0.337-1.642,0.021-2.582-1.797-2.078c-6.737,1.863-13.639,0.639-20.431,1.206
				c-6.264,0.521-12.628,1.053-17.29,6.277c-2.662,2.988-4.866,6.174-2.675,10.16C597.911,457.458,600.275,463.319,606.469,463.703z
				 M611.54,470.727c-7.214,5.445-14.664,7.596-21.807,10.454c-5.414,2.167-10.42,4.983-13.405,10.34
				c-1.739,3.116-2.673,6.51-1.028,9.81c4.123,8.266,15.99,10.266,22.434,3.672C606.688,495.838,610.649,484.495,611.54,470.727z
				 M500.778,271.639c-2.803,8.066-7.502,13.37-11.628,19.051c-3.2,4.404-6.058,9.021-6.517,14.637
				c-0.529,6.478,2.102,11.431,6.864,11.801c9.116,0.709,14.724,1.105,17.169-6.927
				C510.674,297.025,507.975,284.704,500.778,271.639z M727.796,412.58c-9.096,7.143-15.863,26.285-13.311,36.833
				c1.378,5.695,6.628,8.762,14.977,8.852c5.609,0.062,7.14-3.869,8.344-8.243c1.465-5.313,0.373-10.361-1.561-15.297
				C733.382,427.412,729.114,420.669,727.796,412.58z M478.317,388.391c-8.441,3.278-16.159,3.875-23.797,4.996
				c-6.252,0.919-12.494,2.283-17.037,7.307c-2.092,2.313-3.885,4.853-2.885,8.251c2.109,7.179,12.577,12.318,19.365,9.014
				C466.067,412.062,473.825,402.305,478.317,388.391z M222.294,484.903c-3.317,12.078-2.517,22.677,3.158,32.742
				c2.438,4.326,6.329,6.912,11.244,5.438c5.524-1.655,11.788-2.714,14.37-9.192c0.555-1.395,0.398-2.779,0.138-4.241
				c-1.244-6.942-5.996-10.827-11.815-13.821C233.646,492.873,227.516,490.562,222.294,484.903z M610.147,355.336
				c-13.82,3.13-24.397,8.924-32.233,19.223c-1.062,1.396-1.829,3.108-2.371,4.79c-1.511,4.688,1.735,11.226,7.392,14.917
				c4.4,2.87,7.877,0.324,11.164-2.293c4.862-3.871,7.277-9.256,8.764-15.099C604.625,369.948,605.802,362.849,610.147,355.336z
				 M620.17,380.111c4.568-2.256,7.509-5.371,10.312-8.586c5.41-6.213,9.517-13.188,11.223-21.322
				c1.596-7.625-2.426-12.711-11.697-15.272c-5.317-1.468-9.288,1.356-11.744,8.412c-1.456,4.186-1.659,8.514-0.945,12.835
				C618.596,363.938,620.989,371.535,620.17,380.111z M530.526,483.003c-3.285,6.966-7.838,11.572-12.201,16.346
				c-3.166,3.465-6.174,7.07-7.643,11.676c-2.326,7.292-0.318,13.579,4.897,15.228c10.341,3.27,16.625,0.777,18.862-8.07
				C537.408,506.441,536.312,494.968,530.526,483.003z M271.838,651.592c13.418-4.826,23.481-11.366,29.522-22.828
				c3.488-6.616,0.519-13.077-7.597-17.71c-4.427-2.526-9.02-0.712-13.099,5.024c-2.246,3.158-3.403,6.656-4.123,10.425
				C275.03,634.398,276.087,642.686,271.838,651.592z M378.27,686.281c13.731-5.078,24.671-11.701,29.918-24.928
				c2.293-5.781-1.351-11.831-9.096-15.729c-5.147-2.591-8.518,0.815-11.544,4.242c-2.665,3.021-4.05,6.717-4.818,10.687
				C381.143,668.771,381.894,677.322,378.27,686.281z M429.205,333.709c4.176-11.047-1.552-34.791-9.748-41.767
				c-3.735-3.18-13.386-3.926-16.809-0.761c-4.322,3.997-1.96,8.658-0.252,12.995c1.34,3.397,3.713,6.168,6.217,8.761
				C415.332,319.902,423.356,325.527,429.205,333.709z M405.644,683.205c7.269,8.379,26.957,14.096,36.476,10.872
				c5.497-1.861,8.813-8.757,7.794-16.202c-0.64-4.675-4.331-6.99-10.982-7.289c-4.832-0.216-9.223,0.946-13.453,3.168
				C419.032,677.141,413.024,681.408,405.644,683.205z M564.982,388.351c-4.368,10.609-4.506,20.421-2.477,30.155
				c2.536,12.172,8.963,15.355,20.575,11.104c3.033-1.109,4.585-3.013,4.861-6.351c0.721-8.641-3.63-14.841-9.607-20.118
				C573.606,398.965,568.895,394.839,564.982,388.351z M380.865,556.695c0.734,4.078,2.138,7.967,2.216,12.125
				c0.083,4.315,0.432,8.648,1.016,12.926c0.761,5.576,2.062,11.003,6.478,15.073c2.108,1.941,4.438,3.091,7.355,2.548
				c5.917-1.1,12.212-10.33,10.767-16.147C405.819,571.654,389.668,557.158,380.865,556.695z M387.434,522.834
				c-9.398,7.019-19.589,10.308-28.759,15.576c-4.277,2.458-8.061,5.484-10.441,9.902c-2.388,4.428-1.3,6.828,3.184,8.841
				c8.983,4.032,16.371,1.942,22.784-5.199C381.409,543.929,386.796,535.136,387.434,522.834z M285.838,321.312
				c-0.84,5.572-0.923,9.857-0.452,14.1c0.818,7.409,2.658,14.554,7.29,20.607c4.665,6.098,10.956,6.359,19.149,1.006
				c3.825-2.499,4.172-7.546,0.97-13.554c-2.468-4.636-6.433-7.695-10.814-10.292C296.572,329.974,291.056,326.938,285.838,321.312z
				 M289.244,524.663c-2.942,2.667-5.755,5.43-8.797,7.914c-3.069,2.509-6.478,4.605-9.53,7.136
				c-3.046,2.525-5.931,5.256-7.528,9.064c-2.226,5.299-1.686,10.298,1.478,12.36c5.479,3.576,13.605,3.686,17.234,0.127
				C288.965,554.533,293.715,535.458,289.244,524.663z M227.722,463.258c-2.108-1.156-4.253-0.7-6.226-0.608
				c-9.364,0.437-17.997,3.188-25.479,8.938c-6.712,5.158-6.854,11.777-0.649,19.726c3.213,4.116,8.708,3.817,14.798-0.817
				c4.308-3.279,6.606-7.98,8.799-12.707C221.308,472.734,223.483,467.607,227.722,463.258z M525.053,612.359
				c-5.946,12.371-7.883,23.914-3.613,35.895c2.223,6.24,7.948,7.958,16.493,5.736c4.757-1.236,6.439-4.549,5.794-11.087
				c-0.519-5.244-3.033-9.488-6.323-13.416C533.151,624.409,528.189,619.86,525.053,612.359z M305.717,664.268
				c5.914-8.099,14.067-13.765,20.058-21.438c3.186-4.081,5.595-8.367,5.239-13.799c-0.14-2.132-0.633-3.854-2.72-4.858
				c-5.223-2.51-14.692-0.764-17.861,3.96C302.992,639.229,301.826,651.363,305.717,664.268z M604.868,604.229
				c-4.244-13.507-11.266-24.863-23.988-31.645c-4.704-2.507-11.195,0.438-14.451,5.549c-3.013,4.732,0.553,7.781,3.101,10.901
				c2.426,2.971,5.649,5.051,9.166,6.572C587.075,599.234,596.321,600.281,604.868,604.229z M354.236,329.578
				c-5.569,3.274-10.524,4.129-15.478,5.006c-15.365,2.717-20.173,15.209-10.582,27.462c3.652,4.665,6.601,5.142,10.796,1.063
				C348.016,354.312,351.923,343.08,354.236,329.578z M290.1,568.714c6.05-1.474,10.56-4.293,14.827-7.577
				c4.768-3.669,8.889-7.941,11.308-13.521c2.71-6.247,0.145-11.509-7.39-15.768c-4.23-2.391-8.344-0.827-12.107,4.672
				c-2.73,3.991-3.711,8.509-3.863,13.27C292.678,555.903,292.398,562.01,290.1,568.714z M271.646,497.872
				c-4.424,6.5-9.633,10.388-14.529,14.614c-4.422,3.812-8.338,8.004-9.265,14.15c-0.428,2.83-0.138,5.475,2.161,7.393
				c5.829,4.863,16.007,2.84,19.399-4.029C274.311,520.08,274.749,509.723,271.646,497.872z M363.542,338.734
				c8.663-6.702,14.131-14.38,16.404-24.2c2.098-9.065-1.831-13.888-12.381-15.456c-4.949-0.737-9.145,4.526-9.578,12.053
				c-0.19,3.297,0.694,6.43,1.596,9.55C361.209,326.311,363.573,331.753,363.542,338.734z M424.315,535.75
				c-0.779-11.964-5.025-21.236-11.13-29.811c-1.683-2.361-3.644-4.44-6.333-5.724c-4.672-2.228-8.539-0.194-11.82,2.725
				c-3.024,2.689-1.314,5.952,0.138,8.888c2.472,5,6.438,8.577,11.077,11.505C412.116,527.037,418.563,529.831,424.315,535.75z
				 M631.055,591.885c6.813,7.253,14.776,11.025,23.885,12.502c4.061,0.66,8.247,0.357,10.565-3.645
				c2.08-3.59,3.93-7.889,1.83-11.811c-2.281-4.264-7.131-4.677-11.477-4.441c-2.993,0.164-6.05,1.103-8.856,2.239
				C642.007,588.75,637.047,590.812,631.055,591.885z M553.688,655.4c-5.431,2.618-9.91,3.816-14.491,4.812
				c-4.894,1.064-9.965,2.085-13.648,5.863c-2.811,2.882-5.425,6.153-2.51,10.441c3.634,5.35,9.455,7.634,13.803,5.084
				C546.453,675.963,551.078,666.996,553.688,655.4z M638.392,636.831c8.189,1.248,15.199-0.246,21.709-4.148
				c3.768-2.261,6.525-5.257,5.626-10.13c-0.809-4.383-6.64-11.338-9.79-11.342c-5.311-0.004-8.585,3.16-10.702,7.746
				c-0.377,0.816-0.76,1.643-1.012,2.502C642.724,626.596,641.638,631.871,638.392,636.831z M315.937,554.323
				c-1.592,6.626-3.982,11.84-6.285,17.091c-1.16,2.646-1.806,5.441-1.826,8.365c-0.045,5.975,2.214,9.525,6.217,9.701
				c6.31,0.275,11.805-3.494,11.986-9.057C326.347,570.775,323.385,562.148,315.937,554.323z M318.324,409.988
				c-4.719,6.354-9.159,11.619-12.72,17.421c-1.889,3.074-3.104,7.546,1.124,10.051c4.134,2.449,10.584-0.053,12.347-4.397
				C322.11,425.58,321.895,418.114,318.324,409.988z"/>
			<path fill-rule="evenodd" clip-rule="evenodd" fill="#198B83" d="M184.504,396.483c6.189,0.053,11.477-2.761,16.796-5.384
				c6.139-3.025,11.895-6.803,18.391-9.141c6.866-2.471,13.79-2.725,20.704-0.58c6.183,1.917,8.266,5.163,8.083,11.616
				c-0.025,0.901,0.013,1.808-0.033,2.709c-0.729,13.938-6.577,19.627-20.573,19.146c-16.442-0.566-30.7-7.032-43.367-17.282
				C184.504,397.205,184.504,396.844,184.504,396.483z"/>
			<path fill-rule="evenodd" clip-rule="evenodd" fill="#87B4B3" d="M457.677,912.474c-0.116-0.277-0.18-0.565-0.186-0.866
				c11.299-0.137,22.598-0.273,33.895-0.411c11.514,0.043,23.026,0.086,34.539,0.128c0.015,0.383,0.029,0.767,0.045,1.149
				C503.206,912.474,480.44,912.474,457.677,912.474z"/>
			<path fill-rule="evenodd" clip-rule="evenodd" fill="#198B83" d="M491.386,911.196c-11.297,0.138-22.596,0.274-33.895,0.411
				c-0.771-6.354,0.387-12.645,0.724-18.954c1.141-21.431,2.513-42.849,3.797-64.271c2.443-40.692,4.89-81.381,7.324-122.071
				c0.474-7.926,0.811-15.859,1.382-23.777c0.21-2.886-0.584-4.428-3.436-5.713c-32.223-14.52-62.572-32.085-89.135-55.676
				c-1.802-1.6-3.707-1.741-5.982-1.65c-24.359,0.976-48.316-1.026-71.091-10.576c-23.906-10.023-40.002-27.146-46.873-52.446
				c-0.182-0.675-0.2-1.39-0.442-3.144c23.606,37.594,60.01,43.754,100.443,44.051c-10.41-12.801-19.314-25.337-26.131-39.204
				c-6.795-13.829-11.868-28.186-13.075-43.875c11.735,21.259,25.612,40.911,42.21,58.599
				c16.605,17.698,35.028,33.225,55.889,47.313c6.531-34.385-0.301-65.915-14.364-96.617c1.69-1.041,2.502,0.953,3.478,1.953
				c21.006,21.527,32.979,47.399,37.09,77.088c1.369,9.89,1.473,19.806,0.939,29.72c-0.197,3.655,0.976,5.527,4.201,7.04
				c7.989,3.75,15.838,7.802,23.712,11.79c2.83,1.436,4.405,1.751,4.628-2.466c1.752-32.972,3.704-65.933,5.588-98.897
				c0.053-0.902,0.053-1.806,0.076-2.709c0.123-4.645,2.756-10.15,0.118-13.664c-2.373-3.165-7.769-4.078-11.854-5.938
				c-31.343-14.26-60.92-31.372-86.991-54.084c-2.773-2.414-5.484-3.364-9.206-3.217c-22.141,0.875-43.994-0.766-64.992-8.634
				c-25.348-9.497-43.207-26.23-50.927-52.753c-0.138-0.477-0.582-0.908,0.754-1.846c23.31,35.065,59.283,40.847,98.924,41.519
				c-20.365-25.188-35.913-51.639-39.374-83.678c23.225,43.895,56.813,78.048,98.21,106.296c6.391-33.84-0.118-64.814-13.534-94.927
				c3.027-1.021,4.081,1.647,5.506,3.217c23.297,25.704,34.608,56.118,35.394,90.62c0.087,3.791,0.344,7.636-0.154,11.364
				c-0.637,4.772,0.883,7.438,5.332,9.61c10.203,4.979,20.354,10.044,30.695,14.745c3.967,1.802,4.861,0.585,5.064-3.258
				c1.421-26.845,2.937-53.685,4.479-80.521c1.514-26.295,3.089-52.587,4.667-78.879c0.085-1.41,0.457-2.803,0.694-4.202
				c0.018,5.234,0.049,10.47,0.049,15.705c0.003,183.188,0.003,366.375,0.007,549.562
				C491.304,906.501,491.358,908.85,491.386,911.196z"/>
			<path fill-rule="evenodd" clip-rule="evenodd" fill="#136B67" d="M491.386,911.196c-0.027-2.347-0.082-4.695-0.082-7.044
				c-0.004-183.188-0.004-366.375-0.007-549.562c0-5.235-0.031-10.471-0.049-15.705c0-1.551,0-3.099,0-4.648
				c0.32,0.008,0.64,0.016,0.959,0.023c1.137,18.752,2.293,37.504,3.406,56.257c2.419,40.701,4.826,81.403,7.22,122.106
				c1.048,17.83,2.191,35.653,2.98,53.496c0.225,5.105,1.824,5.562,5.97,3.429c8.481-4.367,16.972-8.758,25.718-12.545
				c5.062-2.193,6.018-5.356,5.736-10.466c-1.71-31.193,5.667-60.064,23.098-86.154c5.015-7.503,10.732-14.449,18.436-21.372
				c-3.08,8.112-5.934,14.979-8.309,22.008c-7.732,22.876-10.99,46.241-7.146,70.315c0.923,5.777,0.892,5.806,5.887,2.289
				c38.042-26.781,69.76-59.312,91.645-100.785c0.477-0.903,1.059-1.752,2.415-3.974c-4.153,33.282-19.232,59.704-39.801,84.88
				c19.637,0.755,37.94-1.165,55.704-7.546c17.992-6.463,32.79-17.031,42.845-33.957c1.433,2.299,0.271,3.858-0.243,5.459
				c-7.871,24.474-24.917,39.948-48.34,49.062c-21.24,8.262-43.43,10.273-65.96,9.367c-4.302-0.174-7.356,0.982-10.595,3.789
				c-26.956,23.352-57.564,40.829-90.128,55.001c-3.954,1.721-5.083,3.552-4.801,7.933c2.607,40.685,4.868,81.394,7.292,122.09
				c2.379,39.973,4.896,79.938,7.225,119.915c1.291,22.147,2.317,44.312,3.465,66.468
				C514.412,911.282,502.899,911.239,491.386,911.196z"/>
			<path fill-rule="evenodd" clip-rule="evenodd" fill="#61BE9C" d="M558.778,327.061c-8.727,16.174-20.795,26.914-37.745,31.328
				c-8.969,2.336-20.358-6.945-20.981-16.404c-0.271-4.121,2.11-7.123,5.285-9.507c8.158-6.125,17.517-5.84,26.942-4.924
				C540.719,328.373,549.139,328.934,558.778,327.061z"/>
			<path fill-rule="evenodd" clip-rule="evenodd" fill="#D48E37" d="M558.916,363.143c-7.182,17.789-17.019,30.869-33.771,37.623
				c-4.807,1.938-9.178,0.477-12.617-3.47c-0.473-0.542-0.953-1.081-1.406-1.64c-9.764-11.994-5.939-23.302,9.213-27.266
				c4.21-1.102,8.525-1.178,12.833-1.472C541.345,366.36,549.628,366.763,558.916,363.143z"/>
			<path fill-rule="evenodd" clip-rule="evenodd" fill="#638B51" d="M201.584,450.151c9.982-5.303,15.708-13.664,22.822-20.522
				c5.39-5.197,11.574-8.583,19.104-9.067c6.949-0.448,9.87,1.744,11.725,8.384c4.056,14.52,0.513,20.947-14.171,24.46
				C227.931,456.548,214.966,455.617,201.584,450.151z"/>
			<path fill-rule="evenodd" clip-rule="evenodd" fill="#638B51" d="M326.391,660.232c7.696-6.421,11.854-14.038,16.598-21.227
				c4.354-6.602,9.667-12.092,17.604-14.347c7.792-2.212,11.358-0.627,14.682,6.601c5.747,12.501,3.307,19.519-9.281,25.075
				C353.718,661.753,340.924,663.372,326.391,660.232z"/>
			<path fill-rule="evenodd" clip-rule="evenodd" fill="#1B8B83" d="M619.715,636.235c-9.622,15.938-22.34,25.316-38.981,28.913
				c-8.615,1.86-19.303-4.877-22.024-13.068c-1.347-4.051,0.845-6.982,3.896-9.281c6.059-4.562,13.162-5.537,20.467-5.663
				C594.911,636.932,606.771,638.96,619.715,636.235z"/>
			<path fill-rule="evenodd" clip-rule="evenodd" fill="#1B8B83" d="M651.966,577.306c-8.931,6.103-18.895,7.296-28.957,7.446
				c-6.278,0.095-12.58-0.89-18.504-3.309c-8.152-3.327-13.895-14.814-11.681-23.277c1.077-4.11,4.563-4.915,7.954-5.341
				c4.933-0.62,9.731,0.444,14.136,2.703c4.157,2.134,8.226,4.468,12.19,6.945c4.119,2.576,7.961,5.607,12.121,8.109
				C643.188,572.967,647.406,574.923,651.966,577.306z"/>
			<path fill-rule="evenodd" clip-rule="evenodd" fill="#1B8B83" d="M696.417,564.008c-4.85,3.655-9.938,5.159-15.221,6.283
				c-10.428,2.218-20.749,2.067-30.911-1.333c-9.278-3.103-15.401-13.669-13.478-23.206c0.544-2.697,2.288-4.35,4.943-5.193
				c5.869-1.863,11.43-0.571,16.823,1.685c4.663,1.949,8.938,4.661,13.104,7.525C679.375,555.057,686.935,560.577,696.417,564.008z"
				/>
			<path fill-rule="evenodd" clip-rule="evenodd" fill="#1B8B83" d="M781.43,516.413c-9.219,9.755-20.005,14.267-31.882,16.616
				c-2.645,0.523-5.36,0.841-8.057,0.936c-11.877,0.416-20.564-6.695-22.452-18.336c-0.676-4.169,1.989-6.357,5.253-7.885
				c6.008-2.808,12.328-2.363,18.592-1.205c10.298,1.904,19.814,6.658,30.157,8.445C775.473,515.404,777.907,515.813,781.43,516.413
				z"/>
			<path fill-rule="evenodd" clip-rule="evenodd" fill="#1B8B83" d="M270.996,335.435c4.068,3.694,5.996,8.144,7.597,12.635
				c3.863,10.845,5.486,21.992,2.707,33.36c-2.165,8.846-12.243,15.83-21.187,15.024c-3.308-0.299-5.073-2.553-6.096-5.397
				c-2.036-5.669-1.436-11.332,0.399-16.933c1.684-5.135,3.984-9.998,6.459-14.792c1.977-3.828,3.996-7.651,5.681-11.609
				C268.17,343.938,269.374,339.979,270.996,335.435z"/>
			<path fill-rule="evenodd" clip-rule="evenodd" fill="#638B51" d="M278.049,515.365c3.784-8.245,3.943-17.073,5.067-25.728
				c1.124-8.641,3.929-16.424,11.426-21.717c4.147-2.927,8.207-3.233,12.281,0.266c2.729,2.341,5.69,4.418,7.676,7.512
				c2.036,3.173,2.798,6.458,1.666,10.236C312.438,498.392,291.587,514.713,278.049,515.365z"/>
			<path fill-rule="evenodd" clip-rule="evenodd" fill="#638B51" d="M384.635,378.883c1.702,8.931,6.073,15.886,9.953,23.072
				c4.14,7.665,6.27,15.639,3.624,24.358c-1.55,5.101-4.862,7.224-10.114,6.817c-13.219-1.021-17.512-5.506-16.87-18.961
				C371.839,401.322,376.039,389.657,384.635,378.883z"/>
			<path fill-rule="evenodd" clip-rule="evenodd" fill="#156B68" d="M439.501,314.077c7.974,3.71,16.18,3.438,24.179,4.301
				c7.382,0.796,14.072,2.972,18.951,8.929c4.086,4.986,4.046,8.311,0.098,13.453c-8.918,11.628-16.39,12.252-27.293,2.283
				C446.884,335.228,440.116,323.126,439.501,314.077z"/>
			<path fill-rule="evenodd" clip-rule="evenodd" fill="#61BE9C" d="M473.887,418.086c7.379,10.91,5.885,36.459-1.719,46.125
				c-4.159,5.287-18.062,6.885-22.755,2.339c-3.391-3.282-2.974-7.583-2.188-11.684c0.936-4.88,3.55-9.015,6.708-12.776
				C460.594,434.157,468.654,427.427,473.887,418.086z"/>
			<path fill-rule="evenodd" clip-rule="evenodd" fill="#156B68" d="M715.479,473.532c-6.528,12.526-28.919,23.963-41.782,21.614
				c-5.154-0.939-11.052-9.168-11.621-16.212c-0.361-4.474,2.69-7.943,8.836-10.165c5.674-2.053,11.379-1.345,17.054-0.171
				C697.052,470.477,705.817,473.98,715.479,473.532z"/>
			<path fill-rule="evenodd" clip-rule="evenodd" fill="#638B51" d="M238.825,486.072c5.89-5.899,8.461-12.876,11.568-19.553
				c2.883-6.188,6.467-11.675,13.456-13.961c6.441-2.104,10.262-0.768,13.628,5.008c9.089,15.59,5.347,24.507-12.254,28.786
				C256.695,488.426,248.097,488.545,238.825,486.072z"/>
			<path fill-rule="evenodd" clip-rule="evenodd" fill="#AAD49A" d="M713.243,554.42c-3.689-1.065-7.73-0.356-11.6-1.569
				c-8.059-2.524-14.525-10.229-15.211-18.507c-0.21-2.529,0.97-4.092,3.088-5.165c4.26-2.158,8.744-1.935,13.196-1.01
				c8.384,1.741,15.78,5.965,23.438,9.544c4.718,2.205,9.618,4.023,14.44,6.006c1.069,0.438,3.028-0.062,2.874,1.638
				c-0.084,0.929-1.518,1.948-2.562,2.539c-5.547,3.135-11.556,4.967-17.861,5.749C719.843,554.041,716.604,554.162,713.243,554.42z
				"/>
			<path fill-rule="evenodd" clip-rule="evenodd" fill="#84CBAE" d="M646.062,377.17c4.841,8.795,11.652,14.455,17.556,20.917
				c4.998,5.47,7.346,11.852,6.556,19.312c-0.406,3.832-2.231,6.376-6.104,7.237c-0.879,0.195-1.755,0.392-2.631,0.59
				c-11.664,2.639-17.102-0.329-19.684-12.117C639.161,401.27,640.239,389.541,646.062,377.17z"/>
			<path fill-rule="evenodd" clip-rule="evenodd" fill="#D48E37" d="M391.694,310.117c12.508,10.892,20.719,22.903,21.48,39.012
				c0.178,3.779-1.863,6.825-5.436,7.873c-5.515,1.615-11.302,5.133-16.924,0.803c-5.658-4.361-6.848-10.611-6.05-17.456
				c0.4-3.428,1.401-6.668,2.489-9.89C389.37,324.205,391.533,317.974,391.694,310.117z"/>
			<path fill-rule="evenodd" clip-rule="evenodd" fill="#A6C556" d="M571.805,312.539c-9.056-0.395-16.485,3.098-24.269,5.1
				c-3.5,0.903-7.017,1.479-10.646,1.067c-9.195-1.044-14.906-5.849-14-11.791c2.021-13.234,8.219-18.329,19.262-15.839
				C553.684,293.675,566.068,302.42,571.805,312.539z"/>
			<path fill-rule="evenodd" clip-rule="evenodd" fill="#1B8B83" d="M200.587,580.965c8.75-2.484,15.626-7.516,22.943-11.73
				c5.046-2.907,10.38-4.926,16.4-4.767c7.776,0.203,11.765,2.583,12.372,7.755c1.218,10.341-2.157,16.361-10.128,18.228
				c-6.664,1.561-13.309,1.008-19.868-0.355C214.718,588.516,207.39,586.125,200.587,580.965z"/>
			<path fill-rule="evenodd" clip-rule="evenodd" fill="#638B51" d="M753.74,445.141c6.316,7.64,8.53,16.207,9.591,25.172
				c0.339,2.853,0.235,5.773,0.15,8.657c-0.363,12.542-4.957,17.921-17.139,20.593c-4.132,0.906-6.626-0.542-7.963-4.387
				c-1.88-5.393-0.951-10.614,0.751-15.879c2.562-7.94,7.214-14.906,10.251-22.614C750.807,453.063,752.134,449.407,753.74,445.141z
				"/>
			<path fill-rule="evenodd" clip-rule="evenodd" fill="#638B51" d="M459.546,350.288c-3.452,16.248-10.281,28.491-23.511,36.279
				c-6.86,4.038-12.694-0.149-19.272-7.661c-2.93-3.346-0.97-9.257,3.939-13.779c4.836-4.455,10.998-6.044,17.122-7.493
				C444.822,355.978,451.884,354.612,459.546,350.288z"/>
			<path fill-rule="evenodd" clip-rule="evenodd" fill="#D2E07F" d="M690.577,391.523c-9.426-9.202-20.653-13.633-29.994-20.918
				c-4.388-3.422-7.669-7.531-9.242-12.941c-1.208-4.156,0.045-6.942,4.149-8.572c11.174-4.435,17.241-2.794,24.198,7.036
				C686.896,366.309,690.987,377.507,690.577,391.523z"/>
			<path fill-rule="evenodd" clip-rule="evenodd" fill="#156B68" d="M629.382,385.982c0.54,14.95-3.041,27.427-12.272,37.893
				c-6.012,6.814-19.265,4.932-23.519-3.143c-1.615-3.063-1.029-6.296,0.211-9.391c2.197-5.477,6.441-8.992,11.483-11.636
				c3.967-2.081,8.021-3.999,12.067-5.921C621.406,391.86,624.974,389.165,629.382,385.982z"/>
			<path fill-rule="evenodd" clip-rule="evenodd" fill="#D48E37" d="M447.885,575.203c-12.582-9.5-20.405-21.605-20.549-37.672
				c-0.056-5.986,9.813-14.624,15.623-14.129c3.569,0.305,5.62,2.853,7.148,5.896c3.921,7.807,2.324,15.865,0.864,23.801
				C449.644,560.322,448.142,567.489,447.885,575.203z"/>
			<path fill-rule="evenodd" clip-rule="evenodd" fill="#D48E37" d="M552.308,640.923c-0.525-9.673-3.824-17.125-6.255-24.821
				c-2.322-7.358-5.022-14.704-2.774-22.662c1.975-6.983,5.329-8.652,11.938-5.805c9.949,4.291,12.506,8.166,11.979,19.191
				C566.585,619.592,562.326,630.846,552.308,640.923z"/>
			<path fill-rule="evenodd" clip-rule="evenodd" fill="#A6C556" d="M462.717,553.604c5.239,8.455,6.435,16.523,7.627,24.459
				c1.331,8.873,2.682,17.863,0.379,26.825c-1.818,7.071-11.396,12.273-18.382,10.056c-4.562-1.449-8.019-8.159-5.218-13.12
				C455.376,587.205,458.956,571.172,462.717,553.604z"/>
			<path fill-rule="evenodd" clip-rule="evenodd" fill="#AAD49A" d="M566.501,368.416c-0.438-16.295,4.322-30.75,15.549-42.676
				c4.407-4.681,11.714-4.183,18.308,0.475c3.501,2.474,3.806,7.197,0.872,13.264c-3.281,6.786-9.006,11.098-15.151,14.98
				C579.381,358.689,572.495,362.662,566.501,368.416z"/>
			<path fill-rule="evenodd" clip-rule="evenodd" fill="#648B52" d="M682.974,605.636c5.644-6.831,8.224-13.958,11.195-20.892
				c2.594-6.048,6.004-11.498,11.695-15.205c5.624-3.66,10.266-4.023,13.329-0.938c5.99,6.038,7.533,12.92,4.134,18.456
				c-2.129,3.469-5.216,5.954-8.539,8.159C705.458,601.413,695.284,605.107,682.974,605.636z"/>
			<path fill-rule="evenodd" clip-rule="evenodd" fill="#156B68" d="M359.77,527.312c1.786-9.471,0.125-17.785-0.146-26.146
				c-0.069-2.142,0.159-4.324,0.523-6.44c1.103-6.443,6.456-12.827,11.077-13.403c3.793-0.473,13.815,5.855,15.837,10.036
				c1.135,2.349,1.499,4.833,0.69,7.34C383.306,512.482,373.312,520.794,359.77,527.312z"/>
			<path fill-rule="evenodd" clip-rule="evenodd" fill="#D48E37" d="M307.645,382.035c1.791,15.733-0.834,28.746-9.986,39.957
				c-4.83,5.92-18.113,5.752-22.827-0.062c-2-2.468-1.797-5.421-1.022-8.259c1.543-5.63,5.201-9.708,9.779-13.164
				C291.316,394.674,300.189,390.402,307.645,382.035z"/>
			<path fill-rule="evenodd" clip-rule="evenodd" fill="#638B51" d="M551.933,434.743c-1.083,15.298-6.039,27.521-16.756,36.931
				c-6.143,5.392-18.212,3.168-22.416-3.873c-1.981-3.319-0.816-6.633,0.863-9.732c3.307-6.088,9.049-9.107,15.074-11.677
				C536.278,443.16,544.169,440.599,551.933,434.743z"/>
			<path fill-rule="evenodd" clip-rule="evenodd" fill="#84CBAE" d="M229.029,623.332c8.088-6.602,11.828-14.763,17.135-21.773
				c3.885-5.129,8.994-8.174,15.245-9.495c4.056-0.857,7.029,0.516,9.176,3.989c6.784,10.975,4.572,18.482-7.136,23.962
				C252.823,624.987,241.778,625.186,229.029,623.332z"/>
			<path fill-rule="evenodd" clip-rule="evenodd" fill="#61BE9C" d="M372.631,347.812c2.392,5.226,1.217,10.017,0.47,14.729
				c-1.374,8.672-4.382,16.719-10.069,23.549c-5.421,6.508-18.491,5.841-23.303-1.135c-1.673-2.421-1.541-5.084-0.811-7.795
				c1.655-6.138,5.931-10.127,10.947-13.566C357.407,358.422,366.13,355.021,372.631,347.812z"/>
			<path fill-rule="evenodd" clip-rule="evenodd" fill="#648B52" d="M487.743,279.305c-10.131,5.398-16.781,12.854-24.463,19.032
				c-4.828,3.884-10.035,6.941-16.318,7.807c-6.596,0.907-9.559-1.446-9.87-7.936c-0.47-9.716,1.617-13.538,10.528-17.165
				C460.228,275.91,473.152,274.659,487.743,279.305z"/>
			<path fill-rule="evenodd" clip-rule="evenodd" fill="#A6C556" d="M551.383,401.739c-2.864,15.312-9.442,27.288-22.196,35.11
				c-5.938,3.641-18.136-1.809-20.228-8.456c-0.894-2.842,0.254-5.305,1.651-7.676c3.347-5.677,8.826-8.312,14.781-10.167
				c4.295-1.338,8.712-2.288,12.976-3.715C542.433,405.477,546.368,403.724,551.383,401.739z"/>
			<path fill-rule="evenodd" clip-rule="evenodd" fill="#D48E37" d="M195.808,538.648c8.005-0.278,14.569-2.829,21.229-4.984
				c5.931-1.922,11.919-2.767,18.003-0.844c6.54,2.066,9.345,5.36,8.645,9.928c-1.514,9.894-5.559,14.999-12.45,15.215
				c-8.232,0.258-15.412-3.061-22.211-7.27C204.153,547.68,199.579,544.275,195.808,538.648z"/>
			<path fill-rule="evenodd" clip-rule="evenodd" fill="#D2E07F" d="M579.254,623.535c11.081-3.561,19.254-9.674,28.227-14.273
				c5.08-2.604,10.329-4.198,16.123-3.648c6.143,0.584,8.312,3.4,7.027,9.352c-2.453,11.369-4.915,13.931-16.622,15.948
				C602.013,632.979,590.847,630.536,579.254,623.535z"/>
			<path fill-rule="evenodd" clip-rule="evenodd" fill="#D2E07F" d="M347.586,475.906c4.076,15.1,4.148,28.628-3.468,41.535
				c-1.737,2.944-4.509,4.383-7.778,3.736c-5.591-1.104-12.07-1.658-14.496-7.787c-2.506-6.338-0.519-12.323,4.111-17.436
				C332.366,488.875,341.424,484.823,347.586,475.906z"/>
			<path fill-rule="evenodd" clip-rule="evenodd" fill="#D2E07F" d="M716.456,390.675c-3.077,15.554-9.013,27.625-21.891,35.119
				c-6.092,3.546-10.899-0.216-17.089-6.671c-3.133-3.266-2.208-8.033,1.668-12.703c3.632-4.378,8.588-6.395,13.878-7.795
				C700.475,396.654,708.11,395.268,716.456,390.675z"/>
			<path fill-rule="evenodd" clip-rule="evenodd" fill="#D2E07F" d="M606.469,463.703c-6.193-0.384-8.558-6.245-11.373-11.367
				c-2.191-3.986,0.013-7.172,2.675-10.16c4.662-5.225,11.026-5.756,17.29-6.277c6.792-0.567,13.693,0.657,20.431-1.206
				c1.818-0.504,2.134,0.437,1.797,2.078C635.286,446.594,616.694,463.437,606.469,463.703z"/>
			<path fill-rule="evenodd" clip-rule="evenodd" fill="#156B68" d="M611.54,470.727c-0.891,13.769-4.852,25.111-13.807,34.275
				c-6.443,6.594-18.311,4.594-22.434-3.672c-1.645-3.3-0.711-6.693,1.028-9.81c2.985-5.356,7.991-8.173,13.405-10.34
				C596.876,478.322,604.326,476.172,611.54,470.727z"/>
			<path fill-rule="evenodd" clip-rule="evenodd" fill="#D48E37" d="M500.778,271.639c7.196,13.065,9.896,25.387,5.889,38.562
				c-2.445,8.032-8.053,7.636-17.169,6.927c-4.763-0.37-7.394-5.323-6.864-11.801c0.459-5.615,3.316-10.232,6.517-14.637
				C493.276,285.009,497.976,279.705,500.778,271.639z"/>
			<path fill-rule="evenodd" clip-rule="evenodd" fill="#D48E37" d="M727.796,412.58c1.318,8.089,5.586,14.832,8.449,22.145
				c1.934,4.936,3.025,9.983,1.561,15.297c-1.204,4.374-2.734,8.305-8.344,8.243c-8.349-0.09-13.599-3.156-14.977-8.852
				C711.933,438.865,718.7,419.723,727.796,412.58z"/>
			<path fill-rule="evenodd" clip-rule="evenodd" fill="#638B51" d="M478.317,388.391c-4.492,13.914-12.25,23.672-24.354,29.567
				c-6.788,3.305-17.256-1.835-19.365-9.014c-1-3.398,0.793-5.938,2.885-8.251c4.543-5.023,10.785-6.388,17.037-7.307
				C462.158,392.266,469.876,391.669,478.317,388.391z"/>
			<path fill-rule="evenodd" clip-rule="evenodd" fill="#638B51" d="M222.294,484.903c5.222,5.658,11.352,7.97,17.095,10.925
				c5.819,2.994,10.571,6.879,11.815,13.821c0.261,1.462,0.417,2.847-0.138,4.241c-2.582,6.479-8.846,7.537-14.37,9.192
				c-4.915,1.475-8.806-1.111-11.244-5.438C219.777,507.58,218.977,496.981,222.294,484.903z"/>
			<path fill-rule="evenodd" clip-rule="evenodd" fill="#648B52" d="M610.147,355.336c-4.346,7.513-5.522,14.612-7.285,21.538
				c-1.486,5.843-3.901,11.228-8.764,15.099c-3.287,2.617-6.764,5.163-11.164,2.293c-5.656-3.691-8.902-10.229-7.392-14.917
				c0.542-1.682,1.309-3.395,2.371-4.79C585.75,364.26,596.327,358.466,610.147,355.336z"/>
			<path fill-rule="evenodd" clip-rule="evenodd" fill="#638B51" d="M620.17,380.111c0.819-8.576-1.574-16.173-2.853-23.934
				c-0.714-4.321-0.511-8.649,0.945-12.835c2.456-7.056,6.427-9.88,11.744-8.412c9.271,2.562,13.293,7.647,11.697,15.272
				c-1.706,8.134-5.812,15.109-11.223,21.322C627.679,374.74,624.738,377.855,620.17,380.111z"/>
			<path fill-rule="evenodd" clip-rule="evenodd" fill="#156B68" d="M530.526,483.003c5.785,11.965,6.882,23.438,3.916,35.179
				c-2.237,8.848-8.521,11.34-18.862,8.07c-5.216-1.648-7.224-7.936-4.897-15.228c1.469-4.605,4.477-8.211,7.643-11.676
				C522.688,494.575,527.241,489.969,530.526,483.003z"/>
			<path fill-rule="evenodd" clip-rule="evenodd" fill="#D2E07F" d="M271.838,651.592c4.249-8.906,3.192-17.193,4.704-25.089
				c0.72-3.769,1.877-7.267,4.123-10.425c4.079-5.736,8.672-7.551,13.099-5.024c8.115,4.633,11.085,11.094,7.597,17.71
				C295.319,640.226,285.256,646.766,271.838,651.592z"/>
			<path fill-rule="evenodd" clip-rule="evenodd" fill="#D2E07F" d="M378.27,686.281c3.624-8.959,2.873-17.511,4.46-25.728
				c0.769-3.97,2.153-7.666,4.818-10.687c3.026-3.427,6.396-6.833,11.544-4.242c7.745,3.897,11.389,9.947,9.096,15.729
				C402.94,674.58,392.001,681.203,378.27,686.281z"/>
			<path fill-rule="evenodd" clip-rule="evenodd" fill="#61BE9C" d="M429.205,333.709c-5.849-8.182-13.873-13.807-20.592-20.771
				c-2.504-2.593-4.877-5.363-6.217-8.761c-1.708-4.337-4.07-8.998,0.252-12.995c3.423-3.165,13.073-2.419,16.809,0.761
				C427.653,298.918,433.381,322.662,429.205,333.709z"/>
			<path fill-rule="evenodd" clip-rule="evenodd" fill="#D2E07F" d="M405.644,683.205c7.381-1.797,13.389-6.064,19.834-9.451
				c4.23-2.222,8.621-3.384,13.453-3.168c6.651,0.299,10.343,2.614,10.982,7.289c1.02,7.445-2.297,14.341-7.794,16.202
				C432.601,697.301,412.912,691.584,405.644,683.205z"/>
			<path fill-rule="evenodd" clip-rule="evenodd" fill="#84CBAE" d="M564.982,388.351c3.912,6.488,8.624,10.614,13.353,14.791
				c5.978,5.277,10.328,11.478,9.607,20.118c-0.276,3.338-1.828,5.241-4.861,6.351c-11.612,4.251-18.039,1.067-20.575-11.104
				C560.477,408.771,560.614,398.96,564.982,388.351z"/>
			<path fill-rule="evenodd" clip-rule="evenodd" fill="#61BE9C" d="M380.865,556.695c8.803,0.463,24.954,14.959,27.831,26.524
				c1.445,5.817-4.85,15.048-10.767,16.147c-2.917,0.543-5.247-0.606-7.355-2.548c-4.415-4.07-5.717-9.497-6.478-15.073
				c-0.584-4.277-0.933-8.61-1.016-12.926C383.003,564.662,381.6,560.773,380.865,556.695z"/>
			<path fill-rule="evenodd" clip-rule="evenodd" fill="#61BE9C" d="M387.434,522.834c-0.638,12.302-6.024,21.095-13.232,29.12
				c-6.413,7.142-13.801,9.231-22.784,5.199c-4.483-2.013-5.571-4.413-3.184-8.841c2.381-4.418,6.164-7.444,10.441-9.902
				C367.845,533.142,378.035,529.853,387.434,522.834z"/>
			<path fill-rule="evenodd" clip-rule="evenodd" fill="#648B52" d="M285.838,321.312c5.218,5.625,10.734,8.661,16.143,11.867
				c4.382,2.597,8.347,5.656,10.814,10.292c3.202,6.008,2.855,11.055-0.97,13.554c-8.193,5.354-14.484,5.092-19.149-1.006
				c-4.632-6.054-6.472-13.198-7.29-20.607C284.915,331.17,284.998,326.885,285.838,321.312z"/>
			<path fill-rule="evenodd" clip-rule="evenodd" fill="#648B52" d="M289.244,524.663c4.471,10.795-0.279,29.87-7.144,36.602
				c-3.629,3.559-11.755,3.449-17.234-0.127c-3.163-2.062-3.703-7.062-1.478-12.36c1.598-3.809,4.482-6.539,7.528-9.064
				c3.053-2.53,6.461-4.627,9.53-7.136C283.489,530.093,286.302,527.33,289.244,524.663z"/>
			<path fill-rule="evenodd" clip-rule="evenodd" fill="#D48E37" d="M227.722,463.258c-4.238,4.35-6.414,9.477-8.758,14.531
				c-2.192,4.727-4.491,9.428-8.799,12.707c-6.09,4.635-11.585,4.934-14.798,0.817c-6.204-7.948-6.062-14.567,0.649-19.726
				c7.482-5.75,16.115-8.502,25.479-8.938C223.469,462.558,225.613,462.102,227.722,463.258z"/>
			<path fill-rule="evenodd" clip-rule="evenodd" fill="#156B68" d="M525.053,612.359c3.137,7.501,8.099,12.05,12.351,17.128
				c3.29,3.928,5.805,8.172,6.323,13.416c0.646,6.538-1.037,9.851-5.794,11.087c-8.545,2.222-14.271,0.504-16.493-5.736
				C517.17,636.273,519.106,624.73,525.053,612.359z"/>
			<path fill-rule="evenodd" clip-rule="evenodd" fill="#85BA72" d="M305.717,664.268c-3.891-12.904-2.725-25.039,4.716-36.136
				c3.169-4.724,12.639-6.47,17.861-3.96c2.087,1.004,2.58,2.727,2.72,4.858c0.355,5.432-2.054,9.718-5.239,13.799
				C319.784,650.503,311.631,656.169,305.717,664.268z"/>
			<path fill-rule="evenodd" clip-rule="evenodd" fill="#84CBAE" d="M604.868,604.229c-8.547-3.947-17.793-4.994-26.173-8.622
				c-3.517-1.521-6.74-3.602-9.166-6.572c-2.548-3.12-6.113-6.169-3.101-10.901c3.256-5.111,9.747-8.056,14.451-5.549
				C593.603,579.365,600.624,590.722,604.868,604.229z"/>
			<path fill-rule="evenodd" clip-rule="evenodd" fill="#156B68" d="M354.236,329.578c-2.313,13.502-6.221,24.733-15.264,33.531
				c-4.195,4.078-7.144,3.602-10.796-1.063c-9.591-12.253-4.783-24.745,10.582-27.462
				C343.712,333.707,348.667,332.853,354.236,329.578z"/>
			<path fill-rule="evenodd" clip-rule="evenodd" fill="#648B52" d="M290.1,568.714c2.299-6.704,2.578-12.811,2.774-18.924
				c0.152-4.761,1.133-9.278,3.863-13.27c3.764-5.499,7.877-7.062,12.107-4.672c7.534,4.259,10.1,9.521,7.39,15.768
				c-2.419,5.579-6.54,9.852-11.308,13.521C300.659,564.421,296.149,567.24,290.1,568.714z"/>
			<path fill-rule="evenodd" clip-rule="evenodd" fill="#196C69" d="M271.646,497.872c3.104,11.851,2.665,22.208-2.233,32.128
				c-3.393,6.869-13.57,8.893-19.399,4.029c-2.299-1.918-2.589-4.562-2.161-7.393c0.927-6.146,4.843-10.338,9.265-14.15
				C262.013,508.26,267.222,504.372,271.646,497.872z"/>
			<path fill-rule="evenodd" clip-rule="evenodd" fill="#196C69" d="M363.542,338.734c0.031-6.981-2.333-12.424-3.959-18.054
				c-0.901-3.12-1.786-6.253-1.596-9.55c0.434-7.526,4.629-12.79,9.578-12.053c10.55,1.568,14.479,6.391,12.381,15.456
				C377.673,324.354,372.205,332.032,363.542,338.734z"/>
			<path fill-rule="evenodd" clip-rule="evenodd" fill="#648B52" d="M708.007,436.555c-1.078,9.175-12.979,22.907-21.57,24.889
				c-5.055,1.168-12.802-3.156-14.169-8.346c-1.438-5.465,2.462-8.344,6.435-10.568c2.443-1.365,5.355-2.204,8.149-2.567
				c7.108-0.922,14.218-1.764,21.221-3.342L708.007,436.555z"/>
			<path fill-rule="evenodd" clip-rule="evenodd" fill="#196C69" d="M424.315,535.75c-5.752-5.919-12.199-8.713-18.068-12.417
				c-4.639-2.928-8.605-6.505-11.077-11.505c-1.452-2.936-3.162-6.198-0.138-8.888c3.281-2.919,7.148-4.952,11.82-2.725
				c2.689,1.283,4.65,3.362,6.333,5.724C419.29,514.514,423.536,523.786,424.315,535.75z"/>
			<path fill-rule="evenodd" clip-rule="evenodd" fill="#85BA72" d="M631.055,591.885c5.992-1.072,10.952-3.135,15.947-5.155
				c2.807-1.137,5.863-2.075,8.856-2.239c4.346-0.235,9.195,0.178,11.477,4.441c2.1,3.922,0.25,8.221-1.83,11.811
				c-2.318,4.002-6.505,4.305-10.565,3.645C645.831,602.91,637.868,599.138,631.055,591.885z"/>
			<path fill-rule="evenodd" clip-rule="evenodd" fill="#196C69" d="M553.688,655.4c-2.609,11.596-7.234,20.562-16.847,26.2
				c-4.348,2.55-10.169,0.266-13.803-5.084c-2.915-4.288-0.301-7.56,2.51-10.441c3.684-3.778,8.755-4.799,13.648-5.863
				C543.777,659.217,548.257,658.019,553.688,655.4z"/>
			<path fill-rule="evenodd" clip-rule="evenodd" fill="#D48E37" d="M638.392,636.831c3.246-4.96,4.332-10.235,5.831-15.372
				c0.252-0.859,0.635-1.686,1.012-2.502c2.117-4.586,5.392-7.75,10.702-7.746c3.15,0.004,8.981,6.959,9.79,11.342
				c0.899,4.873-1.858,7.869-5.626,10.13C653.591,636.585,646.581,638.079,638.392,636.831z"/>
			<path fill-rule="evenodd" clip-rule="evenodd" fill="#D2E07F" d="M315.937,554.323c7.448,7.825,10.41,16.452,10.092,26.101
				c-0.182,5.562-5.677,9.332-11.986,9.057c-4.003-0.176-6.262-3.727-6.217-9.701c0.021-2.924,0.666-5.719,1.826-8.365
				C311.954,566.163,314.345,560.949,315.937,554.323z"/>
			<path fill-rule="evenodd" clip-rule="evenodd" fill="#A6C556" d="M318.324,409.988c3.57,8.126,3.786,15.592,0.751,23.074
				c-1.763,4.345-8.213,6.847-12.347,4.397c-4.228-2.505-3.013-6.977-1.124-10.051C309.165,421.607,313.605,416.343,318.324,409.988
				z"/>
			<polygon fill-rule="evenodd" clip-rule="evenodd" fill="#648B52" points="708.072,436.62 708.245,436.434 708.009,436.556 			"/>
		</g>
		<path clip-path="url(#SVGID_4_)" fill="#0B564B" d="M-181.185,1206.472l1286.55-13.698l-16.988-216.53
			c0,0-377.262-39.205-529.157-123.979c0,0-336.531-92.299-423.381-2.517c0,0-164.416,87.458-286.5,84.534L-181.185,1206.472z"/>
		<use xlink:href="#SVGID_7_"  overflow="visible" fill="none" stroke="#FFFFFF" stroke-width="3" stroke-miterlimit="10"/>
	</g>
	<g>
		<defs>
			<path id="SVGID_9_" d="M1009.354-53.702c0,15.251-5.802,27.608-12.953,27.608H4.786c-7.153,0-12.953-12.357-12.953-27.608
				v-1018.465c0-15.251,5.8-27.612,12.953-27.612h991.615c7.151,0,12.953,12.361,12.953,27.612V-53.702z"/>
		</defs>
		<clipPath id="SVGID_6_">
			<use xlink:href="#SVGID_9_"  overflow="visible"/>
		</clipPath>
		<g clip-path="url(#SVGID_6_)">
			<path opacity="0.6" fill="#062821" d="M-14.675,9.322l1911.059-25.234l-24.562-207.142c0,0-545.537-37.509-765.177-118.609
				c0,0-486.636-88.298-612.229-2.406c0,0-332.549,122.424-509.09,119.627V9.322z"/>
			<path opacity="0.6" fill="#60BA99" d="M1296.05,18.305L9.5,4.606l16.989-216.525c0,0,377.265-39.21,529.149-123.982
				c0,0,336.537-92.301,423.389-2.519c0,0,164.414,87.457,286.5,84.538L1296.05,18.305z"/>
			<path opacity="0.6" fill="#1B877F" d="M1286.971,45.547L0.419,31.847L17.407-184.68c0,0,377.266-39.21,529.151-123.981
				c0,0,336.536-92.296,423.39-2.517c0,0,164.413,87.456,286.499,84.535L1286.971,45.547z"/>
			<path opacity="0.6" fill="#60BA99" d="M-246.48,72.785L1005.48,59.089l3.226-180.975c0,0-386.876-74.759-534.681-159.537
				c0,0-327.487-92.298-412.005-2.514c0,0-159.997,87.456-278.801,84.532L-246.48,72.785z"/>
			<path opacity="0.6" fill="#062821" d="M-146.221-139.15c0,0,331.157-9.525,454.985-67.741
				c123.825-58.216,284.108-45.191,390.829-30.301c106.723,14.892,233.721,131.31,304.126,88.422l26.078,205.606"/>
			<path opacity="0.6" fill="#126864" d="M-84.05,103.906l1189.415-26.657l-16.988-216.527
				C961.929-152.421,1010.07-17.716,534.291-283.26c0,0-311.603-72.298-398.452,17.481c0,0-93.28,74.423-215.365,71.501
				L-84.05,103.906z"/>
			<path opacity="0.6" fill="#062821" d="M-181.185,145.429l1286.55-13.698L1088.377-84.8c0,0-377.262-39.205-529.157-123.979
				c0,0-336.531-92.299-423.381-2.517c0,0-164.416,87.458-286.5,84.534L-181.185,145.429z"/>
		</g>
		<path clip-path="url(#SVGID_6_)" fill="#0B564B" d="M-181.185,145.429l1286.55-13.698L1088.377-84.8
			c0,0-377.262-39.205-529.157-123.979c0,0-336.531-92.299-423.381-2.517c0,0-164.416,87.458-286.5,84.534L-181.185,145.429z"/>
		<use xlink:href="#SVGID_9_"  overflow="visible" fill="none" stroke="#FFFFFF" stroke-width="3" stroke-miterlimit="10"/>
	</g>
	<g>
		<defs>
			<path id="SVGID_11_" d="M2073.99-53.702c0,15.251-5.802,27.608-12.953,27.608h-991.615c-7.153,0-12.953-12.357-12.953-27.608
				v-1018.465c0-15.251,5.8-27.612,12.953-27.612h991.615c7.151,0,12.953,12.361,12.953,27.612V-53.702z"/>
		</defs>
		<clipPath id="SVGID_8_">
			<use xlink:href="#SVGID_11_"  overflow="visible"/>
		</clipPath>
		<g clip-path="url(#SVGID_8_)">
			<path opacity="0.6" fill="#60BA99" d="M818.155,72.785l1251.961-13.696l3.226-180.975c0,0-386.876-74.759-534.681-159.537
				c0,0-327.487-92.298-412.005-2.514c0,0-159.997,87.456-278.801,84.532L818.155,72.785z"/>
			<path opacity="0.6" fill="#062821" d="M918.415-139.15c0,0,331.157-9.525,454.985-67.741
				c123.825-58.216,284.108-45.191,390.829-30.301c106.723,14.892,233.721,131.31,304.126,88.422l26.078,205.606"/>
			<path opacity="0.6" fill="#126864" d="M980.586,103.906l1189.415-26.657l-16.988-216.527
				c-126.448-13.143-78.307,121.562-554.086-143.981c0,0-311.603-72.298-398.452,17.481c0,0-93.28,74.423-215.365,71.501
				L980.586,103.906z"/>
			<path opacity="0.6" fill="#062821" d="M883.451,145.429l1286.55-13.698L2153.013-84.8c0,0-377.262-39.205-529.157-123.979
				c0,0-336.531-92.299-423.381-2.517c0,0-164.416,87.458-286.5,84.534L883.451,145.429z"/>
		</g>
		<path clip-path="url(#SVGID_8_)" fill="#0B564B" d="M883.451,145.429l1286.55-13.698L2153.013-84.8
			c0,0-377.262-39.205-529.157-123.979c0,0-336.531-92.299-423.381-2.517c0,0-164.416,87.458-286.5,84.534L883.451,145.429z"/>
		<use xlink:href="#SVGID_11_"  overflow="visible" fill="none" stroke="#FFFFFF" stroke-width="3" stroke-miterlimit="10"/>
	</g>
</g>
<g id="Calque_1">
</g>
</svg>
