<?xml version="1.0" encoding="utf-8"?>
<!-- Generator: Adobe Illustrator 16.0.0, SVG Export Plug-In . SVG Version: 6.00 Build 0)  -->
<!DOCTYPE svg PUBLIC "-//W3C//DTD SVG 1.1//EN" "http://www.w3.org/Graphics/SVG/1.1/DTD/svg11.dtd">
<svg version="1.1" xmlns="http://www.w3.org/2000/svg" xmlns:xlink="http://www.w3.org/1999/xlink" x="0px" y="0px" width="700px"
	 height="700px" viewBox="0 0 700 700" enable-background="new 0 0 700 700" xml:space="preserve">
<g id="Calque_4">
</g>
<g id="draw">
</g>
<g id="Calque_11">
</g>
<g id="back">
</g>
<g id="component">
	<g>
		<defs>
			<path id="SVGID_119_" d="M702.586,706.939c0,10.564-4.019,19.125-8.973,19.125H6.687c-4.956,0-8.973-8.561-8.973-19.125V1.413
				c0-10.564,4.018-19.128,8.973-19.128h686.927c4.954,0,8.973,8.563,8.973,19.128V706.939z"/>
		</defs>
		<clipPath id="SVGID_2_">
			<use xlink:href="#SVGID_119_"  overflow="visible"/>
		</clipPath>
		<g clip-path="url(#SVGID_2_)">
			<path opacity="0.6" fill="#A6C15A" d="M933.603,412.671c0,0-330.55-28.278-463.629-89.414c0,0-294.863-66.564-370.96-1.815
				c0,0-144.057,63.072-251.026,60.964l-26.741,196.296l1127.237-9.878L933.603,412.671z M305.376,365.924
				c-2.941-8.828-14.167-12.133-16.829-21.579c-1.613-1.875-2.89-4.011-3.543-6.629c0.654,2.619,1.93,4.754,3.543,6.629
				c-0.174-0.615-0.312-1.256-0.409-1.928c0.097,0.672,0.235,1.313,0.409,1.928c6.113,7.105,17.157,10.421,18.396,21.579
				c-1.238-11.158-12.283-14.474-18.396-21.579C291.209,353.792,302.435,357.096,305.376,365.924z"/>
			<path opacity="0.6" fill="#D2E081" d="M921.31,437.831c0,0-324.115-28.276-454.605-89.412c0,0-289.127-66.564-363.743-1.816
				c0,0-141.255,63.072-246.14,60.964l-26.224,196.297l1105.307-9.878L921.31,437.831z M305.376,365.924
				c-2.941-8.828-14.167-12.133-16.829-21.579c-1.613-1.875-2.89-4.011-3.543-6.629c0.654,2.619,1.93,4.754,3.543,6.629
				c-0.174-0.615-0.312-1.256-0.409-1.928c0.097,0.672,0.235,1.313,0.409,1.928c6.113,7.105,17.157,10.421,18.396,21.579
				c-1.238-11.158-12.283-14.474-18.396-21.579C291.209,353.792,302.435,357.096,305.376,365.924z"/>
			<path opacity="0.6" fill="#062821" d="M-6.794,660.542l1323.857-17.481l-17.017-143.492c0,0-377.912-25.986-530.063-82.166
				c0,0-337.109-61.167-424.112-1.667c0,0-230.368,84.807-352.665,82.871V660.542z"/>
			<path opacity="0.6" fill="#60BA99" d="M901.189,666.766l-891.237-9.49l11.769-149.996c0,0,261.344-27.162,366.56-85.887
				c0,0,233.131-63.938,293.296-1.744c0,0,113.896,60.584,198.469,58.561L901.189,666.766z"/>
			<path opacity="0.6" fill="#1B877F" d="M894.9,685.636l-891.238-9.49L15.43,526.151c0,0,261.346-27.162,366.562-85.887
				c0,0,233.13-63.937,293.297-1.744c0,0,113.895,60.584,198.468,58.561L894.9,685.636z"/>
			<path opacity="0.6" fill="#60BA99" d="M-167.375,704.506l867.277-9.489l2.234-125.367c0,0-268.002-51.788-370.392-110.516
				c0,0-226.862-63.938-285.41-1.742c0,0-110.836,60.584-193.134,58.56L-167.375,704.506z"/>
			<path opacity="0.6" fill="#062821" d="M-97.921,557.691c0,0,229.404-6.6,315.184-46.927
				c85.778-40.329,196.812-31.305,270.741-20.991c73.931,10.316,161.906,90.963,210.679,61.253l18.065,142.431"/>
			<path opacity="0.6" fill="#126864" d="M-54.853,726.064l823.948-18.466l-11.769-149.997
				c-87.595-9.103-54.245,84.212-383.834-99.74c0,0-215.858-50.083-276.022,12.111c0,0-64.618,51.554-149.191,49.53L-54.853,726.064
				z"/>
			<path opacity="0.6" fill="#062821" d="M-122.142,754.828l891.237-9.487l-11.769-149.999c0,0-261.342-27.159-366.564-85.885
				c0,0-233.127-63.938-293.292-1.743c0,0-113.896,60.584-198.469,58.56L-122.142,754.828z"/>
		</g>
		<use xlink:href="#SVGID_119_"  overflow="visible" fill="none" stroke="#FFFFFF" stroke-width="3" stroke-miterlimit="10"/>
	</g>
	<g>
		<g>
			<path fill="#618751" d="M312.424,411.125c8.035-3.083,2.453-15.404-4.02-21.969c-10.1-9.844-23.107-12.384-32.826-23.318
				c-1.483,11.36,3.037,28.661,11.111,40.056C295.458,418.226,302.829,416.387,312.424,411.125"/>
		</g>
		<g>
			<path fill="#11514F" d="M310.283,422.951c-1.031-5.135-8.181-5.521-12.486-3.264c-6.494,3.609-9.1,10.36-16.176,13.529
				c6.314,3.186,16.535,4.249,23.726,2.092c7.785-2.349,6.848-6.665,4.725-13.126"/>
		</g>
		<g>
			<path fill="#618751" d="M329.753,399.268c-5.187-4.714,0.613-15.52,7.058-20.481c9.961-7.356,20.248-7.019,30.197-15.509
				c-1.746,11.311-9.437,27.082-18.285,36.372C339.128,409.696,335.548,406.419,329.753,399.268"/>
		</g>
		<g>
			<path fill="#126864" d="M325.997,413.934c2.132-5.76,10.345-4.375,14.826-0.619c6.722,5.902,8.433,14.493,15.898,20.029
				c-7.787,2.113-19.624,0.729-27.414-3.65C320.878,424.938,322.37,420.963,325.997,413.934"/>
		</g>
		<g>
			<path fill="#A9D39B" d="M321.698,398.003c3.589,2.288,5.138-5.334,4.775-10.947c-0.673-8.598-4.379-15.44-4.618-24.321
				c-3.682,4.077-6.984,13.3-7.431,21.642C313.954,393.417,316.969,395.929,321.698,398.003"/>
		</g>
		<g>
			<g>
				<path fill="#083D30" d="M321.219,496.675c7.135-13.493,7.833-27.218,4.331-41.892c-2.072-8.685-4.307-16.929-5.215-25.868
					c-0.432-4.255-0.76-8.249,0.349-12.43c1.149-4.335,3.681-8.364,5.532-12.425c1.326-2.911-2.982-5.454-4.317-2.523
					c-2.817,6.183-6.147,11.884-6.982,18.729c-0.92,7.541,1.173,16.531,2.676,23.91c1.655,8.13,4.502,15.767,5.169,24.111
					c0.73,9.14-1.609,17.828-5.858,25.864C315.396,497,319.711,499.526,321.219,496.675L321.219,496.675z"/>
			</g>
		</g>
		<g>
			<path fill="#A9D39B" d="M333.349,478.674c-4.096-1.157-0.496-7.153,3.935-10.619c6.865-5.217,14.441-7.005,21.229-12.735
				c-0.594,5.461-5.28,14.064-11.21,19.948C340.868,481.636,338.042,480.824,333.349,478.674"/>
		</g>
		<g>
			<path fill="#A9D39B" d="M315.529,486.24c4.097-1.156,0.497-7.152-3.934-10.619c-6.865-5.217-14.442-7.005-21.23-12.734
				c0.594,5.461,5.279,14.064,11.21,19.948C308.012,489.203,310.837,488.39,315.529,486.24"/>
		</g>
		<g>
			<path fill="#11514F" d="M330.773,405.776c-2.955-3.066,3.181-6.426,8.75-7.188c8.562-1.042,16.006,1.234,24.757-0.288
				c-3.267,4.414-11.653,9.478-19.741,11.569C335.772,412.124,333.741,409.999,330.773,405.776"/>
		</g>
	</g>
	<g>
		<g>
			<g>
				<path fill="#126864" d="M634.482,144.453c0-2.154,3.931-4.452,3.758-6.562c-0.175-2.144-4.429-3.771-4.775-5.861
					c-0.351-2.12,3.148-5.031,2.629-7.088c-0.524-2.08-4.988-2.981-5.679-4.99c-0.695-2.027,2.273-5.479,1.418-7.426
					c-0.861-1.96-5.413-2.109-6.429-3.98c-1.02-1.88,1.339-5.775,0.172-7.558c-1.171-1.788-5.686-1.185-6.996-2.866
					c-1.312-1.685,0.374-5.914-1.071-7.483c-1.446-1.57-5.8-0.237-7.37-1.683c-1.569-1.445-0.598-5.895-2.282-7.208
					c-1.682-1.31-5.758,0.719-7.547-0.451c-1.782-1.167-1.554-5.715-3.433-6.735c-1.871-1.015-5.558,1.658-7.518,0.797
					c-1.947-0.854-2.474-5.378-4.501-6.074c-2.009-0.689-5.201,2.557-7.28,2.032c-2.058-0.519-3.326-4.894-5.445-5.245
					c-2.09-0.346-4.702,3.383-6.846,3.208c-2.109-0.172-4.079-4.278-6.232-4.278c-2.154,0-4.123,4.106-6.232,4.279
					c-2.145,0.175-4.756-3.554-6.847-3.208c-2.119,0.351-3.388,4.725-5.444,5.245c-2.08,0.525-5.273-2.721-7.282-2.031
					c-2.027,0.695-2.553,5.22-4.5,6.075c-1.96,0.861-5.646-1.811-7.517-0.796c-1.881,1.02-1.652,5.568-3.435,6.735
					c-1.788,1.171-5.865-0.857-7.546,0.453c-1.685,1.313-0.713,5.762-2.281,7.207c-1.57,1.446-5.924,0.112-7.37,1.682
					c-1.445,1.569,0.242,5.799-1.071,7.483c-1.31,1.682-5.824,1.08-6.994,2.868c-1.168,1.783,1.191,5.677,0.172,7.557
					c-1.015,1.871-5.567,2.02-6.428,3.98c-0.855,1.947,2.113,5.398,1.418,7.424c-0.689,2.009-5.153,2.91-5.679,4.99
					c-0.52,2.057,2.98,4.969,2.629,7.088c-0.346,2.09-4.6,3.716-4.774,5.859c-0.173,2.109,3.758,4.407,3.758,6.561
					c0,2.154-3.931,4.452-3.758,6.561c0.175,2.144,4.429,3.771,4.775,5.861c0.351,2.12-3.148,5.031-2.629,7.088
					c0.524,2.08,4.988,2.98,5.679,4.989c0.695,2.027-2.273,5.479-1.418,7.426c0.86,1.959,5.413,2.108,6.428,3.979
					c1.02,1.88-1.339,5.775-0.172,7.557c1.17,1.788,5.684,1.186,6.994,2.867c1.313,1.685-0.373,5.915,1.072,7.483
					c1.445,1.57,5.8,0.236,7.369,1.682c1.569,1.445,0.598,5.894,2.282,7.207c1.682,1.311,5.758-0.718,7.546,0.452
					c1.782,1.167,1.554,5.715,3.435,6.735c1.871,1.015,5.557-1.657,7.517-0.796c1.946,0.855,2.473,5.379,4.499,6.075
					c2.01,0.689,5.201-2.556,7.281-2.031c2.058,0.52,3.326,4.893,5.444,5.245c2.091,0.346,4.703-3.383,6.847-3.207
					c2.109,0.172,4.079,4.279,6.232,4.279c2.154,0,4.123-4.106,6.232-4.279c2.145-0.175,4.757,3.553,6.848,3.207
					c2.119-0.351,3.387-4.725,5.444-5.244c2.08-0.525,5.273,2.72,7.282,2.031c2.027-0.696,2.553-5.22,4.5-6.075
					c1.96-0.861,5.646,1.812,7.518,0.797c1.881-1.02,1.652-5.568,3.435-6.735c1.788-1.171,5.865,0.857,7.547-0.454
					c1.685-1.313,0.713-5.762,2.282-7.208c1.569-1.446,5.924-0.112,7.37-1.683c1.444-1.569-0.242-5.798,1.07-7.482
					c1.311-1.682,5.825-1.08,6.995-2.868c1.167-1.782-1.191-5.677-0.172-7.557c1.015-1.871,5.567-2.02,6.428-3.98
					c0.855-1.947-2.113-5.398-1.418-7.424c0.689-2.009,5.153-2.911,5.679-4.991c0.519-2.057-2.98-4.969-2.63-7.088
					c0.347-2.09,4.601-3.716,4.775-5.859C638.413,148.904,634.482,146.607,634.482,144.453z"/>
			</g>
			<path fill="#BFCC43" d="M559.055,224.586c-1.507,0-2.757-0.981-3.962-1.932c-0.85-0.668-1.726-1.358-2.399-1.414
				c-0.708-0.06-1.694,0.49-2.652,1.017c-1.327,0.731-2.749,1.484-4.175,1.246c-1.485-0.246-2.556-1.418-3.588-2.551
				c-0.729-0.8-1.481-1.626-2.141-1.794c-0.634-0.159-1.742,0.203-2.773,0.565c-1.026,0.359-2.088,0.73-3.131,0.73
				c-0.431,0-0.834-0.064-1.203-0.189c-1.42-0.489-2.278-1.819-3.108-3.108c-0.587-0.91-1.193-1.852-1.82-2.128
				c-0.561-0.245-1.664-0.103-2.822,0.098c-0.771,0.133-1.569,0.269-2.343,0.269c-0.797,0-1.46-0.148-2.025-0.454
				c-1.317-0.715-1.944-2.169-2.548-3.574c-0.429-0.995-0.873-2.028-1.448-2.403c-0.521-0.342-1.507-0.37-2.389-0.37l-0.824,0.003
				c-1.368,0-2.796-0.071-3.864-0.903c-1.181-0.921-1.56-2.456-1.924-3.939c-0.263-1.056-0.53-2.147-1.038-2.614
				c-0.509-0.467-1.618-0.645-2.691-0.816c-1.508-0.244-3.066-0.496-4.084-1.596c-1.012-1.1-1.132-2.673-1.251-4.196
				c-0.084-1.084-0.172-2.206-0.599-2.752c-0.42-0.543-1.485-0.901-2.516-1.246c-1.45-0.485-2.947-0.99-3.769-2.243
				c-0.817-1.25-0.679-2.821-0.547-4.343c0.095-1.084,0.193-2.206-0.136-2.817c-0.328-0.603-1.317-1.13-2.274-1.64
				c-1.353-0.72-2.748-1.463-3.354-2.839c-0.599-1.364-0.204-2.89,0.179-4.367c0.272-1.055,0.557-2.147,0.33-2.807
				c-0.222-0.646-1.108-1.327-1.967-1.986c-1.216-0.936-2.472-1.902-2.839-3.361c-0.367-1.442,0.275-2.88,0.898-4.269
				c0.445-0.999,0.907-2.03,0.793-2.722c-0.114-0.671-0.874-1.488-1.609-2.281c-1.045-1.124-2.127-2.286-2.248-3.789
				c-0.122-1.478,0.746-2.786,1.585-4.053c0.605-0.915,1.232-1.859,1.232-2.565c0-0.703-0.627-1.648-1.232-2.563
				c-0.839-1.266-1.707-2.575-1.585-4.051c0.121-1.503,1.203-2.666,2.248-3.791c0.736-0.791,1.495-1.608,1.609-2.278
				c0.114-0.691-0.348-1.724-0.793-2.723c-0.623-1.39-1.266-2.827-0.899-4.268c0.368-1.46,1.624-2.426,2.84-3.362
				c0.856-0.659,1.745-1.34,1.965-1.987c0.229-0.66-0.056-1.75-0.329-2.808c-0.382-1.474-0.777-3-0.178-4.365
				c0.603-1.373,1.999-2.119,3.353-2.839c0.957-0.507,1.946-1.037,2.273-1.64c0.329-0.608,0.231-1.731,0.137-2.816
				c-0.134-1.521-0.271-3.092,0.546-4.341c0.821-1.254,2.32-1.756,3.769-2.243c1.03-0.347,2.095-0.705,2.518-1.247
				c0.427-0.545,0.513-1.667,0.595-2.753c0.119-1.521,0.24-3.096,1.252-4.196c1.016-1.1,2.576-1.351,4.083-1.592
				c1.074-0.174,2.186-0.353,2.692-0.82c0.507-0.467,0.776-1.559,1.035-2.614c0.368-1.484,0.747-3.019,1.926-3.938
				c1.07-0.836,2.5-0.904,3.874-0.904l0.805,0.002c0.887,0,1.876-0.028,2.399-0.369c0.575-0.377,1.018-1.408,1.447-2.405
				c0.605-1.405,1.231-2.857,2.548-3.574c0.567-0.306,1.227-0.454,2.028-0.454c0.771,0,1.568,0.135,2.34,0.269
				c1.157,0.199,2.264,0.342,2.822,0.099c0.627-0.277,1.234-1.219,1.822-2.13c0.829-1.289,1.688-2.62,3.108-3.109
				c0.37-0.125,0.771-0.188,1.2-0.188c1.047,0,2.106,0.371,3.134,0.731c1.031,0.36,2.14,0.724,2.772,0.562
				c0.661-0.167,1.413-0.991,2.142-1.791c1.033-1.133,2.104-2.308,3.59-2.554c1.424-0.234,2.846,0.519,4.174,1.25
				c0.958,0.525,1.92,1.077,2.653,1.016c0.674-0.056,1.55-0.746,2.399-1.414c1.205-0.948,2.455-1.932,3.962-1.932
				c1.512,0,2.76,0.984,3.967,1.932c0.848,0.668,1.724,1.358,2.399,1.414c0.73,0.058,1.693-0.49,2.652-1.016
				c1.327-0.731,2.743-1.484,4.174-1.248c1.486,0.245,2.555,1.419,3.588,2.552c0.728,0.8,1.48,1.625,2.14,1.791
				c0.631,0.159,1.743-0.202,2.774-0.562c1.025-0.36,2.088-0.731,3.134-0.731c0.426,0,0.832,0.063,1.199,0.188
				c1.422,0.49,2.28,1.821,3.109,3.11c0.587,0.911,1.193,1.853,1.82,2.129c0.557,0.244,1.665,0.101,2.821-0.099
				c0.771-0.134,1.571-0.269,2.344-0.269c0.798,0,1.462,0.148,2.024,0.454c1.319,0.717,1.945,2.169,2.55,3.573
				c0.428,0.998,0.873,2.029,1.447,2.405c0.521,0.341,1.508,0.369,2.389,0.369l0.824-0.003c1.367,0,2.795,0.07,3.865,0.905
				c1.181,0.92,1.56,2.454,1.923,3.938c0.262,1.055,0.531,2.146,1.037,2.616c0.51,0.466,1.619,0.646,2.692,0.816
				c1.51,0.243,3.066,0.493,4.081,1.594c1.013,1.098,1.135,2.672,1.254,4.196c0.083,1.085,0.17,2.207,0.594,2.752
				c0.425,0.542,1.489,0.901,2.521,1.246c1.448,0.486,2.947,0.991,3.769,2.245c0.817,1.249,0.68,2.821,0.547,4.342
				c-0.097,1.085-0.194,2.208,0.136,2.816c0.327,0.603,1.316,1.132,2.275,1.64c1.348,0.72,2.747,1.466,3.351,2.839
				c0.602,1.367,0.203,2.891-0.176,4.367c-0.275,1.056-0.556,2.148-0.331,2.808c0.222,0.646,1.109,1.327,1.967,1.988
				c1.213,0.935,2.469,1.902,2.84,3.36c0.362,1.441-0.278,2.879-0.898,4.268c-0.446,0.999-0.908,2.03-0.794,2.721
				c0.11,0.67,0.871,1.489,1.609,2.28c1.043,1.125,2.124,2.287,2.248,3.791c0.119,1.477-0.747,2.786-1.584,4.051
				c-0.606,0.915-1.232,1.861-1.232,2.563c0,0.706,0.626,1.65,1.232,2.565c0.837,1.267,1.705,2.576,1.584,4.053
				c-0.124,1.503-1.205,2.665-2.248,3.789c-0.738,0.792-1.498,1.609-1.609,2.279c-0.114,0.693,0.348,1.723,0.794,2.722
				c0.621,1.389,1.264,2.827,0.898,4.268c-0.369,1.459-1.626,2.426-2.84,3.361c-0.857,0.66-1.745,1.343-1.967,1.988
				c-0.225,0.661,0.058,1.75,0.332,2.807c0.38,1.476,0.777,3.002,0.177,4.365c-0.604,1.376-2,2.122-3.352,2.84
				c-0.958,0.51-1.948,1.038-2.275,1.64c-0.331,0.61-0.231,1.732-0.137,2.818c0.135,1.52,0.272,3.092-0.546,4.339
				c-0.82,1.255-2.319,1.757-3.769,2.244c-1.029,0.344-2.095,0.704-2.517,1.248c-0.429,0.545-0.512,1.667-0.598,2.752
				c-0.117,1.521-0.238,3.097-1.252,4.196c-1.014,1.101-2.572,1.352-4.082,1.593c-1.073,0.173-2.184,0.352-2.69,0.82
				c-0.508,0.467-0.778,1.558-1.038,2.614c-0.364,1.485-0.743,3.019-1.926,3.939c-1.07,0.834-2.498,0.905-3.869,0.905l0,0
				l-0.812-0.004c-0.885,0-1.874,0.03-2.395,0.37c-0.575,0.378-1.02,1.409-1.448,2.406c-0.604,1.404-1.229,2.856-2.549,3.573
				c-0.563,0.307-1.228,0.455-2.025,0.455c-0.771,0-1.57-0.137-2.343-0.271c-1.158-0.199-2.267-0.342-2.822-0.096
				c-0.628,0.275-1.233,1.218-1.82,2.129c-0.829,1.289-1.688,2.619-3.11,3.108c-0.367,0.125-0.772,0.19-1.197,0.19
				c-1.047,0-2.106-0.373-3.135-0.732c-1.029-0.361-2.135-0.725-2.773-0.563c-0.66,0.166-1.412,0.993-2.142,1.792
				c-1.033,1.133-2.102,2.306-3.588,2.552c-1.422,0.237-2.846-0.516-4.174-1.247c-0.959-0.526-1.93-1.075-2.652-1.017
				c-0.676,0.055-1.552,0.746-2.399,1.414C561.814,223.605,560.566,224.586,559.055,224.586z M552.588,218.937
				c0.1,0,0.193,0.003,0.291,0.011c1.367,0.113,2.521,1.02,3.636,1.898c0.899,0.708,1.826,1.44,2.54,1.44s1.644-0.732,2.544-1.44
				c1.115-0.878,2.271-1.785,3.637-1.898c1.354-0.111,2.692,0.602,3.945,1.293c0.984,0.541,1.973,1.113,2.689,0.994
				c0.699-0.114,1.497-0.986,2.265-1.832c0.958-1.052,1.949-2.138,3.279-2.475c0.294-0.073,0.612-0.111,0.944-0.111
				c1.053,0,2.121,0.373,3.151,0.737c1.074,0.374,2.218,0.744,2.826,0.536c0.668-0.23,1.305-1.222,1.926-2.179
				c0.77-1.196,1.567-2.435,2.825-2.988c0.515-0.225,1.099-0.335,1.791-0.335c0.773,0,1.574,0.138,2.347,0.271
				c1.211,0.209,2.354,0.35,2.882,0.062c0.619-0.336,1.084-1.417,1.535-2.461c0.562-1.31,1.145-2.664,2.3-3.422
				c1.052-0.686,2.382-0.745,3.653-0.745l0.812,0.003l0,0c0.928,0,1.962-0.033,2.457-0.419c0.552-0.431,0.833-1.569,1.106-2.674
				c0.341-1.384,0.692-2.82,1.708-3.755c1.019-0.937,2.478-1.171,3.888-1.398c1.121-0.181,2.28-0.366,2.754-0.881
				c0.476-0.513,0.564-1.684,0.652-2.816c0.107-1.424,0.223-2.898,1.074-3.99c0.848-1.088,2.247-1.558,3.6-2.011
				c1.079-0.362,2.193-0.736,2.577-1.322c0.381-0.583,0.278-1.75,0.179-2.88c-0.125-1.424-0.254-2.897,0.406-4.116
				c0.657-1.211,1.957-1.902,3.216-2.572c1.006-0.535,2.043-1.09,2.327-1.734c0.279-0.635-0.016-1.766-0.299-2.864
				c-0.359-1.386-0.73-2.819-0.281-4.131c0.447-1.3,1.612-2.197,2.739-3.063c0.905-0.695,1.84-1.415,2.015-2.098
				c0.169-0.671-0.307-1.738-0.769-2.771c-0.586-1.308-1.19-2.661-0.961-4.034c0.224-1.354,1.222-2.43,2.189-3.47
				c0.776-0.837,1.585-1.703,1.643-2.412c0.057-0.683-0.588-1.655-1.213-2.594c-0.792-1.199-1.614-2.437-1.614-3.835
				c0-1.396,0.822-2.636,1.614-3.832c0.625-0.939,1.27-1.911,1.213-2.594c-0.058-0.71-0.866-1.575-1.643-2.413
				c-0.968-1.041-1.966-2.118-2.189-3.47c-0.229-1.373,0.375-2.726,0.961-4.034c0.459-1.032,0.937-2.099,0.767-2.769
				c-0.173-0.685-1.107-1.404-2.013-2.099c-1.127-0.867-2.293-1.765-2.739-3.066c-0.45-1.311-0.078-2.746,0.279-4.129
				c0.285-1.097,0.579-2.231,0.3-2.866c-0.283-0.643-1.322-1.198-2.329-1.733c-1.256-0.669-2.557-1.362-3.214-2.573
				c-0.659-1.219-0.531-2.692-0.405-4.115c0.098-1.13,0.199-2.297-0.182-2.881c-0.383-0.587-1.499-0.96-2.575-1.322
				c-1.353-0.455-2.752-0.923-3.601-2.013c-0.85-1.091-0.965-2.564-1.076-3.989c-0.086-1.132-0.178-2.301-0.651-2.815
				c-0.473-0.515-1.632-0.7-2.753-0.882c-1.409-0.226-2.867-0.459-3.886-1.397c-1.017-0.936-1.37-2.369-1.712-3.756
				c-0.271-1.103-0.553-2.244-1.105-2.674c-0.495-0.386-1.526-0.418-2.45-0.418l-0.824,0.004c-1.27,0-2.599-0.058-3.649-0.747
				c-1.152-0.754-1.737-2.109-2.301-3.42c-0.447-1.043-0.913-2.124-1.532-2.46c-0.526-0.286-1.673-0.147-2.882,0.06
				c-0.772,0.134-1.572,0.273-2.35,0.273c-0.689,0-1.272-0.111-1.787-0.337c-1.259-0.551-2.058-1.791-2.828-2.987
				c-0.617-0.959-1.255-1.95-1.922-2.179c-0.608-0.206-1.753,0.161-2.827,0.536c-1.031,0.361-2.099,0.735-3.153,0.735
				c-0.332,0-0.647-0.038-0.943-0.114c-1.33-0.333-2.321-1.422-3.279-2.472c-0.767-0.844-1.564-1.717-2.263-1.831
				c-0.724-0.125-1.709,0.453-2.689,0.993c-1.253,0.689-2.578,1.404-3.945,1.293c-1.366-0.112-2.521-1.022-3.637-1.898
				c-0.9-0.71-1.83-1.44-2.544-1.44s-1.641,0.73-2.54,1.438c-1.115,0.878-2.269,1.788-3.636,1.9
				c-1.355,0.111-2.693-0.604-3.947-1.294c-0.983-0.542-1.969-1.112-2.688-0.995c-0.701,0.117-1.496,0.989-2.267,1.833
				c-0.955,1.051-1.947,2.138-3.277,2.475c-0.297,0.073-0.613,0.111-0.944,0.111c-1.057,0.002-2.122-0.373-3.152-0.735
				c-1.072-0.375-2.22-0.742-2.825-0.536c-0.669,0.229-1.308,1.219-1.925,2.179c-0.771,1.195-1.568,2.436-2.829,2.987
				c-0.513,0.226-1.099,0.337-1.788,0.337c-0.775,0-1.576-0.139-2.347-0.273c-1.211-0.207-2.353-0.346-2.884-0.059
				c-0.618,0.335-1.082,1.417-1.533,2.461c-0.562,1.309-1.145,2.664-2.3,3.419c-1.051,0.688-2.384,0.746-3.659,0.746l-0.805-0.002
				c-0.931,0-1.966,0.031-2.459,0.417c-0.552,0.432-0.835,1.572-1.106,2.677c-0.342,1.385-0.694,2.819-1.712,3.755
				c-1.017,0.938-2.474,1.171-3.884,1.397c-1.122,0.181-2.282,0.367-2.757,0.882c-0.473,0.513-0.562,1.683-0.651,2.816
				c-0.108,1.424-0.223,2.896-1.074,3.988c-0.849,1.088-2.246,1.559-3.6,2.012c-1.078,0.362-2.191,0.738-2.576,1.323
				c-0.381,0.582-0.279,1.75-0.18,2.879c0.127,1.423,0.256,2.896-0.405,4.114c-0.655,1.212-1.956,1.904-3.214,2.574
				c-1.007,0.536-2.045,1.091-2.328,1.733c-0.279,0.635,0.015,1.768,0.299,2.864c0.359,1.385,0.732,2.817,0.279,4.131
				c-0.445,1.3-1.613,2.197-2.74,3.066c-0.903,0.693-1.838,1.413-2.012,2.099c-0.168,0.669,0.306,1.736,0.771,2.769
				c0.582,1.309,1.187,2.662,0.959,4.036c-0.223,1.353-1.224,2.428-2.189,3.468c-0.78,0.837-1.585,1.703-1.642,2.413
				c-0.057,0.681,0.588,1.655,1.211,2.593c0.792,1.198,1.612,2.438,1.612,3.833c0,1.398-0.82,2.637-1.612,3.835
				c-0.623,0.939-1.268,1.911-1.211,2.594c0.057,0.709,0.861,1.574,1.642,2.412c0.966,1.04,1.967,2.116,2.189,3.47
				c0.228,1.374-0.377,2.727-0.959,4.037c-0.461,1.03-0.938,2.097-0.771,2.768c0.174,0.686,1.108,1.404,2.013,2.101
				c1.129,0.866,2.294,1.764,2.741,3.063c0.451,1.313,0.078,2.745-0.281,4.133c-0.283,1.094-0.577,2.227-0.298,2.862
				c0.283,0.644,1.322,1.198,2.327,1.734c1.258,0.669,2.56,1.363,3.215,2.574c0.661,1.219,0.532,2.69,0.405,4.114
				c-0.096,1.132-0.2,2.3,0.183,2.882c0.382,0.587,1.495,0.961,2.576,1.322c1.351,0.454,2.751,0.923,3.599,2.012
				c0.85,1.092,0.965,2.568,1.075,3.989c0.087,1.132,0.18,2.303,0.653,2.816c0.474,0.514,1.631,0.701,2.753,0.881
				c1.41,0.225,2.867,0.46,3.885,1.397c1.019,0.937,1.371,2.37,1.711,3.757c0.273,1.104,0.554,2.244,1.107,2.673
				c0.493,0.385,1.523,0.417,2.45,0.417l0.824-0.004c1.27,0,2.598,0.058,3.647,0.746c1.155,0.756,1.737,2.111,2.302,3.419
				c0.45,1.045,0.914,2.126,1.531,2.461c0.532,0.289,1.676,0.147,2.882-0.061c0.773-0.134,1.574-0.27,2.348-0.27
				c0.692,0,1.276,0.108,1.789,0.334c1.262,0.553,2.061,1.791,2.831,2.989c0.615,0.956,1.254,1.947,1.922,2.177
				c0.608,0.208,1.753-0.162,2.825-0.536c1.031-0.364,2.1-0.737,3.154-0.737c0.33,0,0.646,0.037,0.943,0.111
				c1.332,0.337,2.321,1.423,3.275,2.473c0.771,0.845,1.565,1.717,2.267,1.833c0.061,0.01,0.121,0.015,0.183,0.015
				c0.674,0,1.606-0.512,2.506-1.008C550.101,219.6,551.303,218.937,552.588,218.937z"/>
		</g>
		<path fill="#D2E081" d="M629.213,144.453c0-38.745-31.411-70.154-70.158-70.154c-38.746,0-70.153,31.409-70.153,70.154
			c0,38.748,31.407,70.156,70.153,70.156C597.802,214.609,629.213,183.201,629.213,144.453z"/>
		<rect x="475.655" y="116.51" fill="none" width="163.313" height="82.423"/>
		<text transform="matrix(1 0 0 1 526.2461 138.1118)"><tspan x="0" y="0" fill="#126864" font-family="'Playlist-Script'" font-size="30.669">Baby</tspan><tspan x="-6.318" y="29.136" fill="#126864" font-family="'Playlist-Script'" font-size="30.669">Sprout</tspan></text>
		<path fill="#FFFFFF" d="M559.055,211.738c-37.1,0-67.284-30.183-67.284-67.285c0-37.099,30.185-67.283,67.284-67.283
			c37.103,0,67.284,30.185,67.284,67.283C626.339,181.556,596.157,211.738,559.055,211.738z M559.055,78.704
			c-36.252,0-65.75,29.495-65.75,65.749c0,36.255,29.498,65.75,65.75,65.75c36.257,0,65.752-29.495,65.752-65.75
			C624.807,108.199,595.312,78.704,559.055,78.704z"/>
		<g>
			<g>
				<path fill="#1B877F" d="M510.814,149.479c1.589,1.376-1.282,3.303-3.993,3.921c-4.165,0.889-7.929,0.096-12.17,1.229
					c1.413-2.317,5.317-5.178,9.208-6.561c4.216-1.493,5.829-0.418,7.477,1.528"/>
			</g>
			<g>
				<path fill="#11514F" d="M510.814,142.342c1.589-1.379-1.282-3.302-3.993-3.92c-4.165-0.889-7.929-0.096-12.17-1.231
					c1.413,2.318,5.317,5.179,9.208,6.563c4.216,1.492,5.829,0.418,7.477-1.53"/>
			</g>
		</g>
		<g>
			<g>
				<path fill="#1B877F" d="M606.107,140.612c-1.587-1.377,1.284-3.301,3.995-3.92c4.166-0.889,7.93-0.097,12.17-1.229
					c-1.413,2.315-5.317,5.177-9.208,6.561c-4.216,1.494-5.829,0.418-7.477-1.53"/>
			</g>
			<g>
				<path fill="#11514F" d="M606.107,147.75c-1.587,1.378,1.284,3.302,3.995,3.92c4.166,0.89,7.93,0.096,12.17,1.23
					c-1.413-2.315-5.317-5.177-9.208-6.562c-4.216-1.493-5.829-0.419-7.477,1.53"/>
			</g>
		</g>
	</g>
</g>
<g id="leaves">
</g>
<g id="plant">
</g>
<g id="informations">
</g>
<g id="Calque_5">
</g>
<g id="logo">
</g>
<g id="log_in">
</g>
</svg>
