<?xml version="1.0" encoding="utf-8"?>
<!-- Generator: Adobe Illustrator 16.0.0, SVG Export Plug-In . SVG Version: 6.00 Build 0)  -->
<!DOCTYPE svg PUBLIC "-//W3C//DTD SVG 1.1//EN" "http://www.w3.org/Graphics/SVG/1.1/DTD/svg11.dtd">
<svg version="1.1" xmlns="http://www.w3.org/2000/svg" xmlns:xlink="http://www.w3.org/1999/xlink" x="0px" y="0px" width="1280px"
	 height="800px" viewBox="0 0 1280 800" enable-background="new 0 0 1280 800" xml:space="preserve">
<g id="Calque_4">
	<g>
		<defs>
			<rect id="SVGID_3_" width="1280" height="800"/>
		</defs>
		<clipPath id="SVGID_2_">
			<use xlink:href="#SVGID_3_"  overflow="visible"/>
		</clipPath>
		<g clip-path="url(#SVGID_2_)">
			<path opacity="0.6" fill="#A6C15A" d="M-180.396,615.854l1926.702-15.03l-25.438-237.559c0,0-564.982-43.016-792.446-136.024
				c0,0-503.986-101.265-634.053-2.762c0,0-246.227,95.952-429.058,92.747L-180.396,615.854z"/>
			<path opacity="0.6" fill="#D2E081" d="M-164.414,654.13l1889.216-15.029l-24.942-237.559c0,0-553.99-43.016-777.029-136.024
				c0,0-494.181-101.265-621.716-2.762c0,0-241.437,95.952-420.71,92.747L-164.414,654.13z"/>
			<path opacity="0.6" fill="#062821" d="M0,773.409l1697.718-38.021l-20.112-228.189c0,0-446.696-41.32-626.537-130.661
				c0,0-242.318-130.829-501.306-2.652c0,0-405.211,133.548-549.764,130.469V773.409z"/>
			<path opacity="0.6" fill="#60BA99" d="M1665.465,749.824L0,805.672V545.503c0,0,446.166-5.585,788.793-168.966
				c0,0,400.289-177.287,501.307-2.652c0,0,194.674,92.167,339.227,89.088L1665.465,749.824z"/>
			<path opacity="0.6" fill="#1B877F" d="M1654.714,778.532L131.393,764.095l20.113-228.189c0,0,446.695-41.32,626.536-130.661
				c0,0,398.47-97.27,501.307-2.652c0,0,194.674,92.167,339.228,89.088L1654.714,778.532z"/>
			<path opacity="0.6" fill="#60BA99" d="M-160.947,807.24l1482.369-14.437L1280,589.678c0,0-412.836-66.384-587.843-155.725
				c0,0-324.476-101.444-487.829-2.652c0,0-189.442,92.167-330.109,89.088L-160.947,807.24z"/>
			<path opacity="0.6" fill="#062821" d="M-42.239,583.887c0,0,392.105-10.04,538.72-71.391
				c146.614-61.351,336.396-47.627,462.757-31.933c126.364,15.693,276.735,138.384,360.096,93.185l30.883,216.682"/>
			<path opacity="0.6" fill="#126864" d="M-83.635,826.378l1523.321-14.436L1280,523.649c0,0-214.558-96.65-486.963-70.558
				c0,0-274.838-111.013-501.306-2.652c0,0-194.675,92.167-339.229,89.088L-83.635,826.378z"/>
			<path opacity="0.6" fill="#062821" d="M-83.635,883.794l1523.321-14.436l-20.112-228.19c0,0-446.696-41.32-626.537-130.66
				c0,0-232.908-155.278-501.306-2.652c0,0-194.675,92.167-339.229,89.088L-83.635,883.794z"/>
			<path opacity="0.6" fill="#A6C15A" d="M-1625.375,625.422L0,598.583V342.079c0,0-289.093-12.261-516.557-105.269
				c0,0-503.986-101.265-634.053-2.762c0,0-246.226,95.952-429.058,92.747L-1625.375,625.422z"/>
			<path opacity="0.6" fill="#D2E081" d="M-1609.392,663.7L0,650.896V384.471c0,0-299.108-16.376-522.147-109.384
				c0,0-494.181-101.265-621.717-2.762c0,0-241.436,95.952-420.71,92.747L-1609.392,663.7z"/>
			<path opacity="0.6" fill="#062821" d="M-1270.581,759.393L0,747.352V487.03c0,0-214.068-11.583-393.909-100.924
				c0,0-398.47-97.27-501.306-2.652c0,0-194.676,92.167-339.229,89.088L-1270.581,759.393z"/>
			<path opacity="0.6" fill="#60BA99" d="M0,757.303l-1302.834-12.347l20.113-228.189c0,0,446.695-41.32,626.537-130.661
				c0,0,398.47-97.27,501.307-2.652c0,0,10.325,95.673,154.878,92.594V757.303z"/>
			<path opacity="0.6" fill="#1B877F" d="M0,786.113l-1313.585-12.449l20.112-228.189c0,0,446.695-41.32,626.537-130.661
				c0,0,398.47-97.27,501.307-2.652c0,0,21.077,66.965,165.629,63.886V786.113z"/>
		</g>
	</g>
</g>
<g id="draw" display="none">
</g>
<g id="back" display="none">
</g>
<g id="component" display="none">
</g>
<g id="leaves" display="none">
</g>
<g id="plant" display="none">
</g>
<g id="informations" display="none">
</g>
<g id="Calque_5" display="none">
</g>
<g id="logo" display="none">
</g>
</svg>
