<?xml version="1.0" encoding="utf-8"?>
<!-- Generator: Adobe Illustrator 16.0.0, SVG Export Plug-In . SVG Version: 6.00 Build 0)  -->
<!DOCTYPE svg PUBLIC "-//W3C//DTD SVG 1.1//EN" "http://www.w3.org/Graphics/SVG/1.1/DTD/svg11.dtd">
<svg version="1.1" xmlns="http://www.w3.org/2000/svg" xmlns:xlink="http://www.w3.org/1999/xlink" x="0px" y="0px" width="500px"
	 height="500px" viewBox="0 0 500 500" enable-background="new 0 0 500 500" xml:space="preserve">
<g id="Calque_3">
	<path fill="#CDCD54" d="M485.892,247.688c0,131.389-106.511,237.898-237.898,237.898c-131.389,0-237.899-106.51-237.899-237.898
		S116.605,9.79,247.994,9.79C379.38,9.79,485.892,116.299,485.892,247.688"/>
</g>
<g id="Calque_2">
	<path fill="#705326" d="M291.919,256.427c-19.622,0-35.527,15.906-35.527,35.527s15.906,35.527,35.527,35.527
		c19.621,0,35.527-15.906,35.527-35.527S311.54,256.427,291.919,256.427 M312.126,294.552c-3.617,0.034-7.234,0.015-10.851,0.017
		c-2.087,0-4.174,0-6.77,0c0,0.338-1,0.671-1,1c0,1.429,1,2.778,1,4.129c-0.001,4.188,0.017,8.375-0.02,12.562
		c-0.014,1.647-0.473,3.171-2.464,3.194c-2.154,0.026-2.585-1.508-2.581-3.322c0.019-5.695,0.008-11.392,0.008-17.563
		c-5.233,0-10.073,0-14.914-0.002c-0.952,0-1.905,0.021-2.855-0.012c-1.785-0.062-3.338-0.59-3.243-2.724
		c0.087-1.961,1.565-2.366,3.253-2.361c4.759,0.017,9.518,0.004,14.278,0.002l2.621,1.072l0.856-1.072c0-5.074-0.001-9.896,0-14.716
		c0-1.046,0.017-2.095,0.003-3.141c-0.023-1.719,0.507-3.127,2.455-3.161c1.964-0.033,2.56,1.428,2.575,3.097
		c0.045,4.854,0.023,9.709,0.027,14.563c0.001,1.016,0,2.032,0,3.357c5.189,0,10.019,0,14.849,0.002c0.952,0,1.904,0.01,2.856,0.002
		c1.688-0.016,3.136,0.41,3.191,2.409C315.463,294.063,313.894,294.535,312.126,294.552"/>
	<path fill="#FFFFFF" d="M248.246,291.954c-0.936-19.925,16.876-38.139,37.446-39.771c-5.066-6.075-11.426-11.262-19.026-15.619
		c-18.058,15.782-39.544,15.903-57.771-0.013c-2.571,1.654-5.329,3.188-7.821,5.074c-15.303,11.58-19.516,18.262-19.516,26.262
		c0,7.314-1.799,9.809,8.913,22.066c9.337,10.684,25.154,20.686,44.626,23.486c6.586,0.947,18.749-0.43,20.679-0.974
		C252.502,313.39,248.746,303.513,248.246,291.954"/>
	<path fill="#FFFFFF" stroke="#CECE56" stroke-width="3" stroke-miterlimit="10" d="M238.785,159.901
		c19.914,0.053,34.853,17.882,32.604,36.17c-1.658,13.472-7.039,25.025-17.112,34.119c-9.752,8.802-21.321,8.924-30.935-0.016
		c-12.138-11.286-18.703-25.334-16.935-42.124C208.085,172.111,222.668,159.905,238.785,159.901"/>
	<path fill="#11514F" d="M244.785,165.901c19.914,0.053,34.853,17.882,32.604,36.17c-1.658,13.472-7.039,25.025-17.112,34.119
		c-9.752,8.802-21.321,8.924-30.935-0.016c-12.138-11.286-18.703-25.334-16.935-42.124
		C214.085,178.111,228.668,165.905,244.785,165.901"/>
	<path fill="none" stroke="#FFFFFF" stroke-width="7" stroke-miterlimit="10" stroke-dasharray="5,7" d="M367.236,247.688
		c0,65.856-53.387,119.242-119.243,119.242c-65.856,0-119.243-53.386-119.243-119.242s53.387-119.243,119.243-119.243
		C313.849,128.444,367.236,181.831,367.236,247.688"/>
	<path fill="none" d="M397.125,219.556c15.538,82.363-38.636,161.726-121,177.264c-82.363,15.537-161.727-38.637-177.263-121.001
		c-15.537-82.362,38.637-161.726,121-177.263C302.226,83.02,381.59,137.192,397.125,219.556"/>
	<text transform="matrix(0.5212 -0.8534 0.8534 0.5212 113.1436 177.3193)"><tspan x="0" y="0" fill="#FFFFFF" font-family="'AmaticSC-Bold'" font-size="70.4884">R</tspan><tspan x="18.907" y="-0.066" fill="#FFFFFF" font-family="'AmaticSC-Bold'" font-size="70.4884" rotate="6.939">E</tspan><tspan x="36.747" y="1.758" fill="#FFFFFF" font-family="'AmaticSC-Bold'" font-size="70.4884" rotate="14.894">G</tspan><tspan x="60.387" y="8.211" fill="#FFFFFF" font-family="'AmaticSC-Bold'" font-size="70.4884" rotate="22.634">I</tspan><tspan x="75.827" y="14.433" fill="#FFFFFF" font-family="'AmaticSC-Bold'" font-size="70.4884" rotate="29.617">S</tspan><tspan x="93.308" y="24.375" fill="#FFFFFF" font-family="'AmaticSC-Bold'" font-size="70.4884" rotate="36.653">T</tspan><tspan x="107.073" y="34.479" fill="#FFFFFF" font-family="'AmaticSC-Bold'" font-size="70.4884" rotate="43.303">E</tspan><tspan x="120.325" y="46.814" fill="#FFFFFF" font-family="'AmaticSC-Bold'" font-size="70.4884" rotate="50.171">R</tspan><tspan x="132.501" y="61.612" fill="#FFFFFF" font-family="'AmaticSC-Bold'" font-size="70.4884" rotate="55.959"> </tspan><tspan x="139.512" y="70.411" fill="#FFFFFF" font-family="'AmaticSC-Bold'" font-size="70.4884" rotate="64.192">&amp;</tspan><tspan x="152.985" y="99.725" fill="#FFFFFF" font-family="'AmaticSC-Bold'" font-size="70.4884" rotate="72.439"> </tspan><tspan x="156.829" y="110.621" fill="#FFFFFF" font-family="'AmaticSC-Bold'" font-size="70.4884" rotate="78.851">C</tspan><tspan x="161.102" y="132.331" fill="#FFFFFF" font-family="'AmaticSC-Bold'" font-size="70.4884" rotate="86.536">R</tspan><tspan x="162.31" y="151.173" fill="#FFFFFF" font-family="'AmaticSC-Bold'" font-size="70.4884" rotate="93.469">E</tspan><tspan x="161.501" y="169.137" fill="#FFFFFF" font-family="'AmaticSC-Bold'" font-size="70.4884" rotate="101.154">A</tspan><tspan x="156.944" y="191.748" fill="#FFFFFF" font-family="'AmaticSC-Bold'" font-size="70.4884" rotate="108.675">T</tspan><tspan x="151.588" y="207.954" fill="#FFFFFF" font-family="'AmaticSC-Bold'" font-size="70.4884" rotate="115.35">E</tspan><tspan x="143.629" y="224.506" fill="#FFFFFF" font-family="'AmaticSC-Bold'" font-size="70.4884" rotate="121.059"> </tspan></text>
	<path fill="none" stroke="#FFFFFF" stroke-width="7" stroke-miterlimit="10" d="M486.4,247.688
		c0,131.669-106.738,238.405-238.407,238.405c-131.669,0-238.408-106.736-238.408-238.405C9.585,116.019,116.324,9.28,247.993,9.28
		C379.662,9.28,486.4,116.019,486.4,247.688"/>
	<path fill="#1B877F" d="M250.246,292.954c-0.936-19.925,16.876-38.139,37.446-39.771c-5.066-6.075-11.426-11.262-19.026-15.619
		c-18.058,15.782-39.544,15.903-57.771-0.013c-2.571,1.654-5.329,3.188-7.821,5.074c-15.303,11.58-19.516,18.262-19.516,26.262
		c0,7.314-1.799,9.809,8.913,22.066c9.337,10.684,25.154,20.686,44.626,23.486c6.586,0.947,18.749-0.43,20.679-0.974
		C254.502,314.39,250.746,304.513,250.246,292.954"/>
	<path fill="#1B877F" d="M239.785,163.901c19.914,0.053,34.853,17.882,32.604,36.17c-1.658,13.472-7.039,25.025-17.112,34.119
		c-9.752,8.802-21.321,8.924-30.935-0.016c-12.138-11.286-18.703-25.334-16.935-42.124
		C209.085,176.111,223.668,163.905,239.785,163.901"/>
	<path fill="#FFFFFF" stroke="#CECE56" stroke-width="3" stroke-miterlimit="10" d="M290.919,257.427
		c-19.622,0-35.527,15.906-35.527,35.527s15.906,35.527,35.527,35.527c19.621,0,35.527-15.906,35.527-35.527
		S310.54,257.427,290.919,257.427 M311.126,295.552c-3.617,0.034-7.234,0.015-10.851,0.017c-2.087,0-4.174,0-6.77,0
		c0,1.808,0.001,3.468,0,5.129c-0.001,4.188,0.017,8.375-0.02,12.562c-0.014,1.647-0.473,3.171-2.464,3.194
		c-2.154,0.026-2.585-1.508-2.581-3.322c0.019-5.695,0.008-11.392,0.008-17.563c-5.233,0-10.073,0-14.914-0.002
		c-0.952,0-1.905,0.021-2.855-0.012c-1.785-0.062-3.338-0.59-3.243-2.724c0.087-1.961,1.565-2.366,3.253-2.361
		c4.759,0.017,9.518,0.004,14.278,0.002h3.478c0-5.074-0.001-9.896,0-14.716c0-1.046,0.017-2.095,0.003-3.141
		c-0.023-1.719,0.507-3.127,2.455-3.161c1.964-0.033,2.56,1.428,2.575,3.097c0.045,4.854,0.023,9.709,0.027,14.563
		c0.001,1.016,0,2.032,0,3.357c5.189,0,10.019,0,14.849,0.002c0.952,0,1.904,0.01,2.856,0.002c1.688-0.016,3.136,0.41,3.191,2.409
		C314.463,295.063,312.894,295.535,311.126,295.552"/>
	<path fill="#11514F" d="M250.246,292.954c-0.936-19.925,16.876-38.139,37.446-39.771c-5.066-6.075-11.679-10.348-11.679-10.348
		c-30.122,9.967-29.955,67.134-63.892,63.46c-1.719-0.187,15.77,8.469,34.944,8.968c0,0,8.78-1.253,10.71-1.797
		C254.502,314.39,250.746,304.513,250.246,292.954"/>
	<g>
		<path fill="#D18A35" d="M325.563,285.666c0,0-0.235-0.854-0.677-2.458c-0.121-0.396-0.211-0.857-0.392-1.332
			c-0.184-0.474-0.384-0.99-0.601-1.549c-0.226-0.555-0.429-1.169-0.718-1.792c-0.315-0.612-0.65-1.263-1.004-1.95
			c-1.475-2.7-3.562-5.895-6.743-8.807c-3.122-2.938-7.202-5.722-12.153-7.525c-4.942-1.773-10.697-2.604-16.645-1.909
			c-0.745,0.058-1.478,0.255-2.224,0.376c-0.728,0.157-1.53,0.235-2.208,0.46c-1.491,0.448-3.071,0.808-4.463,1.447
			c-2.904,1.056-5.697,2.739-8.305,4.638c-0.631,0.509-1.266,1.02-1.902,1.533c-0.63,0.52-1.182,1.133-1.78,1.697l-0.884,0.865
			l-0.802,0.946c-0.523,0.643-1.09,1.253-1.583,1.925c-1.994,2.677-3.587,5.672-4.827,8.828c-1.177,3.187-1.854,6.559-2.133,9.969
			c-0.214,3.397,0.158,6.919,0.828,10.16c0.925,3.518,2.091,6.562,3.801,9.558c1.76,2.914,3.852,5.606,6.298,7.91
			c2.489,2.251,5.217,4.186,8.138,5.688c2.953,1.42,6.011,2.555,9.147,3.127c3.119,0.57,6.267,0.881,9.323,0.578
			c1.538-0.029,3.023-0.376,4.505-0.604l0.481-0.079l0.564-0.148l1.124-0.297c0.73-0.211,1.524-0.361,2.189-0.619
			c1.33-0.542,2.684-0.917,3.948-1.608c0.643-0.31,1.28-0.617,1.913-0.921c0.607-0.352,1.194-0.727,1.787-1.084
			c1.214-0.674,2.261-1.55,3.35-2.333c0.558-0.378,1.032-0.844,1.522-1.282c0.49-0.442,0.974-0.88,1.454-1.312
			c3.689-3.641,6.227-7.803,7.853-11.727c0.364-0.998,0.742-1.96,1.066-2.903c0.254-0.965,0.499-1.896,0.734-2.789
			c0.226-0.898,0.295-1.788,0.442-2.625c0.064-0.42,0.126-0.831,0.187-1.231c0.022-0.404,0.044-0.799,0.065-1.183
			c0.038-0.77,0.074-1.498,0.108-2.184c0.004-0.687-0.066-1.328-0.091-1.927c-0.035-0.599-0.067-1.152-0.097-1.659
			c-0.033-0.508-0.141-0.959-0.196-1.369c-0.263-1.635-0.403-2.506-0.403-2.506L325.563,285.666z M325.854,285.593
			c0,0,0.162,0.876,0.465,2.519c0.065,0.412,0.185,0.867,0.229,1.378c0.042,0.513,0.088,1.071,0.137,1.676
			c0.04,0.604,0.125,1.254,0.136,1.948c-0.007,0.696-0.016,1.436-0.024,2.217c-0.117,3.11-0.526,6.95-1.981,11.107
			c-1.425,4.144-3.784,8.644-7.431,12.741c-3.673,4.077-8.555,7.666-14.645,9.89c-0.752,0.306-1.474,0.457-2.219,0.694l-1.115,0.328
			l-0.56,0.165c0.042-0.011-0.135,0.038-0.145,0.037l-0.075,0.014l-0.149,0.026l-0.301,0.054c-1.605,0.267-3.217,0.645-4.89,0.697
			c-3.323,0.35-6.757,0.052-10.165-0.548c-0.844-0.199-1.691-0.4-2.542-0.602c-0.848-0.213-1.664-0.546-2.5-0.816l-1.25-0.43
			l-1.211-0.542c-0.802-0.377-1.629-0.708-2.414-1.129c-3.161-1.658-6.069-3.833-8.709-6.318c-2.595-2.542-4.795-5.492-6.621-8.665
			c-1.759-3.177-3.043-6.837-3.839-10.201l-0.463-2.769c-0.185-0.898-0.226-1.814-0.279-2.728l-0.085-1.368l-0.042-0.684
			l0.023-0.685l0.104-2.734c0.351-3.625,1.131-7.191,2.431-10.545c1.363-3.321,3.1-6.455,5.244-9.242
			c2.205-2.728,4.649-5.223,7.424-7.211c2.788-1.958,5.68-3.646,8.818-4.735c1.544-0.662,3.072-0.977,4.583-1.406
			c0.206-0.053,0.338-0.098,0.604-0.156l0.588-0.095l1.171-0.187c0.78-0.106,1.545-0.287,2.322-0.328
			c6.197-0.558,12.123,0.455,17.113,2.471c4.995,2.042,9.051,4.984,12.145,8.026c3.124,3.044,5.185,6.28,6.665,9.004
			c0.353,0.693,0.688,1.351,1.002,1.969c0.296,0.627,0.506,1.246,0.737,1.806c0.223,0.563,0.429,1.086,0.617,1.563
			c0.186,0.479,0.278,0.935,0.402,1.332c0.452,1.601,0.693,2.454,0.693,2.454L325.854,285.593z"/>
	</g>
	<g>
		<g>
			<path fill="#60BA99" d="M410.571,272.851c-0.833-3.646,9.184-2.751,15.755-0.841c9.99,3.029,16.258,8.083,26.831,10.83
				c-6.886,1.897-19.769,2.002-30.064-0.021C411.945,280.618,410.533,277.383,410.571,272.851"/>
		</g>
		<g>
			<path fill="#D18A35" d="M412.095,253.988c-6.07-6.753,3.549-15.644,11.822-18.697c12.76-4.402,25.411-0.543,38.238-6.146
				c-2.906,11.371-13.426,25.453-24.951,32.287C424.718,268.798,418.772,263.533,412.095,253.988"/>
		</g>
		<g>
			<path fill="#FFFFFF" d="M410.006,251.988c-6.07-6.753,3.549-15.644,11.822-18.697c12.76-4.402,25.411-0.543,38.238-6.146
				c-2.906,11.371-13.426,25.453-24.951,32.287C422.63,266.798,416.684,261.533,410.006,251.988"/>
		</g>
		<g>
			<path fill="#FFFFFF" d="M409.527,269.851c-0.833-3.646,9.184-2.751,15.755-0.841c9.99,3.029,16.258,8.083,26.832,10.83
				c-6.886,1.897-19.769,2.002-30.065-0.021C410.901,277.618,409.489,274.383,409.527,269.851"/>
		</g>
	</g>
	<g>
		<g>
			<path fill="#60BA99" d="M89.911,272.851c0.833-3.646-9.184-2.751-15.755-0.841c-9.99,3.029-16.258,8.083-26.831,10.83
				c6.886,1.897,19.769,2.002,30.064-0.021C88.537,280.618,89.948,277.383,89.911,272.851"/>
		</g>
		<g>
			<path fill="#D18A35" d="M88.387,253.988c6.07-6.753-3.549-15.644-11.822-18.697c-12.76-4.402-25.411-0.543-38.238-6.146
				c2.906,11.371,13.426,25.453,24.951,32.287C75.763,268.798,81.709,263.533,88.387,253.988"/>
		</g>
		<g>
			<path fill="#FFFFFF" d="M90.475,251.988c6.071-6.753-3.549-15.644-11.822-18.697c-12.76-4.402-25.41-0.543-38.237-6.146
				c2.906,11.371,13.426,25.453,24.951,32.287C77.851,266.798,83.797,261.533,90.475,251.988"/>
		</g>
		<g>
			<path fill="#FFFFFF" d="M90.955,269.851c0.833-3.646-9.184-2.751-15.755-0.841c-9.99,3.029-16.258,8.083-26.832,10.83
				c6.886,1.897,19.769,2.002,30.064-0.021C89.581,277.618,90.992,274.383,90.955,269.851"/>
		</g>
	</g>
	<path fill="none" d="M50.712,184.095C15.586,293.05,75.437,409.848,184.392,444.971c108.955,35.123,225.754-24.727,260.88-133.683
		c35.124-108.955-24.73-225.752-133.687-260.877C202.634,15.289,85.834,75.14,50.712,184.095"/>
	<text transform="matrix(0.7969 0.6041 -0.6041 0.7969 115.2876 407.2666)"><tspan x="0" y="0" fill="#FFFFFF" font-family="'AmaticSC-Bold'" font-size="70.4884">Y</tspan><tspan x="22.697" y="-0.053" fill="#FFFFFF" font-family="'AmaticSC-Bold'" font-size="70.4884" rotate="-7.196">O</tspan><tspan x="52.328" y="-4.05" fill="#FFFFFF" font-family="'AmaticSC-Bold'" font-size="70.4884" rotate="-15.892">U</tspan><tspan x="83.524" y="-13.516" fill="#FFFFFF" font-family="'AmaticSC-Bold'" font-size="70.4884" rotate="-23.694">R</tspan><tspan x="104.818" y="-23.211" fill="#FFFFFF" font-family="'AmaticSC-Bold'" font-size="70.4884" rotate="-29.122"> </tspan><tspan x="118.759" y="-30.94" fill="#FFFFFF" font-family="'AmaticSC-Bold'" font-size="70.4884" rotate="-34.579">P</tspan><tspan x="138.426" y="-44.76" fill="#FFFFFF" font-family="'AmaticSC-Bold'" font-size="70.4884" rotate="-41.28">R</tspan><tspan x="156.778" y="-61.031" fill="#FFFFFF" font-family="'AmaticSC-Bold'" font-size="70.4884" rotate="-48.725">O</tspan><tspan x="175.566" y="-83.114" fill="#FFFFFF" font-family="'AmaticSC-Bold'" font-size="70.4884" rotate="-55.853">F</tspan><tspan x="187.755" y="-101.42" fill="#FFFFFF" font-family="'AmaticSC-Bold'" font-size="70.4884" rotate="-61.82">I</tspan><tspan x="197.684" y="-120.326" fill="#FFFFFF" font-family="'AmaticSC-Bold'" font-size="70.4884" rotate="-67.617">L</tspan><tspan x="205.554" y="-139.761" fill="#FFFFFF" font-family="'AmaticSC-Bold'" font-size="70.4884" rotate="-73.654">E</tspan></text>
</g>
<g id="Calque_1">
</g>
</svg>
