<?xml version="1.0" encoding="utf-8"?>

<!-- Generator: Adobe Illustrator 16.0.0, SVG Export Plug-In . SVG Version: 6.00 Build 0)  -->
<!DOCTYPE svg PUBLIC "-//W3C//DTD SVG 1.1//EN" "http://www.w3.org/Graphics/SVG/1.1/DTD/svg11.dtd">
<svg version="1.1" xmlns="http://www.w3.org/2000/svg" xmlns:xlink="http://www.w3.org/1999/xlink" x="0px" y="0px" width="500px"
	 height="500px" viewBox="0 0 500 500" enable-background="new 0 0 500 500" xml:space="preserve">
<g id="Calque_3">
	<path fill="#CDCD54" d="M485.892,247.688c0,131.389-106.511,237.898-237.898,237.898c-131.389,0-237.899-106.51-237.899-237.898
		S116.605,9.79,247.994,9.79C379.38,9.79,485.892,116.299,485.892,247.688"/>
</g>
<g id="Calque_2">
	<path fill="none" stroke="#FFFFFF" stroke-width="7" stroke-miterlimit="10" stroke-dasharray="5,7" d="M367.236,247.688
		c0,65.856-53.387,119.242-119.243,119.242c-65.856,0-119.243-53.386-119.243-119.242s53.387-119.243,119.243-119.243
		C313.849,128.444,367.236,181.831,367.236,247.688"/>
	<path fill="none" stroke="#FFFFFF" stroke-width="4" stroke-miterlimit="10" d="M201.713,290.824
		c6.388-5.947,18.503-5.066,39.23-3.965c20.728,1.102,66.282-20.706,66.282-20.706s12.115,1.542,7.269,10.354
		c-4.846,8.811-46.038,37.006-65.642,40.971s-82.604,1.439-82.604,1.439v-65.999c0,0,17.616-2.428,24.561,4.927
		c6.945,7.355,18.704,6.917,33.152,6.987c17.501,0.088,16.29,12.492,16.29,12.492s-0.632,6.677-4.389,9.265"/>
	<path fill="none" d="M397.125,219.556c15.538,82.363-38.636,161.726-121,177.264c-82.363,15.537-161.727-38.637-177.263-121.001
		c-15.537-82.362,38.637-161.726,121-177.263C302.226,83.02,381.59,137.192,397.125,219.556"/>
	<text transform="matrix(0.5578 -0.83 0.83 0.5578 113.1235 176.2988)"><tspan x="0" y="0" fill="#FFFFFF" font-family="'AmaticSC-Bold'" font-size="70.4884">M</tspan><tspan x="29.847" y="0.131" fill="#FFFFFF" font-family="'AmaticSC-Bold'" font-size="70.4884" rotate="9.826">A</tspan><tspan x="52.387" y="3.876" fill="#FFFFFF" font-family="'AmaticSC-Bold'" font-size="70.4884" rotate="18.512">K</tspan><tspan x="74.577" y="11.383" fill="#FFFFFF" font-family="'AmaticSC-Bold'" font-size="70.4884" rotate="26.355">E</tspan><tspan x="90.998" y="19.638" fill="#FFFFFF" font-family="'AmaticSC-Bold'" font-size="70.4884" rotate="32.071"> </tspan><tspan x="100.976" y="25.398" fill="#FFFFFF" font-family="'AmaticSC-Bold'" font-size="70.4884" rotate="38.646">A</tspan><tspan x="118.9" y="40.144" fill="#FFFFFF" font-family="'AmaticSC-Bold'" font-size="70.4884" rotate="44.487"> </tspan><tspan x="127.436" y="47.908" fill="#FFFFFF" font-family="'AmaticSC-Bold'" font-size="70.4884" rotate="51.983">D</tspan><tspan x="142.786" y="67.402" fill="#FFFFFF" font-family="'AmaticSC-Bold'" font-size="70.4884" rotate="61.048">O</tspan><tspan x="154.233" y="87.41" fill="#FFFFFF" font-family="'AmaticSC-Bold'" font-size="70.4884" rotate="70.542">N</tspan><tspan x="163.225" y="112.921" fill="#FFFFFF" font-family="'AmaticSC-Bold'" font-size="70.4884" rotate="79.92">A</tspan><tspan x="167.169" y="135.673" fill="#FFFFFF" font-family="'AmaticSC-Bold'" font-size="70.4884" rotate="87.427">T</tspan><tspan x="168.001" y="152.751" fill="#FFFFFF" font-family="'AmaticSC-Bold'" font-size="70.4884" rotate="93.768">I</tspan><tspan x="167.245" y="169.276" fill="#FFFFFF" font-family="'AmaticSC-Bold'" font-size="70.4884" rotate="101.266">O</tspan><tspan x="163.062" y="191.963" fill="#FFFFFF" font-family="'AmaticSC-Bold'" font-size="70.4884" rotate="110.716">N</tspan></text>
	<path fill="none" d="M333.13,58.706C228.756,11.685,106.028,58.178,59.009,162.553C11.99,266.927,58.482,389.656,162.856,436.679
		c104.375,47.021,227.102,0.522,274.124-103.853C483.998,228.454,437.505,105.725,333.13,58.706"/>
	<text transform="matrix(0.7457 0.6663 -0.6663 0.7457 102.0049 395.2891)"><tspan x="0" y="0" fill="#FFFFFF" font-family="'AmaticSC-Bold'" font-size="77.7291">1</tspan><tspan x="24.495" y="-0.359" fill="#FFFFFF" font-family="'AmaticSC-Bold'" font-size="77.7291" rotate="-5.889"> </tspan><tspan x="42.147" y="-2.203" fill="#FFFFFF" font-family="'AmaticSC-Bold'" font-size="77.7291" rotate="-11.649">T</tspan><tspan x="66.268" y="-7.384" fill="#FFFFFF" font-family="'AmaticSC-Bold'" font-size="77.7291" rotate="-18.662">R</tspan><tspan x="91.667" y="-16.283" fill="#FFFFFF" font-family="'AmaticSC-Bold'" font-size="77.7291" rotate="-25.929">E</tspan><tspan x="114.946" y="-27.91" fill="#FFFFFF" font-family="'AmaticSC-Bold'" font-size="77.7291" rotate="-33.155">E</tspan><tspan x="135.917" y="-42.075" fill="#FFFFFF" font-family="'AmaticSC-Bold'" font-size="77.7291" rotate="-39.176"> </tspan><tspan x="150.95" y="-53.9" fill="#FFFFFF" font-family="'AmaticSC-Bold'" font-size="77.7291" rotate="-47.142">=</tspan><tspan x="176.282" y="-82.675" fill="#FFFFFF" font-family="'AmaticSC-Bold'" font-size="77.7291" rotate="-55.065"> </tspan><tspan x="186.459" y="-97.264" fill="#FFFFFF" font-family="'AmaticSC-Bold'" font-size="77.7291" rotate="-60.87">1</tspan><tspan x="198.75" y="-119.676" fill="#FFFFFF" font-family="'AmaticSC-Bold'" font-size="77.7291" rotate="-68.441">0</tspan><tspan x="209.601" y="-147.958" fill="#FFFFFF" font-family="'AmaticSC-Bold'" font-size="77.7291" rotate="-77.159">K</tspan><tspan x="216.338" y="-180.046" fill="#FFFFFF" font-family="'AmaticSC-Bold'" font-size="77.7291" rotate="-85.53">R</tspan></text>
	<g>
		<path fill="#CDCD54" d="M357.414,249.537c0,60.982-49.433,110.415-110.411,110.415c-60.982,0-110.417-49.433-110.417-110.415
			c0-60.978,49.435-110.412,110.417-110.412C307.981,139.125,357.414,188.56,357.414,249.537"/>
		<path fill="#D18A35" d="M208.468,287.456c5.317-4.952,15.406-4.217,32.663-3.3c17.261,0.917,55.19-17.242,55.19-17.242
			s10.087,1.284,6.05,8.621c-4.035,7.337-38.332,30.813-54.657,34.113c-13.636,2.759-51.349,9.372-64.912,1.335
			c-62.846-37.24-24.866-103.376-24.866-103.376l0,0c0,0,3.835,43.93,24.854,47.995c4.675,0.904,12.696,0.264,16.598,4.395
			c5.781,6.124,15.57,5.757,27.603,5.818c14.57,0.072,13.562,10.398,13.562,10.398s-0.526,5.559-3.654,7.714"/>
		<path fill="#FFFFFF" d="M254.668,219.683c0,0-14.669-3.207-19.649-11.029c-4.979-7.825-6.876-24.185-6.876-24.185
			s21.516,7.054,28.541,14.077C263.709,205.57,254.668,219.683,254.668,219.683"/>
		<path fill="#60BA99" d="M310.65,183.078c0,0-76.115-9.354-55.023,38.514C255.627,221.592,288.457,266.16,310.65,183.078"/>
		<path fill="#705326" d="M194.474,254.574c-1.393-4.623,3.942-14.665,17.148-8.886c0,0,7.153-11.053,20.039-4.358
			c0,0,11.92-11.738,15.865,3.12c0,0,12.93-2.176,20.081,10.124c0,0,10.547-0.862,12.932,10.462c0,0,7.112,3.147,7.381,6.006
			c0.604,6.391-56.926,25.355-56.564,21.644c0,0-13.255-4.609-26.244-15.407C196.837,270.403,196.18,260.245,194.474,254.574"/>
		<path fill="#D18A35" d="M254.668,223.683c0,0-14.669-3.207-19.649-11.029c-4.979-7.825-6.876-24.185-6.876-24.185
			s21.516,7.054,28.541,14.077C263.709,209.57,254.668,223.683,254.668,223.683"/>
		<path fill="#FFFFFF" d="M311.65,180.078c0,0-76.115-9.354-55.023,38.514C256.627,218.592,289.457,263.16,311.65,180.078"/>
		<path fill="#11514F" d="M312.852,186.745c0,0-76.115-9.354-55.023,38.516C257.829,225.261,290.658,269.831,312.852,186.745"/>
		<path fill="#CDCD54" d="M190.071,256.04c-1.393-4.623,3.942-14.665,17.149-8.886c0,0,7.153-11.052,20.037-4.355
			c0,0,11.922-11.739,15.866,3.118c0,0,12.93-2.175,20.083,10.123c0,0,10.547-0.862,12.93,10.464c0,0,7.112,3.149,7.383,6.008
			c0.602,6.387-56.928,25.354-56.564,21.641c0,0-13.257-4.607-26.246-15.404C192.435,271.87,191.777,261.715,190.071,256.04z"/>
		<path fill="#1B877F" d="M257.337,222.217c0,0-14.671-3.207-19.65-11.031c-4.98-7.823-6.878-24.184-6.878-24.184
			s21.517,7.053,28.542,14.077C266.378,208.104,257.337,222.217,257.337,222.217"/>
		<path fill="none" stroke="#11514F" stroke-width="3" stroke-linecap="round" stroke-miterlimit="10" d="M243.808,203.654
			c6.882,2.034,13.263,14.255,15.067,17.121"/>
		<path fill="#60BA99" d="M310.65,183.078c0,0-76.115-9.354-55.023,38.514C255.627,221.592,288.457,266.16,310.65,183.078"/>
		<path fill="none" stroke="#11514F" stroke-width="3" stroke-linecap="round" stroke-miterlimit="10" d="M239.488,253.576
			c0,0,1.283-24.646,35.398-43.721"/>
		<path fill="#D18A35" d="M190.071,256.04c-1.393-4.623,3.942-14.665,17.149-8.886c0,0,7.153-11.052,20.037-4.355
			c0,0,11.922-11.739,15.866,3.118c0,0,12.93-2.175,20.083,10.123c0,0,10.547-0.862,12.93,10.464c0,0,7.112,3.149,7.383,6.008
			c0.602,6.387-56.928,25.354-56.564,21.641c0,0-13.257-4.607-26.246-15.404C192.435,271.87,191.777,261.715,190.071,256.04"/>
		<path fill="#FFFFFF" stroke="#D18A35" stroke-width="2" stroke-miterlimit="10" d="M208.468,285.456
			c5.317-4.952,15.406-4.217,32.663-3.3c17.261,0.917,55.19-17.242,55.19-17.242s10.087,1.284,6.05,8.621
			c-4.035,7.337-38.332,30.813-54.657,34.113c-13.636,2.759-51.349,9.372-64.912,1.335c-62.846-37.24-24.866-103.376-24.866-103.376
			l0,0c0,0,3.835,43.93,24.854,47.995c4.675,0.904,12.696,0.264,16.598,4.395c5.781,6.124,15.57,5.757,27.603,5.818
			c14.57,0.072,13.562,10.398,13.562,10.398s-0.526,5.559-3.654,7.714"/>
	</g>
	<g>
		<g>
			<path fill="#60BA99" d="M410.571,272.851c-0.833-3.646,9.184-2.751,15.755-0.841c9.99,3.029,16.258,8.083,26.831,10.83
				c-6.886,1.897-19.769,2.002-30.064-0.021C411.945,280.618,410.533,277.383,410.571,272.851"/>
		</g>
		<g>
			<path fill="#11514F" d="M412.095,253.988c-6.07-6.753,3.549-15.644,11.822-18.697c12.76-4.402,25.411-0.543,38.238-6.146
				c-2.906,11.371-13.426,25.453-24.951,32.287C424.718,268.798,418.772,263.533,412.095,253.988"/>
		</g>
		<g>
			<path fill="#FFFFFF" d="M410.006,251.988c-6.07-6.753,3.549-15.644,11.822-18.697c12.76-4.402,25.411-0.543,38.238-6.146
				c-2.906,11.371-13.426,25.453-24.951,32.287C422.63,266.798,416.684,261.533,410.006,251.988"/>
		</g>
		<g>
			<path fill="#FFFFFF" d="M409.527,269.851c-0.833-3.646,9.184-2.751,15.755-0.841c9.99,3.029,16.258,8.083,26.832,10.83
				c-6.886,1.897-19.769,2.002-30.065-0.021C410.901,277.618,409.489,274.383,409.527,269.851"/>
		</g>
	</g>
	<path fill="none" stroke="#FFFFFF" stroke-width="7" stroke-miterlimit="10" d="M486.4,247.688
		c0,131.669-106.738,238.405-238.407,238.405c-131.669,0-238.408-106.736-238.408-238.405C9.585,116.019,116.324,9.28,247.993,9.28
		C379.662,9.28,486.4,116.019,486.4,247.688"/>
	<g>
		<g>
			<path fill="#60BA99" d="M89.911,272.851c0.833-3.646-9.184-2.751-15.755-0.841c-9.99,3.029-16.258,8.083-26.831,10.83
				c6.886,1.897,19.769,2.002,30.064-0.021C88.537,280.618,89.948,277.383,89.911,272.851"/>
		</g>
		<g>
			<path fill="#11514F" d="M88.387,253.988c6.07-6.753-3.549-15.644-11.822-18.697c-12.76-4.402-25.411-0.543-38.238-6.146
				c2.906,11.371,13.426,25.453,24.951,32.287C75.763,268.798,81.709,263.533,88.387,253.988"/>
		</g>
		<g>
			<path fill="#FFFFFF" d="M90.475,251.988c6.071-6.753-3.549-15.644-11.822-18.697c-12.76-4.402-25.41-0.543-38.237-6.146
				c2.906,11.371,13.426,25.453,24.951,32.287C77.851,266.798,83.797,261.533,90.475,251.988"/>
		</g>
		<g>
			<path fill="#FFFFFF" d="M90.955,269.851c0.833-3.646-9.184-2.751-15.755-0.841c-9.99,3.029-16.258,8.083-26.832,10.83
				c6.886,1.897,19.769,2.002,30.064-0.021C89.581,277.618,90.992,274.383,90.955,269.851"/>
		</g>
	</g>
</g>
<g id="Calque_1">
</g>
</svg>
